<svg width="24" height="24" viewBox="0 0 24 24" fill="none" xmlns="http://www.w3.org/2000/svg">
<path d="M15.0001 0L14.3801 1.37L13.0001 2L14.3801 2.63L15.0001 4L15.6301 2.63L17.0001 2L15.6301 1.37L15.0001 0ZM10.5001 2L9.41007 4.41L7.00007 5.5L9.41007 6.59L10.5001 9L11.6001 6.59L14.0001 5.5L11.6001 4.41L10.5001 2ZM18.8901 5.14C17.5601 5.06 16.0401 5.65 14.8401 6.84C13.2501 8.43 12.7501 10.58 13.4601 12.11L3.70007 21.87L5.11007 23.28L12.0001 16.41L18.8801 23.29L20.2901 21.88L13.4101 15L14.8801 13.53C16.4101 14.24 18.5601 13.74 20.1501 12.15C22.0601 10.24 22.4301 7.5 20.9601 6.03C20.4101 5.5 19.6801 5.19 18.8901 5.14ZM3.91007 5.5C3.16092 6.25131 2.74023 7.26901 2.74023 8.33C2.74023 9.39099 3.16092 10.4087 3.91007 11.16L8.10007 15.34L10.9301 12.5L3.91007 5.5Z" fill="#0FB8AE"/>
</svg>
