<svg width="24" height="15" viewBox="0 0 24 15" fill="none" xmlns="http://www.w3.org/2000/svg">
<path d="M2 9.13043C2.27778 9.13043 2.47222 9.02174 2.58333 8.80435C2.69444 8.58696 2.69444 8.36957 2.58333 8.15217C2.47222 7.93478 2.27778 7.82609 2 7.82609C1.72222 7.82609 1.52778 7.93478 1.41667 8.15217C1.30556 8.36957 1.30556 8.58696 1.41667 8.80435C1.52778 9.02174 1.72222 9.13043 2 9.13043ZM17.3438 8.5394C17.2743 8.45109 17.1406 8.28125 16.9427 8.02989C16.7448 7.77853 16.6007 7.59511 16.5104 7.47962C16.4201 7.36413 16.2882 7.19769 16.1146 6.9803C15.941 6.76291 15.7934 6.58288 15.6719 6.44022C15.5503 6.29755 15.4097 6.13791 15.25 5.96128C15.0903 5.78465 14.934 5.61821 14.7812 5.46196L13.4792 6.88859C12.9028 7.52717 12.1788 7.83967 11.3073 7.82609C10.4358 7.8125 9.72222 7.47962 9.16667 6.82745C8.77083 6.3587 8.57465 5.82201 8.57812 5.21739C8.5816 4.61277 8.78472 4.07948 9.1875 3.61753L11.0312 1.51834C10.8785 1.44361 10.7014 1.38757 10.5 1.3502C10.2986 1.31284 10.1337 1.29246 10.0052 1.28906C9.87674 1.28567 9.68056 1.28736 9.41667 1.29416C9.15278 1.30095 8.98264 1.30435 8.90625 1.30435C8.26736 1.30435 7.71875 1.52853 7.26042 1.9769L5.61458 3.58696H4V9.13043C4.03472 9.13043 4.10764 9.12874 4.21875 9.12534C4.32986 9.12194 4.40625 9.12194 4.44792 9.12534C4.48958 9.12874 4.55729 9.13553 4.65104 9.14572C4.74479 9.15591 4.81597 9.1712 4.86458 9.19158C4.91319 9.21196 4.97396 9.24083 5.04688 9.27819C5.11979 9.31556 5.18403 9.36141 5.23958 9.41576L8.33333 12.3913C9.13194 13.1454 9.92014 13.5224 10.6979 13.5224C11.2396 13.5224 11.6736 13.3628 12 13.0435C12.3958 13.1793 12.7865 13.1522 13.1719 12.962C13.5573 12.7717 13.809 12.483 13.9271 12.0958C14.441 12.1365 14.8819 11.9871 15.25 11.6474C15.3889 11.5251 15.5139 11.3706 15.625 11.1838C15.7361 10.9969 15.7847 10.8254 15.7708 10.6692C15.8403 10.7371 15.9896 10.7711 16.2188 10.7711C16.5174 10.7711 16.7847 10.6997 17.0208 10.5571C17.2569 10.4144 17.4288 10.2344 17.5365 10.017C17.6441 9.79959 17.6858 9.55672 17.6615 9.28838C17.6372 9.02004 17.5312 8.77038 17.3438 8.5394ZM19 9.13043H20V3.91304H19.0312L17.3958 2.0788C16.9375 1.5625 16.3507 1.30435 15.6354 1.30435H13.8958C13.2778 1.30435 12.7708 1.53193 12.375 1.98709L10.1979 4.46332C10.0035 4.6875 9.90625 4.94226 9.90625 5.22758C9.90625 5.51291 10 5.76766 10.1875 5.99185C10.4861 6.33832 10.8681 6.51495 11.3333 6.52174C11.7986 6.52853 12.184 6.36209 12.4896 6.02242L14.5 3.80095C14.6736 3.6447 14.8594 3.57167 15.0573 3.58186C15.2552 3.59205 15.4184 3.68376 15.5469 3.857C15.6753 4.03023 15.7049 4.22215 15.6354 4.43274C15.7465 4.56182 15.941 4.77582 16.2188 5.07473C16.4965 5.37364 16.7049 5.60462 16.8438 5.76766C17.0451 6.01223 17.3316 6.37058 17.7031 6.84273C18.0747 7.31488 18.2986 7.6019 18.375 7.7038C18.7361 8.15217 18.9444 8.62772 19 9.13043ZM22 9.13043C22.2778 9.13043 22.4722 9.02174 22.5833 8.80435C22.6944 8.58696 22.6944 8.36957 22.5833 8.15217C22.4722 7.93478 22.2778 7.82609 22 7.82609C21.7222 7.82609 21.5278 7.93478 21.4167 8.15217C21.3056 8.36957 21.3056 8.58696 21.4167 8.80435C21.5278 9.02174 21.7222 9.13043 22 9.13043ZM24 3.26087V9.78261C24 9.95924 23.934 10.1121 23.8021 10.2412C23.6701 10.3702 23.5139 10.4348 23.3333 10.4348H18.8125C18.625 10.8764 18.3403 11.2381 17.9583 11.52C17.5764 11.802 17.1424 11.9769 16.6562 12.0448C16.4271 12.3709 16.1476 12.6478 15.8177 12.8753C15.4878 13.1029 15.1319 13.2575 14.75 13.339C14.4583 13.699 14.0955 13.9759 13.6615 14.1695C13.2274 14.3631 12.7812 14.4463 12.3229 14.4192C11.9062 14.6501 11.4688 14.7843 11.0104 14.8217C10.5521 14.859 10.1094 14.8115 9.68229 14.679C9.25521 14.5465 8.84896 14.3648 8.46354 14.1338C8.07812 13.9029 7.71875 13.6277 7.38542 13.3084L4.39583 10.4348H0.666667C0.486111 10.4348 0.329861 10.3702 0.197917 10.2412C0.0659722 10.1121 0 9.95924 0 9.78261V2.93478C0 2.75815 0.0659722 2.6053 0.197917 2.47622C0.329861 2.34715 0.486111 2.28261 0.666667 2.28261H5.05208C5.14931 2.1875 5.3125 2.02446 5.54167 1.79348C5.77083 1.5625 5.93576 1.39946 6.03646 1.30435C6.13715 1.20924 6.28993 1.07337 6.49479 0.896739C6.69965 0.720109 6.875 0.592731 7.02083 0.514606C7.16667 0.436481 7.34375 0.349864 7.55208 0.254755C7.76042 0.159647 7.97569 0.0934103 8.19792 0.0560462C8.42014 0.0186821 8.65625 0 8.90625 0H10.125C10.8125 0 11.441 0.190217 12.0104 0.570652C12.5799 0.190217 13.2083 0 13.8958 0H15.6354C15.8785 0 16.1111 0.0203804 16.3333 0.0611413C16.5556 0.101902 16.7517 0.151155 16.9219 0.208899C17.092 0.266644 17.2708 0.356658 17.4583 0.47894C17.6458 0.601223 17.8003 0.706522 17.9219 0.794837C18.0434 0.883152 18.1927 1.01732 18.3698 1.19735C18.5469 1.37738 18.6823 1.52004 18.776 1.62534C18.8698 1.73064 19.0122 1.89368 19.2031 2.11447C19.3941 2.33526 19.5382 2.5 19.6354 2.6087H23.3333C23.5139 2.6087 23.6701 2.67323 23.8021 2.80231C23.934 2.93139 24 3.08424 24 3.26087Z" fill="#0FB8AE"/>
</svg>
