<svg width="18" height="20" viewBox="0 0 18 20" fill="none" xmlns="http://www.w3.org/2000/svg">
<path d="M5 0C4.11152 1.87232e-08 3.25944 0.352946 2.63119 0.981192C2.00295 1.60944 1.65 2.46152 1.65 3.35C1.65 4.23848 2.00295 5.09056 2.63119 5.71881C3.25944 6.34705 4.11152 6.7 5 6.7H6.53C6.92 6.7 7.29 6.8 7.61 7H9.63C9.05 5.95 7.86 5.25 6.53 5.25H5C4 5.25 3.15 4.27 3.15 3.25C3.15 2.23 4 1.5 5 1.5V0ZM9.85 0.5C9.85 1.5 9 2.35 8 2.35V3.85C9.92 3.85 11.5 5.2 11.89 7H13.42C13.279 6.11642 12.926 5.28014 12.3914 4.56265C11.8568 3.84517 11.1563 3.26783 10.35 2.88C10.97 2.27 11.35 1.43 11.35 0.5H9.85ZM0 8.5V10.5H2V17.5C2 18.0304 2.21071 18.5391 2.58579 18.9142C2.96086 19.2893 3.46957 19.5 4 19.5H14C15.11 19.5 16 18.61 16 17.5V10.5H18V8.5H0ZM4 10.5H14V17.5H4V10.5Z" fill="#0FB8AE"/>
</svg>
