<svg width="24" height="24" viewBox="0 0 24 24" fill="none" xmlns="http://www.w3.org/2000/svg">
<path d="M12 21.6934C13.1046 21.6934 14 20.7979 14 19.6934C14 18.5888 13.1046 17.6934 12 17.6934C10.8954 17.6934 10 18.5888 10 19.6934C10 20.7979 10.8954 21.6934 12 21.6934Z" fill="#0FB8AE"/>
<path d="M21.8398 6.25334C18.8848 4.40403 15.4691 3.42334 11.9831 3.42334C8.49717 3.42334 5.0815 4.40403 2.12648 6.25334C2.01172 6.32343 1.91217 6.4158 1.8337 6.525C1.75523 6.6342 1.69944 6.75802 1.66961 6.88914C1.63978 7.02026 1.63653 7.15602 1.66003 7.28842C1.68354 7.42082 1.73334 7.54717 1.80648 7.66001L1.87981 7.77334C2.02042 7.98559 2.23715 8.13574 2.48527 8.19281C2.73339 8.24988 2.99394 8.2095 3.21315 8.08001C5.83545 6.4324 8.86953 5.55834 11.9665 5.55834C15.0634 5.55834 18.0975 6.4324 20.7198 8.08001C20.939 8.2095 21.1996 8.24988 21.4477 8.19281C21.6958 8.13574 21.9125 7.98559 22.0531 7.77334L22.1265 7.66001C22.2011 7.54918 22.253 7.4246 22.279 7.29353C22.305 7.16246 22.3046 7.02753 22.278 6.89659C22.2513 6.76566 22.1988 6.64135 22.1236 6.53091C22.0483 6.42047 21.9519 6.32611 21.8398 6.25334Z" fill="#0FB8AE"/>
<path d="M19.2134 10.2934C17.0411 8.94652 14.536 8.23291 11.98 8.23291C9.42412 8.23291 6.91896 8.94652 4.74671 10.2934C4.63395 10.3645 4.53646 10.4574 4.45988 10.5666C4.38331 10.6757 4.32919 10.799 4.30066 10.9293C4.27213 11.0595 4.26976 11.1941 4.29368 11.3253C4.31761 11.4565 4.36736 11.5816 4.44004 11.6934L4.51337 11.8067C4.65398 12.019 4.87071 12.1691 5.11883 12.2262C5.36694 12.2832 5.6275 12.2429 5.84671 12.1134C7.68406 10.9723 9.80385 10.3676 11.9667 10.3676C14.1296 10.3676 16.2494 10.9723 18.0867 12.1134C18.3059 12.2429 18.5665 12.2832 18.8146 12.2262C19.0627 12.1691 19.2794 12.019 19.42 11.8067L19.4934 11.6934C19.5673 11.5832 19.6187 11.4595 19.6446 11.3293C19.6706 11.1992 19.6705 11.0653 19.6445 10.9351C19.6185 10.805 19.567 10.6814 19.493 10.5712C19.419 10.4611 19.324 10.3667 19.2134 10.2934Z" fill="#0FB8AE"/>
<path d="M16.5865 14.3266C15.1955 13.4902 13.603 13.0483 11.9799 13.0483C10.3567 13.0483 8.76424 13.4902 7.3732 14.3266C7.26066 14.3971 7.16331 14.4894 7.08681 14.598C7.01032 14.7065 6.95622 14.8293 6.92767 14.959C6.89912 15.0887 6.8967 15.2228 6.92054 15.3534C6.94438 15.4841 6.99401 15.6087 7.06653 15.7199L7.13319 15.8266C7.27989 16.0434 7.5048 16.1951 7.76081 16.2497C8.01682 16.3044 8.28405 16.2579 8.50653 16.1199C9.55915 15.5003 10.7584 15.1735 11.9799 15.1735C13.2013 15.1735 14.4006 15.5003 15.4532 16.1199C15.6765 16.2573 15.9443 16.3027 16.2003 16.2468C16.4564 16.1908 16.6809 16.0379 16.8265 15.8199L16.8932 15.7133C16.9656 15.6025 17.0151 15.4784 17.0388 15.3483C17.0626 15.2182 17.0601 15.0846 17.0315 14.9554C17.003 14.8263 16.9489 14.7041 16.8725 14.5961C16.7961 14.4881 16.6988 14.3965 16.5865 14.3266Z" fill="#0FB8AE"/>
</svg>
