<svg width="271" height="31" viewBox="0 0 271 31" fill="none" xmlns="http://www.w3.org/2000/svg">
<path d="M45.152 25C44.952 25 44.772 24.93 44.612 24.79C44.472 24.63 44.402 24.45 44.402 24.25V4.75C44.402 4.53 44.472 4.35 44.612 4.21C44.772 4.07 44.952 4 45.152 4H48.392C48.872 4 49.222 4.22 49.442 4.66L54.722 14.11L60.002 4.66C60.222 4.22 60.572 4 61.052 4H64.262C64.482 4 64.662 4.07 64.802 4.21C64.962 4.35 65.042 4.53 65.042 4.75V24.25C65.042 24.47 64.962 24.65 64.802 24.79C64.662 24.93 64.482 25 64.262 25H60.692C60.472 25 60.282 24.93 60.122 24.79C59.982 24.65 59.912 24.47 59.912 24.25V13L56.552 19.27C56.292 19.73 55.942 19.96 55.502 19.96H53.942C53.682 19.96 53.472 19.9 53.312 19.78C53.152 19.66 53.012 19.49 52.892 19.27L49.502 13V24.25C49.502 24.45 49.432 24.63 49.292 24.79C49.152 24.93 48.972 25 48.752 25H45.152ZM74.6458 25C74.4458 25 74.2658 24.93 74.1058 24.79C73.9658 24.63 73.8958 24.45 73.8958 24.25V17.8L66.9358 4.96C66.8758 4.78 66.8458 4.67 66.8458 4.63C66.8458 4.47 66.9058 4.33 67.0258 4.21C67.1658 4.07 67.3258 4 67.5058 4H71.2558C71.6558 4 72.0058 4.21 72.3058 4.63L76.5958 12.37L80.9158 4.63C81.1558 4.21 81.5058 4 81.9658 4H85.7158C85.8958 4 86.0458 4.07 86.1658 4.21C86.2858 4.33 86.3458 4.47 86.3458 4.63C86.3458 4.73 86.3258 4.84 86.2858 4.96L79.3258 17.8V24.25C79.3258 24.47 79.2458 24.65 79.0858 24.79C78.9458 24.93 78.7658 25 78.5458 25H74.6458ZM95.8089 25.3C92.9489 25.3 90.7089 24.61 89.0889 23.23C87.4889 21.83 86.6389 19.81 86.5389 17.17C86.5189 16.63 86.5089 15.75 86.5089 14.53C86.5089 13.29 86.5189 12.39 86.5389 11.83C86.6389 9.23 87.5089 7.23 89.1489 5.83C90.7889 4.41 93.0089 3.7 95.8089 3.7C97.5689 3.7 99.1489 4 100.549 4.6C101.949 5.18 103.049 6.02 103.849 7.12C104.669 8.2 105.089 9.47 105.109 10.93V10.99C105.109 11.15 105.039 11.29 104.899 11.41C104.779 11.51 104.639 11.56 104.479 11.56H100.429C100.169 11.56 99.9689 11.51 99.8289 11.41C99.6889 11.29 99.5689 11.08 99.4689 10.78C99.1889 9.76 98.7489 9.05 98.1489 8.65C97.5489 8.23 96.7589 8.02 95.7789 8.02C93.4189 8.02 92.1989 9.34 92.1189 11.98C92.0989 12.52 92.0889 13.35 92.0889 14.47C92.0889 15.59 92.0989 16.44 92.1189 17.02C92.1989 19.66 93.4189 20.98 95.7789 20.98C96.7589 20.98 97.5589 20.77 98.1789 20.35C98.7989 19.91 99.2289 19.2 99.4689 18.22C99.5489 17.92 99.6589 17.72 99.7989 17.62C99.9389 17.5 100.149 17.44 100.429 17.44H104.479C104.659 17.44 104.809 17.5 104.929 17.62C105.069 17.74 105.129 17.89 105.109 18.07C105.089 19.53 104.669 20.81 103.849 21.91C103.049 22.99 101.949 23.83 100.549 24.43C99.1489 25.01 97.5689 25.3 95.8089 25.3ZM116.093 25.3C113.273 25.3 111.053 24.61 109.433 23.23C107.813 21.85 106.953 19.82 106.853 17.14C106.833 16.56 106.823 15.7 106.823 14.56C106.823 13.4 106.833 12.53 106.853 11.95C106.953 9.31 107.823 7.28 109.463 5.86C111.123 4.42 113.333 3.7 116.093 3.7C118.853 3.7 121.063 4.42 122.723 5.86C124.383 7.28 125.253 9.31 125.333 11.95C125.373 13.11 125.393 13.98 125.393 14.56C125.393 15.12 125.373 15.98 125.333 17.14C125.233 19.82 124.373 21.85 122.753 23.23C121.133 24.61 118.913 25.3 116.093 25.3ZM116.093 20.98C117.193 20.98 118.063 20.65 118.703 19.99C119.363 19.33 119.713 18.32 119.753 16.96C119.793 15.8 119.813 14.98 119.813 14.5C119.813 13.98 119.793 13.16 119.753 12.04C119.713 10.68 119.363 9.67 118.703 9.01C118.043 8.35 117.173 8.02 116.093 8.02C115.013 8.02 114.143 8.35 113.483 9.01C112.843 9.67 112.493 10.68 112.433 12.04C112.413 12.6 112.403 13.42 112.403 14.5C112.403 15.56 112.413 16.38 112.433 16.96C112.493 18.32 112.843 19.33 113.483 19.99C114.123 20.65 114.993 20.98 116.093 20.98ZM132.171 25C131.651 25 131.341 24.73 131.241 24.19L127.371 4.93C127.351 4.83 127.341 4.72 127.341 4.6C127.341 4.44 127.401 4.3 127.521 4.18C127.641 4.06 127.781 4 127.941 4H129.501C129.921 4 130.161 4.17 130.221 4.51L133.281 19.99L136.521 9.37C136.701 8.89 137.021 8.65 137.481 8.65H138.591C138.851 8.65 139.051 8.72 139.191 8.86C139.351 9 139.461 9.17 139.521 9.37L142.791 19.99L145.821 4.51C145.881 4.17 146.131 4 146.571 4H148.131C148.291 4 148.431 4.06 148.551 4.18C148.671 4.3 148.731 4.44 148.731 4.6L148.701 4.93L144.831 24.19C144.711 24.73 144.401 25 143.901 25H142.731C142.211 25 141.881 24.75 141.741 24.25L138.021 12.82L134.331 24.25C134.171 24.75 133.841 25 133.341 25H132.171ZM157.26 25.3C155.06 25.3 153.35 24.68 152.13 23.44C150.93 22.2 150.29 20.55 150.21 18.49L150.18 17.2L150.21 15.91C150.29 13.87 150.94 12.23 152.16 10.99C153.38 9.73 155.08 9.1 157.26 9.1C159.44 9.1 161.14 9.73 162.36 10.99C163.58 12.23 164.23 13.87 164.31 15.91C164.33 16.13 164.34 16.56 164.34 17.2C164.34 17.84 164.33 18.27 164.31 18.49C164.23 20.55 163.58 22.2 162.36 23.44C161.16 24.68 159.46 25.3 157.26 25.3ZM157.26 22.99C158.52 22.99 159.51 22.59 160.23 21.79C160.97 20.99 161.37 19.84 161.43 18.34C161.45 18.14 161.46 17.76 161.46 17.2C161.46 16.64 161.45 16.26 161.43 16.06C161.37 14.56 160.97 13.41 160.23 12.61C159.51 11.81 158.52 11.41 157.26 11.41C156 11.41 155 11.81 154.26 12.61C153.52 13.41 153.13 14.56 153.09 16.06L153.06 17.2L153.09 18.34C153.13 19.84 153.52 20.99 154.26 21.79C155 22.59 156 22.99 157.26 22.99ZM168.036 25C167.836 25 167.666 24.94 167.526 24.82C167.406 24.68 167.346 24.51 167.346 24.31V10.12C167.346 9.92 167.406 9.75 167.526 9.61C167.666 9.47 167.836 9.4 168.036 9.4H169.416C169.616 9.4 169.786 9.47 169.926 9.61C170.066 9.75 170.136 9.92 170.136 10.12V11.44C170.956 10.08 172.356 9.4 174.336 9.4H175.506C175.706 9.4 175.866 9.47 175.986 9.61C176.126 9.73 176.196 9.89 176.196 10.09V11.32C176.196 11.52 176.126 11.68 175.986 11.8C175.866 11.92 175.706 11.98 175.506 11.98H173.706C172.626 11.98 171.776 12.3 171.156 12.94C170.536 13.56 170.226 14.41 170.226 15.49V24.31C170.226 24.51 170.156 24.68 170.016 24.82C169.876 24.94 169.706 25 169.506 25H168.036ZM178.713 25C178.513 25 178.343 24.94 178.203 24.82C178.083 24.68 178.023 24.51 178.023 24.31V4.39C178.023 4.19 178.083 4.03 178.203 3.91C178.343 3.77 178.513 3.7 178.713 3.7H180.123C180.323 3.7 180.483 3.77 180.603 3.91C180.743 4.03 180.813 4.19 180.813 4.39V14.83L186.723 9.91C186.783 9.87 186.883 9.79 187.023 9.67C187.163 9.57 187.293 9.5 187.413 9.46C187.553 9.42 187.723 9.4 187.923 9.4H189.513C189.693 9.4 189.843 9.46 189.963 9.58C190.083 9.7 190.143 9.85 190.143 10.03C190.143 10.25 190.023 10.44 189.783 10.6L182.853 16.36L190.533 23.83C190.773 24.03 190.893 24.21 190.893 24.37C190.893 24.55 190.833 24.7 190.713 24.82C190.593 24.94 190.443 25 190.263 25H188.703C188.403 25 188.183 24.97 188.043 24.91C187.923 24.85 187.743 24.71 187.503 24.49L180.813 18.1V24.31C180.813 24.51 180.743 24.68 180.603 24.82C180.483 24.94 180.323 25 180.123 25H178.713ZM197.818 25.3C196.418 25.3 195.238 25.08 194.278 24.64C193.338 24.18 192.628 23.66 192.148 23.08C191.688 22.5 191.458 22.02 191.458 21.64C191.458 21.44 191.528 21.29 191.668 21.19C191.828 21.07 191.988 21.01 192.148 21.01H193.498C193.698 21.01 193.878 21.11 194.038 21.31C194.518 21.87 195.038 22.31 195.598 22.63C196.158 22.95 196.908 23.11 197.848 23.11C198.888 23.11 199.728 22.91 200.368 22.51C201.028 22.09 201.358 21.52 201.358 20.8C201.358 20.32 201.218 19.93 200.938 19.63C200.678 19.31 200.218 19.04 199.558 18.82C198.918 18.58 197.958 18.32 196.678 18.04C194.938 17.66 193.698 17.11 192.958 16.39C192.238 15.67 191.878 14.74 191.878 13.6C191.878 12.84 192.098 12.12 192.538 11.44C192.998 10.74 193.658 10.18 194.518 9.76C195.398 9.32 196.448 9.1 197.668 9.1C198.948 9.1 200.038 9.31 200.938 9.73C201.838 10.15 202.508 10.65 202.948 11.23C203.408 11.79 203.638 12.26 203.638 12.64C203.638 12.82 203.568 12.97 203.428 13.09C203.308 13.21 203.158 13.27 202.978 13.27H201.718C201.478 13.27 201.278 13.17 201.118 12.97C200.798 12.59 200.518 12.3 200.278 12.1C200.058 11.88 199.728 11.69 199.288 11.53C198.868 11.37 198.328 11.29 197.668 11.29C196.708 11.29 195.968 11.5 195.448 11.92C194.928 12.32 194.668 12.85 194.668 13.51C194.668 13.93 194.778 14.29 194.998 14.59C195.218 14.87 195.638 15.13 196.258 15.37C196.898 15.61 197.818 15.86 199.018 16.12C200.918 16.52 202.258 17.1 203.038 17.86C203.838 18.6 204.238 19.55 204.238 20.71C204.238 21.57 203.988 22.35 203.488 23.05C202.988 23.75 202.248 24.3 201.268 24.7C200.308 25.1 199.158 25.3 197.818 25.3ZM207.681 30.7C207.481 30.7 207.311 30.63 207.171 30.49C207.051 30.37 206.991 30.21 206.991 30.01V10.09C206.991 9.89 207.051 9.73 207.171 9.61C207.311 9.47 207.481 9.4 207.681 9.4H209.061C209.261 9.4 209.421 9.47 209.541 9.61C209.681 9.73 209.751 9.89 209.751 10.09V11.41C210.871 9.87 212.511 9.1 214.671 9.1C216.771 9.1 218.341 9.76 219.381 11.08C220.441 12.4 221.011 14.1 221.091 16.18C221.111 16.4 221.121 16.74 221.121 17.2C221.121 17.66 221.111 18 221.091 18.22C221.011 20.28 220.441 21.98 219.381 23.32C218.321 24.64 216.751 25.3 214.671 25.3C212.591 25.3 210.971 24.55 209.811 23.05V30.01C209.811 30.21 209.751 30.37 209.631 30.49C209.511 30.63 209.351 30.7 209.151 30.7H207.681ZM214.041 22.87C215.461 22.87 216.491 22.43 217.131 21.55C217.791 20.67 218.151 19.51 218.211 18.07C218.231 17.87 218.241 17.58 218.241 17.2C218.241 13.42 216.841 11.53 214.041 11.53C212.661 11.53 211.621 11.99 210.921 12.91C210.241 13.81 209.871 14.89 209.811 16.15L209.781 17.29L209.811 18.46C209.851 19.64 210.231 20.67 210.951 21.55C211.671 22.43 212.701 22.87 214.041 22.87ZM228.433 25.3C227.453 25.3 226.543 25.1 225.703 24.7C224.863 24.3 224.193 23.76 223.693 23.08C223.213 22.38 222.973 21.61 222.973 20.77C222.973 19.45 223.513 18.37 224.593 17.53C225.693 16.67 227.173 16.11 229.033 15.85L233.503 15.22V14.35C233.503 12.31 232.333 11.29 229.993 11.29C229.113 11.29 228.393 11.48 227.833 11.86C227.273 12.22 226.853 12.65 226.573 13.15C226.513 13.33 226.433 13.46 226.333 13.54C226.253 13.62 226.133 13.66 225.973 13.66H224.683C224.503 13.66 224.343 13.6 224.203 13.48C224.083 13.34 224.023 13.18 224.023 13C224.043 12.52 224.263 11.98 224.683 11.38C225.123 10.76 225.793 10.23 226.693 9.79C227.593 9.33 228.703 9.1 230.023 9.1C232.263 9.1 233.873 9.63 234.853 10.69C235.833 11.73 236.323 13.03 236.323 14.59V24.31C236.323 24.51 236.253 24.68 236.113 24.82C235.993 24.94 235.833 25 235.633 25H234.253C234.053 25 233.883 24.94 233.743 24.82C233.623 24.68 233.563 24.51 233.563 24.31V23.02C233.123 23.66 232.483 24.2 231.643 24.64C230.803 25.08 229.733 25.3 228.433 25.3ZM229.063 23.05C230.363 23.05 231.423 22.63 232.243 21.79C233.083 20.93 233.503 19.7 233.503 18.1V17.26L230.023 17.77C228.603 17.97 227.533 18.31 226.813 18.79C226.093 19.25 225.733 19.84 225.733 20.56C225.733 21.36 226.063 21.98 226.723 22.42C227.383 22.84 228.163 23.05 229.063 23.05ZM246.185 25.3C244.045 25.3 242.365 24.7 241.145 23.5C239.945 22.28 239.305 20.58 239.225 18.4L239.195 17.2L239.225 16C239.305 13.82 239.945 12.13 241.145 10.93C242.365 9.71 244.045 9.1 246.185 9.1C247.625 9.1 248.845 9.36 249.845 9.88C250.845 10.4 251.585 11.04 252.065 11.8C252.565 12.56 252.835 13.32 252.875 14.08C252.895 14.28 252.835 14.44 252.695 14.56C252.555 14.68 252.385 14.74 252.185 14.74H250.745C250.545 14.74 250.395 14.7 250.295 14.62C250.195 14.54 250.095 14.38 249.995 14.14C249.655 13.18 249.175 12.5 248.555 12.1C247.935 11.68 247.155 11.47 246.215 11.47C244.975 11.47 243.985 11.86 243.245 12.64C242.525 13.4 242.135 14.57 242.075 16.15L242.045 17.23L242.075 18.25C242.135 19.85 242.525 21.03 243.245 21.79C243.965 22.55 244.955 22.93 246.215 22.93C247.155 22.93 247.935 22.73 248.555 22.33C249.175 21.91 249.655 21.22 249.995 20.26C250.095 20.02 250.195 19.86 250.295 19.78C250.395 19.68 250.545 19.63 250.745 19.63H252.185C252.385 19.63 252.555 19.7 252.695 19.84C252.835 19.96 252.895 20.12 252.875 20.32C252.835 21.06 252.565 21.82 252.065 22.6C251.585 23.36 250.845 24 249.845 24.52C248.865 25.04 247.645 25.3 246.185 25.3ZM261.928 25.3C259.868 25.3 258.218 24.67 256.978 23.41C255.758 22.13 255.088 20.39 254.968 18.19L254.938 17.17L254.968 16.18C255.108 14.02 255.788 12.3 257.008 11.02C258.248 9.74 259.878 9.1 261.898 9.1C264.118 9.1 265.838 9.81 267.058 11.23C268.278 12.63 268.888 14.53 268.888 16.93V17.44C268.888 17.64 268.818 17.81 268.678 17.95C268.558 18.07 268.398 18.13 268.198 18.13H257.818V18.4C257.878 19.7 258.268 20.81 258.988 21.73C259.728 22.63 260.698 23.08 261.898 23.08C262.818 23.08 263.568 22.9 264.148 22.54C264.748 22.16 265.188 21.77 265.468 21.37C265.648 21.13 265.778 20.99 265.858 20.95C265.958 20.89 266.128 20.86 266.368 20.86H267.838C268.018 20.86 268.168 20.91 268.288 21.01C268.408 21.11 268.468 21.25 268.468 21.43C268.468 21.87 268.188 22.4 267.628 23.02C267.088 23.64 266.318 24.18 265.318 24.64C264.338 25.08 263.208 25.3 261.928 25.3ZM266.038 16.06V15.97C266.038 14.59 265.658 13.47 264.898 12.61C264.158 11.73 263.158 11.29 261.898 11.29C260.638 11.29 259.638 11.73 258.898 12.61C258.178 13.47 257.818 14.59 257.818 15.97V16.06H266.038Z" fill="#232E44"/>
<path d="M32.27 21.1392H2.0085C0.899208 21.1392 0 22.0384 0 23.1477V24.1519C0 24.7065 0.449637 25.1562 1.00425 25.1562H33.2742C33.8288 25.1562 34.2785 24.7065 34.2785 24.1519V23.1477C34.2785 22.0384 33.3793 21.1392 32.27 21.1392Z" fill="#0FB8AE"/>
<path d="M16.8737 4C14.6583 4 12.8567 5.80156 12.8567 8.01701C12.8567 10.2325 14.6583 12.034 16.8737 12.034C19.0891 12.034 20.8907 10.2325 20.8907 8.01701C20.8907 5.80156 19.0891 4 16.8737 4Z" fill="#0FB8AE"/>
<path d="M24.9064 18.4854C24.514 15.8329 22.8047 13.6258 20.4818 12.4814C19.4885 13.2027 18.2776 13.6408 16.9589 13.6408C15.6402 13.6408 14.4292 13.2027 13.436 12.4815C11.1131 13.6259 9.40384 15.833 9.01144 18.4855C8.92012 19.1027 9.3867 19.6663 10.0107 19.6663H23.9072C24.5312 19.6663 24.9977 19.1027 24.9064 18.4854Z" fill="#0FB8AE"/>
</svg>
