<svg width="30" height="30" viewBox="0 0 30 30" fill="none" xmlns="http://www.w3.org/2000/svg">
<g clip-path="url(#clip0)">
<path d="M29.704 0.0770099C29.5212 -0.0272869 29.2964 -0.0255291 29.1154 0.0815803L18.3778 6.43103C18.0993 6.59574 18.007 6.95504 18.1717 7.23359C18.3364 7.51209 18.6956 7.60437 18.9743 7.43972L26.6783 2.88412L12.3283 17.7736L5.19113 15.59L14.5055 10.0822C14.784 9.91742 14.8763 9.55812 14.7116 9.27957C14.547 9.00107 14.1876 8.90867 13.9091 9.07344L3.4513 15.2574C3.2515 15.3755 3.14023 15.6005 3.16771 15.8311C3.19519 16.0616 3.35614 16.2542 3.5781 16.3221L12.1017 18.9297L15.8621 25.7742C15.866 25.7813 15.87 25.7873 15.8742 25.7926C15.9369 25.8973 16.031 25.9828 16.1483 26.0321C16.2217 26.063 16.2989 26.078 16.3755 26.078C16.5257 26.078 16.6735 26.0203 16.7851 25.9111L21.109 21.6853L29.2422 24.1736C29.2984 24.1907 29.3561 24.1992 29.4136 24.1992C29.5376 24.1992 29.66 24.1599 29.7621 24.0843C29.9114 23.9738 29.9996 23.799 29.9996 23.6133V0.585955C29.9996 0.375545 29.8867 0.181248 29.704 0.0770099ZM15.894 19.2908C15.8261 19.3889 15.7897 19.5052 15.7897 19.6245V23.2087L13.222 18.535L24.5846 6.74533L15.894 19.2908ZM16.9616 24.1002V20.4165L19.8321 21.2947L16.9616 24.1002ZM28.8277 22.8213L17.3141 19.2989L28.8277 2.67799V22.8213Z" fill="#0FB8AE"/>
<path d="M9.63347 20.3659C9.4046 20.1371 9.0337 20.1371 8.80478 20.3659L3.33494 25.8358C3.10613 26.0646 3.10613 26.4356 3.33494 26.6645C3.44943 26.7789 3.59937 26.836 3.74931 26.836C3.89925 26.836 4.04919 26.7789 4.16363 26.6644L9.63347 21.1946C9.86227 20.9658 9.86227 20.5948 9.63347 20.3659Z" fill="#0FB8AE"/>
<path d="M2.34814 27.652C2.11927 27.4233 1.74837 27.4233 1.51951 27.652L0.171851 28.9997C-0.0569581 29.2285 -0.0569581 29.5995 0.171851 29.8284C0.286284 29.9428 0.436226 30 0.586167 30C0.736108 30 0.88605 29.9427 1.00048 29.8283L2.34814 28.4807C2.57695 28.2519 2.57695 27.8808 2.34814 27.652Z" fill="#0FB8AE"/>
<path d="M8.35829 28.9651C8.24937 28.8562 8.09819 28.7935 7.94409 28.7935C7.78935 28.7935 7.63882 28.8562 7.52983 28.9651C7.42085 29.0741 7.35815 29.2247 7.35815 29.3794C7.35815 29.5335 7.42079 29.6847 7.52983 29.7937C7.63882 29.9026 7.78999 29.9653 7.94409 29.9653C8.09819 29.9653 8.24937 29.9026 8.35829 29.7937C8.46728 29.6847 8.53003 29.5335 8.53003 29.3794C8.53003 29.2247 8.46733 29.0741 8.35829 28.9651Z" fill="#0FB8AE"/>
<path d="M12.717 24.6057C12.4884 24.3769 12.1175 24.3769 11.8884 24.6057L8.99119 27.5029C8.76238 27.7317 8.76238 28.1027 8.99119 28.3315C9.10562 28.4459 9.25556 28.5031 9.4055 28.5031C9.55544 28.5031 9.70539 28.4459 9.81982 28.3315L12.717 25.4343C12.9459 25.2055 12.9459 24.8345 12.717 24.6057Z" fill="#0FB8AE"/>
<path d="M22.7176 24.383C22.4887 24.1542 22.1178 24.1542 21.8889 24.383L18.9839 27.2881C18.7551 27.5169 18.7551 27.8879 18.9839 28.1168C19.0983 28.2311 19.2482 28.2884 19.3982 28.2884C19.5481 28.2884 19.6981 28.2311 19.8125 28.1168L22.7176 25.2117C22.9464 24.9829 22.9464 24.6119 22.7176 24.383Z" fill="#0FB8AE"/>
<path d="M16.6115 7.98711C16.5025 7.87812 16.3514 7.81543 16.1973 7.81543C16.0432 7.81543 15.892 7.87812 15.783 7.98711C15.6741 8.09609 15.6113 8.24727 15.6113 8.40195C15.6113 8.55605 15.674 8.70664 15.783 8.81562C15.892 8.92519 16.0432 8.9873 16.1973 8.9873C16.3514 8.9873 16.5025 8.92519 16.6115 8.81562C16.7204 8.70664 16.7832 8.55605 16.7832 8.40195C16.7832 8.24727 16.7205 8.09609 16.6115 7.98711Z" fill="#0FB8AE"/>
</g>
<defs>
<clipPath id="clip0">
<rect width="30" height="30" fill="white"/>
</clipPath>
</defs>
</svg>
