<svg width="30" height="32" viewBox="0 0 30 32" fill="none" xmlns="http://www.w3.org/2000/svg">
<path d="M7.03124 12.5154C7.03124 15.3768 9.26537 17.7045 12.0116 17.7045C12.659 17.7045 13.1835 18.2512 13.1835 18.9255C13.1835 19.6001 12.659 20.1466 12.0116 20.1466C7.9731 20.1466 4.68749 16.7232 4.68749 12.5154C4.68749 8.30736 7.9731 4.88401 12.0116 4.88401C16.0503 4.88401 19.3359 8.30736 19.3359 12.5154C19.3359 13.1897 18.8112 13.7364 18.164 13.7364C17.5169 13.7364 16.9922 13.1897 16.9922 12.5154C16.9922 9.65405 14.7578 7.32602 12.0116 7.32602C9.26537 7.32602 7.03124 9.65405 7.03124 12.5154ZM7.952 23.3149C4.9448 19.884 2.34788 16.9206 2.34375 12.5035C2.34994 6.95566 6.68702 2.44201 12.0116 2.44201C17.3364 2.44201 21.6732 6.95566 21.6794 12.5035C21.6804 13.1775 22.2048 13.7233 22.8513 13.723H22.8527C23.4999 13.7223 24.0241 13.1749 24.0232 12.5006C24.0195 9.16063 22.7685 6.02138 20.5005 3.66086C18.2324 1.30009 15.2176 0 12.0116 0C8.80579 0 5.79103 1.30009 3.52273 3.66086C1.25489 6.02138 0.00366927 9.16063 0 12.5032C0.00229329 14.9364 0.650837 17.2192 1.98301 19.4823C3.13631 21.4419 4.63475 23.1515 6.22125 24.9617C7.77656 26.7366 9.38508 28.5717 10.6696 30.6892C10.8925 31.0567 11.2725 31.2579 11.6612 31.2579C11.8754 31.2579 12.0919 31.197 12.2863 31.0689C12.8333 30.7086 12.9966 29.9545 12.6507 29.3844C11.2555 27.0845 9.57611 25.1682 7.952 23.3149ZM29.6929 23.9008C29.4617 24.1644 29.1453 24.298 28.8279 24.298C28.5453 24.298 28.2621 24.1923 28.0374 23.9783L27.8906 23.8385V27.8788C27.8906 29.7757 26.4105 31.3188 24.5915 31.3188H18.006C16.187 31.3188 14.7069 29.7757 14.7069 27.8788V23.8944L14.6188 23.9783C14.1411 24.4334 13.4 24.3988 12.9631 23.9011C12.5264 23.4034 12.5597 22.6308 13.0374 22.1759L19.0859 16.414C20.3642 15.1966 22.292 15.1966 23.57 16.414L27.4455 20.1059C27.4883 20.1413 27.5287 20.1798 27.5663 20.2209L29.6188 22.1759C30.0965 22.6308 30.1298 23.4034 29.6929 23.9008ZM25.5468 21.6058L21.9886 18.2164C21.612 17.8577 21.0442 17.8577 20.6676 18.2164L17.0506 21.6615V27.8788C17.0506 28.4291 17.4793 28.8768 18.0063 28.8768H24.5915C25.1182 28.8768 25.5468 28.4291 25.5468 27.8788V21.6058Z" fill="#0FB8AE"/>
</svg>
