<svg width="30" height="30" viewBox="0 0 30 30" fill="none" xmlns="http://www.w3.org/2000/svg">
<path d="M27.9995 0.5H2.00051C0.89748 0.5 0 1.39754 0 2.50051V19C0 19.276 0.224004 19.5 0.49998 19.5H29.5C29.7759 19.5 29.9999 19.276 29.9999 19V2.50051C30 1.39754 29.1025 0.5 27.9995 0.5ZM29 18.5H1.00002V2.50051C1.00002 1.9485 1.44902 1.50002 2.00051 1.50002H27.9995C28.551 1.50002 29 1.9485 29 2.50051V18.5Z" fill="#0FB8AE"/>
<path d="M29.5 18.5H0.49998C0.224004 18.5 0 18.724 0 19V21.4995C0 22.6025 0.89748 23.5 2.00051 23.5H27.9995C29.1025 23.5 30 22.6025 30 21.4995V19C30 18.724 29.776 18.5 29.5 18.5ZM29 21.4995C29 22.0515 28.551 22.5 27.9995 22.5H2.00051C1.44902 22.5 1.00002 22.0515 1.00002 21.4995V19.5H29V21.4995Z" fill="#0FB8AE"/>
<path d="M16.5 20.5H13.5C13.224 20.5 13 20.724 13 21C13 21.276 13.224 21.5 13.5 21.5H16.5C16.776 21.5 17 21.276 17 21C17 20.724 16.776 20.5 16.5 20.5Z" fill="#0FB8AE"/>
<path d="M27.4995 2.5H2.49949C2.22352 2.5 1.99951 2.724 1.99951 2.99998V19C1.99951 19.276 2.22352 19.5 2.49949 19.5H27.4995C27.7755 19.5 27.9995 19.276 27.9995 19V2.99998C27.9995 2.724 27.7755 2.5 27.4995 2.5ZM26.9995 18.5H2.99947V3.49996H26.9995V18.5Z" fill="#0FB8AE"/>
<path d="M21.5 26.5H8.5C7.67301 26.5 7 27.173 7 28C7 28.827 7.67301 29.5 8.5 29.5H21.5C22.327 29.5 23 28.827 23 28C23 27.173 22.327 26.5 21.5 26.5ZM21.5 28.5H8.5C8.22402 28.5 8.00002 28.2755 8.00002 28C8.00002 27.7245 8.22402 27.5 8.5 27.5H21.5C21.776 27.5 22 27.7245 22 28C22 28.2755 21.776 28.5 21.5 28.5Z" fill="#0FB8AE"/>
<path d="M20.4995 26.5C18.8404 26.5 17.9994 25.3225 17.9994 23C17.9994 22.724 17.7754 22.5 17.4995 22.5H12.4995C12.2235 22.5 11.9995 22.724 11.9995 23C11.9995 25.3225 11.1585 26.5 9.49949 26.5C9.22352 26.5 8.99951 26.724 8.99951 26.9999C8.99951 27.2759 9.22352 27.4999 9.49949 27.4999H20.4995C20.7754 27.4999 20.9994 27.2759 20.9994 26.9999C20.9994 26.724 20.7754 26.5 20.4995 26.5ZM11.9349 26.5C12.5505 25.818 12.9129 24.8024 12.9859 23.5H17.0134C17.0859 24.8024 17.4484 25.818 18.0644 26.5H11.9349Z" fill="#0FB8AE"/>
<path d="M23.8926 15.2321L22.6856 14.0251L23.3571 13.3536C23.4816 13.2291 23.5316 13.0481 23.4886 12.8776C23.4456 12.7071 23.3161 12.5721 23.1476 12.5211L18.1476 11.0211C17.9711 10.9681 17.7806 11.0166 17.6506 11.1466C17.5201 11.2767 17.4721 11.4676 17.5251 11.6436L19.0251 16.6436C19.0756 16.8126 19.2111 16.9421 19.3816 16.9851C19.5516 17.0271 19.7331 16.9781 19.8576 16.8536L20.5646 16.1461L21.7716 17.3536C21.8651 17.4476 21.9926 17.5001 22.125 17.5001C22.2575 17.5001 22.385 17.4476 22.4785 17.3536L23.8925 15.9391C24.0881 15.7436 24.088 15.4276 23.8926 15.2321ZM22.125 16.2931L21.0261 15.1936C20.8986 15.0661 20.7316 15.0026 20.5646 15.0026C20.3971 15.0026 20.2301 15.0666 20.1031 15.1931L19.7421 15.5541L18.7496 12.2456L22.0581 13.2381L21.6711 13.6251C21.5645 13.7321 21.5061 13.8741 21.5061 14.0251C21.5061 14.1766 21.5651 14.3196 21.6721 14.4256L22.832 15.5856L22.125 16.2931Z" fill="#0FB8AE"/>
<path d="M21.0004 4.5H7.00047C6.72449 4.5 6.50049 4.724 6.50049 4.99998V7.5C6.50049 7.77598 6.72449 7.99998 7.00047 7.99998H21.0004C21.2764 7.99998 21.5004 7.77598 21.5004 7.5V4.99998C21.5004 4.724 21.2764 4.5 21.0004 4.5ZM20.5005 7.00002H7.50045V5.50002H20.5005V7.00002Z" fill="#0FB8AE"/>
<path d="M13.0005 10H9.00047C8.72449 10 8.50049 10.224 8.50049 10.5V12.5C8.50049 12.7759 8.72449 12.9999 9.00047 12.9999H13.0005C13.2765 12.9999 13.5005 12.7759 13.5005 12.5V10.5C13.5005 10.224 13.2765 10 13.0005 10ZM12.5004 12H9.50045V11H12.5004V12Z" fill="#0FB8AE"/>
<path d="M21.0004 4.5H7.00047C6.72449 4.5 6.50049 4.724 6.50049 4.99998V14.5C6.50049 14.7759 6.72449 14.9999 7.00047 14.9999H18.9035C19.062 14.9999 19.2105 14.9255 19.3045 14.7984C19.399 14.6715 19.428 14.5075 19.3825 14.3559L18.7495 12.2454L20.857 12.878C21.0085 12.9235 21.1725 12.8945 21.299 12.8C21.426 12.706 21.5005 12.557 21.5005 12.399V4.99998C21.5004 4.724 21.2764 4.5 21.0004 4.5ZM20.5005 11.727L18.1469 11.021C17.9705 10.968 17.78 11.0165 17.6499 11.1465C17.5195 11.277 17.4715 11.4675 17.5244 11.644L18.2314 14H7.50045V5.50002H20.5005V11.727Z" fill="#0FB8AE"/>
</svg>
