<svg width="29" height="29" viewBox="0 0 29 29" fill="none" xmlns="http://www.w3.org/2000/svg">
<g clip-path="url(#clip0)">
<path d="M22.8063 17.2769C22.5716 17.2769 22.3813 17.4671 22.3813 17.7018C22.3813 17.9365 22.5716 18.1267 22.8063 18.1267H23.6977C23.9323 18.1267 24.1226 17.9365 24.1226 17.7018C24.1226 17.4671 23.9323 17.2769 23.6977 17.2769H22.8063Z" fill="#0FB8AE"/>
<path d="M22.8063 22.5061H23.6977C23.9323 22.5061 24.1226 22.3159 24.1226 22.0812C24.1226 21.8465 23.9323 21.6562 23.6977 21.6562H22.8063C22.5716 21.6562 22.3813 21.8465 22.3813 22.0812C22.3813 22.3159 22.5716 22.5061 22.8063 22.5061Z" fill="#0FB8AE"/>
<path d="M22.8063 26.886H23.6977C23.9323 26.886 24.1226 26.6958 24.1226 26.4611C24.1226 26.2263 23.9323 26.0361 23.6977 26.0361H22.8063C22.5716 26.0361 22.3813 26.2263 22.3813 26.4611C22.3813 26.6958 22.5716 26.886 22.8063 26.886Z" fill="#0FB8AE"/>
<path d="M28.2965 12.7307H17.67V11.6959C17.67 11.2584 17.3141 10.9025 16.8766 10.9025H16.7647V5.79916C16.7647 5.23814 16.3083 4.78174 15.7473 4.78174H10.1167C9.88208 4.78174 9.6918 4.97195 9.6918 5.20667C9.6918 5.44138 9.88208 5.63159 10.1167 5.63159H15.7473C15.8397 5.63159 15.9149 5.70677 15.9149 5.79916V10.9025H6.48436V5.79916C6.48436 5.70677 6.55954 5.63159 6.65198 5.63159H8.12643C8.36109 5.63159 8.55136 5.44138 8.55136 5.20667C8.55136 4.97195 8.36109 4.78174 8.12643 4.78174H6.65198C6.09096 4.78174 5.6345 5.23814 5.6345 5.79916V10.9025H5.52269C5.0852 10.9025 4.72922 11.2584 4.72922 11.6959V12.7307H0.704306C0.320252 12.7307 0.0078125 13.0431 0.0078125 13.4272V15.3164C0.0078125 15.7005 0.320252 16.0129 0.704306 16.0129H1.08275V28.3672C1.08275 28.7162 1.36672 29.0002 1.71579 29.0002H3.17993C3.529 29.0002 3.81297 28.7162 3.81297 28.3672V26.2883H18.5864V28.3673C18.5864 28.7163 18.8703 29.0002 19.2193 29.0002H27.2852C27.6342 29.0002 27.9181 28.7163 27.9181 28.3673V18.9121C27.9181 18.6774 27.7278 18.4872 27.4932 18.4872C27.2585 18.4872 27.0682 18.6774 27.0682 18.9121V19.4922H19.4362V16.0129H27.0682V16.9384C27.0682 17.1731 27.2585 17.3633 27.4931 17.3633C27.7278 17.3633 27.918 17.1731 27.918 16.9384V16.0129H28.2965C28.6805 16.0129 28.993 15.7005 28.993 15.3164V13.4272C28.993 13.0431 28.6805 12.7307 28.2965 12.7307ZM5.57908 11.7523H16.8202V12.7307H5.57908V11.7523ZM2.96305 28.1504H1.93261V16.0129H2.96305V28.1504ZM18.5863 25.4384H3.81291V16.0129H18.5863V25.4384ZM27.0682 28.1504H19.4362V24.6711H27.0682V28.1504ZM27.0682 20.342V23.8212H19.4362V20.342H27.0682ZM28.1431 15.1631H0.857667V13.5806H28.1431V15.1631Z" fill="#0FB8AE"/>
<path d="M23.2512 5.63133C24.8038 5.63133 26.0668 4.36821 26.0668 2.81569C26.0668 1.26318 24.8037 0 23.2512 0C21.6986 0 20.4355 1.26312 20.4355 2.81564C20.4355 4.36816 21.6986 5.63133 23.2512 5.63133ZM23.2512 0.849854C24.3351 0.849854 25.217 1.73169 25.217 2.81564C25.217 3.89958 24.3351 4.78142 23.2512 4.78142C22.1672 4.78148 21.2853 3.89964 21.2853 2.81564C21.2853 1.73169 22.1672 0.849854 23.2512 0.849854Z" fill="#0FB8AE"/>
<path d="M23.2526 3.12884H23.6499C23.8846 3.12884 24.0749 2.93862 24.0749 2.70391C24.0749 2.47848 23.8993 2.2941 23.6775 2.27989V1.93909C23.6775 1.70438 23.4872 1.51416 23.2526 1.51416C23.0179 1.51416 22.8276 1.70438 22.8276 1.93909V2.70397C22.8276 2.93862 23.0179 3.12884 23.2526 3.12884Z" fill="#0FB8AE"/>
</g>
<defs>
<clipPath id="clip0">
<rect width="29" height="29" fill="white"/>
</clipPath>
</defs>
</svg>
