<svg width="32" height="32" viewBox="0 0 32 32" fill="none" xmlns="http://www.w3.org/2000/svg">
<g clip-path="url(#clip0)">
<path d="M20.2677 0C19.9733 0 19.7344 0.238937 19.7344 0.533311C19.7344 0.827686 19.9733 1.06662 20.2677 1.06662C26.1493 1.06662 30.9344 5.85168 30.9344 11.7333C30.9344 12.0277 31.1733 12.2666 31.4677 12.2666C31.7626 12.2666 32.001 12.0277 32.001 11.7333C32.001 5.26349 26.7375 0 20.2677 0Z" fill="#0FB8AE"/>
<path d="M20.2677 3.2002C19.9733 3.2002 19.7344 3.43913 19.7344 3.73351C19.7344 4.02788 19.9733 4.26682 20.2677 4.26682C24.385 4.26682 27.7344 7.61611 27.7344 11.7335C27.7344 12.0279 27.9733 12.2668 28.2677 12.2668C28.5626 12.2668 28.801 12.0279 28.801 11.7335C28.801 7.02849 24.9732 3.2002 20.2677 3.2002Z" fill="#0FB8AE"/>
<path d="M20.2677 6.3999C19.9733 6.3999 19.7344 6.63884 19.7344 6.93321C19.7344 7.22759 19.9733 7.46652 20.2677 7.46652C22.6202 7.46652 24.5344 9.38065 24.5344 11.7332C24.5344 12.0276 24.7733 12.2665 25.0677 12.2665C25.3626 12.2665 25.601 12.0276 25.601 11.7332C25.601 8.79246 23.2084 6.3999 20.2677 6.3999Z" fill="#0FB8AE"/>
<path d="M28.8621 20.0129C27.4109 19.8219 25.98 19.4657 24.6093 18.9552C23.2819 18.4576 21.7736 18.7787 20.7634 19.7755L19.0776 21.4576C15.5426 19.3734 12.5896 16.4262 10.5005 12.8982L12.1875 11.215C13.1848 10.2086 13.5069 8.70196 13.0083 7.37771C12.4968 6.00921 12.14 4.58147 11.948 3.12809C11.6925 1.32647 10.1325 -0.00739883 8.30909 -0.000461345H3.64297C3.53416 -0.000461345 3.42535 0.00485114 3.31766 0.0144761C2.34854 0.101976 1.47123 0.561163 0.84773 1.30679C0.224294 2.05291 -0.0712056 2.99691 0.0173567 3.97341C0.534168 8.83102 2.21416 13.5654 4.87285 17.6614C7.28672 21.4523 10.5705 24.7296 14.3651 27.136C18.4536 29.7824 23.1752 31.4587 28.0301 31.9851C28.14 31.9947 28.2504 31.9995 28.3613 31.9995C28.3645 31.9995 28.3677 31.9995 28.3714 31.9995C30.381 31.9909 32.0087 30.3525 32.0007 28.3488V23.6987C32.0429 21.855 30.6967 20.271 28.8621 20.0129ZM30.9341 23.6795C30.9341 23.6837 30.9341 23.6886 30.9341 23.6928V28.3515C30.9394 29.7691 29.788 30.9275 28.3677 30.9334C28.2846 30.9302 28.2045 30.9302 28.1341 30.9237C23.4547 30.416 18.8936 28.7968 14.94 26.2379C11.2728 23.912 8.10272 20.7482 5.76991 17.0843C3.19973 13.1249 1.57735 8.55208 1.07867 3.86891C1.01679 3.18516 1.22535 2.51853 1.66642 1.99103C2.10748 1.46354 2.72773 1.13879 3.4136 1.07691C3.48985 1.06997 3.56616 1.06622 3.64291 1.06622H8.31384C8.3224 1.06622 8.3309 1.06622 8.33947 1.06622C9.61734 1.06622 10.7123 2.01291 10.8909 3.27259C11.093 4.80059 11.469 6.30778 12.0093 7.75259C12.3618 8.68908 12.1341 9.75364 11.4316 10.4625L9.45621 12.4336C9.28553 12.6038 9.25034 12.8662 9.36928 13.0753C11.6295 17.0433 14.9261 20.3329 18.901 22.5883C19.1101 22.7072 19.3714 22.671 19.541 22.5019L21.5143 20.5329C22.2274 19.8294 23.2956 19.6027 24.2354 19.9547C25.6817 20.4934 27.1916 20.8694 28.7175 21.0699C30.0135 21.2523 30.9666 22.3739 30.9341 23.6795Z" fill="#0FB8AE"/>
<path d="M7.99987 2.1333H3.64094C3.59612 2.1333 3.55187 2.13543 3.50762 2.13968C2.96419 2.18874 2.63188 2.49699 2.48256 2.67567C2.36256 2.81911 2.08844 3.21061 2.13644 3.74823C2.33806 5.63998 2.70281 7.48047 3.22175 9.21916C3.29106 9.45009 3.50281 9.59997 3.73269 9.59997C3.78337 9.59997 3.83456 9.59303 3.88575 9.57759C4.16787 9.49334 4.32843 9.19628 4.24412 8.91416C3.74387 7.23841 3.39187 5.46242 3.19825 3.6443C3.186 3.50886 3.274 3.39205 3.30119 3.35899C3.34494 3.30674 3.4425 3.21661 3.64094 3.20005H7.9988C7.99937 3.20005 7.99937 3.20005 7.99937 3.20005C8.29374 3.20005 8.53268 2.96167 8.53268 2.66724C8.53318 2.37274 8.29424 2.1333 7.99987 2.1333Z" fill="#0FB8AE"/>
<path d="M29.3315 23.4668C29.0371 23.4668 28.7982 23.7057 28.7982 24.0001L28.7976 28.3515C28.7982 28.4715 28.7523 28.5846 28.6685 28.6688C28.5848 28.7531 28.4739 28.7995 28.3683 28.8L28.3192 28.799C26.4969 28.6011 24.7358 28.2502 23.0851 27.7558C22.804 27.671 22.5059 27.8315 22.4211 28.1137C22.3363 28.3958 22.4969 28.6928 22.779 28.7777C24.4915 29.2907 26.3171 29.6545 28.2137 29.8603C28.2574 29.8646 28.3465 29.8667 28.3593 29.8667C28.763 29.8651 29.1417 29.7067 29.426 29.4203C29.7102 29.1334 29.866 28.7526 29.8644 28.3494L29.8649 24.0001C29.8649 23.7057 29.6259 23.4668 29.3315 23.4668Z" fill="#0FB8AE"/>
</g>
<defs>
<clipPath id="clip0">
<rect width="32" height="32" fill="white"/>
</clipPath>
</defs>
</svg>
