<svg width="32" height="32" viewBox="0 0 32 32" fill="none" xmlns="http://www.w3.org/2000/svg">
<path d="M8.06647 0C7.72128 0 7.44141 0.279938 7.44141 0.625063C7.44141 0.97025 7.72128 1.25013 8.06647 1.25013C11.5973 1.25013 14.4698 4.19719 14.4698 7.81981C14.4698 8.165 14.7497 8.44488 15.0948 8.44488C15.44 8.44488 15.7199 8.16494 15.7199 7.81981C15.72 3.50794 12.2866 0 8.06647 0Z" fill="#0FB8AE"/>
<path d="M8.06256 2.96533C7.71738 2.96533 7.4375 3.24527 7.4375 3.5904C7.4375 3.93558 7.71738 4.21546 8.06256 4.21546C9.996 4.21546 11.5689 5.83227 11.5689 7.81958C11.5689 8.16477 11.8489 8.44465 12.194 8.44465C12.5392 8.44465 12.8191 8.16471 12.8191 7.81958C12.8191 5.14296 10.6853 2.96533 8.06256 2.96533Z" fill="#0FB8AE"/>
<path d="M8.07428 5.69727C7.72903 5.69727 7.44922 5.97708 7.44922 6.32233C7.44922 6.66752 7.72916 6.94739 8.07428 6.94739C8.52597 6.94739 8.89334 7.33014 8.89334 7.80064C8.89334 8.14583 9.17322 8.4257 9.5184 8.4257C9.86359 8.4257 10.1435 8.14577 10.1435 7.80064C10.1435 6.64083 9.21522 5.69727 8.07428 5.69727Z" fill="#0FB8AE"/>
<path d="M28.6556 4.9541H27.27C26.9248 4.9541 26.6449 5.23398 26.6449 5.57916C26.6449 5.92435 26.9248 6.20423 27.27 6.20423H28.6556C29.8102 6.20423 30.7496 7.1436 30.7496 8.29823V16.7832C30.7496 17.448 30.4377 18.0409 29.9532 18.4248V16.7902C29.9532 15.5149 29.0432 14.4196 27.7896 14.1858L27.3856 14.1105C27.4757 13.8342 27.525 13.5399 27.525 13.2339V11.7975C27.525 10.2357 26.2544 8.9651 24.6925 8.9651C23.1307 8.9651 21.8602 10.2357 21.8602 11.7975V13.2339C21.8602 13.5399 21.9095 13.8342 21.9996 14.1105L21.5955 14.1858C20.3419 14.4195 19.432 15.5149 19.432 16.7902V18.6022C18.8002 18.2413 18.3732 17.5614 18.3732 16.7832V8.29823C18.3732 7.1436 19.3125 6.20423 20.4672 6.20423H21.9569C22.3021 6.20423 22.582 5.92435 22.582 5.57916C22.582 5.23398 22.302 4.9541 21.9569 4.9541H20.4672C18.6232 4.9541 17.123 6.45429 17.123 8.29823V16.7832C17.123 18.6271 18.6232 20.1273 20.4672 20.1273H23.6125V21.9245C23.6125 22.1769 23.7644 22.4047 23.9975 22.5015C24.0751 22.5339 24.1566 22.5495 24.2375 22.5495C24.3995 22.5495 24.5588 22.4865 24.6782 22.3679L26.933 20.1273H28.6556C30.4995 20.1273 31.9997 18.6271 31.9997 16.7832V8.29823C31.9997 6.45429 30.4995 4.9541 28.6556 4.9541ZM23.1102 11.7975C23.1102 10.925 23.82 10.2152 24.6925 10.2152C25.565 10.2152 26.2748 10.925 26.2748 11.7975V13.2339C26.2748 14.1064 25.565 14.8162 24.6925 14.8162C23.82 14.8162 23.1102 14.1064 23.1102 13.2339V11.7975ZM28.7029 18.8759C28.687 18.8762 28.6714 18.877 28.6554 18.877H26.6752V18.8772C26.5101 18.8772 26.3517 18.9425 26.2346 19.0588L24.8627 20.4222V19.5022C24.8627 19.157 24.5827 18.8771 24.2376 18.8771H20.6822V16.7901C20.6822 16.1167 21.1627 15.5382 21.8247 15.4147L22.7059 15.2504C23.2175 15.7545 23.9192 16.0663 24.6925 16.0663C25.4659 16.0663 26.1676 15.7544 26.6792 15.2503L27.5605 15.4146C28.2225 15.5381 28.703 16.1165 28.703 16.7901V18.8759H28.7029Z" fill="#0FB8AE"/>
<path d="M24.7525 5.13723C24.6363 5.02035 24.475 4.9541 24.3106 4.9541C24.1462 4.9541 23.9849 5.02035 23.8687 5.13723C23.7524 5.25291 23.6855 5.41423 23.6855 5.57916C23.6855 5.74354 23.7524 5.90485 23.8687 6.0211C23.9849 6.13729 24.1462 6.20423 24.3106 6.20423C24.475 6.20423 24.6363 6.13735 24.7525 6.0211C24.8687 5.90423 24.9357 5.7436 24.9357 5.57916C24.9357 5.41416 24.8688 5.25348 24.7525 5.13723Z" fill="#0FB8AE"/>
<path d="M11.6178 21.0274C11.5015 20.9111 11.3409 20.8442 11.1758 20.8442C11.0115 20.8442 10.8502 20.9111 10.734 21.0274C10.6177 21.1436 10.5508 21.3049 10.5508 21.4693C10.5508 21.6343 10.6177 21.795 10.734 21.9112C10.8508 22.0281 11.0115 22.0949 11.1758 22.0949C11.3402 22.0949 11.5015 22.0281 11.6178 21.9112C11.7347 21.795 11.8009 21.6342 11.8009 21.4693C11.8009 21.3049 11.7347 21.1437 11.6178 21.0274Z" fill="#0FB8AE"/>
<path d="M25.3006 26.6792L20.5118 21.8904C19.8743 21.2529 18.8715 21.1597 18.1275 21.6685L15.0711 23.7584C14.823 23.9279 14.4889 23.8969 14.2763 23.6843L13.2657 22.6735C13.0217 22.4296 12.626 22.4295 12.3816 22.6735C12.1375 22.9176 12.1375 23.3134 12.3816 23.5576L13.3923 24.5684C14.0298 25.2058 15.0325 25.2992 15.7767 24.7903L18.833 22.7005C19.081 22.5309 19.4152 22.5619 19.6278 22.7745L24.4166 27.5633C24.6603 27.8069 24.6602 28.2035 24.4165 28.4474C21.3458 31.5181 16.3492 31.5181 13.2785 28.4474L3.55459 18.7234C2.06697 17.2358 1.24784 15.258 1.24784 13.1543C1.24784 11.0505 2.06703 9.07274 3.55466 7.58511C3.67272 7.46705 3.82966 7.40211 3.99659 7.40211C4.16359 7.40211 4.32059 7.46711 4.43859 7.58518L9.22734 12.374C9.43978 12.5864 9.47091 12.9207 9.30141 13.1687L7.21166 16.2251C6.70272 16.9692 6.79609 17.9719 7.43353 18.6095L8.95278 20.1287C9.19691 20.3727 9.5926 20.3727 9.83684 20.1287C10.0809 19.8847 10.0809 19.4889 9.83684 19.2447L8.31759 17.7254C8.10516 17.513 8.07403 17.1787 8.24359 16.9307L10.3334 13.8744C10.8422 13.1302 10.7488 12.1274 10.1114 11.49L5.32266 6.70118C4.59153 5.97005 3.40184 5.97005 2.67059 6.70118C-0.887593 10.2594 -0.887593 16.0491 2.67059 19.6074L12.3945 29.3312C14.1736 31.1103 16.5105 31.9999 18.8475 31.9999C21.1845 31.9998 23.5214 31.1102 25.3005 29.3312C26.0317 28.6 26.0317 27.4104 25.3006 26.6792Z" fill="#0FB8AE"/>
<path d="M8.41873 15.3701L4.62961 11.5809C4.38542 11.3369 3.98973 11.3369 3.74555 11.5809C3.50148 11.8251 3.50148 12.2209 3.74555 12.465L7.53473 16.2541C7.6568 16.3761 7.81667 16.4372 7.97673 16.4372C8.13667 16.4372 8.29667 16.3761 8.41873 16.2541C8.6628 16.01 8.6628 15.6142 8.41873 15.3701Z" fill="#0FB8AE"/>
<path d="M22.9231 29.872L18.9362 25.8851C18.6921 25.6411 18.2964 25.6411 18.0522 25.8851C17.8081 26.1293 17.8081 26.5251 18.0522 26.7692L22.039 30.756C22.1611 30.878 22.3209 30.9391 22.481 30.9391C22.6409 30.9391 22.8009 30.878 22.9231 30.756C23.1671 30.5118 23.1671 30.1161 22.9231 29.872Z" fill="#0FB8AE"/>
</svg>
