<svg width="30" height="30" viewBox="0 0 30 30" fill="none" xmlns="http://www.w3.org/2000/svg">
<g clip-path="url(#clip0)">
<path d="M15.6184 16.9952C14.4976 16.99 13.3841 16.8144 12.3161 16.4744C10.6097 15.9035 9.34228 14.4589 8.99825 12.6927C8.6218 10.8795 9.30785 8.96222 10.8801 7.43272C11.0488 7.26842 11.2241 7.11103 11.406 6.96057C13.0158 5.61284 15.1861 5.14447 17.2085 5.70837C19.1664 6.33327 20.5192 8.12254 20.5869 10.1766C20.6602 11.359 20.2748 12.5241 19.5109 13.4296C18.9218 14.1717 17.9672 14.5222 17.0378 14.3378C16.6577 14.2589 16.3261 14.0287 16.1192 13.7002C15.9337 13.3811 15.8861 13.0001 15.9874 12.6452C16.4247 10.9924 16.8692 8.48062 16.8736 8.45517C16.9047 8.27921 17.0273 8.13319 17.1952 8.07211C17.3631 8.01103 17.5508 8.04416 17.6877 8.15904C17.8245 8.27391 17.8897 8.45306 17.8586 8.62902C17.8401 8.73352 17.4023 11.2076 16.9543 12.9008C16.9224 12.9946 16.9304 13.0974 16.9765 13.1852C17.0457 13.2808 17.15 13.3451 17.2665 13.3639C17.8355 13.4588 18.4102 13.2306 18.759 12.7711C19.3522 12.0614 19.6494 11.1506 19.589 10.2277C19.5401 8.59266 18.4679 7.1652 16.9113 6.66267C15.2121 6.19531 13.3918 6.59457 12.0443 7.73017C11.8836 7.86352 11.7274 8.00312 11.5775 8.14912C10.8002 8.90522 9.5589 10.4741 9.97715 12.4891C10.2582 13.8969 11.2636 15.0506 12.6197 15.5214C14.9647 16.2694 18.3343 16.3595 20.1097 14.152C20.2841 13.9419 20.5948 13.9106 20.8076 14.0817C21.0204 14.2528 21.0567 14.5629 20.889 14.7784C19.5761 16.4111 17.5783 16.9952 15.6184 16.9952Z" fill="#0FB8AE"/>
<path d="M13.9082 14.403C13.3797 14.4121 12.8642 14.2388 12.4485 13.9122C11.4888 13.1442 11.4624 11.8099 11.7314 10.9013C11.822 10.5987 11.9437 10.3063 12.0945 10.0287C12.4696 9.27175 13.0695 8.6492 13.812 8.24624C14.7367 7.76644 15.8664 7.94839 16.5937 8.69424C16.9545 9.08965 17.2263 9.55787 17.3907 10.0673C17.4778 10.3258 17.3416 10.6064 17.0846 10.6979C16.8277 10.7894 16.5448 10.6581 16.4488 10.4027C16.3303 10.0264 16.1332 9.67947 15.8707 9.38489C15.4467 8.95127 14.786 8.85261 14.2538 9.14344C13.697 9.45748 13.2495 9.93427 12.9713 10.5099C12.8544 10.7256 12.76 10.9527 12.6896 11.1876C12.4953 11.8449 12.538 12.7026 13.0741 13.132C13.6603 13.6027 14.6491 13.4037 15.2055 12.9237C15.6201 12.5505 15.9763 12.1171 16.2623 11.6381C16.3549 11.4829 16.5241 11.3898 16.7047 11.3945C16.8854 11.3992 17.0494 11.501 17.1338 11.6608C17.2182 11.8206 17.2098 12.0135 17.1118 12.1654C16.7731 12.7298 16.3514 13.2401 15.8608 13.679C15.3141 14.1403 14.6235 14.3964 13.9082 14.403Z" fill="#0FB8AE"/>
<path d="M28.5 30.0003H1.5C0.67195 29.9994 0.000909355 29.3284 0 28.5003V10.0003C7.86e-06 9.80643 0.112108 9.63002 0.287642 9.54768C0.463175 9.46533 0.670491 9.49188 0.8196 9.61582L13.0882 19.8121C14.1982 20.7289 15.8028 20.7286 16.9126 19.8114L29.18 9.61582C29.3291 9.49163 29.5366 9.46492 29.7123 9.5473C29.888 9.62968 30.0001 9.80627 30 10.0003V28.5003C29.9991 29.3284 29.3281 29.9994 28.5 30.0003ZM1 11.066V28.5003C1.00036 28.7763 1.22401 29 1.5 29.0003H28.5C28.776 29.0001 28.9998 28.7764 29 28.5003V11.066L17.5511 20.581C16.0707 21.8043 13.9304 21.8046 12.4497 20.5817L1 11.066Z" fill="#0FB8AE"/>
<path d="M0.500734 10.5C0.282949 10.5002 0.0900861 10.3594 0.0239165 10.1519C-0.042253 9.94445 0.0334925 9.718 0.211184 9.59208L4.71118 6.40208C4.93648 6.24593 5.2455 6.3003 5.40397 6.52396C5.56245 6.74763 5.51129 7.05719 5.28928 7.21798L0.789284 10.408C0.705021 10.4679 0.604152 10.5001 0.500734 10.5Z" fill="#0FB8AE"/>
<path d="M29.4994 10.5C29.396 10.5001 29.2952 10.4679 29.2109 10.408L24.7109 7.21798C24.4889 7.05719 24.4377 6.74763 24.5962 6.52396C24.7547 6.3003 25.0637 6.24593 25.289 6.40208L29.789 9.59208C29.9667 9.718 30.0424 9.94445 29.9763 10.1519C29.9101 10.3594 29.7172 10.5002 29.4994 10.5Z" fill="#0FB8AE"/>
<path d="M19.6204 3.50016C19.5169 3.50022 19.416 3.46804 19.3316 3.40811L16.9416 1.71311C15.8321 0.775604 14.2109 0.765838 13.0903 1.68991L10.6703 3.40816C10.5245 3.51152 10.3347 3.52927 10.1723 3.45473C10.01 3.38019 9.89967 3.22468 9.88304 3.04678C9.8664 2.86888 9.94594 2.69562 10.0917 2.59226L12.4817 0.897262C13.9585 -0.310256 16.0842 -0.300651 17.5501 0.920162L19.9101 2.59206C20.0879 2.71795 20.1638 2.94451 20.0975 3.1521C20.0313 3.35969 19.8383 3.5005 19.6204 3.50016Z" fill="#0FB8AE"/>
<path d="M0.824681 29.7302C0.613965 29.7304 0.425749 29.5985 0.354066 29.4003C0.282383 29.2022 0.342619 28.9803 0.504681 28.8457L11.9147 19.3657C12.0518 19.2491 12.241 19.2152 12.41 19.2769C12.5791 19.3386 12.7019 19.4864 12.7317 19.6639C12.7615 19.8414 12.6935 20.0212 12.5538 20.1347L1.14383 29.6147C1.05425 29.6893 0.941308 29.7302 0.824681 29.7302Z" fill="#0FB8AE"/>
<path d="M29.1748 29.7302C29.0583 29.7302 28.9454 29.6894 28.856 29.6147L17.446 20.1347C17.3063 20.0212 17.2384 19.8414 17.2681 19.6639C17.2979 19.4864 17.4207 19.3386 17.5898 19.2769C17.7588 19.2152 17.948 19.2491 18.0851 19.3657L29.4948 28.8457C29.6569 28.9803 29.7171 29.2022 29.6455 29.4003C29.5738 29.5985 29.3856 29.7304 29.1748 29.7302Z" fill="#0FB8AE"/>
<path d="M24.9993 14.2403C24.7231 14.2403 24.4993 14.0165 24.4993 13.7403V3.50423C24.4978 3.51473 24.4778 3.50058 24.4443 3.50033H5.55427C5.53217 3.49897 5.51048 3.50674 5.49427 3.52183L5.49927 13.7403C5.49927 14.0165 5.27541 14.2403 4.99927 14.2403C4.72313 14.2403 4.49927 14.0165 4.49927 13.7403V3.50033C4.5154 2.93328 4.98716 2.48611 5.55427 2.50033H24.4443C25.0114 2.48616 25.4831 2.9333 25.4993 3.50033V13.7403C25.4993 14.0165 25.2754 14.2403 24.9993 14.2403Z" fill="#0FB8AE"/>
</g>
<defs>
<clipPath id="clip0">
<rect width="30" height="30" fill="white"/>
</clipPath>
</defs>
</svg>
