<svg width="32" height="32" viewBox="0 0 32 32" fill="none" xmlns="http://www.w3.org/2000/svg">
<g clip-path="url(#clip0)">
<path d="M28.8621 20.0129C27.4109 19.8219 25.98 19.4657 24.6093 18.9553C23.2819 18.4576 21.7736 18.7787 20.7634 19.7755L19.0776 21.4576C15.5426 19.3734 12.5896 16.4262 10.5005 12.8982L12.1875 11.215C13.1848 10.2086 13.5069 8.70196 13.0083 7.37771C12.4968 6.00921 12.14 4.58147 11.948 3.1281C11.6925 1.32647 10.1325 -0.00739883 8.30909 -0.000461345H3.64297C3.53416 -0.000461345 3.42535 0.00485114 3.31766 0.0144761C2.34854 0.101976 1.47123 0.561163 0.84773 1.30679C0.224294 2.05291 -0.0712056 2.99691 0.0173567 3.97341C0.534168 8.83102 2.21416 13.5654 4.87285 17.6614C7.28672 21.4523 10.5705 24.7296 14.3651 27.136C18.4536 29.7824 23.1752 31.4587 28.0301 31.9851C28.14 31.9947 28.2504 31.9995 28.3613 31.9995C28.3645 31.9995 28.3677 31.9995 28.3714 31.9995C30.381 31.9909 32.0087 30.3525 32.0007 28.3488V23.6987C32.0429 21.855 30.6967 20.271 28.8621 20.0129ZM30.9341 23.6795C30.9341 23.6837 30.9341 23.6886 30.9341 23.6928V28.3515C30.9394 29.7691 29.788 30.9275 28.3677 30.9334C28.2846 30.9302 28.2045 30.9302 28.1341 30.9237C23.4547 30.416 18.8936 28.7968 14.94 26.2379C11.2728 23.912 8.10272 20.7482 5.76991 17.0843C3.19973 13.1249 1.57735 8.55208 1.07867 3.86891C1.01679 3.18516 1.22535 2.51853 1.66642 1.99103C2.10748 1.46354 2.72773 1.13879 3.4136 1.07691C3.48985 1.06997 3.56616 1.06622 3.64291 1.06622H8.31384C8.3224 1.06622 8.3309 1.06622 8.33947 1.06622C9.61734 1.06622 10.7123 2.01291 10.8909 3.27259C11.093 4.80059 11.469 6.30778 12.0093 7.75259C12.3618 8.68909 12.1341 9.75364 11.4316 10.4625L9.45621 12.4336C9.28553 12.6038 9.25034 12.8662 9.36928 13.0753C11.6295 17.0433 14.9261 20.3329 18.901 22.5883C19.1101 22.7072 19.3714 22.671 19.541 22.5019L21.5143 20.5329C22.2274 19.8294 23.2956 19.6028 24.2354 19.9548C25.6817 20.4934 27.1916 20.8694 28.7175 21.0699C30.0135 21.2523 30.9666 22.3739 30.9341 23.6795Z" fill="#0FB8AE"/>
</g>
<defs>
<clipPath id="clip0">
<rect width="32" height="32" fill="white"/>
</clipPath>
</defs>
</svg>
