<svg width="30" height="32" viewBox="0 0 30 32" fill="none" xmlns="http://www.w3.org/2000/svg">
<g clip-path="url(#clip0)">
<path d="M29.2277 9.25534L21.773 1.4881C20.7429 0.414774 19.0758 0.414774 18.0457 1.4881L5.62123 14.4334C4.59116 15.5067 4.59104 17.2437 5.62123 18.317L13.0759 26.0843C14.1061 27.1576 15.7731 27.1577 16.8033 26.0843L29.2278 13.1389C30.2579 12.0657 30.2579 10.3286 29.2277 9.25534ZM20.7879 3.05074L27.7279 10.2817H20.7879V3.05074ZM14.0611 24.5216L7.121 17.2906H14.061V24.5216H14.0611ZM7.12094 15.466L19.0367 3.05068V14.5445C19.0367 15.0493 18.6368 15.466 18.1523 15.466H7.12094ZM15.8123 24.5217V17.2906H18.1523C19.6056 17.2906 20.7879 16.0587 20.7879 14.5445V12.1064H27.728L15.8123 24.5217Z" fill="#0FB8AE"/>
<path d="M6.84251 22.2222C6.49939 21.8647 5.9431 21.8647 5.60003 22.2222L0.257343 27.7888C-0.085781 28.1463 -0.085781 28.7259 0.257343 29.0833C0.600409 29.4408 1.15676 29.4408 1.49976 29.0833L6.84251 23.5167C7.18564 23.1592 7.18564 22.5797 6.84251 22.2222Z" fill="#0FB8AE"/>
<path d="M4.35763 19.6334C4.0145 19.2758 3.45821 19.2758 3.1152 19.6334L0.257344 22.6111C-0.0857814 22.9686 -0.0857814 23.5481 0.257344 23.9056C0.600412 24.2631 1.15676 24.2631 1.49977 23.9056L4.35763 20.9279C4.7007 20.5705 4.7007 19.9909 4.35763 19.6334Z" fill="#0FB8AE"/>
<path d="M9.32743 24.8111C8.9843 24.4536 8.42801 24.4536 8.08495 24.8112L2.74221 30.3779C2.39908 30.7354 2.39908 31.315 2.74221 31.6724C3.08527 32.0299 3.64162 32.0299 3.98463 31.6724L9.32737 26.1057C9.67049 25.7482 9.67049 25.1686 9.32743 24.8111Z" fill="#0FB8AE"/>
<path d="M11.8117 27.4005C11.4687 27.0429 10.9124 27.0429 10.5693 27.4005L7.71145 30.3782C7.36832 30.7357 7.36832 31.3153 7.71145 31.6728C8.05452 32.0303 8.61087 32.0303 8.95388 31.6728L11.8117 28.695C12.1549 28.3375 12.1549 27.7579 11.8117 27.4005Z" fill="#0FB8AE"/>
</g>
<defs>
<clipPath id="clip0">
<rect width="30" height="32" fill="white"/>
</clipPath>
</defs>
</svg>
