<svg width="32" height="33" viewBox="0 0 32 33" fill="none" xmlns="http://www.w3.org/2000/svg">
<path d="M25.9927 28.322L24.7951 24.7452C24.3766 23.4965 23.3088 22.5747 22.0072 22.3389L18.5498 21.7127V21.446C19.1514 21.0984 19.675 20.6334 20.092 20.0829H21.1365C21.9922 20.0829 22.6885 19.3898 22.6885 18.5381V12.3588C22.6885 8.66769 19.6714 5.66455 15.9631 5.66455C12.2548 5.66455 9.23763 8.66769 9.23763 12.3588V15.9634C9.23763 16.9562 9.94691 17.7868 10.8874 17.9804C11.1777 19.4604 12.1068 20.7127 13.3764 21.446V21.7127L9.91845 22.3389C8.61734 22.5747 7.54903 23.4965 7.13102 24.7452L6.92409 25.3637L5.16202 23.6098C4.96026 23.4089 4.96026 23.0819 5.16202 22.8811L7.20552 20.8476L3.36996 17.0298L1.06055 19.3285C0.376624 20.0093 0 20.9146 0 21.8775C0 22.8404 0.376624 23.7452 1.06055 24.4259L8.05241 31.3854C8.73633 32.0661 9.64582 32.4415 10.6132 32.4415C11.5807 32.4415 12.4896 32.0661 13.1575 31.4008L15.6775 29.1026L14.8917 28.322H25.9927ZM21.6538 18.5381C21.6538 18.8223 21.4215 19.053 21.1365 19.053H20.7014C20.8514 18.7127 20.9652 18.3537 21.0387 17.9804C21.2601 17.9346 21.4639 17.847 21.6538 17.7368V18.5381ZM21.1365 16.8501V15.0767C21.4443 15.2553 21.6538 15.5839 21.6538 15.9634C21.6538 16.3429 21.4443 16.6714 21.1365 16.8501ZM10.7897 16.8501C10.4818 16.6714 10.2723 16.3429 10.2723 15.9634C10.2723 15.5839 10.4818 15.2553 10.7897 15.0767V16.8501ZM10.7897 13.3887V13.9767C10.6055 14.0246 10.4327 14.0967 10.2723 14.1899V12.3588C10.2723 9.23567 12.8254 6.69443 15.9631 6.69443C19.1007 6.69443 21.6538 9.23567 21.6538 12.3588V14.1899C21.4934 14.0967 21.3206 14.0241 21.1365 13.9767V13.3887H20.6191C19.0894 13.3887 17.6511 12.7955 16.5689 11.7187L15.9631 11.1157L15.3573 11.7187C14.275 12.7955 12.8368 13.3887 11.307 13.3887H10.7897ZM11.8243 16.9933V14.399C13.3779 14.2826 14.8265 13.6446 15.9631 12.5689C17.0997 13.6446 18.5482 14.2831 20.1018 14.399V16.9933C20.1018 17.7441 19.8959 18.4464 19.542 19.053H15.9631V20.0829H18.6915C17.9621 20.722 17.0086 21.1128 15.9631 21.1128C13.6811 21.1128 11.8243 19.2647 11.8243 16.9933ZM17.5151 21.9053V21.9295L15.9631 23.4743L14.411 21.9295V21.9053C14.9015 22.0588 15.4224 22.1427 15.9631 22.1427C16.5037 22.1427 17.0246 22.0588 17.5151 21.9053ZM8.1119 25.0707C8.41041 24.1788 9.17348 23.5202 10.1031 23.3513L13.7194 22.6973L15.9631 24.9306L18.2063 22.6978L21.8219 23.3518C22.7516 23.5207 23.5147 24.1788 23.8132 25.0712L24.5576 27.2921H13.857L11.8419 25.2864L9.60288 27.3024C9.40784 27.4976 9.06691 27.4976 8.87136 27.3024L7.74149 26.1778L8.1119 25.0707ZM3.36944 18.4861L5.74196 20.8476L5.18013 21.4068L2.80761 19.0453L3.36944 18.4861ZM12.441 30.6583C11.9526 31.1434 11.3029 31.4116 10.6122 31.4116C9.92156 31.4116 9.27178 31.1434 8.78289 30.6573L1.79103 23.6983C1.30266 23.2122 1.03365 22.5655 1.03365 21.878C1.03365 21.19 1.30266 20.5433 1.79103 20.0572L2.07557 19.774L4.44809 22.1355L4.42947 22.154C3.8247 22.7565 3.8247 23.7364 4.42947 24.3389L8.13932 28.0316C8.43265 28.323 8.82221 28.4842 9.23712 28.4842C9.65202 28.4842 10.0416 28.3235 10.3158 28.0496L10.3546 28.0151L12.738 30.3874L12.441 30.6583ZM13.5016 29.6902L11.1233 27.323L11.8067 26.7082L14.1808 29.0712L13.5016 29.6902Z" fill="#0FB8AE"/>
<path d="M30.4471 0.515137H23.2044C22.3487 0.515137 21.6523 1.20825 21.6523 2.05997V6.17951C21.6523 7.03122 22.3487 7.72434 23.2044 7.72434H24.5862L24.0512 10.83L29.0436 7.72434H30.4471C31.3028 7.72434 31.9991 7.03122 31.9991 6.17951V2.05997C31.9991 1.20825 31.3028 0.515137 30.4471 0.515137ZM30.9645 6.17951C30.9645 6.46324 30.7322 6.69445 30.4471 6.69445H28.7466L25.461 8.73826L25.8133 6.69445H23.2044C22.9193 6.69445 22.687 6.46324 22.687 6.17951V2.05997C22.687 1.77623 22.9193 1.54502 23.2044 1.54502H30.4471C30.7322 1.54502 30.9645 1.77623 30.9645 2.05997V6.17951Z" fill="#0FB8AE"/>
<path d="M29.9327 2.5752H23.7246V3.60498H29.9327V2.5752Z" fill="#0FB8AE"/>
<path d="M27.8633 4.63477H23.7246V5.66467H27.8633V4.63477Z" fill="#0FB8AE"/>
<path d="M29.9292 4.63477H28.8945V5.66467H29.9292V4.63477Z" fill="#0FB8AE"/>
<path d="M15.9636 2.06006C9.20401 2.06006 3.38134 6.71409 1.8676 13.2059L0.88724 11.5792L0 12.1091L1.81845 15.1251L4.84852 13.3151L4.31618 12.432L2.91418 13.2693C4.38033 7.33047 9.74567 3.08994 15.9636 3.08994C17.3226 3.08994 18.6636 3.29077 19.9492 3.68727L20.2554 2.70373C18.8705 2.27633 17.4266 2.06006 15.9636 2.06006Z" fill="#0FB8AE"/>
<path d="M31.7494 11.917L28.7193 10.1069L26.9014 13.1235L27.7886 13.6533L28.694 12.1513C29.1705 13.539 29.4141 14.9907 29.4141 16.4783C29.4141 19.5407 28.3484 22.5346 26.4141 24.9079L27.2175 25.5568C29.3014 23.0006 30.4488 19.776 30.4488 16.4783C30.4488 14.9031 30.1938 13.365 29.6966 11.8922L31.2171 12.8001L31.7494 11.917Z" fill="#0FB8AE"/>
</svg>
