<svg width="30" height="30" viewBox="0 0 30 30" fill="none" xmlns="http://www.w3.org/2000/svg">
<g clip-path="url(#clip0)">
<path d="M9.84212 20.5354C11.0776 22.2774 12.3112 23.8354 13.1287 24.8389C13.2477 24.9849 13.3592 25.1204 13.4672 25.2508H11.0002C10.724 25.2508 10.5002 25.4747 10.5002 25.7508C10.5002 26.027 10.724 26.2508 11.0002 26.2508H19.0001C19.2763 26.2508 19.5001 26.027 19.5001 25.7508C19.5001 25.4747 19.2763 25.2508 19.0001 25.2508H16.5331C16.6411 25.1204 16.7526 24.9848 16.8722 24.8389C17.6891 23.8388 18.9222 22.2774 20.1582 20.5354C21.3845 18.8417 22.4883 17.0627 23.4612 15.2119C24.4822 13.2068 25.0002 11.5424 25.0002 10.2644C25.0036 7.60884 23.9499 5.06117 22.0717 3.18382C21.9462 3.05374 21.7604 3.00148 21.5855 3.04712C21.4107 3.09277 21.274 3.22917 21.2282 3.40396C21.1823 3.57874 21.2343 3.76466 21.3642 3.89029C23.0547 5.58037 24.0032 7.8738 24.0002 10.2643C24.0002 11.3833 23.5192 12.8953 22.5702 14.7578C21.6193 16.5658 20.5405 18.3035 19.3422 19.9579C18.1232 21.6774 16.9047 23.2179 16.0972 24.2079C15.8287 24.5369 15.5872 24.8279 15.3812 25.0739C15.285 25.1837 15.1462 25.2466 15.0002 25.2466C14.8542 25.2466 14.7154 25.1836 14.6192 25.0739C14.4132 24.8279 14.1717 24.5369 13.9032 24.2079C13.0957 23.2184 11.8772 21.6778 10.6582 19.9579C9.45991 18.3035 8.38113 16.5658 7.43021 14.7578C6.48023 12.8953 6.00023 11.3833 6.00023 10.2643C5.99993 6.64268 8.1658 3.37208 11.5003 1.9588C13.7408 1.0193 16.2648 1.0193 18.5053 1.9588C18.6698 2.02852 18.859 2.00526 19.0017 1.89762C19.1444 1.79005 19.2188 1.6145 19.1969 1.43713C19.1751 1.25977 19.0603 1.10754 18.8958 1.03782C13.8041 -1.10977 7.93541 1.27583 5.78624 6.36682C5.26505 7.59999 4.99774 8.92556 5.00026 10.2643C5.00026 11.5423 5.51829 13.2069 6.53929 15.2143C7.51207 17.0643 8.61592 18.8425 9.84212 20.5354Z" fill="#0FB8AE"/>
<path d="M14.9996 5.75094C15.2758 5.75094 15.4996 5.52711 15.4996 5.25096C15.4996 4.97481 15.2758 4.75098 14.9996 4.75098C12.6143 4.75092 10.561 6.43596 10.0956 8.7755C9.6302 11.115 10.8823 13.4575 13.0861 14.3704C15.2898 15.2833 17.8316 14.5123 19.1569 12.5289C20.4822 10.5456 20.2218 7.90222 18.5351 6.21547C18.4096 6.08551 18.2237 6.03336 18.0489 6.07913C17.8741 6.12489 17.7376 6.26141 17.6918 6.4362C17.646 6.61104 17.6982 6.7969 17.8281 6.92247C19.1776 8.27183 19.3859 10.3864 18.3257 11.9732C17.2656 13.5599 15.2322 14.1768 13.4692 13.4466C11.7061 12.7164 10.7044 10.8424 11.0766 8.97074C11.4488 7.09907 13.0913 5.751 14.9996 5.75094Z" fill="#0FB8AE"/>
<path d="M29.812 27.5366L26.737 22.0365C26.459 21.5478 25.9387 21.2475 25.3765 21.251H21.813C21.5368 21.251 21.313 21.4748 21.313 21.751C21.313 22.0271 21.5368 22.251 21.813 22.251H25.3765C25.5766 22.2471 25.7634 22.3515 25.865 22.524L28.939 28.024C29.0227 28.1671 29.021 28.3446 28.9345 28.486C28.8324 28.6548 28.6477 28.7558 28.4505 28.751H1.55044C1.35345 28.7557 1.169 28.6546 1.06693 28.486C0.980442 28.3446 0.978743 28.1671 1.06241 28.024L4.13643 22.524C4.23785 22.3515 4.42442 22.2472 4.6244 22.251H8.1879C8.46406 22.251 8.68789 22.0271 8.68789 21.751C8.68789 21.4748 8.46406 21.251 8.1879 21.251H4.62446C4.06195 21.2473 3.54129 21.5477 3.26297 22.0365L0.188428 27.5366C-0.0679206 27.9894 -0.0620026 28.5448 0.203955 28.9921C0.484151 29.4683 0.997962 29.758 1.55044 29.7511H28.4505C29.0028 29.7578 29.5164 29.4682 29.7965 28.9921C30.0625 28.5448 30.0684 27.9894 29.812 27.5366Z" fill="#0FB8AE"/>
<path d="M24.4999 23.751H22.4999C22.4011 23.7512 22.3046 23.7803 22.2224 23.835L20.7224 24.835C20.4926 24.9883 20.4306 25.2988 20.5838 25.5285C20.7371 25.7583 21.0476 25.8203 21.2774 25.6671L22.6499 24.7511H24.4999C24.776 24.7511 24.9999 24.5272 24.9999 24.2511C24.9999 23.9748 24.776 23.751 24.4999 23.751Z" fill="#0FB8AE"/>
<path d="M21.4998 27.251C21.4998 27.5271 21.7236 27.7509 21.9997 27.7509H25.9998C26.2759 27.7509 26.4998 27.5271 26.4998 27.251C26.4998 26.9748 26.2759 26.751 25.9998 26.751H21.9997C21.7236 26.751 21.4998 26.9748 21.4998 27.251Z" fill="#0FB8AE"/>
<path d="M9.0012 25.751C9.22163 25.7513 9.41622 25.6072 9.48026 25.3962C9.54431 25.1853 9.46263 24.9573 9.27923 24.835L7.77922 23.835C7.69684 23.7803 7.6001 23.751 7.50119 23.751H5.5012C5.22505 23.751 5.00122 23.9749 5.00122 24.251C5.00122 24.5271 5.22511 24.7509 5.5012 24.7509H7.35119L8.72522 25.6669C8.80696 25.7216 8.90299 25.7508 9.0012 25.751Z" fill="#0FB8AE"/>
<path d="M4.00071 26.751C3.72456 26.751 3.50073 26.9748 3.50073 27.251C3.50073 27.5271 3.72456 27.7509 4.00071 27.7509H8.00075C8.2769 27.7509 8.50073 27.5271 8.50073 27.251C8.50073 26.9748 8.2769 26.751 8.00075 26.751H4.00071Z" fill="#0FB8AE"/>
</g>
<defs>
<clipPath id="clip0">
<rect width="30" height="30" fill="white"/>
</clipPath>
</defs>
</svg>
