<svg width="32" height="33" viewBox="0 0 32 33" fill="none" xmlns="http://www.w3.org/2000/svg">
<path d="M28.25 0.0439453H3.75C1.68213 0.0439453 0 1.76803 0 3.88748V20.2866C0 22.406 1.68213 24.1301 3.75 24.1301H5.76953C6.26514 23.1662 6.91821 22.2999 7.6936 21.5678H3.75C3.06079 21.5678 2.5 20.993 2.5 20.2866V4.67295L16 14.9649L29.5 4.67295V20.2866C29.5 20.993 28.9392 21.5678 28.25 21.5678H25.25V24.1301H28.25C30.3179 24.1301 32 22.406 32 20.2866V3.88748C32 1.76803 30.3179 0.0439453 28.25 0.0439453ZM3.97803 2.6063H28.022L16 11.7715L3.97803 2.6063ZM17.2039 17.1935L22.7771 22.9057L17.2039 28.618L15.436 26.8063L18.0469 24.1301H13.9802C11.6257 24.1301 9.70996 26.0934 9.70996 28.5069C9.70996 29.6249 10.2783 30.5968 10.7551 31.2151L8.7937 32.8036C7.75757 31.4601 7.20996 29.9742 7.20996 28.5069C7.20996 24.6806 10.2471 21.5678 13.9802 21.5678H17.936L15.436 19.0054L17.2039 17.1935Z" fill="#0FB8AE"/>
</svg>
