<svg width="34" height="34" viewBox="0 0 34 34" fill="none" xmlns="http://www.w3.org/2000/svg">
<path d="M12.0196 9.46875L11.4445 9.67713C10.5571 9.99893 9.89502 10.7752 9.71658 11.7036L9.52148 12.726C9.42413 13.2325 9.55668 13.7511 9.88532 14.1488C10.2141 14.5469 10.6989 14.7752 11.2151 14.7752H16.1994C16.7116 14.7752 17.1939 14.5499 17.5226 14.157C17.8511 13.7645 17.9877 13.2506 17.8976 12.747L17.7156 11.73C17.547 10.787 16.8827 9.99807 15.9819 9.67115L15.3723 9.45022V8.55174C15.3723 8.52651 15.3698 8.50194 15.3662 8.4777C15.8109 8.02494 16.0656 7.40756 16.0656 6.77591V5.43722C16.0656 4.13048 15.0025 3.06738 13.6956 3.06738C12.3888 3.06738 11.3255 4.13048 11.3255 5.43722V6.81761C11.3255 7.46693 11.5932 8.05974 12.0237 8.49025C12.0212 8.51044 12.0196 8.53082 12.0196 8.55168V9.46875ZM16.7349 11.9053L16.9169 12.9225C16.955 13.135 16.8973 13.352 16.7586 13.5177C16.6196 13.6838 16.4158 13.779 16.1992 13.779H11.215C10.9968 13.779 10.792 13.6826 10.6531 13.5144C10.5145 13.3465 10.4585 13.1277 10.4996 12.9134L10.6947 11.891C10.8072 11.3059 11.2246 10.8164 11.7838 10.6137L12.1605 10.4772C12.1699 10.4869 12.1794 10.4966 12.1896 10.5056C12.6188 10.8809 13.1572 11.0685 13.6958 11.0685C14.2339 11.0685 14.7721 10.8812 15.2013 10.5067C15.2168 10.4932 15.231 10.4787 15.2446 10.4635L15.6419 10.6075C16.2099 10.8135 16.6287 11.3108 16.7349 11.9053ZM12.3216 5.43722C12.3216 4.67979 12.9379 4.06348 13.6954 4.06348C14.3348 4.06348 14.872 4.50309 15.0246 5.09543C14.9606 5.12671 14.8949 5.15626 14.8276 5.18315C14.2152 5.42832 13.7205 5.39579 13.5792 5.29671C13.3539 5.13879 13.0434 5.19325 12.8854 5.4185C12.7275 5.64375 12.782 5.95426 13.0072 6.11224C13.2505 6.28284 13.5806 6.36811 13.9574 6.36811C14.2997 6.36811 14.6806 6.29698 15.0694 6.15627V6.77577C15.0694 7.15648 14.9119 7.52929 14.6374 7.79856C14.5103 7.92327 14.3646 8.01989 14.2082 8.08657C14.1973 8.09075 14.1865 8.09527 14.176 8.10018C14.0153 8.16373 13.8437 8.19567 13.6684 8.19109C12.9257 8.17681 12.3216 7.56063 12.3216 6.81754V5.43722ZM13.6492 9.18712C13.6644 9.18738 13.6795 9.18752 13.6947 9.18752C13.9284 9.18752 14.1574 9.15239 14.3761 9.08498V9.88179C13.961 10.1377 13.4304 10.1376 13.0158 9.88139V9.08644C13.2173 9.14747 13.4296 9.18287 13.6492 9.18712Z" fill="#0FB8AE"/>
<path d="M5.86133 23.3022H21.3718C21.647 23.3022 21.8699 23.0793 21.8699 22.8042C21.8699 22.5291 21.647 22.3062 21.3718 22.3062H5.86133C5.58621 22.3062 5.36328 22.5291 5.36328 22.8042C5.36328 23.0793 5.58621 23.3022 5.86133 23.3022Z" fill="#0FB8AE"/>
<path d="M5.86133 25.9878H21.3718C21.647 25.9878 21.8699 25.7649 21.8699 25.4897C21.8699 25.2146 21.647 24.9917 21.3718 24.9917H5.86133C5.58621 24.9917 5.36328 25.2146 5.36328 25.4897C5.36328 25.7649 5.58621 25.9878 5.86133 25.9878Z" fill="#0FB8AE"/>
<path d="M5.86133 28.6733H21.3718C21.647 28.6733 21.8699 28.4504 21.8699 28.1753C21.8699 27.9002 21.647 27.6772 21.3718 27.6772H5.86133C5.58621 27.6772 5.36328 27.9002 5.36328 28.1753C5.36328 28.4504 5.58621 28.6733 5.86133 28.6733Z" fill="#0FB8AE"/>
<path d="M5.86133 31.3589H21.3718C21.647 31.3589 21.8699 31.136 21.8699 30.8608C21.8699 30.5857 21.647 30.3628 21.3718 30.3628H5.86133C5.58621 30.3628 5.36328 30.5857 5.36328 30.8608C5.36328 31.136 5.58621 31.3589 5.86133 31.3589Z" fill="#0FB8AE"/>
<path d="M5.36328 17.4331C5.36328 17.7082 5.58621 17.9311 5.86133 17.9311H21.3718C21.647 17.9311 21.8699 17.7082 21.8699 17.4331C21.8699 17.158 21.647 16.9351 21.3718 16.9351H5.86133C5.58621 16.9351 5.36328 17.158 5.36328 17.4331Z" fill="#0FB8AE"/>
<path d="M5.86133 20.6167H21.3718C21.647 20.6167 21.8699 20.3938 21.8699 20.1187C21.8699 19.8435 21.647 19.6206 21.3718 19.6206H5.86133C5.58621 19.6206 5.36328 19.8435 5.36328 20.1187C5.36328 20.3938 5.58621 20.6167 5.86133 20.6167Z" fill="#0FB8AE"/>
<path d="M4.02139 23.304C4.29751 23.304 4.52136 23.0802 4.52136 22.8041C4.52136 22.5281 4.29751 22.3042 4.02139 22.3042C3.74527 22.3042 3.52148 22.528 3.52148 22.8041C3.52148 23.0802 3.74534 23.304 4.02139 23.304Z" fill="#0FB8AE"/>
<path d="M4.02139 17.9329C4.29751 17.9329 4.52136 17.7091 4.52136 17.433C4.52136 17.1569 4.29751 16.9331 4.02139 16.9331C3.74527 16.9331 3.52148 17.1569 3.52148 17.433C3.52148 17.7091 3.74534 17.9329 4.02139 17.9329Z" fill="#0FB8AE"/>
<path d="M4.02139 20.6185C4.29751 20.6185 4.52136 20.3947 4.52136 20.1186C4.52136 19.8424 4.29751 19.6187 4.02139 19.6187C3.74527 19.6187 3.52148 19.8424 3.52148 20.1186C3.52148 20.3947 3.74534 20.6185 4.02139 20.6185Z" fill="#0FB8AE"/>
<path d="M4.02139 25.9896C4.29751 25.9896 4.52136 25.7658 4.52136 25.4897C4.52136 25.2135 4.29751 24.9897 4.02139 24.9897C3.74527 24.9897 3.52148 25.2135 3.52148 25.4897C3.52148 25.7658 3.74534 25.9896 4.02139 25.9896Z" fill="#0FB8AE"/>
<path d="M4.02139 28.6751C4.29751 28.6751 4.52136 28.4513 4.52136 28.1752C4.52136 27.8991 4.29751 27.6753 4.02139 27.6753C3.74527 27.6753 3.52148 27.8991 3.52148 28.1752C3.52148 28.4513 3.74534 28.6751 4.02139 28.6751Z" fill="#0FB8AE"/>
<path d="M4.02139 31.3607C4.29751 31.3607 4.52136 31.1369 4.52136 30.8607C4.52136 30.5847 4.29751 30.3608 4.02139 30.3608C3.74527 30.3608 3.52148 30.5846 3.52148 30.8607C3.52148 31.1368 3.74534 31.3607 4.02139 31.3607Z" fill="#0FB8AE"/>
<path d="M32.2486 7.84397C32.0476 7.58964 31.8577 7.34931 31.7659 7.12791C31.6668 6.88892 31.6278 6.57316 31.5865 6.23873C31.514 5.6529 31.4319 4.9889 30.9685 4.52559C30.5052 4.06227 29.8411 3.98019 29.2553 3.90774C28.9208 3.86644 28.6049 3.82739 28.3659 3.72831C28.1444 3.63647 27.9042 3.44668 27.6498 3.24567C27.2997 2.96909 26.9148 2.66541 26.4596 2.52762V2.37695C26.4597 1.06635 25.3933 0 24.0825 0H3.33424C2.02345 0 0.957031 1.06635 0.957031 2.37701V4.29941C0.957031 4.57453 1.17996 4.79745 1.45508 4.79745C1.7302 4.79745 1.95313 4.57453 1.95313 4.29941V2.37701C1.95313 1.61553 2.5727 0.996094 3.33424 0.996094H24.0825C24.844 0.996094 25.4636 1.61553 25.4636 2.37701V2.52775C25.0086 2.66561 24.6238 2.96916 24.2737 3.24574C24.0193 3.44668 23.7791 3.63654 23.5577 3.72838C23.3187 3.82739 23.0028 3.86644 22.6683 3.90781C22.0825 3.98019 21.4185 4.06227 20.955 4.52559C20.4916 4.98897 20.4095 5.65296 20.337 6.2388C20.2957 6.57316 20.2567 6.88898 20.1576 7.12798C20.0658 7.34938 19.8759 7.5897 19.6749 7.84404C19.3028 8.31493 18.8811 8.84863 18.8811 9.53189C18.8811 10.2151 19.3028 10.7488 19.6749 11.2197C19.8758 11.4741 20.0658 11.7144 20.1576 11.9358C20.2567 12.1748 20.2957 12.4906 20.337 12.825C20.4095 13.4108 20.4916 14.0748 20.9549 14.5381C21.4183 15.0015 22.0824 15.0835 22.6682 15.156C22.8429 15.1775 23.0121 15.1987 23.1684 15.2279V22.7562C23.1684 23.0513 23.3331 23.3148 23.5982 23.4439C23.8633 23.5732 24.1723 23.5404 24.4048 23.3583L25.4635 22.5294V31.6231C25.4635 32.3845 24.844 33.004 24.0824 33.004H3.33424C2.5727 33.004 1.95313 32.3845 1.95313 31.6231V6.49261C1.95313 6.21748 1.7302 5.99456 1.45508 5.99456C1.17996 5.99456 0.957031 6.21748 0.957031 6.49261V31.623C0.957031 32.9336 2.02345 34 3.33424 34H24.0825C25.3933 34 26.4597 32.9336 26.4597 31.623V22.5293L27.5184 23.3582C27.6566 23.4664 27.8219 23.522 27.9892 23.522C28.1031 23.522 28.2179 23.4961 28.3254 23.4437C28.5907 23.3146 28.7555 23.0511 28.7555 22.7562V17.1982C28.7555 16.923 28.5326 16.7001 28.2574 16.7001C27.9823 16.7001 27.7594 16.923 27.7594 17.1982V22.2819L26.4355 21.2454C26.3016 21.1394 26.1334 21.0811 25.9616 21.0811C25.7898 21.0811 25.6215 21.1394 25.4898 21.2436L24.1644 22.2814V15.732C24.2006 15.7603 24.2369 15.7889 24.2737 15.818C24.7446 16.1901 25.2784 16.6117 25.9617 16.6117C26.645 16.6117 27.1787 16.19 27.6497 15.818C27.9041 15.6171 28.1444 15.4272 28.3658 15.3353C28.6048 15.2363 28.9207 15.1973 29.2552 15.1559C29.841 15.0835 30.505 15.0014 30.9685 14.5381C31.4319 14.0747 31.5139 13.4107 31.5864 12.825C31.6278 12.4906 31.6668 12.1747 31.7659 11.9357C31.8577 11.7143 32.0476 11.474 32.2486 11.2197C32.6207 10.7488 33.0424 10.2151 33.0424 9.53182C33.0424 8.84857 32.6207 8.31486 32.2486 7.84397ZM31.4671 10.6021C31.2328 10.8986 30.9905 11.2051 30.8458 11.5542C30.6949 11.9181 30.6455 12.317 30.5979 12.7027C30.54 13.1706 30.4854 13.6126 30.2643 13.8337C30.0431 14.0548 29.6011 14.1094 29.1331 14.1672C28.7473 14.2149 28.3485 14.2642 27.9844 14.4151C27.6354 14.5598 27.3289 14.802 27.0324 15.0363C26.6553 15.3341 26.2991 15.6156 25.9618 15.6156C25.6246 15.6156 25.2684 15.3342 24.8913 15.0363C24.5948 14.8021 24.2883 14.5598 23.9392 14.4151C23.9152 14.4052 23.8318 14.3734 23.8138 14.3679C23.4846 14.2534 23.1325 14.2095 22.7905 14.1672C22.3225 14.1094 21.8805 14.0547 21.6593 13.8336C21.4382 13.6126 21.3836 13.1706 21.3258 12.7028C21.2781 12.317 21.2288 11.9182 21.0779 11.5542C20.9331 11.2051 20.6909 10.8986 20.4566 10.6021C20.1588 10.225 19.8774 9.86896 19.8774 9.53182C19.8774 9.19468 20.1587 8.8386 20.4566 8.46155C20.6909 8.16505 20.9332 7.85852 21.0779 7.50948C21.2288 7.14558 21.2781 6.74668 21.3258 6.36092C21.3836 5.89302 21.4382 5.45109 21.6594 5.22996C21.8806 5.00882 22.3226 4.95424 22.7905 4.8964C23.1764 4.84872 23.5752 4.79945 23.9392 4.6485C24.2883 4.5038 24.5948 4.26162 24.8913 4.02734C25.2676 3.73004 25.6232 3.44927 25.9599 3.44821C25.9604 3.44821 25.9611 3.44828 25.9617 3.44828C25.9624 3.44828 25.963 3.44821 25.9637 3.44821C26.3004 3.44921 26.656 3.73004 27.0324 4.02734C27.3289 4.26155 27.6354 4.5038 27.9844 4.6485C28.3484 4.79945 28.7474 4.84879 29.1332 4.8964C29.6012 4.95424 30.0432 5.00889 30.2643 5.23002C30.4854 5.45116 30.5401 5.89302 30.5979 6.36092C30.6456 6.74668 30.6949 7.14551 30.8458 7.50948C30.9906 7.85852 31.2328 8.16505 31.4671 8.46155C31.7649 8.8386 32.0463 9.19468 32.0463 9.53182C32.0463 9.86896 31.765 10.2251 31.4671 10.6021Z" fill="#0FB8AE"/>
<path d="M29.1577 7.9492L27.4629 7.46968L26.4829 6.00609C26.3659 5.83131 26.1705 5.72705 25.9602 5.72705C25.7499 5.72705 25.5545 5.83138 25.4374 6.00609L24.4575 7.46968L22.7625 7.94927C22.5601 8.00658 22.4005 8.16031 22.3355 8.36032C22.2706 8.56034 22.3095 8.77848 22.4395 8.94357L23.5288 10.3277L23.4612 12.0872C23.453 12.2975 23.5497 12.4968 23.7199 12.6205C23.8292 12.6999 23.9586 12.7409 24.0895 12.7409C24.1626 12.7409 24.2362 12.7281 24.3069 12.7021L25.9601 12.0939L27.6131 12.702C27.8105 12.7748 28.0299 12.7443 28.2001 12.6207C28.3703 12.4971 28.4671 12.2978 28.459 12.0875L28.3914 10.3276L29.4807 8.9435C29.6108 8.77822 29.6496 8.56021 29.5846 8.36019C29.5198 8.16018 29.3602 8.00651 29.1577 7.9492ZM27.525 9.81807C27.433 9.93521 27.3853 10.0817 27.391 10.2311L27.4427 11.578L26.1774 11.1126C26.0372 11.061 25.8828 11.0611 25.7429 11.1125L24.4775 11.578L24.5293 10.2306C24.5349 10.0818 24.4872 9.93528 24.3949 9.81774L23.5613 8.75843L24.8588 8.3914C25.0023 8.35069 25.1271 8.25998 25.21 8.13607L25.9601 7.0158L26.7101 8.13594C26.7931 8.25992 26.9178 8.35063 27.0616 8.39147L28.3589 8.75843L27.525 9.81807Z" fill="#0FB8AE"/>
</svg>
