<svg width="32" height="32" viewBox="0 0 32 32" fill="none" xmlns="http://www.w3.org/2000/svg">
<g clip-path="url(#clip0)">
<path d="M29.091 0H2.90912C1.30466 0 0 1.30466 0 2.90912V29.091C0 30.6953 1.30466 32.0001 2.90912 32.0001H29.091C30.6953 32.0001 32.0001 30.6954 32.0001 29.091V2.90912C32 1.30466 30.6953 0 29.091 0ZM30.5455 29.091C30.5455 29.8928 29.8928 30.5455 29.091 30.5455H2.90912C2.1073 30.5455 1.45459 29.8928 1.45459 29.091V7.27276H30.5455V29.091ZM30.5455 5.81816H1.45452V2.90912C1.45452 2.1073 2.10723 1.45459 2.90905 1.45459H29.0909C29.8927 1.45459 30.5454 2.1073 30.5454 2.90912V5.81816H30.5455Z" fill="#0FB8AE"/>
<path d="M3.63745 4.36377C4.03913 4.36377 4.36475 4.03815 4.36475 3.63648C4.36475 3.2348 4.03913 2.90918 3.63745 2.90918C3.23578 2.90918 2.91016 3.2348 2.91016 3.63648C2.91016 4.03815 3.23578 4.36377 3.63745 4.36377Z" fill="#0FB8AE"/>
<path d="M6.54566 4.36377C6.94733 4.36377 7.27295 4.03815 7.27295 3.63648C7.27295 3.2348 6.94733 2.90918 6.54566 2.90918C6.14398 2.90918 5.81836 3.2348 5.81836 3.63648C5.81836 4.03815 6.14398 4.36377 6.54566 4.36377Z" fill="#0FB8AE"/>
<path d="M9.45386 4.36377C9.85553 4.36377 10.1812 4.03815 10.1812 3.63648C10.1812 3.2348 9.85553 2.90918 9.45386 2.90918C9.05218 2.90918 8.72656 3.2348 8.72656 3.63648C8.72656 4.03815 9.05218 4.36377 9.45386 4.36377Z" fill="#0FB8AE"/>
<path d="M20.364 21.8182H23.2731C23.6751 21.8182 24.0004 21.4929 24.0004 21.0909C24.0004 20.6889 23.6751 20.3636 23.2731 20.3636H21.0913V15.2727C21.0913 14.8707 20.766 14.5454 20.364 14.5454C19.962 14.5454 19.6367 14.8707 19.6367 15.2727V21.0909C19.6367 21.4929 19.962 21.8182 20.364 21.8182Z" fill="#0FB8AE"/>
<path d="M10.1818 20.3636H8.7273C8.3253 20.3636 8 20.6889 8 21.0909C8 21.4929 8.3253 21.8182 8.7273 21.8182H10.1818C11.385 21.8182 12.3636 20.8396 12.3636 19.6364C12.3636 18.4333 11.385 17.4546 10.1818 17.4546C9.78057 17.4546 9.45452 17.1286 9.45452 16.7273C9.45452 16.326 9.7805 16 10.1818 16H11.6363C12.0383 16 12.3636 15.6747 12.3636 15.2727C12.3636 14.8707 12.0383 14.5454 11.6363 14.5454H10.1818C8.97868 14.5454 8 15.5241 8 16.7272C8 17.9304 8.97868 18.9091 10.1818 18.9091C10.5831 18.9091 10.9091 19.235 10.9091 19.6364C10.9091 20.0376 10.5831 20.3636 10.1818 20.3636Z" fill="#0FB8AE"/>
<path d="M15.9982 20.3636H14.5437C14.1417 20.3636 13.8164 20.6889 13.8164 21.0909C13.8164 21.4929 14.1417 21.8182 14.5437 21.8182H15.9982C17.2014 21.8182 18.18 20.8396 18.18 19.6364C18.18 18.4333 17.2014 17.4546 15.9982 17.4546C15.597 17.4546 15.2709 17.1286 15.2709 16.7273C15.2709 16.326 15.5969 16 15.9982 16H17.4527C17.8547 16 18.18 15.6747 18.18 15.2727C18.18 14.8707 17.8547 14.5454 17.4527 14.5454H15.9982C14.7951 14.5454 13.8164 15.5241 13.8164 16.7272C13.8164 17.9304 14.7951 18.9091 15.9982 18.9091C16.3995 18.9091 16.7255 19.235 16.7255 19.6364C16.7254 20.0376 16.3995 20.3636 15.9982 20.3636Z" fill="#0FB8AE"/>
</g>
<defs>
<clipPath id="clip0">
<rect width="32" height="32" fill="white"/>
</clipPath>
</defs>
</svg>
