<svg width="35" height="34" viewBox="0 0 35 34" fill="none" xmlns="http://www.w3.org/2000/svg">
<path d="M23.2813 10.6303C23.1736 10.3187 22.9714 10.0484 22.7029 9.85705C22.4344 9.66568 22.1129 9.56272 21.7832 9.5625H21.252V8.5H21.7832C22.2055 8.49874 22.6101 8.33042 22.9088 8.03181C23.2074 7.7332 23.3757 7.32855 23.377 6.90625V2.65625C23.3757 2.23395 23.2074 1.82931 22.9088 1.53069C22.6101 1.23208 22.2055 1.06376 21.7832 1.0625H2.6582C2.2359 1.06376 1.83126 1.23208 1.53264 1.53069C1.23403 1.82931 1.06571 2.23395 1.06445 2.65625V6.90625C1.06571 7.32855 1.23403 7.7332 1.53264 8.03181C1.83126 8.33042 2.2359 8.49874 2.6582 8.5H3.18945V9.5625H2.6582C2.2359 9.56376 1.83126 9.73208 1.53264 10.0307C1.23403 10.3293 1.06571 10.7339 1.06445 11.1562V15.4062C1.06571 15.8286 1.23403 16.2332 1.53264 16.5318C1.83126 16.8304 2.2359 16.9987 2.6582 17H3.18945V18.0625H2.6582C2.2359 18.0638 1.83126 18.2321 1.53264 18.5307C1.23403 18.8293 1.06571 19.2339 1.06445 19.6562V23.9062C1.06571 24.3286 1.23403 24.7332 1.53264 25.0318C1.83126 25.3304 2.2359 25.4987 2.6582 25.5H12.752V29.75C12.752 31.8431 17.8307 32.9375 22.8457 32.9375C27.8607 32.9375 32.9395 31.8431 32.9395 29.75V13.8125C32.9395 11.7778 28.1529 10.6941 23.2813 10.6303ZM2.6582 7.4375C2.51731 7.4375 2.38218 7.38153 2.28255 7.2819C2.18292 7.18227 2.12695 7.04715 2.12695 6.90625V2.65625C2.12695 2.51535 2.18292 2.38023 2.28255 2.2806C2.38218 2.18097 2.51731 2.125 2.6582 2.125H21.7832C21.9241 2.125 22.0592 2.18097 22.1589 2.2806C22.2585 2.38023 22.3145 2.51535 22.3145 2.65625V6.90625C22.3145 7.04715 22.2585 7.18227 22.1589 7.2819C22.0592 7.38153 21.9241 7.4375 21.7832 7.4375H2.6582ZM20.1895 8.5V9.5625H18.0645V8.5H20.1895ZM17.002 8.5V9.5625H7.43945V8.5H17.002ZM6.37695 8.5V9.5625H4.25195V8.5H6.37695ZM12.752 24.4375H2.6582C2.51731 24.4375 2.38218 24.3815 2.28255 24.2819C2.18292 24.1823 2.12695 24.0471 2.12695 23.9062V19.6562C2.12695 19.5154 2.18292 19.3802 2.28255 19.2806C2.38218 19.181 2.51731 19.125 2.6582 19.125H12.752V24.4375ZM4.25195 18.0625V17H6.37695V18.0625H4.25195ZM12.752 18.0625H7.43945V17H12.752V18.0625ZM12.752 13.8125V15.9375H2.6582C2.51731 15.9375 2.38218 15.8815 2.28255 15.7819C2.18292 15.6823 2.12695 15.5471 2.12695 15.4062V11.1562C2.12695 11.0154 2.18292 10.8802 2.28255 10.7806C2.38218 10.681 2.51731 10.625 2.6582 10.625H21.7832C21.8085 10.6278 21.8334 10.6331 21.8576 10.6409C17.1826 10.7738 12.752 11.8575 12.752 13.8125ZM31.877 29.75C31.877 30.4725 28.6895 31.875 22.8457 31.875C17.002 31.875 13.8145 30.4725 13.8145 29.75V25.9356C15.5623 27.0459 19.212 27.625 22.8457 27.625C26.4795 27.625 30.1291 27.0459 31.877 25.9356V29.75ZM31.877 24.4375C31.877 25.16 28.6895 26.5625 22.8457 26.5625C17.002 26.5625 13.8145 25.16 13.8145 24.4375V20.6231C15.5623 21.7334 19.212 22.3125 22.8457 22.3125C26.4795 22.3125 30.1291 21.7334 31.877 20.6231V24.4375ZM31.877 19.125C31.877 19.8475 28.6895 21.25 22.8457 21.25C17.002 21.25 13.8145 19.8475 13.8145 19.125V15.3106C15.5623 16.4209 19.212 17 22.8457 17C26.4795 17 30.1291 16.4209 31.877 15.3106V19.125ZM22.8457 15.9375C17.002 15.9375 13.8145 14.535 13.8145 13.8125C13.8145 13.09 17.002 11.6875 22.8457 11.6875C28.6895 11.6875 31.877 13.09 31.877 13.8125C31.877 14.535 28.6895 15.9375 22.8457 15.9375Z" fill="#0FB8AE"/>
<path d="M22.3145 18.5938H23.377V19.6562H22.3145V18.5938Z" fill="#0FB8AE"/>
<path d="M22.3145 24.4375H23.377V25.5H22.3145V24.4375Z" fill="#0FB8AE"/>
<path d="M22.3145 29.2188H23.377V30.2812H22.3145V29.2188Z" fill="#0FB8AE"/>
<path d="M5.8457 11.6875H3.7207C3.57981 11.6875 3.44468 11.7435 3.34505 11.8431C3.24542 11.9427 3.18945 12.0779 3.18945 12.2188V14.3438C3.18945 14.4846 3.24542 14.6198 3.34505 14.7194C3.44468 14.819 3.57981 14.875 3.7207 14.875H5.8457C5.9866 14.875 6.12172 14.819 6.22135 14.7194C6.32098 14.6198 6.37695 14.4846 6.37695 14.3438V12.2188C6.37695 12.0779 6.32098 11.9427 6.22135 11.8431C6.12172 11.7435 5.9866 11.6875 5.8457 11.6875ZM5.31445 13.8125H4.25195V12.75H5.31445V13.8125Z" fill="#0FB8AE"/>
<path d="M10.0957 11.6875H7.9707C7.82981 11.6875 7.69468 11.7435 7.59505 11.8431C7.49542 11.9427 7.43945 12.0779 7.43945 12.2188V14.3438C7.43945 14.4846 7.49542 14.6198 7.59505 14.7194C7.69468 14.819 7.82981 14.875 7.9707 14.875H10.0957C10.2366 14.875 10.3717 14.819 10.4714 14.7194C10.571 14.6198 10.627 14.4846 10.627 14.3438V12.2188C10.627 12.0779 10.571 11.9427 10.4714 11.8431C10.3717 11.7435 10.2366 11.6875 10.0957 11.6875ZM9.56445 13.8125H8.50195V12.75H9.56445V13.8125Z" fill="#0FB8AE"/>
<path d="M5.8457 3.1875H3.7207C3.57981 3.1875 3.44468 3.24347 3.34505 3.3431C3.24542 3.44273 3.18945 3.57785 3.18945 3.71875V5.84375C3.18945 5.98465 3.24542 6.11977 3.34505 6.2194C3.44468 6.31903 3.57981 6.375 3.7207 6.375H5.8457C5.9866 6.375 6.12172 6.31903 6.22135 6.2194C6.32098 6.11977 6.37695 5.98465 6.37695 5.84375V3.71875C6.37695 3.57785 6.32098 3.44273 6.22135 3.3431C6.12172 3.24347 5.9866 3.1875 5.8457 3.1875ZM5.31445 5.3125H4.25195V4.25H5.31445V5.3125Z" fill="#0FB8AE"/>
<path d="M10.0957 3.1875H7.9707C7.82981 3.1875 7.69468 3.24347 7.59505 3.3431C7.49542 3.44273 7.43945 3.57785 7.43945 3.71875V5.84375C7.43945 5.98465 7.49542 6.11977 7.59505 6.2194C7.69468 6.31903 7.82981 6.375 7.9707 6.375H10.0957C10.2366 6.375 10.3717 6.31903 10.4714 6.2194C10.571 6.11977 10.627 5.98465 10.627 5.84375V3.71875C10.627 3.57785 10.571 3.44273 10.4714 3.3431C10.3717 3.24347 10.2366 3.1875 10.0957 3.1875ZM9.56445 5.3125H8.50195V4.25H9.56445V5.3125Z" fill="#0FB8AE"/>
<path d="M11.6895 3.1875H19.127V4.25H11.6895V3.1875Z" fill="#0FB8AE"/>
<path d="M20.1895 3.1875H21.252V4.25H20.1895V3.1875Z" fill="#0FB8AE"/>
<path d="M11.6895 5.3125H19.127V6.375H11.6895V5.3125Z" fill="#0FB8AE"/>
<path d="M20.1895 5.3125H21.252V6.375H20.1895V5.3125Z" fill="#0FB8AE"/>
<path d="M5.8457 20.1875H3.7207C3.57981 20.1875 3.44468 20.2435 3.34505 20.3431C3.24542 20.4427 3.18945 20.5779 3.18945 20.7188V22.8438C3.18945 22.9846 3.24542 23.1198 3.34505 23.2194C3.44468 23.319 3.57981 23.375 3.7207 23.375H5.8457C5.9866 23.375 6.12172 23.319 6.22135 23.2194C6.32098 23.1198 6.37695 22.9846 6.37695 22.8438V20.7188C6.37695 20.5779 6.32098 20.4427 6.22135 20.3431C6.12172 20.2435 5.9866 20.1875 5.8457 20.1875ZM5.31445 22.3125H4.25195V21.25H5.31445V22.3125Z" fill="#0FB8AE"/>
<path d="M10.0957 20.1875H7.9707C7.82981 20.1875 7.69468 20.2435 7.59505 20.3431C7.49542 20.4427 7.43945 20.5779 7.43945 20.7188V22.8438C7.43945 22.9846 7.49542 23.1198 7.59505 23.2194C7.69468 23.319 7.82981 23.375 7.9707 23.375H10.0957C10.2366 23.375 10.3717 23.319 10.4714 23.2194C10.571 23.1198 10.627 22.9846 10.627 22.8438V20.7188C10.627 20.5779 10.571 20.4427 10.4714 20.3431C10.3717 20.2435 10.2366 20.1875 10.0957 20.1875ZM9.56445 22.3125H8.50195V21.25H9.56445V22.3125Z" fill="#0FB8AE"/>
</svg>
