<svg width="33" height="33" viewBox="0 0 33 33" fill="none" xmlns="http://www.w3.org/2000/svg">
<path d="M19.5187 9.96211C19.5099 9.94763 19.5004 9.93361 19.4901 9.92009C19.51 9.77699 19.5096 9.63181 19.4888 9.48883C19.681 9.34448 19.8369 9.1574 19.9443 8.9424C20.0517 8.7274 20.1076 8.49037 20.1076 8.25004C20.1076 8.00972 20.0517 7.77268 19.9443 7.55768C19.8369 7.34268 19.681 7.15561 19.4888 7.01125C19.5226 6.77332 19.5006 6.53078 19.4246 6.30282C19.3485 6.07485 19.2204 5.86771 19.0505 5.69777C18.8805 5.52784 18.6734 5.39977 18.4454 5.32369C18.2175 5.24761 17.9749 5.2256 17.737 5.25942C17.5926 5.06727 17.4056 4.91133 17.1906 4.80393C16.9756 4.69653 16.7385 4.64063 16.4982 4.64062C16.2579 4.64063 16.0208 4.69653 15.8058 4.80393C15.5908 4.91133 15.4038 5.06727 15.2594 5.25942C15.0215 5.22562 14.779 5.24763 14.551 5.32371C14.323 5.3998 14.1159 5.52787 13.946 5.6978C13.776 5.86774 13.648 6.07487 13.5719 6.30283C13.4958 6.53079 13.4738 6.77332 13.5076 7.01125C13.3154 7.15561 13.1595 7.34268 13.0521 7.55768C12.9447 7.77268 12.8888 8.00972 12.8888 8.25004C12.8888 8.49037 12.9447 8.7274 13.0521 8.9424C13.1595 9.1574 13.3154 9.34448 13.5076 9.48883C13.4871 9.63046 13.4865 9.77424 13.5058 9.91603L11.7278 12.8341C11.6772 12.9171 11.651 13.0128 11.6524 13.1101C11.6538 13.2073 11.6827 13.3022 11.7357 13.3838C11.7887 13.4653 11.8637 13.5302 11.952 13.5709C12.0404 13.6117 12.1384 13.6266 12.2349 13.614L13.4563 13.4545L13.8747 14.613C13.9077 14.7044 13.9659 14.7847 14.0426 14.8445C14.1193 14.9042 14.2113 14.9411 14.308 14.9509C14.4048 14.9606 14.5023 14.9428 14.5893 14.8995C14.6764 14.8562 14.7494 14.7891 14.8 14.7061L16.5349 11.8586C16.6112 11.857 16.6873 11.8498 16.7625 11.8371L18.4254 14.5664C18.4714 14.642 18.536 14.7044 18.6131 14.7477C18.6902 14.791 18.7771 14.8138 18.8656 14.8138C18.8876 14.8138 18.9095 14.8124 18.9313 14.8096C19.0301 14.797 19.1231 14.756 19.1991 14.6915C19.2751 14.6271 19.3309 14.5421 19.3595 14.4467L19.6708 13.4114L20.7336 13.6095C20.8315 13.6277 20.9327 13.6172 21.0248 13.5793C21.1169 13.5413 21.196 13.4775 21.2526 13.3955C21.3092 13.3135 21.3408 13.2168 21.3436 13.1173C21.3465 13.0177 21.3204 12.9194 21.2686 12.8343L19.5187 9.96211ZM14.4792 13.2504L14.2855 12.7142C14.2457 12.6036 14.1693 12.51 14.069 12.4488C13.9686 12.3877 13.8503 12.3627 13.7338 12.378L13.1684 12.4517L14.0941 10.9325C14.2576 11.0597 14.4451 11.1526 14.6454 11.2055C14.8456 11.2584 15.0545 11.2704 15.2595 11.2406C15.3381 11.3456 15.4298 11.4401 15.5324 11.5219L14.4792 13.2504ZM17.2841 10.1474C17.2146 10.1762 17.1523 10.2198 17.1014 10.2753C17.0506 10.3307 17.0125 10.3966 16.9898 10.4683C16.9695 10.5329 16.9367 10.5929 16.8931 10.6447C16.8496 10.6966 16.7962 10.7393 16.736 10.7705L16.7346 10.7713C16.6678 10.8055 16.5944 10.8248 16.5194 10.8278C16.4444 10.8308 16.3697 10.8174 16.3004 10.7885C16.2311 10.7597 16.1689 10.7161 16.1182 10.6609C16.0675 10.6056 16.0294 10.5399 16.0066 10.4684C15.9839 10.3967 15.9458 10.3308 15.895 10.2754C15.8442 10.2199 15.7818 10.1763 15.7123 10.1475C15.6428 10.1187 15.5679 10.1055 15.4928 10.1087C15.4176 10.112 15.3441 10.1316 15.2773 10.1663C15.1801 10.2168 15.0693 10.235 14.961 10.2183C14.8527 10.2016 14.7525 10.1508 14.6751 10.0733C14.5976 9.99585 14.5468 9.89568 14.5301 9.78739C14.5134 9.67909 14.5316 9.56829 14.5821 9.47104C14.6168 9.4043 14.6364 9.33077 14.6396 9.25563C14.6429 9.18048 14.6297 9.10554 14.6009 9.03605C14.5721 8.96656 14.5284 8.90421 14.473 8.85337C14.4176 8.80253 14.3517 8.76445 14.28 8.74177C14.1755 8.7087 14.0843 8.64322 14.0196 8.55483C13.9549 8.46644 13.92 8.35973 13.92 8.25017C13.92 8.14061 13.9549 8.0339 14.0196 7.94551C14.0843 7.85713 14.1755 7.79165 14.28 7.75859C14.3517 7.73591 14.4176 7.69781 14.473 7.64697C14.5284 7.59613 14.5721 7.53378 14.6009 7.4643C14.6297 7.39481 14.6429 7.31986 14.6396 7.24472C14.6364 7.16957 14.6168 7.09605 14.5821 7.0293C14.5316 6.93206 14.5134 6.82125 14.5301 6.71296C14.5468 6.60466 14.5976 6.50451 14.6751 6.42702C14.7525 6.34954 14.8527 6.29876 14.961 6.28204C15.0693 6.26532 15.1801 6.28354 15.2773 6.33405C15.3441 6.36871 15.4176 6.38836 15.4928 6.39161C15.5679 6.39485 15.6428 6.38162 15.7123 6.35283C15.7818 6.32405 15.8442 6.28041 15.895 6.22498C15.9458 6.16955 15.9839 6.10367 16.0066 6.03195C16.0397 5.9275 16.1052 5.8363 16.1936 5.77157C16.2819 5.70683 16.3887 5.67194 16.4982 5.67194C16.6078 5.67194 16.7145 5.70683 16.8029 5.77157C16.8913 5.8363 16.9567 5.9275 16.9898 6.03195C17.0125 6.10367 17.0506 6.16955 17.1014 6.22498C17.1522 6.28041 17.2146 6.32405 17.2841 6.35283C17.3536 6.38162 17.4285 6.39485 17.5037 6.39161C17.5788 6.38836 17.6523 6.36871 17.7191 6.33405C17.8163 6.28354 17.9271 6.26532 18.0354 6.28204C18.1437 6.29876 18.2439 6.34954 18.3214 6.42702C18.3988 6.50451 18.4496 6.60466 18.4663 6.71296C18.4831 6.82125 18.4648 6.93206 18.4143 7.0293C18.3797 7.09605 18.36 7.16957 18.3568 7.24472C18.3535 7.31986 18.3668 7.39481 18.3955 7.4643C18.4243 7.53378 18.468 7.59613 18.5234 7.64697C18.5788 7.69781 18.6447 7.73591 18.7164 7.75859C18.8209 7.79165 18.9121 7.85713 18.9768 7.94551C19.0415 8.0339 19.0764 8.14061 19.0764 8.25017C19.0764 8.35973 19.0415 8.46644 18.9768 8.55483C18.9121 8.64322 18.8209 8.7087 18.7164 8.74177C18.6447 8.76445 18.5788 8.80253 18.5234 8.85337C18.468 8.90421 18.4243 8.96656 18.3955 9.03605C18.3668 9.10554 18.3535 9.18048 18.3568 9.25563C18.36 9.33077 18.3797 9.4043 18.4143 9.47104C18.4648 9.56829 18.4831 9.67909 18.4663 9.78739C18.4496 9.89568 18.3988 9.99585 18.3214 10.0733C18.2439 10.1508 18.1437 10.2016 18.0354 10.2183C17.9271 10.235 17.8163 10.2168 17.7191 10.1663C17.6523 10.1316 17.5788 10.112 17.5037 10.1087C17.4285 10.1054 17.3536 10.1186 17.2841 10.1474ZM19.405 12.3126C19.28 12.2892 19.1508 12.3129 19.0422 12.379C18.9336 12.4452 18.8533 12.5492 18.8168 12.671L18.705 13.0427L17.6626 11.332C17.6884 11.3025 17.7135 11.2723 17.7371 11.2407C17.9421 11.2703 18.151 11.2583 18.3512 11.2054C18.5515 11.1524 18.739 11.0596 18.9025 10.9325L19.7867 12.3837L19.405 12.3126Z" fill="#0FB8AE"/>
<path d="M24.75 30.9375C25.2968 30.9369 25.8211 30.7194 26.2077 30.3327C26.5944 29.9461 26.8119 29.4218 26.8125 28.875V6.1875H29.3906C29.5274 6.1875 29.6585 6.13318 29.7552 6.03648C29.8519 5.93978 29.9062 5.80862 29.9062 5.67188V3.60938C29.9056 3.06255 29.6881 2.5383 29.3015 2.15164C28.9148 1.76497 28.3906 1.54748 27.8438 1.54688H8.76562C8.2188 1.54748 7.69455 1.76497 7.30789 2.15164C6.92123 2.5383 6.70374 3.06255 6.70312 3.60938V26.2969H4.12499C3.98824 26.2969 3.8571 26.3512 3.7604 26.4479C3.6637 26.5446 3.60938 26.6757 3.60938 26.8125V28.875C3.60998 29.4218 3.82748 29.9461 4.21414 30.3327C4.6008 30.7194 5.12504 30.9369 5.67187 30.9375H24.75ZM26.8125 3.60938C26.8125 3.33586 26.9211 3.07357 27.1145 2.88017C27.3079 2.68677 27.5702 2.57811 27.8438 2.57811C28.1173 2.57811 28.3796 2.68677 28.573 2.88017C28.7664 3.07357 28.875 3.33586 28.875 3.60938V5.15624H26.8125V3.60938ZM7.73438 3.60938C7.73469 3.33597 7.84345 3.07386 8.03678 2.88053C8.23011 2.6872 8.49222 2.57844 8.76562 2.57811H26.0587C25.8767 2.89131 25.781 3.24714 25.7812 3.60938V28.875C25.7812 29.1485 25.6726 29.4108 25.4792 29.6042C25.2858 29.7976 25.0235 29.9062 24.75 29.9062C24.4765 29.9062 24.2142 29.7976 24.0208 29.6042C23.8274 29.4108 23.7188 29.1485 23.7188 28.875V26.8125C23.7188 26.6757 23.6644 26.5446 23.5677 26.4479C23.471 26.3512 23.3399 26.2969 23.2031 26.2969H7.73438V3.60938ZM4.64062 28.875V27.3281H22.6875V28.875C22.6871 29.2372 22.7828 29.593 22.9646 29.9062H5.67187C5.39846 29.9059 5.13635 29.7972 4.94302 29.6038C4.74969 29.4105 4.64095 29.1484 4.64062 28.875Z" fill="#0FB8AE"/>
<path d="M16.5 6.70312C16.1941 6.70312 15.895 6.79385 15.6406 6.96382C15.3862 7.13379 15.188 7.37538 15.0709 7.65804C14.9538 7.94069 14.9232 8.25172 14.9828 8.55178C15.0425 8.85184 15.1899 9.12747 15.4062 9.3438C15.6225 9.56014 15.8982 9.70746 16.1982 9.76715C16.4983 9.82684 16.8093 9.7962 17.092 9.67912C17.3746 9.56205 17.6162 9.36378 17.7862 9.1094C17.9562 8.85501 18.0469 8.55594 18.0469 8.25C18.0464 7.83989 17.8833 7.44671 17.5933 7.15672C17.3033 6.86673 16.9101 6.7036 16.5 6.70312ZM16.5 8.76562C16.398 8.76562 16.2983 8.73538 16.2135 8.67873C16.1287 8.62207 16.0627 8.54154 16.0236 8.44732C15.9846 8.3531 15.9744 8.24944 15.9943 8.14942C16.0142 8.04939 16.0633 7.95751 16.1354 7.8854C16.2075 7.81329 16.2994 7.76418 16.3994 7.74428C16.4994 7.72439 16.6031 7.7346 16.6973 7.77362C16.7915 7.81265 16.8721 7.87874 16.9287 7.96353C16.9854 8.04833 17.0156 8.14802 17.0156 8.25C17.0155 8.3867 16.9611 8.51778 16.8644 8.61444C16.7678 8.71111 16.6367 8.76547 16.5 8.76562Z" fill="#0FB8AE"/>
<path d="M19.5938 15.9844H13.4062C13.2695 15.9844 13.1383 16.0387 13.0416 16.1354C12.9449 16.2321 12.8906 16.3632 12.8906 16.5C12.8906 16.6368 12.9449 16.7679 13.0416 16.8646C13.1383 16.9613 13.2695 17.0156 13.4062 17.0156H19.5938C19.7305 17.0156 19.8617 16.9613 19.9584 16.8646C20.0551 16.7679 20.1094 16.6368 20.1094 16.5C20.1094 16.3632 20.0551 16.2321 19.9584 16.1354C19.8617 16.0387 19.7305 15.9844 19.5938 15.9844Z" fill="#0FB8AE"/>
<path d="M16.5 19.0781C16.6368 19.0781 16.7679 19.0238 16.8646 18.9271C16.9613 18.8304 17.0156 18.6993 17.0156 18.5625C17.0156 18.4257 16.9613 18.2946 16.8646 18.1979C16.7679 18.1012 16.6368 18.0469 16.5 18.0469H14.4375C14.3007 18.0469 14.1696 18.1012 14.0729 18.1979C13.9762 18.2946 13.9219 18.4257 13.9219 18.5625C13.9219 18.6993 13.9762 18.8304 14.0729 18.9271C14.1696 19.0238 14.3007 19.0781 14.4375 19.0781H16.5Z" fill="#0FB8AE"/>
<path d="M17.5312 23.2031H15.4688C15.332 23.2031 15.2008 23.2574 15.1041 23.3541C15.0074 23.4508 14.9531 23.582 14.9531 23.7188C14.9531 23.8555 15.0074 23.9867 15.1041 24.0834C15.2008 24.1801 15.332 24.2344 15.4688 24.2344H17.5312C17.668 24.2344 17.7992 24.1801 17.8959 24.0834C17.9926 23.9867 18.0469 23.8555 18.0469 23.7188C18.0469 23.582 17.9926 23.4508 17.8959 23.3541C17.7992 23.2574 17.668 23.2031 17.5312 23.2031Z" fill="#0FB8AE"/>
<path d="M19.0781 18.0469H18.0469C17.9101 18.0469 17.779 18.1012 17.6823 18.1979C17.5856 18.2946 17.5312 18.4257 17.5312 18.5625C17.5312 18.6993 17.5856 18.8304 17.6823 18.9271C17.779 19.0238 17.9101 19.0781 18.0469 19.0781H19.0781C19.2149 19.0781 19.346 19.0238 19.4427 18.9271C19.5394 18.8304 19.5938 18.6993 19.5938 18.5625C19.5938 18.4257 19.5394 18.2946 19.4427 18.1979C19.346 18.1012 19.2149 18.0469 19.0781 18.0469Z" fill="#0FB8AE"/>
<path d="M19.0781 21.1406H13.9219C13.7851 21.1406 13.654 21.1949 13.5573 21.2916C13.4606 21.3883 13.4062 21.5195 13.4062 21.6562C13.4062 21.793 13.4606 21.9242 13.5573 22.0209C13.654 22.1176 13.7851 22.1719 13.9219 22.1719H19.0781C19.2149 22.1719 19.346 22.1176 19.4427 22.0209C19.5394 21.9242 19.5938 21.793 19.5938 21.6562C19.5938 21.5195 19.5394 21.3883 19.4427 21.2916C19.346 21.1949 19.2149 21.1406 19.0781 21.1406Z" fill="#0FB8AE"/>
</svg>
