<svg width="32" height="32" viewBox="0 0 32 32" fill="none" xmlns="http://www.w3.org/2000/svg">
<path d="M29.5349 11.0588C30.2431 10.3889 30.6884 9.44303 30.6884 8.39332C30.6884 6.3684 29.0412 4.72119 27.0163 4.72119C24.9914 4.72119 23.3442 6.3684 23.3442 8.39332C23.3442 9.68172 24.0125 10.8154 25.0192 11.4706C24.3257 11.9432 23.8688 12.7385 23.8688 13.6392V17.3114H21.7704V14.6884C21.7704 12.8114 20.354 11.2607 18.5337 11.0446C19.2335 10.3757 19.672 9.43568 19.672 8.39332C19.672 6.3684 18.0248 4.72119 15.9999 4.72119C13.975 4.72119 12.3278 6.3684 12.3278 8.39332C12.3278 9.43568 12.7663 10.3757 13.4661 11.0446C11.6458 11.2607 10.2294 12.8114 10.2294 14.6884V17.3114H8.13106V13.6392C8.13106 12.7385 7.67414 11.9432 6.98063 11.4706C7.98732 10.8154 8.65565 9.68172 8.65565 8.39332C8.65565 6.3684 7.00844 4.72119 4.98352 4.72119C2.9586 4.72119 1.31139 6.3684 1.31139 8.39332C1.31139 9.44303 1.75676 10.3889 2.46496 11.0588C1.21906 11.2613 0.262207 12.3367 0.262207 13.6392V21.5081C0.262207 22.7744 1.16503 23.8341 2.36057 24.078V31.9999H3.40975V24.131H8.13106V31.4753C8.13106 31.7649 8.36608 31.9999 8.65565 31.9999H11.8032C12.0928 31.9999 12.3278 31.7649 12.3278 31.4753V23.0818H15.4753V30.9507H13.377V31.9999H18.6229V30.9507H16.5245V23.0818H19.672V31.4753C19.672 31.7649 19.9071 31.9999 20.1966 31.9999H23.3442C23.6337 31.9999 23.8688 31.7649 23.8688 31.4753V24.131H28.5901V31.9999H29.6393V24.078C30.8348 23.8341 31.7376 22.775 31.7376 21.5081V13.6392C31.7376 12.3367 30.7808 11.2613 29.5349 11.0588ZM24.3934 8.39332C24.3934 6.94703 25.57 5.77037 27.0163 5.77037C28.4626 5.77037 29.6393 6.94703 29.6393 8.39332C29.6393 9.83962 28.4626 11.0163 27.0163 11.0163C25.57 11.0163 24.3934 9.83962 24.3934 8.39332ZM13.377 8.39332C13.377 6.94703 14.5536 5.77037 15.9999 5.77037C17.4462 5.77037 18.6229 6.94703 18.6229 8.39332C18.6229 9.83962 17.4462 11.0163 15.9999 11.0163C14.5536 11.0163 13.377 9.83962 13.377 8.39332ZM16.8167 12.0655L15.9999 14.2436L15.1831 12.0655H16.8167ZM11.2786 14.6884C11.2786 13.2421 12.4553 12.0655 13.9016 12.0655H14.0626L15.5089 15.9217C15.5855 16.1263 15.7812 16.2622 15.9999 16.2622C16.2187 16.2622 16.4143 16.1263 16.4915 15.9217L17.9372 12.0655H18.0983C19.5446 12.0655 20.7212 13.2421 20.7212 14.6884V17.3114H18.6229C18.3333 17.3114 18.0983 17.5464 18.0983 17.8359V19.9343H13.9016V17.8359C13.9016 17.5464 13.6665 17.3114 13.377 17.3114H11.2786V14.6884ZM2.36057 8.39332C2.36057 6.94703 3.53722 5.77037 4.98352 5.77037C6.42981 5.77037 7.60647 6.94703 7.60647 8.39332C7.60647 9.83962 6.42981 11.0163 4.98352 11.0163C3.53722 11.0163 2.36057 9.83962 2.36057 8.39332ZM11.2786 30.9507H9.18024V23.6064C9.18024 23.3169 8.94522 23.0818 8.65565 23.0818H2.88516C2.01749 23.0818 1.31139 22.3757 1.31139 21.5081V13.6392C1.31139 12.7716 2.01749 12.0655 2.88516 12.0655H5.50811C6.37578 12.0655 7.08188 12.7716 7.08188 13.6392V17.8359C7.08188 18.1255 7.3169 18.3605 7.60647 18.3605H12.8524V19.9343H5.50811V15.213H4.45893V20.4589C4.45893 20.7485 4.69394 20.9835 4.98352 20.9835H9.70483C10.5725 20.9835 11.2786 21.6896 11.2786 22.5573V30.9507ZM19.7308 22.0327H12.269C12.1898 21.646 12.0309 21.2883 11.8021 20.9835H13.377H18.6229H20.1977C19.969 21.2883 19.81 21.646 19.7308 22.0327ZM30.6884 21.5081C30.6884 22.3757 29.9823 23.0818 29.1147 23.0818H23.3442C23.0546 23.0818 22.8196 23.3169 22.8196 23.6064V30.9507H20.7212V22.5573C20.7212 21.6896 21.4273 20.9835 22.295 20.9835H27.0163C27.3059 20.9835 27.5409 20.7485 27.5409 20.4589V15.213H26.4917V19.9343H19.1475V18.3605H24.3934C24.6829 18.3605 24.9179 18.1255 24.9179 17.8359V13.6392C24.9179 12.7716 25.624 12.0655 26.4917 12.0655H29.1147C29.9823 12.0655 30.6884 12.7716 30.6884 13.6392V21.5081Z" fill="#0FB8AE"/>
<path d="M16.5248 17.3115H15.4756V18.3607H16.5248V17.3115Z" fill="#0FB8AE"/>
<path d="M13.3772 0H6.03289C5.74332 0 5.5083 0.235016 5.5083 0.52459V3.14754C5.5083 3.43711 5.74332 3.67213 6.03289 3.67213H8.13125V4.72131C8.13125 4.92013 8.24351 5.10164 8.42135 5.19082C8.49532 5.22754 8.5761 5.2459 8.65584 5.2459C8.76705 5.2459 8.87774 5.21023 8.9706 5.14098L10.9289 3.67213H13.3772C13.6667 3.67213 13.9017 3.43711 13.9017 3.14754V0.52459C13.9017 0.235016 13.6667 0 13.3772 0ZM12.8526 2.62295H10.7542C10.6409 2.62295 10.5302 2.65967 10.4394 2.72787L9.18043 3.67213V3.14754C9.18043 2.85797 8.94542 2.62295 8.65584 2.62295H6.55748V1.04918H12.8526V2.62295Z" fill="#0FB8AE"/>
<path d="M19.6722 1.57373H18.623V2.62291H19.6722V1.57373Z" fill="#0FB8AE"/>
<path d="M21.7704 1.57373H20.7212V2.62291H21.7704V1.57373Z" fill="#0FB8AE"/>
<path d="M23.869 1.57373H22.8198V2.62291H23.869V1.57373Z" fill="#0FB8AE"/>
</svg>
