<svg width="34" height="34" viewBox="0 0 34 34" fill="none" xmlns="http://www.w3.org/2000/svg">
<path d="M20.5859 13.0156C17.3637 13.0156 14.7422 15.6371 14.7422 18.8594C14.7422 22.0816 17.3637 24.7031 20.5859 24.7031C23.8082 24.7031 26.4297 22.0816 26.4297 18.8594C26.4297 15.6371 23.8082 13.0156 20.5859 13.0156ZM20.5859 23.375C18.096 23.375 16.0703 21.3493 16.0703 18.8594C16.0703 16.3694 18.096 14.3438 20.5859 14.3438C23.0759 14.3438 25.1016 16.3694 25.1016 18.8594C25.1016 21.3493 23.0759 23.375 20.5859 23.375Z" fill="#0FB8AE"/>
<path d="M20.5859 15.8716C20.2191 15.8716 19.9219 16.1689 19.9219 16.5356C19.9219 16.9024 20.2191 17.1997 20.5859 17.1997C21.5011 17.1997 22.2458 17.9444 22.2458 18.8596C22.2458 19.2264 22.5431 19.5237 22.9099 19.5237C23.2767 19.5237 23.574 19.2264 23.574 18.8596C23.574 17.2119 22.2336 15.8716 20.5859 15.8716Z" fill="#0FB8AE"/>
<path d="M4.0938 6.86678C3.92519 6.54124 3.52468 6.41387 3.19887 6.58222C2.87307 6.75083 2.7457 7.15161 2.91431 7.47741L4.70184 10.9305C4.81753 11.1541 5.05151 11.2908 5.30157 11.2893C5.55318 11.2854 5.7812 11.1396 5.89015 10.9126L6.97236 8.6595L8.1477 10.9305C8.2621 11.151 8.48959 11.2893 8.73757 11.2893H8.74743C8.99931 11.2854 9.22706 11.1396 9.33627 10.9126L10.9946 7.45951C11.1534 7.12904 11.0141 6.73216 10.6836 6.5734C10.3529 6.41465 9.95623 6.55395 9.79748 6.88468L8.71527 9.13783L7.53967 6.86678C7.42397 6.64318 7.19052 6.50596 6.94019 6.50804C6.68832 6.51193 6.46031 6.65771 6.35136 6.88468L5.2694 9.13783L4.0938 6.86678Z" fill="#0FB8AE"/>
<path d="M8.3672 3.1875C8.54203 3.1875 8.71324 3.11642 8.83671 2.99295C8.96044 2.86948 9.03125 2.69801 9.03125 2.52344C9.03125 2.34886 8.96044 2.1774 8.83671 2.05392C8.71324 1.93045 8.54203 1.85938 8.3672 1.85938C8.19262 1.85938 8.02141 1.93045 7.89793 2.05392C7.7742 2.1774 7.70312 2.34886 7.70312 2.52344C7.70312 2.69801 7.7742 2.86948 7.89793 2.99295C8.02141 3.11642 8.19262 3.1875 8.3672 3.1875Z" fill="#0FB8AE"/>
<path d="M34 13.2812V4.51562C34 3.05106 32.8083 1.85938 31.3438 1.85938H11.1555C10.7889 1.85938 10.4914 2.15665 10.4914 2.52344C10.4914 2.89023 10.7889 3.1875 11.1555 3.1875H31.3438C32.076 3.1875 32.6719 3.78334 32.6719 4.51562V13.2812C32.6719 14.0135 32.076 14.6094 31.3438 14.6094H28.1562C28.1371 14.6094 28.1184 14.6107 28.0997 14.6122C27.0748 12.8063 25.418 11.4045 23.4318 10.709L24.4162 8.65953L25.5918 10.9303C25.706 11.1511 25.9335 11.2891 26.1814 11.2891H26.1916C26.4432 11.2852 26.6712 11.1394 26.7801 10.9124L28.4385 7.45929C28.5972 7.12881 28.4579 6.73219 28.1275 6.57344C27.797 6.41443 27.4001 6.55373 27.2413 6.88446L26.1594 9.1376L24.9838 6.86656C24.8681 6.64296 24.6349 6.50574 24.3841 6.50807C24.1322 6.5117 23.9044 6.65749 23.7955 6.88446L22.7133 9.1376L21.5379 6.86656C21.3693 6.54102 20.9686 6.41365 20.6427 6.58226C20.3169 6.75087 20.1898 7.15138 20.3582 7.47719L21.8279 10.3163C21.4225 10.2577 21.008 10.2266 20.5865 10.2266C19.7701 10.2266 18.9797 10.3407 18.2306 10.5534L19.7167 7.45929C19.8754 7.12881 19.7361 6.73219 19.4054 6.57344C19.0749 6.41443 18.6781 6.55373 18.5196 6.88446L17.4373 9.1376L16.2617 6.86656C16.1461 6.64296 15.9139 6.50574 15.662 6.50807C15.4104 6.5117 15.1824 6.65749 15.0734 6.88446L13.9915 9.1376L12.8159 6.86656C12.6473 6.54102 12.2468 6.41365 11.921 6.58226C11.5952 6.75087 11.4678 7.15138 11.6364 7.47719L13.4239 10.9303C13.5396 11.1539 13.7726 11.2906 14.0237 11.2891C14.2753 11.2852 14.5033 11.1394 14.6122 10.9124L15.6944 8.65953L16.8698 10.9303C16.8895 10.9684 16.9136 11.0029 16.9398 11.0359C15.3113 11.798 13.9583 13.0535 13.0745 14.6094H2.65625C1.92397 14.6094 1.32812 14.0135 1.32812 13.2812V4.51562C1.32812 3.78334 1.92397 3.1875 2.65625 3.1875H5.37839C5.74518 3.1875 6.04245 2.89023 6.04245 2.52344C6.04245 2.15665 5.74518 1.85938 5.37839 1.85938H2.65625C1.19168 1.85938 0 3.05106 0 4.51562V13.2812C0 14.7461 1.19168 15.9375 2.65625 15.9375H12.4628C12.1334 16.8506 11.9534 17.8342 11.9534 18.8594C11.9534 23.6196 15.826 27.4922 20.5862 27.4922C22.1504 27.4922 23.6188 27.074 24.8855 26.3436L30.156 31.614C30.5949 32.0529 31.1715 32.2724 31.7482 32.2724C32.3248 32.2724 32.9014 32.0529 33.3403 31.614C34.2184 30.736 34.2184 29.3075 33.3403 28.4294L31.2696 26.3586C31.0102 26.0995 30.5897 26.0992 30.3305 26.3586C30.0711 26.618 30.0711 27.0382 30.3305 27.2976L32.4013 29.3687C32.7614 29.7287 32.7614 30.3147 32.4013 30.675C32.0413 31.0351 31.4553 31.0351 31.0952 30.675L25.9993 25.5789C27.9614 23.9952 29.219 21.5717 29.219 18.8594C29.219 17.8342 29.039 16.8506 28.7095 15.9375H31.3438C32.8086 15.9375 34 14.7458 34 13.2812ZM20.5862 26.1641C16.5585 26.1641 13.2815 22.8871 13.2815 18.8594C13.2815 14.8317 16.5585 11.5547 20.5862 11.5547C24.6139 11.5547 27.8909 14.8317 27.8909 18.8594C27.8909 22.8871 24.6142 26.1641 20.5862 26.1641Z" fill="#0FB8AE"/>
<path d="M28.7551 24.7834C28.6316 24.9069 28.5605 25.0781 28.5605 25.2529C28.5605 25.4275 28.6316 25.5987 28.7551 25.7224C28.8793 25.8459 29.05 25.917 29.2246 25.917C29.3992 25.917 29.5706 25.8459 29.6941 25.7224C29.8184 25.5987 29.8887 25.4275 29.8887 25.2529C29.8887 25.0781 29.8184 24.9069 29.6941 24.7834C29.5706 24.6599 29.4 24.5889 29.2246 24.5889C29.05 24.5889 28.8786 24.6599 28.7551 24.7834Z" fill="#0FB8AE"/>
</svg>
