<svg width="32" height="32" viewBox="0 0 32 32" fill="none" xmlns="http://www.w3.org/2000/svg">
<path d="M30.3125 5.86749H14.504V4.10449C14.5034 3.59082 14.2991 3.09835 13.9359 2.73513C13.5726 2.37191 13.0802 2.16759 12.5665 2.16699H6.9415C6.42783 2.16759 5.93536 2.37191 5.57214 2.73513C5.20892 3.09835 5.0046 3.59082 5.004 4.10449V5.86749H1.6875C1.24011 5.86802 0.811195 6.04598 0.494842 6.36233C0.178489 6.67869 0.0005293 7.1076 0 7.55499V24.6522C0.0005293 25.0996 0.178489 25.5285 0.494842 25.8449C0.811195 26.1613 1.24011 26.3392 1.6875 26.3397H5.004V27.8955C5.0046 28.4092 5.20892 28.9016 5.57214 29.2649C5.93536 29.6281 6.42783 29.8324 6.9415 29.833H12.5665C13.0802 29.8324 13.5726 29.6281 13.9359 29.2649C14.2991 28.9016 14.5034 28.4092 14.504 27.8955V26.3397H30.3125C30.7599 26.3392 31.1888 26.1613 31.5052 25.8449C31.8215 25.5285 31.9995 25.0996 32 24.6522V7.55499C31.9995 7.1076 31.8215 6.67869 31.5052 6.36233C31.1888 6.04598 30.7599 5.86802 30.3125 5.86749ZM1.6875 25.4647C1.47209 25.4645 1.26558 25.3788 1.11327 25.2265C0.960952 25.0742 0.875265 24.8676 0.875 24.6522V7.55499C0.875265 7.33958 0.960952 7.13308 1.11327 6.98076C1.26558 6.82844 1.47209 6.74276 1.6875 6.74249H5.004V25.4647H1.6875ZM13.629 27.8955C13.6287 28.1772 13.5166 28.4472 13.3174 28.6464C13.1182 28.8456 12.8482 28.9577 12.5665 28.958H6.9415C6.65981 28.9577 6.38975 28.8456 6.19056 28.6464C5.99138 28.4472 5.87933 28.1772 5.879 27.8955V4.10449C5.87933 3.8228 5.99138 3.55274 6.19056 3.35356C6.38975 3.15437 6.65981 3.04232 6.9415 3.04199H12.5665C12.8482 3.04232 13.1182 3.15437 13.3174 3.35356C13.5166 3.55274 13.6287 3.8228 13.629 4.10449V27.8955ZM31.125 24.6522C31.1247 24.8676 31.039 25.0742 30.8867 25.2265C30.7344 25.3788 30.5279 25.4645 30.3125 25.4647H14.504V6.74249H30.3125C30.5279 6.74276 30.7344 6.82844 30.8867 6.98076C31.039 7.13308 31.1247 7.33958 31.125 7.55499V24.6522Z" fill="#0FB8AE"/>
<path d="M29.0644 13.6206H16.5684C16.4523 13.6206 16.341 13.6667 16.259 13.7487C16.177 13.8308 16.1309 13.9421 16.1309 14.0581V23.4024C16.1308 23.4598 16.1421 23.5167 16.1641 23.5698C16.1861 23.6229 16.2183 23.6712 16.2589 23.7118C16.2996 23.7524 16.3478 23.7847 16.4009 23.8066C16.454 23.8286 16.5109 23.8399 16.5684 23.8399H29.0644C29.1218 23.8399 29.1787 23.8286 29.2318 23.8066C29.2849 23.7847 29.3332 23.7524 29.3738 23.7118C29.4144 23.6712 29.4466 23.6229 29.4686 23.5698C29.4906 23.5167 29.5019 23.4598 29.5019 23.4024V14.0581C29.5019 13.9421 29.4558 13.8308 29.3737 13.7487C29.2917 13.6667 29.1804 13.6206 29.0644 13.6206ZM21.0741 19.7309V17.7309H24.5586V19.7309H21.0741ZM24.5586 20.6059V22.9649H21.0741V20.6059H24.5586ZM17.0059 17.7309H20.1991V19.7309H17.0059V17.7309ZM21.0741 16.8559V14.4956H24.5586V16.8546L21.0741 16.8559ZM25.4336 17.7309H28.6269V19.7309H25.4336V17.7309ZM28.6269 16.8559H25.4336V14.4956H28.6269V16.8559ZM20.1991 14.4956V16.8546H17.0059V14.4956H20.1991ZM17.0059 20.6059H20.1991V22.9649H17.0059V20.6059ZM25.4336 22.9649V20.6059H28.6269V22.9649H25.4336Z" fill="#0FB8AE"/>
<path d="M29.0644 8.36768H16.5684C16.5109 8.36764 16.454 8.37894 16.4009 8.40091C16.3478 8.42289 16.2996 8.45511 16.2589 8.49574C16.2183 8.53638 16.1861 8.58462 16.1641 8.63771C16.1421 8.69081 16.1308 8.74771 16.1309 8.80518V11.5552C16.1309 11.6712 16.177 11.7825 16.259 11.8645C16.341 11.9466 16.4523 11.9927 16.5684 11.9927H29.0644C29.1804 11.9927 29.2917 11.9466 29.3737 11.8645C29.4558 11.7825 29.5019 11.6712 29.5019 11.5552V8.80518C29.5019 8.74771 29.4906 8.69081 29.4686 8.63771C29.4466 8.58462 29.4144 8.53638 29.3738 8.49574C29.3332 8.45511 29.2849 8.42289 29.2318 8.40091C29.1787 8.37894 29.1218 8.36764 29.0644 8.36768ZM28.6269 11.1177H17.0059V9.24268H28.6269V11.1177Z" fill="#0FB8AE"/>
</svg>
