<svg width="33" height="32" viewBox="0 0 33 32" fill="none" xmlns="http://www.w3.org/2000/svg">
<path d="M30.7918 3.45557H7.26127C7.00239 3.45557 6.79252 3.66544 6.79252 3.92432C6.79252 4.18319 7.00239 4.39307 7.26127 4.39307H30.7918C30.9421 4.39307 31.0645 4.51538 31.0645 4.66575V20.2193H25.3934V18.9808C25.3934 18.7219 25.1836 18.512 24.9246 18.512H23.6552C23.4563 17.5467 23.0721 16.6201 22.5286 15.7946L23.427 14.8963C23.61 14.7133 23.61 14.4164 23.427 14.2334L21.8584 12.6649C21.6753 12.4818 21.3785 12.4818 21.1955 12.6649L20.2972 13.5632C19.4718 13.0196 18.5452 12.6355 17.5798 12.4367V11.1673C17.5798 10.9084 17.37 10.6985 17.1111 10.6985H14.8928C14.634 10.6985 14.4241 10.9084 14.4241 11.1673V12.4367C13.4587 12.6356 12.5321 13.0197 11.7066 13.5632L10.8083 12.6649C10.7205 12.5769 10.6012 12.5276 10.4769 12.5276C10.3526 12.5276 10.2333 12.5769 10.1455 12.6649L8.57695 14.2334C8.39389 14.4165 8.39389 14.7133 8.57695 14.8963L9.4752 15.7946C8.93164 16.6201 8.54752 17.5467 8.34864 18.512H7.0792C6.82033 18.512 6.61045 18.7219 6.61045 18.9808V20.2193H0.939453V4.66575C0.939453 4.51538 1.06177 4.39307 1.21214 4.39307H5.38627C5.64514 4.39307 5.85502 4.18319 5.85502 3.92432C5.85502 3.66544 5.64514 3.45557 5.38627 3.45557H1.21214C0.544828 3.45557 0.00195312 3.99844 0.00195312 4.66575V24.3943C0.00195312 25.0616 0.544828 25.6044 1.21214 25.6044H11.8868V27.6065H10.9878C10.7289 27.6065 10.519 27.8164 10.519 28.0753C10.519 28.3341 10.7289 28.544 10.9878 28.544H21.0161C21.2751 28.544 21.4849 28.3341 21.4849 28.0753C21.4849 27.8164 21.2751 27.6065 21.0161 27.6065H20.1171V25.6044H23.7728C24.0317 25.6044 24.2415 25.3946 24.2415 25.1357C24.2415 24.8768 24.0317 24.6669 23.7728 24.6669H1.21214C1.06177 24.6669 0.939453 24.5446 0.939453 24.3943V21.1568H31.0645V24.3943C31.0645 24.5446 30.9421 24.6669 30.7918 24.6669H25.6478C25.3888 24.6669 25.179 24.8768 25.179 25.1357C25.179 25.3946 25.3888 25.6044 25.6478 25.6044H30.7918C31.4591 25.6044 32.002 25.0616 32.002 24.3943V4.66575C32.002 3.99844 31.4591 3.45557 30.7918 3.45557ZM19.1796 27.6066H12.8243V25.6045H19.1796V27.6066ZM13.1839 20.0899C13.1839 18.536 14.4481 17.2718 16.002 17.2718C17.5558 17.2718 18.82 18.536 18.82 20.0899C18.82 20.1328 18.819 20.176 18.8169 20.2193H13.187C13.185 20.176 13.1839 20.1328 13.1839 20.0899ZM19.7552 20.2193C19.7567 20.1761 19.7575 20.1329 19.7575 20.0899C19.7575 18.0191 18.0728 16.3343 16.002 16.3343C13.9311 16.3343 12.2464 18.0191 12.2464 20.0899C12.2464 20.1329 12.2471 20.1761 12.2487 20.2193H7.54802V19.4495H8.74089C8.97264 19.4495 9.16964 19.2801 9.20439 19.051C9.3697 17.9596 9.80439 16.9109 10.4615 16.0184C10.5988 15.8319 10.5793 15.5729 10.4155 15.4091L9.57133 14.5649L10.477 13.6593L11.3211 14.5034C11.4849 14.6673 11.7439 14.6868 11.9305 14.5494C12.823 13.8924 13.8716 13.4577 14.963 13.2924C15.1922 13.2576 15.3616 13.0607 15.3616 12.8289V11.636H16.6423V12.8289C16.6423 13.0606 16.8117 13.2576 17.0409 13.2924C18.1323 13.4577 19.1809 13.8924 20.0735 14.5494C20.26 14.6869 20.519 14.6673 20.6828 14.5034L21.527 13.6593L22.4326 14.5649L21.5884 15.4091C21.4246 15.5729 21.405 15.8319 21.5424 16.0184C22.1995 16.9109 22.6341 17.9596 22.7995 19.051C22.8342 19.2802 23.0312 19.4495 23.263 19.4495H24.4559V20.2193H19.7552Z" fill="#0FB8AE"/>
<path d="M9.98982 6.96533C9.98982 6.70646 9.77995 6.49658 9.52107 6.49658H3.40039C3.14152 6.49658 2.93164 6.70646 2.93164 6.96533C2.93164 7.22421 3.14152 7.43408 3.40039 7.43408H9.52107C9.77995 7.43408 9.98982 7.22421 9.98982 6.96533Z" fill="#0FB8AE"/>
<path d="M3.40039 8.59766C3.14152 8.59766 2.93164 8.80753 2.93164 9.06641C2.93164 9.32528 3.14152 9.53516 3.40039 9.53516H5.38508C5.64395 9.53516 5.85383 9.32528 5.85383 9.06641C5.85383 8.80753 5.64395 8.59766 5.38508 8.59766H3.40039Z" fill="#0FB8AE"/>
<path d="M27.2188 9.53516H29.2034C29.4624 9.53516 29.6722 9.32528 29.6722 9.06641C29.6722 8.80753 29.4624 8.59766 29.2034 8.59766H27.2188C26.9598 8.59766 26.75 8.80753 26.75 9.06641C26.75 9.32528 26.9598 9.53516 27.2188 9.53516Z" fill="#0FB8AE"/>
<path d="M27.2188 11.6357H29.2034C29.4624 11.6357 29.6722 11.4259 29.6722 11.167C29.6722 10.9081 29.4624 10.6982 29.2034 10.6982H27.2188C26.9598 10.6982 26.75 10.9081 26.75 11.167C26.75 11.4259 26.9598 11.6357 27.2188 11.6357Z" fill="#0FB8AE"/>
<path d="M27.2188 13.7368H29.2034C29.4624 13.7368 29.6722 13.5269 29.6722 13.2681C29.6722 13.0092 29.4624 12.7993 29.2034 12.7993H27.2188C26.9598 12.7993 26.75 13.0092 26.75 13.2681C26.75 13.5269 26.9598 13.7368 27.2188 13.7368Z" fill="#0FB8AE"/>
</svg>
