<svg width="30" height="30" viewBox="0 0 30 30" fill="none" xmlns="http://www.w3.org/2000/svg">
<path d="M27.0703 1.17383H2.92969C1.31426 1.17383 0 2.48809 0 4.10352V19.3379C0 20.9533 1.31426 22.2676 2.92969 22.2676H4.42383C4.74738 22.2676 5.00977 22.0052 5.00977 21.6816C5.00977 21.3581 4.74738 21.0957 4.42383 21.0957H2.92969C1.96043 21.0957 1.17188 20.3071 1.17188 19.3379V4.10352C1.17188 3.13426 1.96043 2.3457 2.92969 2.3457H27.0703C28.0396 2.3457 28.8281 3.13426 28.8281 4.10352V19.3379C28.8281 20.3071 28.0396 21.0957 27.0703 21.0957H9.19641C8.87285 21.0957 8.61047 21.3581 8.61047 21.6816C8.61047 22.0052 8.87285 22.2676 9.19641 22.2676H11.748V25.3566C10.8613 25.5504 10.1953 26.3413 10.1953 27.2853V28.2404C10.1953 28.564 10.4577 28.8264 10.7812 28.8264H19.2188C19.5423 28.8264 19.8047 28.564 19.8047 28.2404V27.2853C19.8047 26.3413 19.1387 25.5504 18.252 25.3566V22.2676H27.0703C28.6857 22.2676 30 20.9533 30 19.3379V4.10352C30 2.48809 28.6857 1.17383 27.0703 1.17383ZM12.9199 22.2676H17.0801V25.3108H12.9199V22.2676ZM18.6328 27.2853V27.6546H11.3672V27.2853C11.3672 26.8427 11.7272 26.4827 12.1698 26.4827H17.8302C18.2728 26.4827 18.6328 26.8427 18.6328 27.2853Z" fill="#0FB8AE"/>
<path d="M7.26967 21.2674C7.16074 21.1584 7.00957 21.0957 6.85547 21.0957C6.70137 21.0957 6.5502 21.1583 6.44121 21.2674C6.33223 21.3763 6.26953 21.5275 6.26953 21.6816C6.26953 21.8357 6.33217 21.9869 6.44121 22.0958C6.5502 22.2048 6.70137 22.2676 6.85547 22.2676C7.00957 22.2676 7.16074 22.2049 7.26967 22.0958C7.37865 21.9869 7.44141 21.8357 7.44141 21.6816C7.44141 21.5275 7.37871 21.3763 7.26967 21.2674Z" fill="#0FB8AE"/>
<path d="M9.43236 11.3446C9.65373 10.993 9.78234 10.5775 9.78234 10.1322V9.54754C9.78234 8.289 8.75848 7.26514 7.5 7.26514C6.24152 7.26514 5.21766 8.289 5.21766 9.54754V10.1322C5.21766 10.5775 5.34627 10.993 5.56764 11.3446C4.18688 11.702 3.16406 12.9584 3.16406 14.4493V16.1814C3.16406 16.505 3.42645 16.7673 3.75 16.7673H11.25C11.5736 16.7673 11.8359 16.505 11.8359 16.1814V14.4493C11.8359 12.9584 10.8131 11.702 9.43236 11.3446ZM7.5 8.43695C8.1123 8.43695 8.61047 8.93512 8.61047 9.54748V10.1322C8.61047 10.7445 8.1123 11.2427 7.5 11.2427C6.8877 11.2427 6.38953 10.7445 6.38953 10.1322V9.54748C6.38953 8.93512 6.8877 8.43695 7.5 8.43695ZM10.6641 15.5954H4.33594V14.4493C4.33594 13.3274 5.24865 12.4146 6.37061 12.4146H8.62945C9.75135 12.4146 10.6641 13.3274 10.6641 14.4493V15.5954Z" fill="#0FB8AE"/>
<path d="M24.4324 11.3446C24.6537 10.993 24.7823 10.5775 24.7823 10.1322V9.54754C24.7823 8.289 23.7585 7.26514 22.5 7.26514C21.2415 7.26514 20.2177 8.289 20.2177 9.54754V10.1322C20.2177 10.5775 20.3463 10.993 20.5676 11.3446C19.1869 11.702 18.1641 12.9584 18.1641 14.4493V16.1814C18.1641 16.505 18.4264 16.7673 18.75 16.7673H26.25C26.5736 16.7673 26.8359 16.505 26.8359 16.1814V14.4493C26.8359 12.9584 25.8131 11.702 24.4324 11.3446ZM21.3895 9.54748C21.3895 8.93512 21.8877 8.43695 22.5 8.43695C23.1123 8.43695 23.6105 8.93512 23.6105 9.54748V10.1322C23.6105 10.7445 23.1123 11.2427 22.5 11.2427C21.8877 11.2427 21.3895 10.7445 21.3895 10.1322V9.54748ZM25.6641 15.5954H19.3359V14.4493C19.3359 13.3274 20.2487 12.4146 21.3706 12.4146H23.6295C24.7513 12.4146 25.6641 13.3274 25.6641 14.4493V15.5954Z" fill="#0FB8AE"/>
<path d="M18.1627 6.26707L17.2927 5.39719C17.0639 5.16838 16.693 5.16838 16.4641 5.39719C16.2749 5.58639 16.2426 5.87262 16.3663 6.09545H14.277C13.9535 6.09545 13.6912 6.35778 13.6912 6.68139C13.6912 7.005 13.9535 7.26733 14.2771 7.26733H16.3663C16.2426 7.49016 16.2749 7.77639 16.4641 7.96559C16.5785 8.08002 16.7285 8.13721 16.8784 8.13721C17.0284 8.13721 17.1783 8.07996 17.2927 7.96559L18.1627 7.09571C18.2726 6.98584 18.3343 6.83678 18.3343 6.68139C18.3343 6.52594 18.2726 6.37694 18.1627 6.26707Z" fill="#0FB8AE"/>
<path d="M12.1718 6.26738C12.0623 6.1584 11.9117 6.0957 11.7576 6.0957C11.6035 6.0957 11.4523 6.1584 11.3433 6.26738C11.2337 6.37637 11.1716 6.52754 11.1716 6.68164C11.1716 6.83574 11.2337 6.98691 11.3433 7.0959C11.4523 7.20488 11.6029 7.26758 11.7576 7.26758C11.9117 7.26758 12.0628 7.20488 12.1718 7.0959C12.2808 6.98691 12.3435 6.83574 12.3435 6.68164C12.3435 6.52754 12.2808 6.37637 12.1718 6.26738Z" fill="#0FB8AE"/>
<path d="M17.7494 9.81616H13.1406C13.2643 9.59327 13.232 9.3071 13.0428 9.1179C12.8139 8.88909 12.443 8.88909 12.2141 9.1179L11.3442 9.98778C11.1154 10.2166 11.1154 10.5876 11.3443 10.8164L12.2141 11.6863C12.3286 11.8007 12.4785 11.8579 12.6285 11.8579C12.7784 11.8579 12.9283 11.8007 13.0428 11.6863C13.232 11.4971 13.2643 11.2109 13.1406 10.988H17.7494C18.0729 10.988 18.3353 10.7257 18.3353 10.4021C18.3353 10.0785 18.0729 9.81616 17.7494 9.81616Z" fill="#0FB8AE"/>
</svg>
