<svg width="34" height="34" viewBox="0 0 34 34" fill="none" xmlns="http://www.w3.org/2000/svg">
<path d="M26.0368 14.6162L23.8875 16.7656L23.1548 16.0329L22.3535 16.8341L23.4868 17.9675C23.7081 18.1887 24.0668 18.1887 24.2881 17.9675L26.8381 15.4175L26.0368 14.6162Z" fill="#0FB8AE"/>
<path d="M17.0871 2.8335H10.2871V3.96683H17.0871V2.8335Z" fill="#0FB8AE"/>
<path d="M20.4867 5.1001H6.88672V6.23343H20.4867V5.1001Z" fill="#0FB8AE"/>
<path d="M17.0883 25.5H3.48828V26.6333H17.0883V25.5Z" fill="#0FB8AE"/>
<path d="M17.0883 27.7666H3.48828V28.8999H17.0883V27.7666Z" fill="#0FB8AE"/>
<path d="M32.6118 21.5481L28.9109 17.85C29.021 17.2306 29.0119 16.596 28.8843 15.98L32.6141 12.2496C32.8352 12.0281 32.8348 11.6693 32.6133 11.4482C32.5227 11.3578 32.4041 11.3007 32.2769 11.2863L29.1206 10.9367L28.7687 7.7826C28.7348 7.4715 28.4551 7.24675 28.144 7.28067C28.016 7.29463 27.8965 7.35172 27.8053 7.4426L26.154 9.09273V0.566667C26.154 0.253725 25.9003 0 25.5874 0H1.78737C1.47443 0 1.2207 0.253725 1.2207 0.566667V33.4333C1.2207 33.7463 1.47443 34 1.78737 34H25.5874C25.9003 34 26.154 33.7463 26.154 33.4333V24.7067L27.8047 26.3574C28.0264 26.5783 28.3852 26.5777 28.6061 26.356C28.697 26.2648 28.7541 26.1453 28.7681 26.0174L29.12 22.8633L32.2746 22.5114C32.5856 22.4761 32.809 22.1954 32.7737 21.8844C32.7594 21.7572 32.7023 21.6387 32.6118 21.5481ZM27.7731 9.07687L28.0445 11.5101C28.0741 11.7731 28.2818 11.9806 28.5449 12.0099L30.9781 12.2814L28.474 14.7849C27.7738 13.3372 26.433 12.3035 24.8547 11.9946L27.7731 9.07687ZM22.7575 21.9697L20.0018 24.7254L19.7304 22.2921C19.701 22.0289 19.4932 21.8211 19.23 21.7917L16.7967 21.5209L19.2362 19.0808C19.8929 20.5421 21.1961 21.6113 22.7575 21.9697ZM16.7967 12.2814L19.23 12.0099C19.4931 11.9806 19.7008 11.7731 19.7304 11.5101L20.0018 9.07687L22.9201 11.9946C21.3419 12.3035 20.0011 13.3372 19.3008 14.7849L16.7967 12.2814ZM19.9208 17C19.9208 14.8093 21.6967 13.0333 23.8874 13.0333C26.0782 13.0333 27.8541 14.8093 27.8541 17C27.8513 19.1895 26.077 20.9638 23.8874 20.9667C21.6967 20.9667 19.9208 19.1907 19.9208 17ZM25.0208 32.8667H2.35411V1.13333H25.0208V10.2H25.0468L23.8874 11.3594L19.9701 7.44203C19.7484 7.2211 19.3896 7.22174 19.1687 7.44345C19.0778 7.53468 19.0207 7.65411 19.0067 7.7821L18.6543 10.9367L15.4996 11.2886C15.1887 11.324 14.9652 11.6046 15.0005 11.9157C15.015 12.0429 15.0721 12.1614 15.1625 12.252L18.8906 15.9801C18.7629 16.596 18.7539 17.2307 18.8639 17.8501L15.1608 21.5521C14.9397 21.7736 14.9401 22.1324 15.1616 22.3535C15.2522 22.444 15.3708 22.501 15.4979 22.5154L18.6526 22.8673L19.0045 26.0214C19.0384 26.3325 19.3181 26.5573 19.6292 26.5233C19.7572 26.5094 19.8766 26.4523 19.9678 26.3614L23.8874 22.4401L25.0208 23.5734V32.8667ZM28.5449 21.7917C28.2817 21.8211 28.0738 22.0289 28.0445 22.2921L27.7731 24.7254L25.0174 21.9697C26.579 21.611 27.8824 20.5414 28.5386 19.0797L30.9781 21.5197L28.5449 21.7917Z" fill="#0FB8AE"/>
<path d="M13.6883 20.9668H3.48828V22.1001H13.6883V20.9668Z" fill="#0FB8AE"/>
<path d="M13.6883 23.2334H3.48828V24.3667H13.6883V23.2334Z" fill="#0FB8AE"/>
</svg>
