<svg width="32" height="32" viewBox="0 0 32 32" fill="none" xmlns="http://www.w3.org/2000/svg">
<g clip-path="url(#clip0)">
<path d="M15.9815 0.00146484C15.4079 0.00146484 14.8347 0.0323004 14.2644 0.0937712C13.7417 0.147166 13.2253 0.234734 12.7159 0.340989C12.6174 0.361613 12.5187 0.383372 12.4201 0.406131C9.41887 1.08945 6.67838 2.62395 4.52731 4.82562C4.32728 5.03066 4.13145 5.24177 3.93996 5.45889C-1.87073 12.1298 -1.1734 22.2481 5.49756 28.0588C11.8841 33.6218 21.4975 33.2516 27.4374 27.2141C27.6379 27.009 27.8336 26.7979 28.0248 26.5808C30.5891 23.6605 32.0023 19.9063 32 16.0199C32 7.17306 24.8283 0.0013981 15.9815 0.00146484ZM5.23906 5.62655C5.32342 5.53898 5.41099 5.45515 5.49696 5.37025C5.59627 5.27254 5.69505 5.17429 5.7965 5.07978C5.88567 4.99649 5.97751 4.91639 6.06882 4.83523C6.17187 4.74393 6.27439 4.65262 6.38011 4.56452C6.47301 4.48603 6.56859 4.41074 6.66363 4.33492C6.77042 4.24949 6.87721 4.16406 6.98721 4.08183C7.08438 4.00868 7.18317 3.93767 7.28248 3.86825C7.39301 3.78923 7.50407 3.70807 7.61673 3.63438C7.71765 3.56604 7.81963 3.49983 7.92215 3.43415C8.03642 3.361 8.15121 3.28892 8.26708 3.22057C8.3714 3.1583 8.47639 3.09703 8.58211 3.0369C8.70031 2.96962 8.81898 2.90394 8.93825 2.83987C9.04504 2.78294 9.15183 2.72721 9.25862 2.67274C9.38036 2.61134 9.50317 2.55207 9.62651 2.49387C9.7333 2.44315 9.84437 2.39242 9.95436 2.34436C10.0798 2.29097 10.2069 2.23757 10.334 2.18418C10.4445 2.13879 10.5545 2.09448 10.6661 2.05176C10.7953 2.00264 10.9261 1.95672 11.057 1.9108C11.1686 1.87182 11.2802 1.83284 11.3933 1.796C11.5263 1.75328 11.6603 1.71377 11.7949 1.67479C11.9075 1.64222 12.0191 1.60858 12.1323 1.57815C12.1756 1.56694 12.2188 1.55786 12.2621 1.54665C10.6816 3.08128 9.50871 4.98587 8.84962 7.08796C7.58229 6.75371 6.35541 6.28157 5.191 5.67994C5.20862 5.66125 5.22357 5.64256 5.23906 5.62655ZM4.47124 6.4862C5.75385 7.18114 7.11395 7.72243 8.52338 8.09873C7.83245 10.5012 7.46976 12.9862 7.44533 15.4859H1.04329C1.15963 12.1895 2.36508 9.02466 4.47124 6.4862ZM4.47124 25.5535C2.36521 23.015 1.15976 19.8501 1.04329 16.5538H7.44533C7.46976 19.0535 7.83238 21.5385 8.52338 23.941C7.11402 24.3174 5.75392 24.8586 4.47124 25.5535ZM12.1291 30.4637C12.0213 30.4365 11.9097 30.4012 11.7986 30.3687C11.6635 30.3291 11.5279 30.2896 11.3944 30.2464C11.2818 30.2101 11.1707 30.1711 11.0596 30.1321C10.9283 30.0867 10.7969 30.0403 10.6672 29.9906C10.5561 29.9484 10.4467 29.9041 10.3367 29.8593C10.2091 29.8059 10.0814 29.7525 9.95489 29.6991C9.84597 29.651 9.73758 29.6016 9.62972 29.5506C9.50531 29.4919 9.38143 29.4321 9.25595 29.3702C9.14916 29.3168 9.04237 29.2634 8.93558 29.2052C8.81491 29.1406 8.69531 29.0744 8.5757 29.006C8.46891 28.9467 8.36746 28.8859 8.26441 28.8239C8.14694 28.7535 8.03161 28.6808 7.91628 28.6066C7.81483 28.542 7.71338 28.4763 7.61353 28.4091C7.4998 28.3322 7.38713 28.2521 7.27554 28.172C7.17783 28.102 7.08011 28.0321 6.984 27.9584C6.87348 27.8751 6.76508 27.7891 6.65723 27.7026C6.56272 27.6274 6.46874 27.5526 6.37637 27.4752C6.26958 27.3866 6.16653 27.2942 6.06294 27.2023C5.97217 27.1217 5.88087 27.0422 5.79223 26.9599C5.69025 26.8649 5.59147 26.7661 5.49215 26.6684C5.40619 26.5835 5.31862 26.4997 5.23425 26.4126C5.21877 26.3961 5.20382 26.379 5.18833 26.363C6.35268 25.7611 7.57956 25.2887 8.84695 24.9544C9.50618 27.0564 10.679 28.961 12.2594 30.4957C12.2162 30.4845 12.1724 30.4754 12.1291 30.4637ZM15.4476 30.9282C13.1629 30.6036 11.16 28.219 9.89989 24.6976C11.7217 24.2896 13.5809 24.0708 15.4476 24.0446V30.9282ZM15.4476 22.9767C13.4673 23.0027 11.4954 23.2379 9.56458 23.6783C8.89414 21.3618 8.54046 18.9652 8.51323 16.5538H15.4476V22.9767ZM15.4476 15.4859H8.51323C8.5404 13.0745 8.89407 10.6779 9.56458 8.36143C11.4954 8.80174 13.4674 9.03694 15.4476 9.06304V15.4859ZM15.4476 7.99514C13.5808 7.96911 11.7217 7.75026 9.89989 7.34212C11.16 3.82073 13.1629 1.43612 15.4476 1.11148V7.99514ZM27.4919 6.4862C29.5979 9.02473 30.8034 12.1896 30.9198 15.4859H24.5178C24.4934 12.9862 24.1308 10.5012 23.4398 8.09873C24.8491 7.72223 26.2092 7.181 27.4919 6.4862ZM19.8297 1.57548C19.9419 1.60324 20.0535 1.63848 20.1645 1.67106C20.2996 1.71057 20.4352 1.75008 20.5687 1.79333C20.6814 1.82964 20.7924 1.86862 20.9035 1.90759C21.0349 1.95298 21.1662 1.99943 21.296 2.04909C21.407 2.09127 21.5165 2.13559 21.6265 2.18044C21.7541 2.23384 21.8817 2.28723 22.0082 2.34063C22.1172 2.38868 22.2256 2.43814 22.3334 2.48906C22.4578 2.5478 22.5817 2.6076 22.7072 2.66954C22.814 2.72293 22.9208 2.77633 23.0276 2.83453C23.1482 2.89914 23.2678 2.96535 23.3874 3.03369C23.4942 3.09296 23.5957 3.15383 23.6987 3.21577C23.8162 3.28625 23.9315 3.35887 24.0469 3.43309C24.1483 3.49769 24.2498 3.56337 24.3496 3.63065C24.4633 3.70754 24.5755 3.78709 24.6871 3.86719C24.7853 3.93713 24.883 4.00761 24.9797 4.08076C25.0897 4.16353 25.1975 4.24949 25.3059 4.33599C25.3999 4.41074 25.4944 4.4855 25.5868 4.56345C25.6936 4.65209 25.7966 4.74446 25.9002 4.8363C25.991 4.91693 26.0823 4.99649 26.1709 5.07871C26.2729 5.17376 26.3717 5.27254 26.471 5.37025C26.557 5.45515 26.6445 5.53898 26.7289 5.62601C26.7444 5.64256 26.7593 5.65965 26.7748 5.67567C25.6105 6.27756 24.3836 6.74991 23.1162 7.08423C22.4557 4.98194 21.2813 3.07754 19.6995 1.54344C19.7427 1.55465 19.7865 1.56373 19.8297 1.57548ZM16.5155 1.11148C18.8003 1.43612 20.8031 3.82073 22.0632 7.34212C20.2414 7.75006 18.3823 7.96891 16.5155 7.99514V1.11148ZM16.5155 9.06304C18.4958 9.03701 20.4677 8.8018 22.3986 8.36143C23.069 10.6779 23.4227 13.0745 23.4499 15.4859H16.5155V9.06304ZM16.5155 16.5538H23.4499C23.4227 18.9652 23.0691 21.3618 22.3986 23.6783C20.4677 23.238 18.4958 23.0028 16.5155 22.9767V16.5538ZM16.5155 30.9282V24.0446C18.3823 24.0706 20.2414 24.2894 22.0632 24.6976C20.8031 28.219 18.8003 30.6036 16.5155 30.9282ZM26.7241 26.4132C26.6397 26.5002 26.5527 26.584 26.4667 26.6689C26.3674 26.7666 26.2681 26.8654 26.1661 26.9605C26.0775 27.0432 25.9862 27.1206 25.8954 27.2034C25.7918 27.2952 25.6888 27.3871 25.583 27.4757C25.4896 27.5537 25.3945 27.629 25.2995 27.7048C25.1927 27.7902 25.0859 27.8756 24.9759 27.9579C24.8788 28.031 24.78 28.102 24.6807 28.1715C24.5701 28.2505 24.4591 28.3316 24.3464 28.4053C24.2455 28.4737 24.1435 28.5399 24.041 28.605C23.9267 28.6787 23.8116 28.7499 23.6955 28.8186C23.5887 28.8811 23.4867 28.9419 23.3816 29.0023C23.2634 29.0696 23.1445 29.1352 23.0249 29.1993C22.9181 29.2562 22.8113 29.312 22.7045 29.3664C22.5828 29.4278 22.46 29.4871 22.3366 29.5453C22.2298 29.596 22.1188 29.6468 22.0088 29.6948C21.8833 29.7482 21.7562 29.8016 21.6291 29.855C21.5186 29.8998 21.4086 29.9447 21.2976 29.9869C21.1673 30.0365 21.0365 30.083 20.9051 30.1284C20.794 30.1674 20.683 30.2063 20.5703 30.2426C20.4368 30.2859 20.3033 30.3254 20.1672 30.3644C20.0556 30.3975 19.9435 30.4306 19.8308 30.461C19.7876 30.4722 19.7443 30.4813 19.7011 30.4925C21.2815 28.9579 22.4544 27.0533 23.1135 24.9512C24.3808 25.2855 25.6077 25.7576 26.7721 26.3592C26.7545 26.3785 26.7396 26.3971 26.7241 26.4132ZM27.4919 25.5535C26.2093 24.8586 24.8492 24.3173 23.4398 23.941C24.1307 21.5385 24.4934 19.0535 24.5178 16.5538H30.9198C30.8036 19.8501 29.5981 23.015 27.4919 25.5535Z" fill="#0FB8AE"/>
</g>
<defs>
<clipPath id="clip0">
<rect width="32" height="32" fill="white"/>
</clipPath>
</defs>
</svg>
