<svg width="32" height="31" viewBox="0 0 32 31" fill="none" xmlns="http://www.w3.org/2000/svg">
<path d="M31.9998 29.5269C31.9995 28.4368 31.3279 27.4565 30.2886 27.0297L22.3169 23.756V21.8376C23.1609 20.8148 23.6946 19.5967 23.8733 18.2889H25.5029C27.0537 18.2889 28.3154 17.071 28.3154 15.5741V11.6823C28.3154 10.3136 27.2603 9.17897 25.894 8.99442C25.6914 3.10662 22.281 0 16 0C9.71899 0 6.30859 3.10662 6.10596 8.99442C4.73975 9.17897 3.68457 10.3136 3.68457 11.6823V15.5741C3.68457 17.071 4.94629 18.2889 6.49707 18.2889H8.12671C8.30542 19.597 8.83911 20.8151 9.68311 21.8376V23.756L1.71167 27.0297C0.672119 27.4565 0.000488281 28.4368 0 29.5272V29.9822C0 30.2224 0.0986328 30.4526 0.274658 30.6223C0.450439 30.7919 0.688965 30.8874 0.9375 30.8874H31.0625C31.3113 30.8874 31.5498 30.7919 31.7256 30.6223C31.9014 30.4523 32 30.2221 32 29.9822L31.9998 29.5269ZM20.4429 24.3909C20.4436 24.4125 20.4961 26.6088 19.1521 27.9598C18.4141 28.7014 17.3535 29.0773 16 29.0773C14.6514 29.0773 13.5935 28.704 12.856 27.9679C11.4958 26.6098 11.5566 24.41 11.5571 24.3909C11.5579 24.3786 11.5581 24.3666 11.5581 24.3543V23.4584C12.8418 24.2424 14.373 24.6635 16 24.6635C17.627 24.6635 19.1582 24.2424 20.4419 23.4584V24.3543C20.4419 24.3666 20.4421 24.3786 20.4429 24.3909ZM22.0654 16.8997L20.282 18.0475C19.7156 18.4121 19.0562 18.6049 18.375 18.6049H16.7893C16.2717 18.6049 15.8518 19.01 15.8518 19.5098C15.8518 20.0096 16.2717 20.4147 16.7893 20.4147H18.375C19.4275 20.4147 20.4468 20.1168 21.3223 19.5531L21.6812 19.3222C20.8352 21.4292 18.6716 22.8537 16 22.8537C12.5422 22.8537 9.93457 20.4677 9.93457 17.3036V9.96747C10.3042 8.3089 10.8396 7.25482 11.4851 6.9169C12.1279 6.57991 13.062 6.93033 13.9653 7.26896C14.6692 7.53266 15.334 7.78198 16 7.78198C16.6721 7.78198 17.3289 7.53007 18.0244 7.26354C18.9287 6.91666 19.783 6.5891 20.4158 6.90771C20.877 7.13983 21.5344 7.86257 22.0654 9.97897V16.8997ZM26.4404 11.6823V15.5741C26.4404 16.073 26.0198 16.479 25.5029 16.479H23.9404V10.7774H25.5029C26.0198 10.7774 26.4404 11.1834 26.4404 11.6823ZM9.65234 4.02661C10.9507 2.55566 13.0862 1.80982 16 1.80982C18.9138 1.80982 21.0493 2.55566 22.3477 4.02661C23.3699 5.18484 23.9299 6.84549 24.0166 8.96755H23.729C23.1628 7.02671 22.3772 5.85386 21.2827 5.30291C19.8884 4.60113 18.4709 5.14455 17.332 5.58145C16.8311 5.77351 16.313 5.97216 15.9998 5.97216C15.6851 5.97216 15.1558 5.77374 14.644 5.58192C13.4648 5.1396 11.9971 4.58935 10.5906 5.326C9.53003 5.88167 8.76221 7.07667 8.25366 8.96755H7.9834C8.06982 6.84549 8.63013 5.18484 9.65234 4.02661ZM5.55957 15.5741V11.6823C5.55957 11.1834 5.98022 10.7774 6.49707 10.7774H8.05957V16.479H6.49707C5.98022 16.479 5.55957 16.073 5.55957 15.5741ZM2.44556 28.6951L9.79053 25.6787C9.95508 26.6607 10.3638 27.9968 11.3657 29.0775H1.99902C2.09839 28.91 2.25317 28.774 2.44556 28.6951ZM20.6343 29.0775C21.6362 27.9968 22.0449 26.6607 22.2095 25.6787L29.5544 28.6951C29.7468 28.774 29.9014 28.91 30.001 29.0775H20.6343Z" fill="#0FB8AE"/>
</svg>
