<svg width="30" height="30" viewBox="0 0 30 30" fill="none" xmlns="http://www.w3.org/2000/svg">
<g clip-path="url(#clip0)">
<path d="M29.8773 12.7945L24.8561 6.27181C24.6703 6.03057 24.3313 5.97106 24.0742 6.13448L20.8324 8.19625H16.6042C16.5495 8.19625 16.4951 8.20792 16.4424 8.22326L13.1641 9.16694L9.7625 8.23653L6.45722 6.13448C6.20453 5.9738 5.87174 6.02828 5.68383 6.26128L0.130008 13.1406C-0.0695767 13.3877 -0.0366177 13.7487 0.204166 13.9558L3.11508 16.4609L5.72663 19.9802C4.96285 20.7939 4.97772 22.0772 5.7724 22.8722C6.12465 23.2242 6.57257 23.4231 7.03331 23.4693C7.01729 23.5737 7.00905 23.6797 7.00905 23.7872C7.00905 24.3425 7.22534 24.8646 7.61788 25.2571C8.01064 25.6499 8.53272 25.8662 9.08798 25.8662C9.09554 25.8662 9.10286 25.8657 9.11019 25.8655C9.10996 25.8797 9.10927 25.8936 9.10927 25.9078C9.10927 26.4631 9.32556 26.9852 9.7181 27.3779C10.1109 27.7705 10.6329 27.9868 11.1882 27.9868C11.2978 27.9868 11.4063 27.9778 11.5128 27.9613C11.5578 28.4237 11.7572 28.8737 12.1106 29.2271C12.5157 29.6324 13.0481 29.835 13.5805 29.835C14.1129 29.835 14.6452 29.6324 15.0506 29.2271L15.3685 28.9091L15.5019 29.0167C15.9039 29.406 16.4257 29.6006 16.9476 29.6006C17.4799 29.6006 18.0123 29.398 18.4174 28.9927C18.831 28.5791 19.0336 28.0332 19.0251 27.4901C19.568 27.4983 20.1141 27.296 20.5277 26.8826C20.9409 26.4693 21.1434 25.9238 21.1354 25.3809C21.701 25.3899 22.2375 25.1726 22.6378 24.7723C23.0514 24.3587 23.2539 23.8129 23.2455 23.2697C23.7888 23.278 24.3345 23.0756 24.7481 22.662C25.4539 21.9562 25.5448 20.8651 25.0214 20.0597L26.9282 16.0661L29.7949 13.5992C30.0318 13.3953 30.068 13.0419 29.8773 12.7945ZM6.26908 7.40912L8.64578 8.92043L3.47557 15.2193L1.40374 13.436L6.26908 7.40912ZM6.60439 20.7639L7.3217 20.0466C7.34345 20.0249 7.36633 20.0043 7.38968 19.985C7.52999 19.8706 7.69982 19.8024 7.87972 19.7861C7.88475 19.7857 7.89002 19.7857 7.89505 19.7855C7.92069 19.7834 7.94632 19.782 7.97219 19.7822C8.218 19.7857 8.44643 19.8862 8.6158 20.0649C8.94814 20.4163 8.93028 20.9903 8.57598 21.3446L7.8804 22.0402C7.52861 22.392 6.95618 22.392 6.60439 22.0402C6.2526 21.6882 6.2526 21.1157 6.60439 20.7639ZM8.44986 24.4251C8.27934 24.2548 8.1855 24.0282 8.1855 23.7872C8.1855 23.5462 8.27934 23.3196 8.44986 23.1491L9.84078 21.7582C10.1072 21.4918 10.526 21.4188 10.8666 21.581C11.2177 21.7483 11.4153 22.1294 11.3638 22.5128C11.3363 22.7174 11.2411 22.9102 11.095 23.0564L9.72611 24.4251C9.55559 24.5956 9.329 24.6895 9.08798 24.6895C8.84697 24.6895 8.62038 24.5956 8.44986 24.4251ZM10.5501 26.5457C10.3796 26.3754 10.2857 26.1488 10.2857 25.9078C10.2857 25.6668 10.3796 25.4402 10.5501 25.2697L11.9408 23.8788C12.2257 23.594 12.6828 23.5327 13.0316 23.7357C13.3502 23.9211 13.5171 24.285 13.4624 24.6476C13.4324 24.847 13.3376 25.0344 13.195 25.177L11.8263 26.5457C11.6558 26.7162 11.4292 26.8101 11.1882 26.8101C10.9472 26.8101 10.7206 26.7162 10.5501 26.5457ZM12.9424 28.3951C12.5906 28.0433 12.5906 27.4709 12.9424 27.1191L13.6597 26.4017C13.6814 26.38 13.7041 26.3596 13.7274 26.3404C13.7281 26.3399 13.7286 26.3395 13.729 26.339C13.8457 26.2443 13.9829 26.1809 14.1291 26.1532C14.1325 26.1527 14.136 26.1523 14.1394 26.1518C14.1646 26.1472 14.1902 26.1436 14.2159 26.1413C14.2262 26.1404 14.2365 26.1404 14.247 26.1397C14.268 26.1385 14.2889 26.1372 14.3102 26.1374C14.5557 26.1408 14.7844 26.2411 14.9538 26.4201C14.9746 26.442 14.9941 26.4649 15.0119 26.4885C15.2824 26.8421 15.246 27.3674 14.9103 27.7034L14.2184 28.3953C13.8666 28.7471 13.2941 28.7469 12.9424 28.3951ZM23.9161 21.8301C23.5643 22.1821 22.9919 22.1818 22.6401 21.8301C22.6273 21.8172 22.6138 21.8053 22.6 21.7941L18.8175 17.9718C18.5889 17.7409 18.2165 17.739 17.9855 17.9677C17.7546 18.1961 17.7528 18.5685 17.9812 18.7994L21.8047 22.6627C21.8051 22.6632 21.8056 22.6636 21.806 22.6641C22.1578 23.0159 22.1578 23.5886 21.806 23.9403C21.6355 24.1109 21.4089 24.2047 21.1679 24.2047C20.9267 24.2047 20.7001 24.1109 20.5298 23.9403L17.972 21.356C17.7436 21.1251 17.3712 21.1233 17.1403 21.3517C16.9093 21.5803 16.9075 21.9527 17.1359 22.1837L19.6545 24.7284C19.6674 24.7444 19.6811 24.7597 19.6957 24.7744C20.0475 25.1262 20.0475 25.6988 19.6957 26.0506C19.3437 26.4024 18.7711 26.4022 18.4193 26.0504L17.0233 24.6398C16.7947 24.4089 16.4223 24.4068 16.1913 24.6355C15.9604 24.8639 15.9586 25.2363 16.187 25.4672L17.544 26.8382C17.5568 26.8542 17.5706 26.8698 17.5854 26.8845C17.9372 27.2362 17.9372 27.8089 17.5854 28.1607C17.2337 28.5127 16.6612 28.5125 16.3094 28.1607C16.2689 28.1202 16.2213 28.0891 16.176 28.0543C16.1375 28.025 16.1275 28.0046 16.1467 27.9579C16.1662 27.9105 16.1952 27.8677 16.2147 27.8201C16.2362 27.767 16.2536 27.7123 16.2705 27.6574C16.3607 27.3667 16.3873 27.0541 16.3467 26.7524C16.2689 26.1735 15.9505 25.6512 15.4681 25.3207C15.2074 25.1424 14.9057 25.0255 14.593 24.9815C14.7446 24.3132 14.5626 23.5886 14.0893 23.0884C13.6997 22.6769 13.1735 22.446 12.6075 22.4382C12.5869 22.438 12.5663 22.438 12.5455 22.4382C12.5581 21.898 12.3617 21.3613 11.9893 20.9679C11.5995 20.5563 11.0733 20.3254 10.5075 20.3176C10.3393 20.3153 10.1695 20.3332 10.0056 20.3709C9.93553 19.8836 9.68994 19.4327 9.31801 19.1103C8.94837 18.7903 8.48351 18.6127 7.98844 18.6058C7.46727 18.5982 6.95526 18.7905 6.56822 19.14L4.29428 16.076L9.73435 9.44846L11.4681 9.9227L9.2038 13.9183C8.93006 14.4015 8.86093 14.9622 9.00902 15.4974C9.15711 16.0327 9.50455 16.4781 9.98772 16.7519C10.0179 16.769 10.0484 16.7853 10.0793 16.8008C10.0816 16.802 10.0838 16.8031 10.0864 16.8043C10.1676 16.8448 10.2512 16.8796 10.3358 16.9089C10.7302 17.0455 11.1562 17.0604 11.567 16.9469C12.1021 16.7988 12.5475 16.4511 12.8213 15.9682L14.2928 13.3715L16.9201 13.5578L23.9163 20.5538C24.2679 20.9058 24.2679 21.4783 23.9161 21.8301ZM24.1598 19.1336L17.5967 12.5706C17.5843 12.5581 17.5713 12.5461 17.5578 12.5349C17.4632 12.4562 17.346 12.4086 17.2224 12.3999L14.0055 12.1717C13.783 12.1564 13.5619 12.2747 13.4521 12.4686L11.7977 15.3882C11.6789 15.5978 11.4855 15.7487 11.2532 15.813C11.0211 15.8773 10.7776 15.8471 10.5677 15.7283C10.358 15.6095 10.2072 15.4161 10.1429 15.1838C10.0786 14.9515 10.1086 14.7079 10.2276 14.4983L12.4361 10.6007L13.331 10.3432C13.3369 10.3413 13.3427 10.339 13.3486 10.3372L16.6887 9.3727H20.7243L25.7625 15.7773L24.1598 19.1336ZM26.5331 14.854L21.874 8.92798L24.2519 7.41576L28.6054 13.0707L26.5331 14.854Z" fill="#0FB8AE"/>
<path d="M18.1751 7.0919C18.3257 7.0919 18.4763 7.03446 18.5912 6.91956L22.6095 2.90131C22.8393 2.67151 22.8393 2.29912 22.6095 2.06932C22.3797 1.83952 22.0073 1.83952 21.7775 2.06932L17.7593 6.08757C17.5295 6.31737 17.5295 6.68976 17.7593 6.91956C17.8742 7.03446 18.0248 7.0919 18.1751 7.0919Z" fill="#0FB8AE"/>
<path d="M11.4086 6.91956C11.5235 7.03446 11.6741 7.0919 11.8247 7.0919C11.9751 7.0919 12.1257 7.03446 12.2406 6.91956C12.4704 6.68976 12.4704 6.31737 12.2406 6.08757L8.22235 2.06932C7.99255 1.83952 7.62016 1.83952 7.39037 2.06932C7.16057 2.29912 7.16057 2.67151 7.39037 2.90131L11.4086 6.91956Z" fill="#0FB8AE"/>
<path d="M15.0006 7.09172C15.3254 7.09172 15.5888 6.82828 15.5888 6.50349V3.17807C15.5888 2.85329 15.3254 2.58984 15.0006 2.58984C14.6758 2.58984 14.4124 2.85329 14.4124 3.17807V6.50349C14.4124 6.82828 14.6758 7.09172 15.0006 7.09172Z" fill="#0FB8AE"/>
<path d="M14.4572 1.04598C14.5505 1.27235 14.7833 1.42089 15.0289 1.40808C15.2715 1.39549 15.4846 1.23161 15.5597 1.00067C15.635 0.767894 15.553 0.502619 15.358 0.354304C15.1591 0.202784 14.8817 0.194316 14.6737 0.331874C14.4416 0.485224 14.3516 0.790553 14.4572 1.04598Z" fill="#0FB8AE"/>
</g>
<defs>
<clipPath id="clip0">
<rect width="30" height="30" fill="white"/>
</clipPath>
</defs>
</svg>
