<svg width="30" height="30" viewBox="0 0 30 30" fill="none" xmlns="http://www.w3.org/2000/svg">
<path d="M25.8884 15.157H24.3584C24.3584 10.1638 20.2973 6.10359 15.3067 6.10359L15.3058 4.5754C21.1422 4.57264 25.8884 9.3207 25.8884 15.157ZM15.3058 7.21484L15.3049 8.74304C18.8434 8.74304 21.718 11.6203 21.7162 15.1561L23.2462 15.1552C23.2462 10.7773 19.6865 7.21484 15.3058 7.21484ZM15 0C6.7281 0 0 6.7281 0 15.0009C0 23.2719 6.7281 30 15 30C15.5115 30 15.9248 29.5867 15.9248 29.0761C15.9248 28.5627 15.5115 28.1485 15 28.1485C7.74842 28.1485 1.85055 22.2488 1.85055 15.0009C1.85055 7.74934 7.74842 1.85055 15 1.85055C22.2516 1.85055 28.1485 7.75026 28.1485 15.0009C28.1485 18.0307 26.5358 21.0329 24.2279 22.3058C23.3895 22.7668 22.4803 22.9955 21.5104 23.0047C22.0927 22.6584 22.5969 22.19 22.9716 21.6004C23.0451 21.4893 23.1424 21.391 23.1902 21.2707C23.4914 20.5461 23.518 19.7242 23.6999 18.9582C23.923 17.9811 19.422 16.0718 19.0308 17.2923C18.8894 17.7441 18.6726 19.1731 18.3888 19.5497C18.1363 19.8858 17.5136 19.726 17.1242 19.3954C16.0984 18.5211 14.9532 17.2363 13.9484 16.2205L13.9503 16.2196C13.9246 16.193 13.8933 16.1636 13.8658 16.1351C13.8373 16.1085 13.8089 16.0782 13.7804 16.0506V16.0525C12.7646 15.0459 11.4789 13.9034 10.6055 12.8758C10.2749 12.4864 10.1151 11.8637 10.4512 11.6112C10.8278 11.3255 12.2568 11.1125 12.7086 10.9692C13.9264 10.5798 12.0198 6.07604 11.0408 6.30013C10.2767 6.47921 9.45478 6.5086 8.73018 6.808C8.60711 6.86034 8.5116 6.95494 8.40048 7.02841C5.82992 8.65763 5.49838 12.614 8.00741 15.5621C8.96345 16.6898 9.96082 17.7809 10.9876 18.8462L10.9821 18.8499C11.0105 18.8783 11.0399 18.905 11.0693 18.9325C11.0969 18.961 11.1235 18.9895 11.1501 19.0198L11.1556 19.0143C12.221 20.041 13.4837 21.5536 15.5354 22.922C19.8546 25.8066 23.169 25.0012 25.1215 23.9304C28.492 22.0743 30 18.1097 30 15.0046C30 6.7281 23.271 0 15 0Z" fill="#0FB8AE"/>
</svg>
