<svg width="33" height="33" viewBox="0 0 33 33" fill="none" xmlns="http://www.w3.org/2000/svg">
<path d="M29.6523 25.5466C29.9193 25.5466 30.1357 25.3301 30.1357 25.0632V4.71546C30.1357 4.44849 29.9193 4.23206 29.6523 4.23206H28.0523V2.56685C28.0523 2.29988 27.8359 2.08345 27.5689 2.08345H25.9688V0.483398C25.9688 0.216434 25.7524 0 25.4854 0H3.34863C3.08167 0 2.86523 0.216434 2.86523 0.483398V28.2845C2.86523 28.5515 3.08167 28.7679 3.34863 28.7679H4.94868V30.368C4.94868 30.635 5.16512 30.8514 5.43208 30.8514H7.03213V32.5166C7.03213 32.7836 7.24856 33 7.51553 33H29.6523C29.9192 33 30.1357 32.7836 30.1357 32.5166V27.3189C30.1357 27.0519 29.9192 26.8355 29.6523 26.8355C29.3853 26.8355 29.1689 27.0519 29.1689 27.3189V32.0332H7.99899V30.8515H27.5689C27.8359 30.8515 28.0523 30.635 28.0523 30.3681V22.1404C28.0523 21.8735 27.8359 21.657 27.5689 21.657C27.3019 21.657 27.0855 21.8735 27.0855 22.1404V29.8846H5.91548V28.7679H25.4854C25.7523 28.7679 25.9688 28.5515 25.9688 28.2845V18.0866C25.9688 17.8197 25.7523 17.6032 25.4854 17.6032C25.2184 17.6032 25.002 17.8197 25.002 18.0866V27.8012H3.83203V0.966797H25.002V15.825C25.002 16.092 25.2184 16.3084 25.4854 16.3084C25.7523 16.3084 25.9688 16.092 25.9688 15.825V3.05024H27.0854V19.883C27.0854 20.15 27.3019 20.3664 27.5688 20.3664C27.8358 20.3664 28.0522 20.15 28.0522 19.883V5.19885H29.1689V25.0632C29.1689 25.3301 29.3854 25.5466 29.6523 25.5466Z" fill="#0FB8AE"/>
<path d="M12.8175 11.9425V2.95752C12.8175 2.69055 12.6011 2.47412 12.3341 2.47412H5.82324C5.55628 2.47412 5.33984 2.69055 5.33984 2.95752V11.9424C5.33984 12.2094 5.55628 12.4258 5.82324 12.4258H12.3341C12.6011 12.4259 12.8175 12.2094 12.8175 11.9425ZM11.8507 11.4591H6.30664V3.44092H11.8506V11.4591H11.8507Z" fill="#0FB8AE"/>
<path d="M23.494 2.95752C23.494 2.69055 23.2776 2.47412 23.0106 2.47412H14.6768C14.4098 2.47412 14.1934 2.69055 14.1934 2.95752V5.17123C14.1934 5.43819 14.4098 5.65462 14.6768 5.65462H23.0106C23.2776 5.65462 23.494 5.43819 23.494 5.17123V2.95752ZM22.5272 4.68783H15.1602V3.44092H22.5272V4.68783Z" fill="#0FB8AE"/>
<path d="M23.0106 7.03174H14.6768C14.4098 7.03174 14.1934 7.24817 14.1934 7.51514C14.1934 7.7821 14.4098 7.99854 14.6768 7.99854H23.0106C23.2776 7.99854 23.494 7.7821 23.494 7.51514C23.494 7.24817 23.2776 7.03174 23.0106 7.03174Z" fill="#0FB8AE"/>
<path d="M23.0106 9.11523H14.6768C14.4098 9.11523 14.1934 9.33167 14.1934 9.59863C14.1934 9.8656 14.4098 10.082 14.6768 10.082H23.0106C23.2776 10.082 23.494 9.8656 23.494 9.59863C23.494 9.33167 23.2776 9.11523 23.0106 9.11523Z" fill="#0FB8AE"/>
<path d="M23.0106 11.459H14.6768C14.4098 11.459 14.1934 11.6754 14.1934 11.9424C14.1934 12.2093 14.4098 12.4258 14.6768 12.4258H23.0106C23.2776 12.4258 23.494 12.2093 23.494 11.9424C23.494 11.6754 23.2776 11.459 23.0106 11.459Z" fill="#0FB8AE"/>
<path d="M23.0109 13.8027H10.7705C10.5035 13.8027 10.2871 14.0192 10.2871 14.2861C10.2871 14.5531 10.5035 14.7695 10.7705 14.7695H23.0109C23.2778 14.7695 23.4943 14.5531 23.4943 14.2861C23.4943 14.0192 23.2778 13.8027 23.0109 13.8027Z" fill="#0FB8AE"/>
<path d="M8.4276 13.8027H5.82324C5.55628 13.8027 5.33984 14.0192 5.33984 14.2861C5.33984 14.5531 5.55628 14.7695 5.82324 14.7695H8.42753C8.6945 14.7695 8.91093 14.5531 8.91093 14.2861C8.91093 14.0192 8.69456 13.8027 8.4276 13.8027Z" fill="#0FB8AE"/>
<path d="M23.0109 16.147H10.7705C10.5035 16.147 10.2871 16.3634 10.2871 16.6304C10.2871 16.8973 10.5035 17.1138 10.7705 17.1138H23.0109C23.2778 17.1138 23.4943 16.8973 23.4943 16.6304C23.4943 16.3634 23.2778 16.147 23.0109 16.147Z" fill="#0FB8AE"/>
<path d="M8.4276 16.147H5.82324C5.55628 16.147 5.33984 16.3634 5.33984 16.6304C5.33984 16.8973 5.55628 17.1138 5.82324 17.1138H8.42753C8.6945 17.1138 8.91093 16.8973 8.91093 16.6304C8.91093 16.3634 8.69456 16.147 8.4276 16.147Z" fill="#0FB8AE"/>
<path d="M23.0109 18.4907H10.7705C10.5035 18.4907 10.2871 18.7072 10.2871 18.9741C10.2871 19.2411 10.5035 19.4575 10.7705 19.4575H23.0109C23.2778 19.4575 23.4943 19.2411 23.4943 18.9741C23.4943 18.7072 23.2778 18.4907 23.0109 18.4907Z" fill="#0FB8AE"/>
<path d="M8.4276 18.4907H5.82324C5.55628 18.4907 5.33984 18.7072 5.33984 18.9741C5.33984 19.2411 5.55628 19.4575 5.82324 19.4575H8.42753C8.6945 19.4575 8.91093 19.2411 8.91093 18.9741C8.91093 18.7072 8.69456 18.4907 8.4276 18.4907Z" fill="#0FB8AE"/>
<path d="M23.0109 20.8345H10.7705C10.5035 20.8345 10.2871 21.0509 10.2871 21.3179C10.2871 21.5848 10.5035 21.8013 10.7705 21.8013H23.0109C23.2778 21.8013 23.4943 21.5848 23.4943 21.3179C23.4943 21.0509 23.2778 20.8345 23.0109 20.8345Z" fill="#0FB8AE"/>
<path d="M8.4276 20.8345H5.82324C5.55628 20.8345 5.33984 21.0509 5.33984 21.3179C5.33984 21.5848 5.55628 21.8013 5.82324 21.8013H8.42753C8.6945 21.8013 8.91093 21.5848 8.91093 21.3179C8.91093 21.0509 8.69456 20.8345 8.4276 20.8345Z" fill="#0FB8AE"/>
<path d="M23.0109 23.1787H10.7705C10.5035 23.1787 10.2871 23.3951 10.2871 23.6621C10.2871 23.9291 10.5035 24.1455 10.7705 24.1455H23.0109C23.2778 24.1455 23.4943 23.9291 23.4943 23.6621C23.4943 23.3951 23.2778 23.1787 23.0109 23.1787Z" fill="#0FB8AE"/>
<path d="M8.4276 23.1787H5.82324C5.55628 23.1787 5.33984 23.3951 5.33984 23.6621C5.33984 23.9291 5.55628 24.1455 5.82324 24.1455H8.42753C8.6945 24.1455 8.91093 23.9291 8.91093 23.6621C8.91093 23.3951 8.69456 23.1787 8.4276 23.1787Z" fill="#0FB8AE"/>
</svg>
