<svg width="30" height="30" viewBox="0 0 30 30" fill="none" xmlns="http://www.w3.org/2000/svg">
<path d="M6.5625 14.0625H5.625V12.1875H6.5625C7.08 12.1875 7.5 11.7675 7.5 11.25C7.5 10.7325 7.08 10.3125 6.5625 10.3125H4.6875C4.17 10.3125 3.75 10.7325 3.75 11.25V18.75C3.75 19.2675 4.17 19.6875 4.6875 19.6875C5.205 19.6875 5.625 19.2675 5.625 18.75V15.9375H6.5625C7.08 15.9375 7.5 15.5175 7.5 15C7.5 14.4825 7.08 14.0625 6.5625 14.0625Z" fill="#0FB8AE"/>
<path d="M19.6875 15.9375C20.205 15.9375 20.625 15.5175 20.625 15C20.625 14.4825 20.205 14.0625 19.6875 14.0625H18.75V12.1875H19.6875C20.205 12.1875 20.625 11.7675 20.625 11.25C20.625 10.7325 20.205 10.3125 19.6875 10.3125H17.8125C17.295 10.3125 16.875 10.7325 16.875 11.25V18.75C16.875 19.2675 17.295 19.6875 17.8125 19.6875H19.6875C20.205 19.6875 20.625 19.2675 20.625 18.75C20.625 18.2325 20.205 17.8125 19.6875 17.8125H18.75V15.9375H19.6875Z" fill="#0FB8AE"/>
<path d="M25.3125 15.9375C25.83 15.9375 26.25 15.5175 26.25 15C26.25 14.4825 25.83 14.0625 25.3125 14.0625H24.375V12.1875H25.3125C25.83 12.1875 26.25 11.7675 26.25 11.25C26.25 10.7325 25.83 10.3125 25.3125 10.3125H23.4375C22.92 10.3125 22.5 10.7325 22.5 11.25V18.75C22.5 19.2675 22.92 19.6875 23.4375 19.6875H25.3125C25.83 19.6875 26.25 19.2675 26.25 18.75C26.25 18.2325 25.83 17.8125 25.3125 17.8125H24.375V15.9375H25.3125Z" fill="#0FB8AE"/>
<path d="M13.02 15.7969C14.1619 15.4406 15 14.385 15 13.125C15 11.5744 13.7381 10.3125 12.1875 10.3125H10.3125C9.795 10.3125 9.375 10.7325 9.375 11.25V18.75C9.375 19.2675 9.795 19.6875 10.3125 19.6875C10.83 19.6875 11.25 19.2675 11.25 18.75V16.5619L13.3125 19.3125C13.4962 19.5581 13.7775 19.6875 14.0625 19.6875C14.2575 19.6875 14.4544 19.6256 14.6231 19.5C15.0375 19.1887 15.1219 18.6019 14.8106 18.1875L13.02 15.7969ZM12.1875 14.0625H11.25V12.1875H12.1875C12.705 12.1875 13.125 12.6075 13.125 13.125C13.125 13.6425 12.705 14.0625 12.1875 14.0625Z" fill="#0FB8AE"/>
<path d="M15 0C6.72938 0 0 6.72938 0 15C0 23.2706 6.72938 30 15 30C23.2706 30 30 23.2706 30 15C30 6.72938 23.2706 0 15 0ZM15 28.125C7.7625 28.125 1.875 22.2375 1.875 15C1.875 7.7625 7.7625 1.875 15 1.875C22.2375 1.875 28.125 7.7625 28.125 15C28.125 22.2375 22.2375 28.125 15 28.125Z" fill="#0FB8AE"/>
<path d="M22.9556 7.04453C18.5681 2.65703 11.4318 2.65703 7.04619 7.04453C6.68057 7.41016 6.68057 8.00453 7.04619 8.37016C7.41182 8.73578 8.00432 8.73766 8.36994 8.37016C12.0243 4.71578 17.9737 4.71578 21.6281 8.37016C21.8118 8.55391 22.0518 8.64391 22.2918 8.64391C22.5318 8.64391 22.7718 8.55203 22.9556 8.37016C23.3212 8.00453 23.3212 7.41016 22.9556 7.04453Z" fill="#0FB8AE"/>
<path d="M22.9574 21.6299C22.5918 21.2643 21.9956 21.2624 21.6299 21.6299C17.9756 25.2843 12.0262 25.2843 8.37182 21.6299C8.00619 21.2643 7.41182 21.2643 7.04619 21.6299C6.68057 21.9955 6.68057 22.5899 7.04619 22.9555C9.23994 25.1493 12.1199 26.2443 15.0018 26.2443C17.8837 26.2443 20.7637 25.1493 22.9574 22.9555C23.3231 22.5899 23.3231 21.9955 22.9574 21.6299Z" fill="#0FB8AE"/>
</svg>
