<svg width="33" height="33" viewBox="0 0 33 33" fill="none" xmlns="http://www.w3.org/2000/svg">
<path d="M7.45438 15.1846C7.70348 14.8072 7.97586 14.4458 8.26991 14.1023L9.05328 14.7727C8.50837 15.4089 8.04701 16.1122 7.68042 16.8654L6.75294 16.4147C6.95967 15.9898 7.19398 15.5789 7.45438 15.1846ZM25.1606 27.6385C24.5933 28.3937 23.9301 29.0719 23.1877 29.6558C21.7538 30.7817 20.0589 31.5275 18.2601 31.8242C16.4612 32.1208 14.6167 31.9588 12.8971 31.353C8.24426 29.7077 5.23687 24.9676 5.72343 20.0586C5.81508 19.1326 6.02629 18.2225 6.35178 17.3508L7.3178 17.7117C7.09067 18.321 6.92514 18.9515 6.82371 19.5938H9.79499C9.93175 19.5938 10.0629 19.6481 10.1596 19.7448C10.2563 19.8415 10.3106 19.9726 10.3106 20.1094V21.9304L12.3731 23.6491V22.6875C12.3731 22.5507 12.4274 22.4196 12.5241 22.3229C12.6208 22.2262 12.752 22.1719 12.8887 22.1719H14.9512V20.1094C14.9512 19.9726 15.0056 19.8415 15.1023 19.7448C15.199 19.6481 15.3301 19.5938 15.4669 19.5938H16.103L15.1749 18.0469H13.92V19.0781C13.92 19.2149 13.8657 19.346 13.769 19.4427C13.6723 19.5394 13.5411 19.5938 13.4044 19.5938H12.3731C12.2822 19.5938 12.1929 19.5697 12.1143 19.5241C12.0357 19.4785 11.9705 19.4129 11.9254 19.3339L9.86294 15.7246L10.7583 15.2129L12.6724 18.5625H12.8887V17.5312C12.8887 17.3945 12.9431 17.2633 13.0398 17.1666C13.1365 17.07 13.2676 17.0156 13.4044 17.0156H15.4669C15.5559 17.0156 15.6434 17.0387 15.7209 17.0826C15.7984 17.1264 15.8632 17.1896 15.909 17.266L17.4559 19.8441C17.5028 19.9223 17.5282 20.0116 17.5293 20.1029C17.5305 20.1941 17.5074 20.284 17.4624 20.3634C17.4175 20.4428 17.3523 20.5089 17.2734 20.5548C17.1946 20.6008 17.105 20.625 17.0137 20.625H15.9825V22.6875C15.9825 22.8243 15.9282 22.9554 15.8315 23.0521C15.7348 23.1488 15.6036 23.2031 15.4669 23.2031H13.4044V24.2344H15.4669C15.6036 24.2344 15.7348 24.2887 15.8315 24.3854C15.9282 24.4821 15.9825 24.6132 15.9825 24.75V25.2656H17.0137C17.1505 25.2656 17.2816 25.32 17.3783 25.4166C17.475 25.5133 17.5294 25.6445 17.5294 25.7812V29.3906C17.5294 29.5274 17.475 29.6585 17.3783 29.7552C17.2816 29.8519 17.1505 29.9062 17.0137 29.9062H15.4669C15.3711 29.9062 15.2773 29.8796 15.1958 29.8292C15.1144 29.7789 15.0485 29.7069 15.0057 29.6212L14.5669 28.7437L12.6581 27.7893C12.5725 27.7465 12.5005 27.6806 12.4501 27.5992C12.3998 27.5177 12.3731 27.4239 12.3731 27.3281V24.9914L9.46493 22.568C9.40685 22.5196 9.36013 22.459 9.32806 22.3906C9.29599 22.3221 9.27938 22.2475 9.27938 22.1719V20.625H6.71491C6.70601 20.7971 6.70124 20.9694 6.70124 21.1406C6.70124 26.5426 11.0961 30.9375 16.4981 30.9375C18.3214 30.944 20.1094 30.436 21.6569 29.4718L20.7052 26.141L18.8456 25.2112C18.76 25.1683 18.688 25.1025 18.6376 25.0211C18.5873 24.9396 18.5606 24.8458 18.5606 24.75V22.1719C18.5606 22.0351 18.6149 21.904 18.7116 21.8073C18.8083 21.7106 18.9395 21.6562 19.0762 21.6562H22.17C22.2377 21.6562 22.3048 21.6696 22.3673 21.6955C22.4299 21.7214 22.4867 21.7594 22.5346 21.8073L23.4148 22.6875H24.7481C24.8849 22.6875 25.016 22.7418 25.1127 22.8385C25.2094 22.9352 25.2637 23.0664 25.2637 23.2031V25.5209C25.5724 24.9048 25.8146 24.2575 25.9863 23.5902L26.9846 23.8477C26.6325 25.2192 26.0126 26.5075 25.1606 27.6385ZM13.4044 27.0095L15.1819 27.8982C15.2816 27.9481 15.3625 28.029 15.4124 28.1288L15.7855 28.875H16.4981V26.2969H15.4669C15.3301 26.2969 15.199 26.2425 15.1023 26.1459C15.0056 26.0492 14.9512 25.918 14.9512 25.7812V25.2656H13.4044V27.0095ZM24.2325 23.7188H23.2012C23.1335 23.7188 23.0665 23.7054 23.0039 23.6795C22.9414 23.6536 22.8845 23.6156 22.8366 23.5677L21.9565 22.6875H19.5919V24.4313L21.3694 25.3201C21.4333 25.3521 21.4899 25.397 21.5355 25.452C21.5812 25.507 21.6149 25.5709 21.6345 25.6396L22.5504 28.8451C23.1776 28.351 23.7425 27.7825 24.2325 27.1522V23.7188ZM23.5659 19.7448C23.518 19.6969 23.4611 19.6589 23.3986 19.633C23.336 19.6071 23.269 19.5937 23.2012 19.5938H20.3073L20.5407 18.8934L21.9404 17.9603C22.011 17.9132 22.0689 17.8494 22.109 17.7745C22.149 17.6997 22.17 17.6161 22.17 17.5312V15.4688H21.1387V17.2553L19.8215 18.1335C19.7261 18.1971 19.6546 18.2907 19.6183 18.3994L19.1027 19.9463C19.0768 20.0238 19.0698 20.1064 19.0821 20.1871C19.0944 20.2679 19.1258 20.3446 19.1735 20.4109C19.2213 20.4772 19.2842 20.5311 19.3569 20.5684C19.4296 20.6056 19.5102 20.625 19.5919 20.625H22.9877L23.8679 21.5052C23.9234 21.5608 23.9909 21.6029 24.0651 21.6283C24.1394 21.6538 24.2185 21.662 24.2964 21.6523L26.2901 21.403C26.2799 21.8074 26.245 22.2107 26.1854 22.6107L27.2052 22.7643C27.4194 21.3425 27.3489 19.8923 26.9979 18.498C26.6469 17.1037 26.0224 15.793 25.1606 14.6421L24.3356 15.2614C25.4527 16.7442 26.1217 18.5161 26.2635 20.3672L24.4188 20.5978L23.5659 19.7448ZM17.0137 3.09375H15.9825V4.125H17.0137V3.09375ZM19.0762 3.09375H18.045V4.125H19.0762V3.09375ZM14.9512 3.09375H13.92V4.125H14.9512V3.09375ZM15.9825 6.1875H17.0137V5.15625H15.9825V6.1875ZM18.045 6.1875H19.0762V5.15625H18.045V6.1875ZM14.9512 5.15625H13.92V6.1875H14.9512V5.15625ZM15.9825 8.25H17.0137V7.21875H15.9825V8.25ZM18.045 8.25H19.0762V7.21875H18.045V8.25ZM13.92 8.25H14.9512V7.21875H13.92V8.25ZM12.3731 1.03125H13.92V2.0625H12.8887V11.3438H13.92V9.79688C13.92 9.66012 13.9743 9.52897 14.071 9.43227C14.1677 9.33557 14.2989 9.28125 14.4356 9.28125H18.5606C18.6974 9.28125 18.8285 9.33557 18.9252 9.43227C19.0219 9.52897 19.0762 9.66012 19.0762 9.79688V11.3438H20.1075V2.0625H14.9512V1.03125H20.6231C20.7599 1.03125 20.891 1.08557 20.9877 1.18227C21.0844 1.27897 21.1387 1.41012 21.1387 1.54688V2.57812H22.6856C22.8224 2.57812 22.9535 2.63245 23.0502 2.72915C23.1469 2.82585 23.2012 2.957 23.2012 3.09375V11.796L23.7015 13.7968C23.7205 13.8729 23.7219 13.9522 23.7056 14.0289C23.6894 14.1055 23.6559 14.1774 23.6076 14.2392C23.5594 14.301 23.4978 14.3509 23.4273 14.3853C23.3569 14.4196 23.2796 14.4375 23.2012 14.4375H9.79499C9.71664 14.4375 9.63932 14.4196 9.5689 14.3853C9.49848 14.3509 9.43681 14.301 9.38859 14.2392C9.34037 14.1774 9.30686 14.1055 9.2906 14.0289C9.27435 13.9522 9.27578 13.8729 9.29478 13.7968L9.79499 11.796V3.09375C9.79499 2.957 9.84932 2.82585 9.94602 2.72915C10.0427 2.63245 10.1739 2.57812 10.3106 2.57812H11.8575V1.54688C11.8575 1.41012 11.9118 1.27897 12.0085 1.18227C12.1052 1.08557 12.2364 1.03125 12.3731 1.03125ZM11.7127 12.375H10.7132L10.4554 13.4062H11.4549L11.7127 12.375ZM11.8575 9.79688H10.8262V11.3438H11.8575V9.79688ZM11.8575 7.73438H10.8262V8.76562H11.8575V7.73438ZM11.8575 5.67188H10.8262V6.70312H11.8575V5.67188ZM11.8575 3.60938H10.8262V4.64062H11.8575V3.60938ZM22.283 12.375H21.2835L21.5413 13.4062H22.5409L22.283 12.375ZM21.1387 4.64062H22.17V3.60938H21.1387V4.64062ZM21.1387 6.70312H22.17V5.67188H21.1387V6.70312ZM21.1387 8.76562H22.17V7.73438H21.1387V8.76562ZM21.1387 11.3438H22.17V9.79688H21.1387V11.3438ZM17.0137 11.3438H18.045V10.3125H17.0137V11.3438ZM14.9512 11.3438H15.9825V10.3125H14.9512V11.3438ZM12.5179 13.4062H20.4784L20.2205 12.375H12.7757L12.5179 13.4062ZM6.89003 12.5468L7.65844 13.2345C7.95224 12.9064 8.26389 12.5947 8.59198 12.3009L7.90426 11.5325C7.54777 11.8516 7.20917 12.1903 6.89003 12.5468ZM3.60749 21.1406C3.60165 23.1465 4.06881 25.1254 4.97106 26.9168C5.843 28.6463 7.09005 30.1594 8.62124 31.3455L9.25191 30.5295C6.76209 28.6075 5.13763 25.7752 4.7358 22.6555C4.33397 19.5359 5.18768 16.3844 7.10917 13.8942L6.29332 13.2635C4.54339 15.5155 3.59786 18.2886 3.60749 21.1406ZM23.9102 30.3991C23.6356 30.6192 23.3481 30.8294 23.0558 31.0237L23.6268 31.8825C23.9444 31.6714 24.2569 31.4429 24.5553 31.2038L23.9102 30.3991ZM29.3887 21.1406C29.3927 19.2075 28.96 17.2985 28.123 15.5561C27.2859 13.8136 26.0662 12.2827 24.5548 11.0775L23.9102 11.8822C25.2277 12.937 26.3049 14.2609 27.0698 15.7654C27.8347 17.2698 28.2697 18.9202 28.3457 20.6063C28.4217 22.2923 28.137 23.9751 27.5106 25.5423C26.8842 27.1095 25.9305 28.525 24.7133 29.6941L25.4276 30.4377C26.6851 29.2386 27.6849 27.7958 28.366 26.1972C29.047 24.5987 29.395 22.8782 29.3887 21.1406Z" fill="#0FB8AE"/>
</svg>
