<svg width="40" height="40" viewBox="0 0 40 40" fill="none" xmlns="http://www.w3.org/2000/svg">
<g filter="url(#filter0_d)">
<path d="M33.9237 0.130371H9.99774C8.85286 0.130371 7.92141 1.06176 7.92141 2.2067V6.4499C7.92141 6.70882 8.13121 6.91863 8.39014 6.91863C8.64906 6.91863 8.85886 6.70882 8.85886 6.4499V2.20663C8.85886 1.57867 9.36977 1.06776 9.99774 1.06776H33.9237C34.5516 1.06776 35.0626 1.57867 35.0626 2.20663V18.157C35.0626 18.785 34.5516 19.2959 33.9237 19.2959H32.5878V18.6807C32.5878 18.4669 32.5259 18.2667 32.4194 18.0933H33.3037C33.6104 18.0933 33.8599 17.8415 33.8599 17.5321V2.8316C33.8599 2.52218 33.6104 2.27044 33.3037 2.27044H11.2992C10.9926 2.27044 10.7431 2.52218 10.7431 2.8316V16.7907L8.99116 18.6906C8.90479 18.5282 8.85892 18.3462 8.85892 18.157V8.37286C8.85892 8.11393 8.64912 7.90413 8.3902 7.90413C8.13127 7.90413 7.92147 8.11393 7.92147 8.37286V11.4009L4.72809 16.3552C3.73383 17.8977 3.75983 19.8739 4.79408 21.3897L6.82697 24.3688C7.11289 24.7878 7.27407 25.2774 7.29295 25.7844L7.41738 29.1204C7.42688 29.3735 7.63705 29.5796 7.90322 29.5714C8.16196 29.5618 8.36382 29.3441 8.3542 29.0855L8.22977 25.7495C8.20427 25.0658 7.98691 24.4055 7.60124 23.8404L5.56841 20.8613C4.74696 19.6575 4.72634 18.0881 5.51592 16.8631L7.92135 13.1313V18.157C7.92135 18.6119 8.0669 19.0443 8.33551 19.4015L8.01784 19.746C7.84235 19.9363 7.85441 20.2328 8.04472 20.4083C8.23496 20.5838 8.5315 20.5718 8.70706 20.3815L13.6315 15.0412C13.867 14.7858 14.276 14.761 14.5386 15.0176C14.7416 15.216 14.7873 15.528 14.65 15.7763L11.6896 21.125C11.4833 21.4976 11.5249 21.9509 11.7955 22.2797C12.3842 22.9947 12.5602 23.9822 12.2548 24.8566C12.1099 25.2717 12.0311 25.7052 12.0209 26.1449L11.964 28.5913C11.9579 28.8531 12.1682 29.0709 12.4328 29.0709C12.6867 29.0709 12.8953 28.8682 12.9012 28.6131L12.9581 26.1668C12.966 25.8251 13.0272 25.4883 13.1399 25.1656C13.5525 23.9843 13.3147 22.65 12.5192 21.6837C12.4947 21.6539 12.491 21.6128 12.5097 21.5789L13.2546 20.2333H23.0525V21.3979L21.5604 20.6714C20.9787 20.3883 20.292 20.5301 19.8515 21.0244C19.2876 21.6573 19.2958 22.6401 19.8702 23.2621L22.6783 26.3023C22.9161 26.5597 23.0525 26.9212 23.0525 27.2942V31.4008C23.0525 31.6597 23.2623 31.8695 23.5212 31.8695C23.7801 31.8695 23.9899 31.6597 23.9899 31.4008V27.2942C23.9899 26.6793 23.7687 26.1011 23.3669 25.6662L20.5588 22.626C20.3164 22.3635 20.3129 21.9157 20.5514 21.6481C20.712 21.4679 20.9469 21.4154 21.15 21.5143L23.3159 22.5688C23.6285 22.7201 23.9898 22.4917 23.9898 22.1474V14.1279C23.9898 13.7334 24.2618 13.4126 24.5959 13.4126C24.93 13.4126 25.2018 13.7335 25.2018 14.1279V18.6807V22.1475C25.2018 22.4064 25.4116 22.6162 25.6706 22.6162C25.9295 22.6162 26.1393 22.4064 26.1393 22.1475V18.6807C26.1393 18.5454 26.2935 18.4311 26.4761 18.4311H27.0146C27.1971 18.4311 27.3513 18.5454 27.3513 18.6807V22.1475C27.3513 22.4064 27.5611 22.6162 27.8201 22.6162C28.079 22.6162 28.2888 22.4064 28.2888 22.1475V18.6807C28.2888 18.5454 28.443 18.4311 28.6255 18.4311H29.1641C29.3466 18.4311 29.5008 18.5454 29.5008 18.6807V22.1475C29.5008 22.4064 29.7106 22.6162 29.9695 22.6162C30.2284 22.6162 30.4382 22.4064 30.4382 22.1475V18.6807C30.4382 18.5454 30.5925 18.4311 30.775 18.4311H31.3136C31.4961 18.4311 31.6503 18.5454 31.6503 18.6807V22.1475C31.6503 22.1959 31.661 22.2568 31.6758 22.2999L32.1167 23.5819C32.2196 23.8812 32.26 24.2082 32.2334 24.5275C32.212 24.7855 32.4037 25.012 32.6617 25.0335C32.6749 25.0346 32.6881 25.0351 32.7011 25.0351C32.9423 25.0351 33.1473 24.85 33.1677 24.6052C33.205 24.1575 33.1482 23.6981 33.0032 23.277L32.5878 22.0692V20.2333H33.9237C35.0686 20.2333 36 19.3019 36 18.157V2.20663C36 1.06176 35.0686 0.130371 33.9237 0.130371ZM13.7735 19.2959L14.4391 18.0933H23.0525V19.2959H13.7735ZM24.596 12.4751C23.7449 12.4751 23.0525 13.2166 23.0525 14.1279V14.6558H20.2458C19.6798 14.6558 19.2194 14.1954 19.2194 13.6294V10.6396C19.2194 10.0736 19.6798 9.61316 20.2458 9.61316H21.7462C22.0051 9.61316 22.2149 9.40336 22.2149 9.14444C22.2149 8.88552 22.0051 8.67572 21.7462 8.67572H20.2458C19.163 8.67572 18.282 9.55673 18.282 10.6396V13.6294C18.282 14.7123 19.163 15.5933 20.2458 15.5933H23.0525V17.1558H14.958L15.4702 16.2302C15.8114 15.6138 15.6977 14.8394 15.1938 14.3471C14.5609 13.7286 13.5429 13.7545 12.9424 14.4057L11.6806 15.7741V3.20789H32.9225V17.1558H26.1394V15.5933H29.0118C30.0947 15.5933 30.9757 14.7123 30.9757 13.6295V10.6397C30.9757 9.55679 30.0947 8.67578 29.0118 8.67578H23.6693C23.4104 8.67578 23.2006 8.88558 23.2006 9.1445C23.2006 9.40343 23.4104 9.61323 23.6693 9.61323H29.0118C29.5778 9.61323 30.0383 10.0737 30.0383 10.6397V13.6295C30.0383 14.1955 29.5778 14.6559 29.0118 14.6559H26.1394V14.128C26.1394 13.2166 25.447 12.4751 24.596 12.4751Z" fill="#0FB8AE"/>
<path d="M10.2851 10.5631V9.80075C10.2851 9.54183 10.0753 9.33203 9.81638 9.33203C9.55746 9.33203 9.34766 9.54183 9.34766 9.80075V10.5631C9.34766 10.8221 9.55746 11.0319 9.81638 11.0319C10.0753 11.0319 10.2851 10.8221 10.2851 10.5631Z" fill="#0FB8AE"/>
<path d="M32.192 25.9528C31.9726 25.8155 31.6833 25.8821 31.546 26.1014L30.9714 27.0194C30.7115 27.4344 30.5742 27.919 30.5742 28.4205V31.4006C30.5742 31.6595 30.784 31.8693 31.0429 31.8693C31.3019 31.8693 31.5117 31.6595 31.5117 31.4006V28.4205C31.5117 28.0951 31.5996 27.7826 31.766 27.5169L32.3406 26.5988C32.478 26.3794 32.4114 26.0902 32.192 25.9528Z" fill="#0FB8AE"/>
<path d="M24.5976 10.3667C24.3387 10.3667 24.1289 10.5765 24.1289 10.8354V11.193C24.1289 11.4519 24.3387 11.6617 24.5976 11.6617C24.8566 11.6617 25.0664 11.4519 25.0664 11.193V10.8354C25.0664 10.5765 24.8566 10.3667 24.5976 10.3667Z" fill="#0FB8AE"/>
<path d="M23.0541 11.2686C22.871 11.0856 22.5742 11.0856 22.3912 11.2686C22.2081 11.4517 22.2081 11.7484 22.3912 11.9315L22.644 12.1843C22.8272 12.3673 23.1238 12.3673 23.3069 12.1843C23.49 12.0012 23.49 11.7044 23.3069 11.5214L23.0541 11.2686Z" fill="#0FB8AE"/>
<path d="M26.5424 12.2053L26.7952 11.9525C26.9782 11.7694 26.9782 11.4726 26.7952 11.2896C26.6121 11.1066 26.3153 11.1066 26.1323 11.2896L25.8795 11.5424C25.6964 11.7255 25.6964 12.0222 25.8795 12.2053C26.0626 12.3883 26.3593 12.3882 26.5424 12.2053Z" fill="#0FB8AE"/>
<path d="M15.1921 4.38525C15.1882 4.38525 15.1846 4.38525 15.1807 4.38525C13.8715 4.38525 12.803 5.44744 12.7969 6.75818C12.7908 8.07267 13.8553 9.14711 15.1698 9.15324H15.1811C16.4904 9.15324 17.5588 8.09105 17.565 6.78037C17.568 6.14359 17.3227 5.54375 16.8746 5.0914C16.4264 4.63905 15.8289 4.38819 15.1921 4.38525ZM15.1811 8.21579C15.1788 8.21579 15.1765 8.21579 15.1743 8.21579C14.3766 8.21204 13.7308 7.56014 13.7345 6.7625C13.7382 5.9671 14.3864 5.3227 15.181 5.3227H15.1878C15.5742 5.32445 15.9367 5.47669 16.2087 5.75111C16.4806 6.0256 16.6294 6.38958 16.6276 6.77593C16.6238 7.57132 15.9756 8.21579 15.1811 8.21579Z" fill="#0FB8AE"/>
<path d="M29.8651 8.05265H29.8765C31.1857 8.05265 32.2541 6.99046 32.2603 5.67978C32.2664 4.36523 31.2019 3.29079 29.8874 3.28467C29.8835 3.28467 29.8798 3.28467 29.8759 3.28467C29.2434 3.28467 28.648 3.52959 28.1984 3.97507C27.746 4.42323 27.4952 5.0207 27.4922 5.65753C27.486 6.97209 28.5505 8.04653 29.8651 8.05265ZM28.8581 4.64097C29.1309 4.37073 29.4922 4.22212 29.876 4.22212H29.8829C30.6805 4.22587 31.3264 4.87777 31.3227 5.67541C31.3189 6.4708 30.6707 7.1152 29.8762 7.1152C29.874 7.1152 29.8716 7.1152 29.8694 7.1152C29.0717 7.11145 28.4258 6.45955 28.4296 5.66191C28.4314 5.27556 28.5837 4.91295 28.8581 4.64097Z" fill="#0FB8AE"/>
</g>
<defs>
<filter id="filter0_d" x="0" y="0.130371" width="40" height="39.7391" filterUnits="userSpaceOnUse" color-interpolation-filters="sRGB">
<feFlood flood-opacity="0" result="BackgroundImageFix"/>
<feColorMatrix in="SourceAlpha" type="matrix" values="0 0 0 0 0 0 0 0 0 0 0 0 0 0 0 0 0 0 127 0"/>
<feOffset dy="4"/>
<feGaussianBlur stdDeviation="2"/>
<feColorMatrix type="matrix" values="0 0 0 0 0 0 0 0 0 0 0 0 0 0 0 0 0 0 0.25 0"/>
<feBlend mode="normal" in2="BackgroundImageFix" result="effect1_dropShadow"/>
<feBlend mode="normal" in="SourceGraphic" in2="effect1_dropShadow" result="shape"/>
</filter>
</defs>
</svg>
