<svg width="33" height="33" viewBox="0 0 33 33" fill="none" xmlns="http://www.w3.org/2000/svg">
<path d="M31.7893 8.97966L31.7826 8.97295C31.5079 8.72497 31.0856 8.72497 30.8242 8.98636C30.5628 9.24775 30.5628 9.67 30.8242 9.93139C31.9234 11.0306 31.9234 12.8134 30.8242 13.9126C29.725 15.0118 27.9422 15.0118 26.843 13.9126C26.8296 13.8992 26.8229 13.8925 26.8095 13.8858C25.8041 12.4783 24.5173 11.2987 23.0361 10.4207C24.5709 6.80139 22.8752 2.62581 19.2559 1.09767C15.6366 -0.430474 11.4611 1.25852 9.93291 4.8778C9.62461 5.61507 9.43694 6.39924 9.38332 7.19683C8.67287 6.99575 8.10317 6.90192 7.66081 6.91533C6.95036 6.92203 6.42757 7.36438 6.34715 8.01451C6.30023 8.30272 6.33374 8.72497 6.4879 10.099L6.62865 11.4126C5.34179 12.4582 4.32973 13.678 3.59917 15.0453L1.65549 15.4273C0.690344 15.6217 0 16.4729 0 17.4515V21.7611C0 22.7463 0.690344 23.5908 1.65549 23.7852L3.60588 24.1739C3.98791 24.9246 4.45708 25.6283 5.00667 26.2718C4.28282 28.068 4.81901 30.1256 6.32034 31.3522C7.21175 32.076 8.33105 32.4715 9.47715 32.4648C10.7841 32.4648 12.0442 31.9688 13.0026 31.0774L13.4718 30.635C15.201 30.8964 16.9704 30.8361 18.6795 30.4742L19.343 31.1109C20.2613 31.9755 21.4811 32.4581 22.7411 32.4447H22.8819C22.8886 32.4447 22.8953 32.4447 22.902 32.4447C24.2157 32.4111 25.4623 31.8616 26.3738 30.9098C27.7813 29.4219 27.9489 27.1833 26.8363 25.4273C28.0963 23.6713 28.7599 21.6605 28.7599 19.5828V19.0935C28.7599 19.0801 28.7599 19.0667 28.7599 19.0533C28.6996 18.0547 28.4382 17.0225 27.9824 15.9769C29.3564 16.2718 30.7907 15.8496 31.7826 14.8509C33.4046 13.229 33.4046 10.6016 31.7893 8.97966ZM16.4878 1.86844C19.6715 1.86174 22.2586 4.43545 22.2653 7.61907C22.272 9.54265 21.3135 11.3456 19.7117 12.418C19.6581 12.4582 19.6044 12.5386 19.5642 12.5386H13.4383C13.4114 12.5386 13.3779 12.4984 13.3444 12.4716C11.823 11.4863 10.8578 9.84426 10.7238 8.04132C10.7104 7.88717 10.7104 7.75312 10.7104 7.63248C10.7171 4.45555 13.2975 1.87514 16.4878 1.86844ZM25.536 24.9313C25.4221 25.0653 25.2478 25.3737 25.4556 25.7892C25.4757 25.8294 25.4958 25.8629 25.5226 25.8964C26.4945 27.1632 26.4409 28.879 25.3953 29.9849C24.7318 30.6752 23.8336 31.1042 22.8618 31.1042H22.7344C21.8162 31.1109 20.9315 30.7691 20.2613 30.139L19.39 29.308C19.2358 29.1605 19.028 29.0801 18.8203 29.0868C18.7666 29.0868 18.7197 29.0935 18.6661 29.1069C16.9436 29.5157 15.1608 29.5693 13.4114 29.2744C13.3712 29.2677 13.3377 29.2677 13.2975 29.2677C13.083 29.261 12.882 29.3415 12.7278 29.4889L12.071 30.1122C11.4007 30.7356 10.5361 31.0908 9.62461 31.131C8.73319 31.1779 7.84848 30.8897 7.15143 30.3334C6.03884 29.4219 5.69702 27.8602 6.33374 26.5667C6.43428 26.3991 6.46109 26.1913 6.40747 25.997C6.38066 25.8763 6.32704 25.7691 6.24661 25.682C5.61659 24.9916 5.0871 24.2074 4.67826 23.3629C4.64474 23.2959 4.60453 23.2356 4.55091 23.182C4.42357 23.0412 4.25601 22.9541 4.07504 22.9206L1.91688 22.4849C1.58176 22.4179 1.34047 22.1163 1.34047 21.7745V17.4515C1.33377 17.1096 1.57506 16.808 1.91688 16.741L4.08174 16.3053C4.26271 16.2718 4.43027 16.1847 4.55761 16.044C4.61123 15.9903 4.65145 15.9367 4.68496 15.8697C5.3686 14.5024 6.38736 13.2826 7.70773 12.2638C7.72783 12.2437 7.74794 12.2303 7.76805 12.2102C7.9222 12.056 8.00263 11.8483 7.99593 11.6338C7.99593 11.607 7.99593 11.5869 7.98923 11.5601L7.81497 9.9515C7.75464 9.43542 7.65411 8.50379 7.66751 8.2491C7.67422 8.2491 7.68762 8.2491 7.69432 8.2491C7.96242 8.2424 8.4785 8.28931 9.43024 8.59762C9.63131 10.0855 10.3015 11.4662 11.3404 12.5453H10.7037C10.3351 12.5453 10.0335 12.8469 10.0335 13.2156C10.0335 13.5842 10.3351 13.8858 10.7037 13.8858H22.3189C22.6875 13.8858 22.9891 13.5842 22.9891 13.2156C22.9891 12.8469 22.6875 12.5453 22.3189 12.5453H21.6219C21.9168 12.2571 22.1781 11.9354 22.3993 11.5869C23.9476 12.5252 25.221 13.7853 26.099 15.233L26.5749 16.1512C27.0642 17.1633 27.3457 18.1887 27.4127 19.127V19.5895C27.4127 21.4997 26.7626 23.3428 25.536 24.9313Z" fill="#0FB8AE"/>
<path d="M9.28417 16.2319C8.33243 16.2319 7.56836 17.0027 7.56836 17.9477C7.56836 18.8995 8.33913 19.6635 9.28417 19.6635C10.2292 19.6635 11 18.8928 11 17.9477C11.0067 17.0027 10.2359 16.2319 9.28417 16.2319ZM9.28417 18.3298C9.07639 18.3298 8.90883 18.1622 8.90883 17.9544C8.90883 17.7467 9.07639 17.5791 9.28417 17.5791C9.49194 17.5791 9.6595 17.7467 9.6595 17.9544C9.6662 18.1622 9.49864 18.3298 9.28417 18.3298Z" fill="#0FB8AE"/>
<path d="M16.4894 3.57129C14.2441 3.57129 12.4277 5.38763 12.4277 7.63292C12.4344 9.87151 14.2508 11.6879 16.4894 11.6946C18.7347 11.6946 20.551 9.87822 20.551 7.63292C20.551 5.38763 18.7347 3.57129 16.4894 3.57129ZM16.4894 10.3541C14.988 10.3541 13.7682 9.13425 13.7682 7.63292C13.7682 6.13159 14.988 4.91176 16.4894 4.91176C17.9907 4.91176 19.2105 6.13159 19.2105 7.63292C19.2105 9.13425 17.9907 10.3541 16.4894 10.3541Z" fill="#0FB8AE"/>
</svg>
