<svg width="31" height="31" viewBox="0 0 31 31" fill="none" xmlns="http://www.w3.org/2000/svg">
<path d="M30.9402 16.9317C30.6619 14.1321 29.4112 11.4928 27.4183 9.49983C25.7152 7.7968 23.6307 6.7024 21.4373 6.21577V4.67737C22.3331 4.4545 22.999 3.64358 22.999 2.67972C22.999 1.54457 22.0756 0.621094 20.9404 0.621094H16.581C15.4458 0.621094 14.5223 1.54457 14.5223 2.67972C14.5223 3.64352 15.1882 4.45444 16.084 4.67737V6.22007C13.8974 6.70875 11.8197 7.80164 10.1215 9.49989C9.74983 9.87153 9.40713 10.2614 9.09344 10.6666C9.07824 10.6654 9.06304 10.6643 9.04754 10.6643H4.73284C4.3985 10.6643 4.12736 10.9354 4.12736 11.2698C4.12736 11.6042 4.3985 11.8752 4.73284 11.8752H8.26956C7.82562 12.6185 7.46767 13.399 7.1952 14.2025H0.605478C0.271133 14.2025 0 14.4735 0 14.8079C0 15.1423 0.271133 15.4134 0.605478 15.4134H6.85304C6.67855 16.1794 6.5784 16.959 6.55255 17.7407H3.87506C3.54072 17.7407 3.26958 18.0118 3.26958 18.3462C3.26958 18.6806 3.54072 18.9516 3.87506 18.9516H6.57186C6.62296 19.7354 6.74896 20.515 6.94992 21.2789H3.02739C2.69305 21.2789 2.42191 21.55 2.42191 21.8844C2.42191 22.2188 2.69305 22.4899 3.02739 22.4899H7.33634C7.93031 24.0612 8.85857 25.5339 10.1215 26.7968C12.1163 28.7916 14.7583 30.0426 17.5609 30.3195C17.9608 30.359 18.3611 30.3785 18.7609 30.3785C21.1236 30.3785 23.4562 29.6948 25.4355 28.4058C25.7157 28.2233 25.795 27.8482 25.6125 27.568C25.43 27.2878 25.0549 27.2085 24.7747 27.391C20.4421 30.2124 14.6396 29.6024 10.9777 25.9405C6.68115 21.6439 6.68115 14.6529 10.9777 10.3562C15.2743 6.05968 22.2653 6.05968 26.562 10.3562C30.219 14.0133 30.8323 19.8108 28.0203 24.1413C27.8382 24.4218 27.9179 24.7968 28.1983 24.9789C28.4789 25.161 28.8538 25.0813 29.0359 24.8008C30.5383 22.487 31.2146 19.6924 30.9402 16.9317ZM15.7333 2.67978C15.7333 2.21235 16.1135 1.83211 16.581 1.83211H20.9404C21.4078 1.83211 21.7881 2.21235 21.7881 2.67978C21.7881 3.14721 21.4078 3.52745 20.9404 3.52745H20.8318H16.6895H16.581C16.1135 3.52745 15.7333 3.14715 15.7333 2.67978ZM17.295 6.01191V4.73841H20.2263V6.00973C19.2529 5.89396 18.2682 5.89469 17.295 6.01191Z" fill="#0FB8AE"/>
<path d="M26.99 25.7627C26.8301 25.7627 26.6745 25.8275 26.562 25.9401C26.4488 26.0527 26.3845 26.2089 26.3845 26.3682C26.3845 26.5274 26.4488 26.6836 26.562 26.7962C26.6745 26.9095 26.8302 26.9736 26.99 26.9736C27.1492 26.9736 27.3048 26.9095 27.4181 26.7962C27.5307 26.6836 27.5955 26.5274 27.5955 26.3682C27.5955 26.2089 27.5307 26.0527 27.4181 25.9401C27.3048 25.8275 27.1492 25.7627 26.99 25.7627Z" fill="#0FB8AE"/>
<path d="M18.7694 8.75537C13.5903 8.75537 9.37671 12.9689 9.37671 18.1481C9.37671 23.3273 13.5903 27.5408 18.7694 27.5408C23.9486 27.5408 28.1622 23.3273 28.1622 18.1481C28.1622 12.9689 23.9486 8.75537 18.7694 8.75537ZM18.7694 26.3299C14.258 26.3299 10.5877 22.6595 10.5877 18.1481C10.5877 13.6367 14.258 9.96633 18.7694 9.96633C23.2809 9.96633 26.9512 13.6367 26.9512 18.1481C26.9512 22.6595 23.2809 26.3299 18.7694 26.3299Z" fill="#0FB8AE"/>
<path d="M22.5992 13.462L19.6002 16.4609C19.3494 16.3369 19.0673 16.2668 18.7692 16.2668C18.4709 16.2668 18.1889 16.3369 17.9381 16.4609L16.5959 15.1187C16.3594 14.8823 15.9761 14.8823 15.7396 15.1187C15.5031 15.3551 15.5031 15.7385 15.7396 15.975L17.0817 17.3171C16.9577 17.5679 16.8877 17.85 16.8877 18.1482C16.8877 19.1857 17.7317 20.0297 18.7692 20.0297C19.8066 20.0297 20.6506 19.1857 20.6506 18.1482C20.6506 17.85 20.5806 17.5679 20.4566 17.3171L23.3674 14.4062L23.4554 14.3183C23.6919 14.0818 23.6919 13.6984 23.4554 13.462C23.219 13.2256 22.8357 13.2256 22.5992 13.462ZM18.7692 18.8188C18.3994 18.8188 18.0986 18.518 18.0986 18.1483C18.0986 17.7786 18.3994 17.4778 18.7692 17.4778C19.1389 17.4778 19.4397 17.7786 19.4397 18.1483C19.4397 18.518 19.1389 18.8188 18.7692 18.8188Z" fill="#0FB8AE"/>
<path d="M25.2429 17.5503H24.6819C24.3475 17.5503 24.0764 17.8214 24.0764 18.1558C24.0764 18.4902 24.3475 18.7612 24.6819 18.7612H25.2429C25.5772 18.7612 25.8483 18.4902 25.8483 18.1558C25.8483 17.8214 25.5772 17.5503 25.2429 17.5503Z" fill="#0FB8AE"/>
<path d="M12.8563 17.5352H12.2954C11.9611 17.5352 11.6899 17.8062 11.6899 18.1406C11.6899 18.475 11.9611 18.7461 12.2954 18.7461H12.8563C13.1907 18.7461 13.4618 18.475 13.4618 18.1406C13.4618 17.8062 13.1907 17.5352 12.8563 17.5352Z" fill="#0FB8AE"/>
<path d="M18.7778 12.8407C19.1122 12.8407 19.3833 12.5696 19.3833 12.2352V11.6743C19.3833 11.3399 19.1122 11.0688 18.7778 11.0688C18.4435 11.0688 18.1724 11.3399 18.1724 11.6743V12.2352C18.1724 12.5696 18.4435 12.8407 18.7778 12.8407Z" fill="#0FB8AE"/>
<path d="M18.7634 23.4556C18.4291 23.4556 18.158 23.7266 18.158 24.061V24.6219C18.158 24.9563 18.4291 25.2274 18.7634 25.2274C19.0978 25.2274 19.3689 24.9563 19.3689 24.6219V24.061C19.3689 23.7266 19.0978 23.4556 18.7634 23.4556Z" fill="#0FB8AE"/>
<path d="M0.605469 21.2788C0.44623 21.2788 0.29002 21.3436 0.177402 21.4562C0.0647852 21.5688 0 21.725 0 21.8843C0 22.0441 0.0647246 22.1997 0.177402 22.3123C0.29008 22.425 0.44623 22.4897 0.605469 22.4897C0.764707 22.4897 0.920918 22.425 1.03347 22.3123C1.14609 22.1997 1.21094 22.0435 1.21094 21.8843C1.21094 21.725 1.14615 21.5688 1.03347 21.4562C0.920918 21.3436 0.764707 21.2788 0.605469 21.2788Z" fill="#0FB8AE"/>
</svg>
