<svg width="30" height="30" viewBox="0 0 30 30" fill="none" xmlns="http://www.w3.org/2000/svg">
<path d="M29.5312 6.5625V0.46875H23.4375V1.40625H27.9309L19.6875 9.64969L16.4062 6.36844L10.7902 11.9845C10.5112 11.8195 10.1906 11.7188 9.84375 11.7188C9.22031 11.7188 8.88937 12.097 8.67 12.3473C8.46563 12.5808 8.38406 12.6562 8.20172 12.6562C8.01891 12.6562 7.93781 12.5808 7.73297 12.3473C7.51359 12.097 7.18266 11.7188 6.55969 11.7188C5.93719 11.7188 5.60625 12.0975 5.38687 12.3478C5.18344 12.5808 5.10188 12.6562 4.92 12.6562C4.73813 12.6562 4.65703 12.5808 4.45359 12.3478C4.23469 12.0975 3.90375 11.7188 3.28125 11.7188C2.24719 11.7188 1.40625 12.5597 1.40625 13.5938C1.40625 13.9964 1.53937 14.3958 1.78125 14.7188L4.05188 17.7459L2.50078 19.103C1.20937 20.2331 0.46875 21.8653 0.46875 23.5814C0.46875 26.8622 3.13781 29.5312 6.41859 29.5312H6.70594C7.89234 29.5312 8.99578 29.1783 9.92484 28.5778C10.1147 29.1305 10.6341 29.5312 11.25 29.5312H20.625H28.125C28.9003 29.5312 29.5312 28.9003 29.5312 28.125V27.1875C29.5312 26.8261 29.3902 26.4994 29.1656 26.25C29.3906 26.0006 29.5312 25.6739 29.5312 25.3125V24.375C29.5312 24.0136 29.3902 23.6869 29.1656 23.4375C29.3906 23.1881 29.5312 22.8614 29.5312 22.5V21.5625C29.5312 21.2011 29.3902 20.8744 29.1656 20.625C29.3906 20.3756 29.5312 20.0489 29.5312 19.6875V18.75C29.5312 17.9747 28.9003 17.3438 28.125 17.3438H27.6562V7.96875H23.9062V17.3438H22.9688V12.6562H19.2188V17.3438H18.75C18.585 17.3438 18.4284 17.3775 18.2812 17.43V10.7812H14.5312V20.1562H11.5645C11.2945 19.7733 10.9833 19.417 10.6242 19.103L9.07313 17.7459L11.3442 14.7188C11.5856 14.3958 11.7188 13.9964 11.7188 13.5938C11.7188 13.2469 11.618 12.9263 11.453 12.6473L16.4062 7.69406L19.6875 10.9753L28.5938 2.06906V6.5625H29.5312ZM11.25 28.5938C10.9913 28.5938 10.7812 28.3838 10.7812 28.125V27.9052C11.1384 27.5686 11.4534 27.1894 11.7188 26.7741V27.6562H12.6562V26.7188H13.5938V27.6562H14.5312V26.7188H15.4688V27.6562H16.4062V26.7188H17.3438V27.6562H18.2812V26.7188H19.2188V27.6562H20.1562V26.7188H20.625C20.8838 26.7188 21.0938 26.9287 21.0938 27.1875V28.125C21.0938 28.3838 20.8838 28.5938 20.625 28.5938H11.25ZM12.6398 23.9062H13.5938V24.8438H14.5312V23.9062H15.4688V24.8438H16.4062V23.9062H17.3438V24.8438H18.2812V23.9062H19.2188V24.8438H20.1562V23.9062H20.625C20.8838 23.9062 21.0938 24.1162 21.0938 24.375V25.3125C21.0938 25.5713 20.8838 25.7812 20.625 25.7812H12.2297C12.4636 25.1958 12.6038 24.5653 12.6398 23.9062ZM23.9062 22.0312V21.0938H24.8438V22.0312H25.7812V21.0938H26.7188V22.0312H27.6562V21.0938H28.125C28.3838 21.0938 28.5938 21.3037 28.5938 21.5625V22.5C28.5938 22.7588 28.3838 22.9688 28.125 22.9688H21.945C21.9975 22.8216 22.0312 22.665 22.0312 22.5V21.5625C22.0312 21.3975 21.9975 21.2409 21.945 21.0938H22.9688V22.0312H23.9062ZM28.5938 24.375V25.3125C28.5938 25.5713 28.3838 25.7812 28.125 25.7812H21.945C21.9975 25.6341 22.0312 25.4775 22.0312 25.3125V24.375C22.0312 24.21 21.9975 24.0534 21.945 23.9062H22.9688V24.8438H23.9062V23.9062H24.8438V24.8438H25.7812V23.9062H26.7188V24.8438H27.6562V23.9062H28.125C28.3838 23.9062 28.5938 24.1162 28.5938 24.375ZM28.5938 28.125C28.5938 28.3838 28.3838 28.5938 28.125 28.5938H21.945C21.9975 28.4466 22.0312 28.29 22.0312 28.125V27.1875C22.0312 27.0225 21.9975 26.8659 21.945 26.7188H22.9688V27.6562H23.9062V26.7188H24.8438V27.6562H25.7812V26.7188H26.7188V27.6562H27.6562V26.7188H28.125C28.3838 26.7188 28.5938 26.9287 28.5938 27.1875V28.125ZM24.8438 8.90625H26.7188V17.3438H24.8438V8.90625ZM20.1562 13.5938H22.0312V17.3438H20.1562V13.5938ZM18.75 18.2812H19.2188V19.2188H20.1562V18.2812H21.0938V19.2188H22.0312V18.2812H22.9688V19.2188H23.9062V18.2812H24.8438V19.2188H25.7812V18.2812H26.7188V19.2188H27.6562V18.2812H28.125C28.3838 18.2812 28.5938 18.4912 28.5938 18.75V19.6875C28.5938 19.9463 28.3838 20.1562 28.125 20.1562H21.5625H20.625H18.75C18.4912 20.1562 18.2812 19.9463 18.2812 19.6875V18.75C18.2812 18.4912 18.4912 18.2812 18.75 18.2812ZM15.4688 11.7188H17.3438V18.75V19.6875V20.1562H15.4688V11.7188ZM13.5938 21.0938V22.0312H14.5312V21.0938H15.4688V22.0312H16.4062V21.0938H17.3438V22.0312H18.2812V21.0938H18.75H19.2188V22.0312H20.1562V21.0938H20.625C20.8838 21.0938 21.0938 21.3037 21.0938 21.5625V22.5C21.0938 22.7588 20.8838 22.9688 20.625 22.9688H12.6234C12.5559 22.3158 12.3811 21.683 12.1097 21.0938H13.5938ZM11.7188 23.5814C11.7188 26.3452 9.47016 28.5938 6.70641 28.5938H6.41906C3.65484 28.5938 1.40625 26.3452 1.40625 23.5814C1.40625 22.1362 2.03016 20.7609 3.11766 19.8089L4.86375 18.2812H8.26125L10.0073 19.8089C11.0948 20.7609 11.7188 22.1362 11.7188 23.5814ZM10.5942 14.1562L8.20312 17.3438H4.92188L2.53125 14.1562C2.41031 13.995 2.34375 13.7953 2.34375 13.5938C2.34375 13.0767 2.76422 12.6562 3.28125 12.6562C3.46312 12.6562 3.54422 12.7317 3.74766 12.9647C3.96656 13.215 4.2975 13.5938 4.92 13.5938C5.5425 13.5938 5.87344 13.215 6.09281 12.9647C6.29672 12.7317 6.37781 12.6562 6.55969 12.6562C6.74203 12.6562 6.82359 12.7317 7.02797 12.9652C7.24734 13.2155 7.57828 13.5938 8.20172 13.5938C8.82469 13.5938 9.15563 13.2155 9.375 12.9652C9.57984 12.7317 9.66094 12.6562 9.84375 12.6562C10.3608 12.6562 10.7812 13.0767 10.7812 13.5938C10.7812 13.7953 10.7147 13.995 10.5942 14.1562Z" fill="#0FB8AE"/>
<path d="M6.21454 24.1407L6.242 24.777C6.242 25.1523 6.1474 25.4514 5.95819 25.6742H8.94739V26.7774H4.09967V25.6742H4.52081C4.74054 25.6193 4.8504 25.3461 4.8504 24.8548L4.82751 24.1407H4.08594V23.0604H4.79089L4.75885 22.0212C4.75885 21.4048 4.94653 20.918 5.3219 20.561C5.70032 20.2039 6.20538 20.0254 6.8371 20.0254C7.48407 20.0254 7.99219 20.1978 8.36145 20.5427C8.73071 20.8845 8.91534 21.3483 8.91534 21.9343H7.60156C7.60156 21.6749 7.53442 21.4765 7.40015 21.3392C7.26892 21.2018 7.07971 21.1332 6.83252 21.1332C6.6311 21.1332 6.46326 21.2079 6.32898 21.3575C6.19775 21.507 6.13214 21.7283 6.13214 22.0212L6.17334 23.0604H7.58783V24.1407H6.21454Z" fill="#0FB8AE"/>
</svg>
