<svg width="30" height="30" viewBox="0 0 30 30" fill="none" xmlns="http://www.w3.org/2000/svg">
<path d="M15.7415 14.2587C15.5124 14.0296 15.1415 14.0296 14.9124 14.2587C14.6838 14.4873 14.6838 14.8582 14.9124 15.0873C15.1415 15.3158 15.5124 15.3158 15.7415 15.0873C15.97 14.8582 15.97 14.4873 15.7415 14.2587Z" fill="#0FB8AE"/>
<path d="M23.1988 6.80105C22.0538 5.65619 20.2004 5.65613 19.0554 6.80105C17.9135 7.94298 17.9134 9.80157 19.0556 10.9444C20.1979 12.0861 22.0565 12.0865 23.1988 10.9443C24.3436 9.79952 24.3438 7.94603 23.1988 6.80105ZM22.3701 10.1156C21.685 10.8008 20.5697 10.8008 19.8842 10.1158C19.199 9.43009 19.1989 8.31482 19.8841 7.62968C20.571 6.94279 21.6831 6.94267 22.3701 7.62968C23.057 8.31652 23.0571 9.42868 22.3701 10.1156Z" fill="#0FB8AE"/>
<path d="M29.8284 0.171627C29.7134 0.0566072 29.5563 -0.00573643 29.3931 0.000415897C29.2606 0.00516198 26.1062 0.131959 22.3565 1.45729C19.3518 2.51818 16.8474 4.03711 14.9127 5.97187C14.4791 6.4054 14.0573 6.86513 13.6536 7.34273C11.7406 6.21667 10.2077 6.56976 9.23864 7.08837C7.00733 8.28251 5.62622 11.5248 5.62622 13.844C5.6264 14.0809 5.76919 14.2946 5.9881 14.3853C6.06058 14.4153 6.13675 14.4299 6.21222 14.4299C6.36473 14.4299 6.51456 14.3703 6.62665 14.2583C7.80338 13.0816 9.25481 13.1552 9.72895 13.2175L9.93414 13.4227C9.53031 14.3836 9.205 15.3392 8.96641 16.2685C8.88028 16.6049 8.90934 16.9608 9.03737 17.2863C8.47323 17.5463 7.92895 17.928 7.45505 18.4019C5.94679 19.9102 5.64052 23.5861 5.62821 23.7418C5.61474 23.9127 5.67673 24.081 5.79796 24.2022C5.90829 24.3125 6.05753 24.3738 6.21222 24.3738C6.22757 24.3738 6.24298 24.3733 6.25839 24.372C6.41413 24.3598 10.0901 24.0535 11.5983 22.5453C12.072 22.0715 12.4537 21.5273 12.7137 20.9633C13.0584 21.0988 13.4131 21.1155 13.7321 21.0338C14.661 20.7952 15.6164 20.47 16.5775 20.0662L16.7827 20.2714C16.845 20.7456 16.9186 22.197 15.7419 23.3736C15.5744 23.5412 15.5242 23.7932 15.6149 24.0121C15.7056 24.2311 15.9192 24.3738 16.1562 24.3738C18.4753 24.3738 21.7176 22.9927 22.9118 20.7614C23.4304 19.7924 23.7834 18.2595 22.6574 16.3465C23.1348 15.943 23.5945 15.5211 24.0283 15.0874C25.963 13.1526 27.4819 10.6482 28.5428 7.64372C29.8682 3.89385 29.9949 0.739399 29.9996 0.606977C30.0055 0.44438 29.9435 0.286704 29.8284 0.171627ZM6.93626 12.5837C7.30024 10.8222 8.35745 8.88925 9.79182 8.12155C10.7504 7.60862 11.7981 7.6589 12.912 8.26868C11.963 9.51684 11.1379 10.8616 10.4502 12.2816C10.4415 12.2762 10.336 12.1436 10.1401 12.0994C10.0595 12.0812 8.5092 11.7477 6.93626 12.5837ZM10.7697 21.7166C9.96402 22.5222 8.07409 22.9471 6.87954 23.1206C7.05309 21.926 7.47807 20.0362 8.28368 19.2306C8.73485 18.7794 9.25797 18.4373 9.78379 18.2447L11.7556 20.2165C11.5629 20.7423 11.2209 21.2654 10.7697 21.7166ZM13.441 19.8986C13.2714 19.942 13.075 19.8783 12.929 19.7325C12.171 18.9744 11.8744 18.6779 11.7814 18.5849C11.6107 18.4143 11.1923 17.9959 10.2681 17.0716C10.122 16.9252 10.0582 16.7288 10.1015 16.5596C10.2892 15.8287 10.5347 15.0788 10.8331 14.3217L15.6785 19.1671C14.9213 19.4656 14.1716 19.711 13.441 19.8986ZM21.8787 20.2084C21.111 21.6427 19.1781 22.7 17.4167 23.0639C17.9783 22.0071 18.1021 20.6617 17.8969 19.8459C17.8493 19.6564 17.7256 19.5611 17.7187 19.55C19.1386 18.8622 20.4833 18.0372 21.7316 17.0881C22.3413 18.2022 22.3916 19.2501 21.8787 20.2084ZM23.1997 14.2588C22.6718 14.7867 22.1032 15.2968 21.5099 15.7747C20.0836 16.9231 18.5138 17.8959 16.8389 18.6703L11.33 13.1614C12.1043 11.4865 13.0771 9.91663 14.2254 8.49052C14.7038 7.89679 15.2138 7.3282 15.7415 6.8005C17.4774 5.06461 19.7176 3.68308 22.4019 2.68863L27.3116 7.59831C26.3173 10.2825 24.9358 12.5228 23.1997 14.2588ZM27.7332 6.36251L23.6377 2.26705C25.869 1.57401 27.8102 1.3145 28.7791 1.22121C28.6857 2.19029 28.4262 4.13144 27.7332 6.36251Z" fill="#0FB8AE"/>
<path d="M14.0835 24.2018C13.8546 23.973 13.4836 23.9731 13.2548 24.2019L11.5978 25.8596C11.369 26.0884 11.3691 26.4594 11.5979 26.6882C11.8268 26.9169 12.1979 26.9169 12.4266 26.6881L14.0836 25.0305C14.3124 24.8016 14.3123 24.4306 14.0835 24.2018Z" fill="#0FB8AE"/>
<path d="M5.79783 15.9158C5.56908 15.6869 5.19813 15.6869 4.9692 15.9157L3.31159 17.5727C3.08272 17.8015 3.08266 18.1725 3.31141 18.4013C3.5401 18.6301 3.91106 18.6303 4.14004 18.4015L5.79766 16.7444C6.02652 16.5157 6.02658 16.1447 5.79783 15.9158Z" fill="#0FB8AE"/>
<path d="M9.94184 25.031C9.71314 24.8022 9.34207 24.8022 9.1132 25.0309L5.14407 28.9995C4.9152 29.2283 4.9152 29.5993 5.14401 29.8281C5.3727 30.0569 5.74378 30.057 5.97264 29.8282L9.94178 25.8596C10.1706 25.6308 10.1706 25.2598 9.94184 25.031Z" fill="#0FB8AE"/>
<path d="M5.25433 25.031C5.02558 24.8022 4.65451 24.8022 4.4257 25.0309L0.456569 28.9995C0.227703 29.2283 0.227703 29.5993 0.456511 29.8281C0.685202 30.0569 1.05628 30.057 1.28514 29.8282L5.25427 25.8596C5.48314 25.6308 5.48314 25.2598 5.25433 25.031Z" fill="#0FB8AE"/>
<path d="M4.96902 20.0588C4.74027 19.83 4.3692 19.83 4.14039 20.0588L0.171843 24.028C-0.0569653 24.2568 -0.0569653 24.6278 0.171902 24.8566C0.40071 25.0854 0.771724 25.0855 1.00053 24.8566L4.96908 20.8875C5.19789 20.6586 5.19789 20.2876 4.96902 20.0588Z" fill="#0FB8AE"/>
<path d="M18.2277 11.7727C17.9989 11.5439 17.628 11.5439 17.399 11.7727L16.5705 12.6012C16.3417 12.83 16.3417 13.201 16.5705 13.4299C16.7994 13.6587 17.1704 13.6587 17.3992 13.4299L18.2277 12.6014C18.4565 12.3726 18.4565 12.0015 18.2277 11.7727Z" fill="#0FB8AE"/>
</svg>
