<svg width="46" height="46" viewBox="0 0 46 46" fill="none" xmlns="http://www.w3.org/2000/svg">
<path d="M33.0578 24.6775L32.4435 20.6243C36.2676 18.5962 36.8103 13.3579 33.5489 10.5756C30.2828 7.78937 25.1976 9.16165 23.7999 13.2506L19.7006 13.2827C18.5184 13.2918 17.4004 13.813 16.6331 14.7124L6.63243 26.4354C5.53905 27.7171 5.69225 29.6494 6.97394 30.7427L17.8213 39.9964C19.103 41.0898 21.0353 40.9366 22.1287 39.6549L32.1294 27.9319C32.8966 27.0325 33.235 25.8463 33.0578 24.6775ZM32.2269 12.1252C34.1767 13.7885 34.1216 16.8276 32.1094 18.4204L31.9811 17.5737C31.5998 15.0574 29.4257 13.2067 26.8852 13.2265L26.0289 13.2332C27.283 10.9983 30.2748 10.4599 32.2269 12.1252ZM20.5791 38.333C20.2146 38.7602 19.5705 38.8112 19.1433 38.4468L8.29589 29.1931C7.86868 28.8287 7.81761 28.1845 8.18206 27.7573L18.1827 16.0343C18.5663 15.5846 19.1254 15.3241 19.7164 15.3194L23.4733 15.2901C23.4901 16.698 23.9935 18.0647 24.8981 19.1469L24.8423 19.2123C24.4773 19.6402 24.5283 20.2831 24.9562 20.6481C25.3841 21.0132 26.0269 20.9622 26.3919 20.5343L27.7139 18.9846C28.0789 18.5568 28.028 17.9139 27.6001 17.5489C27.2053 17.2121 26.6281 17.2302 26.2543 17.5709C25.7824 16.8999 25.5212 16.0979 25.5101 15.2742L26.9011 15.2634C28.4324 15.2514 29.7382 16.3677 29.9672 17.879C30.1785 19.2727 30.7092 22.7743 31.0439 24.9828C31.1326 25.5673 30.9633 26.1603 30.5797 26.61L20.5791 38.333Z" fill="#0FB8AE"/>
<path d="M26.0205 25.8539C25.9069 25.3032 25.3682 24.9487 24.8173 25.0623L13.4448 27.4088C12.6093 27.5812 12.3527 28.6378 12.989 29.1806C13.2199 29.3776 13.5362 29.4697 13.8564 29.4037L25.2289 27.0572C25.7797 26.9435 26.1342 26.4048 26.0205 25.8539Z" fill="#0FB8AE"/>
<path d="M18.4135 33.8089C19.2694 34.539 20.555 34.4371 21.2851 33.5812C22.0152 32.7254 21.9133 31.4397 21.0574 30.7096C20.2016 29.9796 18.916 30.0815 18.1859 30.9373C17.4558 31.7932 17.5577 33.0788 18.4135 33.8089Z" fill="#0FB8AE"/>
<path d="M17.6167 23.7586C18.4725 24.4887 19.7581 24.3868 20.4882 23.5309C21.2183 22.6751 21.1164 21.3895 20.2606 20.6594C19.4047 19.9293 18.1191 20.0312 17.389 20.887C16.6589 21.7429 16.7608 23.0285 17.6167 23.7586Z" fill="#0FB8AE"/>
</svg>
