<svg width="33" height="33" viewBox="0 0 33 33" fill="none" xmlns="http://www.w3.org/2000/svg">
<path d="M23.2031 29.9062C23.2028 30.1797 23.094 30.4418 22.9007 30.6351C22.7074 30.8284 22.4453 30.9372 22.1719 30.9375H4.64063C4.36723 30.9372 4.10512 30.8284 3.91179 30.6351C3.71846 30.4418 3.60971 30.1797 3.60939 29.9062V6.1875C3.60971 5.91409 3.71846 5.65198 3.91179 5.45865C4.10512 5.26533 4.36723 5.15657 4.64063 5.15625H7.05962C6.87344 5.47168 6.75696 5.82331 6.71801 6.1875H5.15626C5.01951 6.1875 4.88835 6.24182 4.79165 6.33852C4.69495 6.43522 4.64063 6.56637 4.64063 6.70312V29.3906C4.64063 29.5274 4.69495 29.6585 4.79165 29.7552C4.88835 29.8519 5.01951 29.9062 5.15626 29.9062H21.6562C21.793 29.9062 21.9242 29.8519 22.0209 29.7552C22.1175 29.6585 22.1719 29.5274 22.1719 29.3906V19.5938H21.1406V26.8125H9.79688V23.2031C9.79688 23.0664 9.74255 22.9352 9.64585 22.8385C9.54915 22.7418 9.418 22.6875 9.28125 22.6875H5.67188V7.21875H6.70312V7.73438C6.70312 7.87113 6.75745 8.00228 6.85415 8.09898C6.95085 8.19568 7.082 8.25 7.21875 8.25H19.5938C19.7305 8.25 19.8617 8.19568 19.9584 8.09898C20.055 8.00228 20.1094 7.87113 20.1094 7.73438V7.21875H21.1406V10.8281H22.1719V6.70312C22.1719 6.56637 22.1175 6.43522 22.0209 6.33852C21.9242 6.24182 21.793 6.1875 21.6562 6.1875H20.0943C20.0553 5.82331 19.9389 5.47168 19.7527 5.15625H22.1719C22.4453 5.15657 22.7074 5.26533 22.9007 5.45865C23.094 5.65198 23.2028 5.91409 23.2031 6.1875V9.28125H24.2344V6.1875C24.2338 5.64068 24.0163 5.11643 23.6296 4.72977C23.2429 4.34311 22.7187 4.12561 22.1719 4.125H18.6198C18.3767 4.01126 18.1173 3.9364 17.851 3.90315L15.9844 3.66983V3.60938C15.9844 2.92561 15.7128 2.26986 15.2293 1.78637C14.7458 1.30287 14.09 1.03125 13.4062 1.03125C12.7225 1.03125 12.0667 1.30287 11.5832 1.78637C11.0997 2.26986 10.8281 2.92561 10.8281 3.60938V3.66983L8.9615 3.90315C8.6952 3.9364 8.43578 4.01126 8.19271 4.125H4.64063C4.09381 4.12561 3.56956 4.34311 3.1829 4.72977C2.79623 5.11643 2.57875 5.64068 2.57812 6.1875V29.9062C2.57875 30.4531 2.79623 30.9773 3.1829 31.364C3.56956 31.7506 4.09381 31.9681 4.64063 31.9688H22.1719C22.7187 31.9681 23.2429 31.7506 23.6296 31.364C24.0163 30.9773 24.2338 30.4531 24.2344 29.9062V18.0469H23.2031V29.9062ZM5.67188 28.875V24.448L8.91665 27.6927C8.96453 27.7406 9.02137 27.7786 9.08393 27.8045C9.14649 27.8304 9.21354 27.8438 9.28125 27.8438H21.1406V28.875H5.67188ZM8.76562 26.0833L6.40104 23.7188H8.76562V26.0833ZM9.08937 4.92647L11.4077 4.63644C11.5324 4.62086 11.6471 4.56029 11.7302 4.46612C11.8134 4.37194 11.8593 4.25064 11.8594 4.125V3.60938C11.8594 3.19912 12.0223 2.80566 12.3124 2.51557C12.6025 2.22547 12.996 2.0625 13.4062 2.0625C13.8165 2.0625 14.21 2.22547 14.5001 2.51557C14.7902 2.80566 14.9531 3.19912 14.9531 3.60938V4.125C14.9531 4.25068 14.999 4.37202 15.0822 4.46624C15.1654 4.56045 15.2801 4.62105 15.4048 4.63663L17.7231 4.92667C18.097 4.97392 18.4408 5.15582 18.6902 5.43831C18.9397 5.7208 19.0776 6.08452 19.0781 6.46136V7.21875H7.73438V6.46136C7.7349 6.08449 7.87278 5.72072 8.1222 5.43819C8.37162 5.15566 8.71547 4.97373 9.08937 4.92647Z" fill="#0FB8AE"/>
<path d="M14.9531 10.8281C14.9531 10.5222 14.8624 10.2231 14.6924 9.96873C14.5225 9.71435 14.2809 9.51608 13.9982 9.399C13.7156 9.28192 13.4045 9.25129 13.1045 9.31097C12.8044 9.37066 12.5288 9.51799 12.3124 9.73432C12.0961 9.95065 11.9488 10.2263 11.8891 10.5263C11.8294 10.8264 11.86 11.1374 11.9771 11.4201C12.0942 11.7027 12.2925 11.9443 12.5469 12.1143C12.8012 12.2843 13.1003 12.375 13.4063 12.375C13.8164 12.3745 14.2095 12.2114 14.4995 11.9214C14.7895 11.6314 14.9526 11.2382 14.9531 10.8281ZM12.8906 10.8281C12.8906 10.7261 12.9209 10.6265 12.9775 10.5417C13.0342 10.4569 13.1147 10.3908 13.2089 10.3518C13.3031 10.3127 13.4068 10.3025 13.5068 10.3224C13.6069 10.3423 13.6987 10.3914 13.7709 10.4635C13.843 10.5356 13.8921 10.6275 13.912 10.7275C13.9319 10.8276 13.9217 10.9312 13.8826 11.0254C13.8436 11.1197 13.7775 11.2002 13.6927 11.2569C13.6079 11.3135 13.5082 11.3438 13.4063 11.3438C13.2695 11.3436 13.1385 11.2892 13.0418 11.1926C12.9452 11.0959 12.8908 10.9648 12.8906 10.8281Z" fill="#0FB8AE"/>
<path d="M10.8281 13.4062H18.5625V14.4375H10.8281V13.4062Z" fill="#0FB8AE"/>
<path d="M7.73438 13.4062H9.79688V14.4375H7.73438V13.4062Z" fill="#0FB8AE"/>
<path d="M7.73438 15.4688H16.5V16.5H7.73438V15.4688Z" fill="#0FB8AE"/>
<path d="M7.73438 19.5938H15.4688V20.625H7.73438V19.5938Z" fill="#0FB8AE"/>
<path d="M10.8281 21.6562H19.0781V22.6875H10.8281V21.6562Z" fill="#0FB8AE"/>
<path d="M7.73438 17.5312H15.9844V18.5625H7.73438V17.5312Z" fill="#0FB8AE"/>
<path d="M18.1589 24.0537C18.0925 23.9481 17.9997 23.8616 17.8897 23.8028C17.7796 23.7441 17.6562 23.715 17.5315 23.7186C17.2176 23.7186 16.9385 23.8843 16.7065 24.1018C16.6263 23.9841 16.5186 23.8878 16.3929 23.821C16.2671 23.7542 16.127 23.7191 15.9846 23.7186C15.2105 23.7186 14.6466 24.7261 14.4922 25.0348L15.4139 25.4967C15.5515 25.2237 15.7692 24.9296 15.9159 24.805C15.9594 24.9547 15.9825 25.1095 15.9846 25.2654C15.9846 25.3815 16.0238 25.4942 16.0958 25.5852C16.1678 25.6762 16.2684 25.7403 16.3814 25.7671C16.4943 25.7938 16.613 25.7817 16.7182 25.7326C16.8233 25.6836 16.9089 25.6005 16.961 25.4967C16.9816 25.4561 17.0038 25.4149 17.0274 25.3743C17.0523 25.4895 17.1159 25.5927 17.2076 25.6667C17.2993 25.7407 17.4136 25.7811 17.5315 25.781H19.0784V24.7498H18.2523C18.294 24.5049 18.2831 24.2547 18.1589 24.0537Z" fill="#0FB8AE"/>
<path d="M12.8906 3.09375H13.9219V4.125H12.8906V3.09375Z" fill="#0FB8AE"/>
<path d="M29.6043 10.3125L29.8438 10.073C30.211 9.70213 30.4164 9.20099 30.4151 8.67913C30.4138 8.15728 30.2059 7.65716 29.8369 7.28815C29.4679 6.91914 28.9678 6.71126 28.4459 6.70997C27.924 6.70867 27.4229 6.91407 27.0521 7.28125L17.6823 16.651C17.6258 16.7076 17.5832 16.7767 17.5582 16.8527H17.5577L16.5265 19.9464C16.4962 20.0373 16.4918 20.1348 16.5138 20.228C16.5358 20.3212 16.5833 20.4064 16.651 20.4741C16.7187 20.5419 16.804 20.5894 16.8972 20.6114C16.9904 20.6334 17.0879 20.629 17.1787 20.5987L20.2725 19.5674V19.567C20.3485 19.5419 20.4175 19.4994 20.4742 19.4428L28.8751 11.0417L29.1771 11.3437C29.2448 11.4114 29.2985 11.4918 29.3352 11.5803C29.3718 11.6688 29.3907 11.7636 29.3907 11.8594C29.3907 11.9551 29.3718 12.0499 29.3352 12.1384C29.2985 12.2269 29.2448 12.3073 29.1771 12.375L26.4479 15.1041L27.1772 15.8333L29.9063 13.1042C30.0698 12.9407 30.1995 12.7466 30.2879 12.5331C30.3764 12.3195 30.4219 12.0905 30.4219 11.8594C30.4219 11.6282 30.3764 11.3992 30.2879 11.1856C30.1995 10.9721 30.0698 10.778 29.9063 10.6145L29.6043 10.3125ZM28.4479 7.73435C28.6344 7.73435 28.8167 7.78964 28.9717 7.89323C29.1267 7.99682 29.2476 8.14406 29.3189 8.31633C29.3903 8.4886 29.409 8.67816 29.3726 8.86103C29.3362 9.04391 29.2464 9.2119 29.1146 9.34375L28.8751 9.58325L27.5418 8.24998L27.7813 8.01047C27.8686 7.92264 27.9725 7.85302 28.0869 7.80562C28.2014 7.75823 28.3241 7.734 28.4479 7.73435ZM18.2725 17.9702L19.1548 18.8525L17.8309 19.2938L18.2725 17.9702ZM20.1094 18.3489L18.7761 17.0156L23.2032 12.5886L24.5365 13.9219L20.1094 18.3489ZM25.2657 13.1927L23.9324 11.8594L26.8126 8.9792L28.1458 10.3125L25.2657 13.1927Z" fill="#0FB8AE"/>
</svg>
