<svg width="32" height="32" viewBox="0 0 32 32" fill="none" xmlns="http://www.w3.org/2000/svg">
<path d="M4 17C3.724 17 3.5 17.224 3.5 17.5V19H4.5V18H15.5V19H16.5V18H27.5V19H28.5V17.5C28.5 17.224 28.276 17 28 17H16.5V16H21.5C21.776 16 22 15.776 22 15.5V14.5C22 13.1215 20.8785 12 19.5 12C18.673 12 18 11.327 18 10.5V10.0215C19.237 9.096 20 7.6405 20 6.049V4.5C20 2.57 18.43 1 16.5 1H15.5C13.57 1 12 2.57 12 4.5V6.0495C12 7.641 12.763 9.0965 14 10.022V10.5C14 11.327 13.327 12 12.5 12C11.1215 12 10 13.1215 10 14.5V15.5C10 15.776 10.224 16 10.5 16H11.5V15H11V14.5C11 13.673 11.673 13 12.5 13C13.0395 13 13.5365 12.824 13.946 12.532L15.5 13.309V15H13V16H15.5V17H4ZM15.5 2H16.5C17.8785 2 19 3.1215 19 4.5V5.4635C18.2965 5.2595 17.748 4.6895 17.598 3.94L17.49 3.402C17.4395 3.15 17.203 2.9885 16.9505 3.015C16.695 3.04 16.5 3.2675 16.5 3.5245C16.5 4.6165 15.6115 5.515 14.5195 5.527L13 5.544V4.5C13 3.1215 14.1215 2 15.5 2ZM13.0365 6.5435L14.5305 6.527C15.5695 6.5155 16.486 5.969 17.0165 5.146C17.448 5.838 18.15 6.3235 18.9675 6.486C18.8115 7.899 17.9185 9.1335 16.5905 9.7025C16.215 9.863 15.7845 9.863 15.409 9.7025C14.099 9.1415 13.21 7.9325 13.0365 6.5435ZM15.015 10.622C15.328 10.756 15.664 10.823 16 10.823C16.336 10.823 16.672 10.756 16.985 10.622C16.994 10.618 17.002 10.6125 17.011 10.6085C17.031 11.066 17.17 11.4925 17.4045 11.8545L16.016 12.4495L14.645 11.764C14.8475 11.4215 14.9705 11.0305 14.989 10.609C14.998 10.6125 15.006 10.618 15.015 10.622ZM16.5 13.3295L18.1755 12.6115C18.5605 12.854 19.0125 13 19.5 13C20.327 13 21 13.673 21 14.5V15H16.5V13.3295Z" fill="#0FB8AE"/>
<path d="M19.5 23.5C19.5 21.57 17.93 20 16 20H12C11.724 20 11.5 20.224 11.5 20.5C11.5 22.43 13.07 24 15 24H18.4495C18.217 25.1395 17.2075 26 16 26C14.774 26 13.737 25.124 13.5345 23.917L12.548 24.0825C12.719 25.1005 13.315 25.948 14.136 26.463C12.8675 27.135 12 28.4675 12 30V30.5C12 30.776 12.224 31 12.5 31H19.5C19.776 31 20 30.776 20 30.5V30C20 28.465 19.13 27.131 17.858 26.461C18.8425 25.8405 19.5 24.747 19.5 23.5ZM19 30H13C13 28.5165 14.0835 27.2845 15.5 27.045V29.5H16.5V27.045C17.9165 27.2845 19 28.5165 19 30ZM12.5505 21H16C17.2075 21 18.2175 21.8605 18.4495 23H15C13.7925 23 12.7825 22.1395 12.5505 21Z" fill="#0FB8AE"/>
<path d="M7.358 26.461C8.3425 25.8405 9 24.747 9 23.5C9 21.57 7.43 20 5.5 20H1.5C1.224 20 1 20.224 1 20.5C1 22.43 2.57 24 4.5 24H7.9495C7.717 25.1395 6.7075 26 5.5 26C4.274 26 3.237 25.124 3.0345 23.917L2.048 24.0825C2.219 25.1005 2.815 25.948 3.636 26.463C2.3675 27.135 1.5 28.4675 1.5 30V30.5C1.5 30.776 1.724 31 2 31H9C9.276 31 9.5 30.776 9.5 30.5V30C9.5 28.465 8.63 27.131 7.358 26.461ZM2.0505 21H5.5C6.7075 21 7.7175 21.8605 7.9495 23H4.5C3.2925 23 2.2825 22.1395 2.0505 21ZM2.5 30C2.5 28.5165 3.5835 27.2845 5 27.045V29.5H6V27.045C7.4165 27.284 8.5 28.516 8.5 30H2.5Z" fill="#0FB8AE"/>
<path d="M28.858 26.461C29.8425 25.8405 30.5 24.747 30.5 23.5C30.5 21.57 28.93 20 27 20H23C22.724 20 22.5 20.224 22.5 20.5C22.5 22.43 24.07 24 26 24H29.4495C29.217 25.1395 28.2075 26 27 26C25.774 26 24.737 25.124 24.5345 23.917L23.548 24.0825C23.719 25.1005 24.315 25.948 25.136 26.463C23.8675 27.135 23 28.4675 23 30V30.5C23 30.776 23.224 31 23.5 31H30.5C30.776 31 31 30.776 31 30.5V30C31 28.465 30.13 27.131 28.858 26.461ZM23.5505 21H27C28.2075 21 29.2175 21.8605 29.4495 23H26C24.7925 23 23.7825 22.1395 23.5505 21ZM24 30C24 28.5165 25.0835 27.2845 26.5 27.045V29.5H27.5V27.045C28.9165 27.284 30 28.516 30 30H24Z" fill="#0FB8AE"/>
</svg>
