<svg width="66" height="66" viewBox="0 0 66 66" fill="none" xmlns="http://www.w3.org/2000/svg">
<circle cx="33" cy="33" r="32" stroke="#0FB8AE" stroke-width="2" stroke-dasharray="3 3"/>
<g clip-path="url(#clip0)">
<path d="M45.9249 38.775H45.0636C44.4596 38.7755 43.8639 38.9161 43.3234 39.1858C42.537 39.5768 41.6128 39.5768 40.8264 39.1858C40.5127 39.0319 40.1797 38.9209 39.8364 38.8558L40.9083 30.525H42.0749C42.3786 30.525 42.6249 30.2787 42.6249 29.975V27.775C42.6249 27.4713 42.3786 27.225 42.0749 27.225H39.8749V25.575C39.8749 25.4291 39.8169 25.2893 39.7137 25.1861L37.1249 22.5973V20.889L37.9587 20.2224L39.3826 23.0708L40.3671 22.5791L38.837 19.5195L39.5174 18.975H41.5249C41.8286 18.975 42.0749 18.7287 42.0749 18.425V16.225C42.0749 15.9213 41.8286 15.675 41.5249 15.675H36.0249C33.2925 15.6783 31.0782 17.8926 31.0749 20.625C31.0749 20.9287 31.3212 21.175 31.6249 21.175H32.7249V22.5973L31.236 24.0861C31.1329 24.1893 31.0749 24.3291 31.0749 24.475V27.225H29.9749V22.825C29.9741 22.7569 29.9605 22.6896 29.9347 22.6264C29.9247 22.6051 29.9133 22.5843 29.9006 22.5643C29.8874 22.5355 29.872 22.5077 29.8544 22.4812L27.7749 19.8825V16.225C27.7749 15.9213 27.5286 15.675 27.2249 15.675H23.9249C23.6212 15.675 23.3749 15.9213 23.3749 16.225V19.8825L21.2953 22.4812C21.2778 22.5077 21.2623 22.5355 21.2491 22.5643C21.2365 22.5843 21.2251 22.6051 21.215 22.6264C21.1893 22.6896 21.1757 22.7569 21.1749 22.825V27.225H18.9749C18.6712 27.225 18.4249 27.4713 18.4249 27.775V29.975C18.4249 30.2787 18.6712 30.525 18.9749 30.525H20.1414L22.2793 47.0954C22.3147 47.3697 22.5483 47.5751 22.8249 47.575H35.7719C36.3957 48.2742 37.2879 48.6743 38.2249 48.675H39.0862C39.6902 48.6744 40.2859 48.5338 40.8264 48.2641C41.6128 47.8732 42.537 47.8732 43.3234 48.2641C43.8639 48.5338 44.4596 48.6744 45.0636 48.675H45.9249C47.7467 48.6732 49.2231 47.1968 49.2249 45.375V42.075C49.2231 40.2532 47.7467 38.7768 45.9249 38.775ZM39.8749 16.775H40.9749V17.875H39.8749V16.775ZM41.5249 28.325V29.425H33.8249V28.325H41.5249ZM32.2139 20.075C32.4898 18.182 34.1119 16.7774 36.0249 16.775H38.7749V18.161L36.3818 20.075H32.2139ZM36.0249 21.175V22.275H33.8249V21.175H36.0249ZM32.1749 24.7027L33.5026 23.375H36.3472L38.7749 25.8027V27.225H32.1749V24.7027ZM31.6249 28.325H32.7249V32.175C32.7237 32.3845 32.8417 32.5764 33.029 32.67L36.329 34.32C36.49 34.3993 36.6119 34.5403 36.6673 34.711C36.7243 34.8943 36.7045 35.0927 36.6123 35.261C36.454 35.5786 36.0683 35.7077 35.7508 35.5494C35.7503 35.5492 35.7498 35.5489 35.7493 35.5487L33.5163 34.4322C33.2434 34.2988 32.9141 34.412 32.7807 34.6849C32.7442 34.7597 32.7251 34.8418 32.7249 34.925V40.425C32.7249 41.0325 32.2324 41.525 31.6249 41.525V36.575H30.5249V41.525H29.4249V36.575H28.3249V41.525H27.2249V36.575H26.1249V41.525C25.5174 41.525 25.0249 41.0325 25.0249 40.425V28.325H31.6249ZM24.4749 16.775H26.6749V19.525H24.4749V16.775ZM24.1889 20.625H26.9609L28.2809 22.275H22.8689L24.1889 20.625ZM22.2749 23.375H28.8749V27.225H22.2749V23.375ZM19.5249 29.425V28.325H23.9249V29.425H19.5249ZM34.9249 42.075V45.375C34.9259 45.75 34.991 46.122 35.1174 46.475H23.3083L21.2502 30.525H23.9249V40.425C23.9249 41.64 24.9099 42.625 26.1249 42.625H31.6249C32.8399 42.625 33.8249 41.64 33.8249 40.425V35.8149L35.2615 36.5332C36.1296 36.9616 37.1807 36.6052 37.6091 35.7371C37.6109 35.7336 37.6126 35.7299 37.6144 35.7263C37.8274 35.304 37.8637 34.8142 37.715 34.3651C37.5685 33.9158 37.2474 33.5444 36.824 33.3344L33.8249 31.8351V30.525H39.7995L38.7347 38.775H38.2249C36.4031 38.7768 34.9267 40.2532 34.9249 42.075ZM48.1249 45.375C48.1249 46.59 47.1399 47.575 45.9249 47.575H45.0636C44.6304 47.5744 44.2033 47.4735 43.8156 47.2802C42.7191 46.7353 41.4307 46.7353 40.3341 47.2802C39.9465 47.4735 39.5194 47.5744 39.0862 47.575H38.2249C37.0099 47.575 36.0249 46.59 36.0249 45.375V44.528C36.628 45.073 37.412 45.3748 38.2249 45.375H39.0862C39.6902 45.3744 40.2859 45.2338 40.8264 44.9641C41.6128 44.5732 42.537 44.5732 43.3234 44.9641C43.8639 45.2338 44.4596 45.3744 45.0636 45.375H45.9249C46.7378 45.3748 47.5217 45.073 48.1249 44.528V45.375ZM45.9249 44.275H45.0636C44.6304 44.2744 44.2033 44.1735 43.8156 43.9802C42.7191 43.4353 41.4307 43.4353 40.3341 43.9802C39.9465 44.1735 39.5194 44.2744 39.0862 44.275H38.2249C37.0099 44.275 36.0249 43.29 36.0249 42.075C36.0249 40.86 37.0099 39.875 38.2249 39.875H39.0862C39.5194 39.8756 39.9465 39.9765 40.3341 40.1698C41.4308 40.7143 42.719 40.7143 43.8156 40.1698C44.2033 39.9765 44.6304 39.8756 45.0636 39.875H45.9249C47.1399 39.875 48.1249 40.86 48.1249 42.075C48.1249 43.29 47.1399 44.275 45.9249 44.275Z" fill="#0FB8AE"/>
<path d="M46.475 40.975H45.375V42.075H46.475V40.975Z" fill="#0FB8AE"/>
<path d="M40.9749 40.975H39.8749V42.075H40.9749V40.975Z" fill="#0FB8AE"/>
<path d="M38.7751 41.5249H37.6751V42.6249H38.7751V41.5249Z" fill="#0FB8AE"/>
<path d="M44.2749 41.5249H43.1749V42.6249H44.2749V41.5249Z" fill="#0FB8AE"/>
</g>
<defs>
<clipPath id="clip0">
<rect width="33" height="33" fill="white" transform="translate(17.325 15.675)"/>
</clipPath>
</defs>
</svg>
