<svg width="66" height="66" viewBox="0 0 66 66" fill="none" xmlns="http://www.w3.org/2000/svg">
<circle cx="33" cy="33" r="32" stroke="#0FB8AE" stroke-width="2" stroke-dasharray="3 3"/>
<g clip-path="url(#clip0)">
<path d="M48.8555 31.0664H33.6445V29.7773H39.4454C40.5116 29.7773 41.379 28.9099 41.379 27.8437V20.1094C41.379 19.0432 40.5116 18.1758 39.4454 18.1758H26.5546C25.4884 18.1758 24.621 19.0432 24.621 20.1094V27.8437C24.621 28.9099 25.4884 29.7773 26.5546 29.7773H32.3555V31.0664H17.1445C16.7886 31.0664 16.5 31.355 16.5 31.7109V47.1797C16.5 47.5356 16.7886 47.8242 17.1445 47.8242H26.5547C26.9106 47.8242 27.1992 47.5356 27.1992 47.1797V34.9337H38.8008V47.1797C38.8008 47.5356 39.0894 47.8242 39.4453 47.8242H48.8555C49.2114 47.8242 49.5 47.5356 49.5 47.1797V31.7109C49.5 31.355 49.2114 31.0664 48.8555 31.0664ZM26.5546 19.4648H39.4454C39.8008 19.4648 40.0899 19.7539 40.0899 20.1093V25.91H25.9102H25.9101V20.1094C25.9101 19.754 26.1992 19.4648 26.5546 19.4648ZM25.9101 27.8437V27.1992H25.9102H40.0899V27.8437C40.0899 28.1991 39.8008 28.4883 39.4454 28.4883H26.5546C26.1992 28.4883 25.9101 28.1991 25.9101 27.8437ZM40.0898 34.9337H48.2109V38.8011H40.0899H40.0898V34.9337ZM25.9102 38.8011H17.7891H17.7891V34.9337H17.7891H25.9102V38.8011ZM25.9102 46.5352H17.7891V40.0902H17.7891H25.9102V46.5352ZM26.5547 33.6446C26.5542 33.6446 26.5539 33.6447 26.5535 33.6447H17.7891H17.7891V32.3555H48.2109V33.6447H39.4465C39.4462 33.6447 39.4457 33.6446 39.4453 33.6446H26.5547ZM48.2109 46.5352H40.0898V40.0902H40.0899H48.2109V46.5352Z" fill="#0FB8AE"/>
<path d="M20.5605 37.512H23.1387C23.4946 37.512 23.7832 37.2233 23.7832 36.8674C23.7832 36.5115 23.4946 36.2229 23.1387 36.2229H20.5605C20.2046 36.2229 19.916 36.5115 19.916 36.8674C19.916 37.2233 20.2046 37.512 20.5605 37.512Z" fill="#0FB8AE"/>
<path d="M20.5605 42.6684H23.1387C23.4946 42.6684 23.7832 42.3798 23.7832 42.0239C23.7832 41.668 23.4946 41.3793 23.1387 41.3793H20.5605C20.2046 41.3793 19.916 41.668 19.916 42.0239C19.916 42.3798 20.2046 42.6684 20.5605 42.6684Z" fill="#0FB8AE"/>
<path d="M42.8613 37.512H45.4395C45.7954 37.512 46.084 37.2233 46.084 36.8674C46.084 36.5115 45.7954 36.2229 45.4395 36.2229H42.8613C42.5054 36.2229 42.2168 36.5115 42.2168 36.8674C42.2168 37.2233 42.5054 37.512 42.8613 37.512Z" fill="#0FB8AE"/>
<path d="M42.8613 42.6684H45.4395C45.7954 42.6684 46.084 42.3798 46.084 42.0239C46.084 41.668 45.7954 41.3793 45.4395 41.3793H42.8613C42.5054 41.3793 42.2168 41.668 42.2168 42.0239C42.2168 42.3798 42.5054 42.6684 42.8613 42.6684Z" fill="#0FB8AE"/>
</g>
<defs>
<clipPath id="clip0">
<rect width="33" height="33" fill="white" transform="translate(16.5 16.5)"/>
</clipPath>
</defs>
</svg>
