<svg width="66" height="66" viewBox="0 0 66 66" fill="none" xmlns="http://www.w3.org/2000/svg">
<circle cx="33" cy="33" r="32" stroke="#0FB8AE" stroke-width="2" stroke-dasharray="3 3"/>
<g clip-path="url(#clip0)">
<path d="M46.5437 31.4875H45.9758L45.0904 27.0599C45.0445 26.836 44.8474 26.675 44.6187 26.675H38.8437C38.8278 26.675 38.8139 26.6837 38.7979 26.6851C38.7533 26.6886 38.7096 26.6985 38.6675 26.7145C38.648 26.7227 38.6287 26.7319 38.6104 26.7424C38.5709 26.7652 38.5347 26.7937 38.503 26.8266C38.4939 26.8362 38.4805 26.8407 38.4718 26.8512C38.4631 26.8618 38.4659 26.8651 38.4617 26.8715C38.4335 26.9107 38.4114 26.9542 38.3966 27.0002C38.389 27.016 38.3822 27.0319 38.3764 27.0484C38.3747 27.0522 38.3733 27.0562 38.3721 27.0599L37.4867 31.4875H30.6625V31.0063C30.6625 30.209 30.016 29.5625 29.2187 29.5625V28.6H33.0687C33.866 28.6 34.5125 27.9536 34.5125 27.1563V20.4188C34.5125 19.6215 33.866 18.975 33.0687 18.975H21.5187C20.7214 18.975 20.075 19.6215 20.075 20.4188V27.1563C20.075 27.9536 20.7214 28.6 21.5187 28.6H25.3687V29.5625C24.5714 29.5625 23.925 30.209 23.925 31.0063V31.4875H18.6312C18.3655 31.4875 18.15 31.703 18.15 31.9688V47.3688C18.15 47.6345 18.3655 47.85 18.6312 47.85H20.5562C20.822 47.85 21.0375 47.6345 21.0375 47.3688V44H44.1375V47.3688C44.1375 47.6345 44.353 47.85 44.6187 47.85H46.5437C46.8095 47.85 47.025 47.6345 47.025 47.3688V31.9688C47.025 31.703 46.8095 31.4875 46.5437 31.4875ZM44.2242 27.6375L44.994 31.4875H40.2008L39.431 27.6375H44.2242ZM38.789 29.884L39.1899 31.4875H38.468L38.789 29.884ZM21.0375 20.4188C21.0375 20.153 21.253 19.9375 21.5187 19.9375H33.0687C33.3345 19.9375 33.55 20.153 33.55 20.4188V25.7125H21.0375V20.4188ZM21.0375 27.1563V26.675H27.2937H33.55V27.1563C33.55 27.422 33.3345 27.6375 33.0687 27.6375H21.5187C21.253 27.6375 21.0375 27.422 21.0375 27.1563ZM26.3312 28.6H28.2562V29.5625H26.3312V28.6ZM24.8875 31.0063C24.8875 30.7405 25.103 30.525 25.3687 30.525H29.2187C29.4845 30.525 29.7 30.7405 29.7 31.0063V31.4875H24.8875V31.0063ZM21.0375 43.0375V34.375H44.1375V43.0375H21.0375ZM46.0625 46.8875H45.1V33.8938C45.1 33.628 44.8845 33.4125 44.6187 33.4125H20.5562C20.2905 33.4125 20.075 33.628 20.075 33.8938V46.8875H19.1125V32.45H46.0625V46.8875Z" fill="#0FB8AE"/>
</g>
<defs>
<clipPath id="clip0">
<rect width="28.875" height="28.875" fill="white" transform="translate(18.15 18.975)"/>
</clipPath>
</defs>
</svg>
