<svg width="66" height="66" viewBox="0 0 66 66" fill="none" xmlns="http://www.w3.org/2000/svg">
<circle cx="33" cy="33" r="32" stroke="#0FB8AE" stroke-width="2" stroke-dasharray="3 3"/>
<g clip-path="url(#clip0)">
<path d="M49.5 32.194H45.905L48.5903 19.2652L46.7445 18.8818L43.9795 32.194H22.8455L20.0806 18.8818L18.2347 19.2652L20.92 32.194H17.325V42.4091H19.4746V46.293H25.1814V42.4091H41.6437V46.293H47.3504V42.4091H49.5V32.194ZM23.2962 44.4078H21.3599V42.4091H23.2962V44.4078ZM45.4651 44.4078H43.5288V42.4091H45.4651V44.4078ZM47.6148 40.5239H19.2103V34.0793H47.6148V40.5239Z" fill="#0FB8AE"/>
<path d="M21.6025 36.3589H24.9639V38.2442H21.6025V36.3589Z" fill="#0FB8AE"/>
<path d="M36.1111 36.3589H45.2223V38.2442H36.1111V36.3589Z" fill="#0FB8AE"/>
<path d="M28.212 36.3589H31.5734V38.2442H28.212V36.3589Z" fill="#0FB8AE"/>
<path d="M36.2369 26.0406L37.624 24.7639C36.5427 23.5891 35.0077 22.9153 33.4127 22.9153C31.8176 22.9153 30.2827 23.5891 29.2014 24.7639L30.5885 26.0406C31.3138 25.2525 32.3433 24.8006 33.4126 24.8006C34.482 24.8006 35.5115 25.2525 36.2369 26.0406Z" fill="#0FB8AE"/>
<path d="M33.4124 21.1516C35.4993 21.1516 37.5075 22.0331 38.9222 23.5701L40.3093 22.2934C38.5387 20.3697 36.0249 19.2663 33.4124 19.2663C30.7999 19.2663 28.2861 20.3697 26.5154 22.2933L27.9026 23.57C29.3172 22.0331 31.3255 21.1516 33.4124 21.1516Z" fill="#0FB8AE"/>
<path d="M32.4699 27.6958H34.3551V29.5811H32.4699V27.6958Z" fill="#0FB8AE"/>
</g>
<defs>
<clipPath id="clip0">
<rect width="32.175" height="32.175" fill="white" transform="translate(17.325 16.5)"/>
</clipPath>
</defs>
</svg>
