<svg width="66" height="66" viewBox="0 0 66 66" fill="none" xmlns="http://www.w3.org/2000/svg">
<circle cx="33" cy="33" r="32" stroke="#0FB8AE" stroke-width="2" stroke-dasharray="3 3"/>
<g clip-path="url(#clip0)">
<path d="M40.3725 15.675C37.2221 15.675 34.6589 18.2382 34.6589 21.3886V33.9215C34.6589 34.2269 34.9065 34.4745 35.2118 34.4745H36.1334V47.929C36.1334 49.2501 37.2083 50.325 38.5293 50.325C39.8504 50.325 40.9253 49.2501 40.9253 47.929V16.2279C40.9254 15.9226 40.6779 15.675 40.3725 15.675ZM39.8196 47.929C39.8196 48.6404 39.2408 49.2192 38.5294 49.2192C37.8181 49.2192 37.2392 48.6404 37.2392 47.929V36.6862H39.8196V47.929ZM39.8196 35.5803H37.2392V34.4745H39.8196V35.5803ZM39.8196 33.3686H35.7648V21.3886C35.7648 19.0349 37.5385 17.0878 39.8196 16.8139V33.3686Z" fill="#0FB8AE"/>
<path d="M32.2626 15.675C31.9573 15.675 31.7097 15.9226 31.7097 16.2279V22.3101H30.6039V16.2279C30.6039 15.9226 30.3563 15.675 30.051 15.675C29.7456 15.675 29.4981 15.9226 29.4981 16.2279V22.3101H28.3922V16.2279C28.3922 15.9226 28.1447 15.675 27.8393 15.675C27.534 15.675 27.2864 15.9226 27.2864 16.2279V22.3101H26.1806V16.2279C26.1806 15.9226 25.933 15.675 25.6277 15.675C25.3223 15.675 25.0748 15.9226 25.0748 16.2279V26.7335C25.0748 28.2366 25.9487 29.596 27.2865 30.2307V48.6662C27.2865 49.5809 28.0306 50.325 28.9453 50.325C29.86 50.325 30.6041 49.5809 30.6041 48.6662V30.2307C31.9418 29.596 32.8158 28.2367 32.8158 26.7335V16.2279C32.8156 15.9226 32.568 15.675 32.2626 15.675ZM31.7097 26.7335C31.7097 27.9029 30.969 28.9505 29.8666 29.3402C29.6457 29.4184 29.498 29.6272 29.498 29.8615V48.6663C29.498 48.9712 29.25 49.2192 28.9451 49.2192C28.6401 49.2192 28.3922 48.9711 28.3922 48.6663V29.8615C28.3922 29.6272 28.2445 29.4183 28.0235 29.3402C26.9212 28.9506 26.1805 27.9029 26.1805 26.7335V23.416H27.2863V23.6002C27.2863 23.9056 27.5338 24.1532 27.8392 24.1532C28.1445 24.1532 28.3921 23.9056 28.3921 23.6002V23.416H29.4979V23.6002C29.4979 23.9056 29.7455 24.1532 30.0508 24.1532C30.3562 24.1532 30.6037 23.9056 30.6037 23.6002V23.416H31.7096V26.7335H31.7097Z" fill="#0FB8AE"/>
</g>
<defs>
<clipPath id="clip0">
<rect width="34.65" height="34.65" fill="white" transform="translate(15.675 15.675)"/>
</clipPath>
</defs>
</svg>
