<svg width="66" height="66" viewBox="0 0 66 66" fill="none" xmlns="http://www.w3.org/2000/svg">
<circle cx="33" cy="33" r="32" stroke="#0FB8AE" stroke-width="2" stroke-dasharray="3 3"/>
<g clip-path="url(#clip0)">
<path d="M45.815 46.3787V18.1912C45.815 17.2572 45.0578 16.5 44.1237 16.5H22.7012C21.7672 16.5 21.01 17.2572 21.01 18.1912V46.3787C21.01 47.3128 21.7672 48.07 22.7012 48.07H23.3665C23.1117 48.772 23.3475 49.5581 23.9467 50.0039C24.5459 50.4497 25.3666 50.4497 25.9658 50.0039C26.565 49.5581 26.8008 48.772 26.546 48.07H40.279C40.0242 48.772 40.26 49.5581 40.8592 50.0039C41.4584 50.4497 42.2791 50.4497 42.8783 50.0039C43.4775 49.5581 43.7133 48.772 43.4585 48.07H44.1237C45.0578 48.07 45.815 47.3128 45.815 46.3787ZM44.1237 46.9425H33.9762V32.8487H38.4862V36.1692C38.4852 36.6059 38.7363 37.0039 39.1308 37.1909C39.5253 37.3779 39.9924 37.3203 40.3297 37.043L44.6875 33.4745V46.3787C44.6875 46.6901 44.4351 46.9425 44.1237 46.9425ZM44.6875 32.02L39.6137 36.1692L39.6137 22.7012C39.6132 22.5307 39.6898 22.369 39.8223 22.2615L44.6875 18.3153V32.02ZM39.6137 20.948V19.8825H40.916L39.6137 20.948ZM38.4862 21.01H36.2312V19.8825H38.4862V21.01ZM36.2312 22.1375H38.4862V26.0837H36.2312V22.1375ZM38.4862 31.7212H36.2312V30.5937H38.4862V31.7212ZM42.2183 18.817C41.9646 18.755 42.0999 18.755 39.6137 18.755C39.4152 18.757 39.2207 18.8115 39.05 18.9128C38.6892 18.7042 38.6666 18.755 36.2312 18.755C35.6085 18.755 35.1037 19.2598 35.1037 19.8825V26.0837H33.9762V17.6275H43.6784L42.2183 18.817ZM33.9762 27.2112H38.4862V29.4662H36.2312C35.6085 29.4662 35.1037 29.971 35.1037 30.5937V31.7212H33.9762V27.2112ZM22.7012 17.6275H32.8487V31.7212H22.1375V18.1912C22.1375 17.8799 22.3899 17.6275 22.7012 17.6275ZM22.1375 46.3787V32.8487H32.8487V46.9425H22.7012C22.3899 46.9425 22.1375 46.6901 22.1375 46.3787ZM25.52 48.6337C25.52 48.9451 25.2676 49.1975 24.9562 49.1975C24.6449 49.1975 24.3925 48.9451 24.3925 48.6337C24.3925 48.3224 24.6449 48.07 24.9562 48.07C25.2676 48.07 25.52 48.3224 25.52 48.6337ZM42.4325 48.6337C42.4325 48.9451 42.1801 49.1975 41.8687 49.1975C41.5574 49.1975 41.305 48.9451 41.305 48.6337C41.305 48.3224 41.5574 48.07 41.8687 48.07C42.1801 48.07 42.4325 48.3224 42.4325 48.6337Z" fill="#0FB8AE"/>
<path d="M24.3926 24.3926H24.9564C25.2677 24.3926 25.5201 24.1402 25.5201 23.8289C25.5201 23.5175 25.2677 23.2651 24.9564 23.2651H24.3926V19.8826H24.9564C25.2677 19.8826 25.5201 19.6302 25.5201 19.3189C25.5201 19.0075 25.2677 18.7551 24.9564 18.7551H24.3926C23.7699 18.7551 23.2651 19.2599 23.2651 19.8826V23.2651C23.2651 23.8878 23.7699 24.3926 24.3926 24.3926Z" fill="#0FB8AE"/>
<path d="M23.8289 26.6474C24.1402 26.6474 24.3926 26.395 24.3926 26.0836C24.3926 25.7723 24.1402 25.5199 23.8289 25.5199C23.5175 25.5199 23.2651 25.7723 23.2651 26.0836C23.2651 26.395 23.5175 26.6474 23.8289 26.6474Z" fill="#0FB8AE"/>
<path d="M36.7949 35.1037C37.1063 35.1037 37.3587 34.8513 37.3587 34.5399C37.3587 34.2286 37.1063 33.9762 36.7949 33.9762H36.2312C35.6085 33.9762 35.1037 34.481 35.1037 35.1037V38.4862C35.1037 39.1089 35.6085 39.6137 36.2312 39.6137H36.7949C37.1063 39.6137 37.3587 39.3613 37.3587 39.0499C37.3587 38.7386 37.1063 38.4862 36.7949 38.4862H36.2312V35.1037H36.7949Z" fill="#0FB8AE"/>
<path d="M35.6674 41.8687C35.9788 41.8687 36.2311 41.6163 36.2311 41.3049C36.2311 40.9936 35.9788 40.7412 35.6674 40.7412C35.3561 40.7412 35.1037 40.9936 35.1037 41.3049C35.1037 41.6163 35.3561 41.8687 35.6674 41.8687Z" fill="#0FB8AE"/>
<path d="M25.5201 39.0499C25.5201 38.7386 25.2677 38.4862 24.9564 38.4862H24.3926V35.1037H24.9564C25.2677 35.1037 25.5201 34.8513 25.5201 34.5399C25.5201 34.2286 25.2677 33.9762 24.9564 33.9762H24.3926C23.7699 33.9762 23.2651 34.481 23.2651 35.1037V38.4862C23.2651 39.1089 23.7699 39.6137 24.3926 39.6137H24.9564C25.2677 39.6137 25.5201 39.3613 25.5201 39.0499Z" fill="#0FB8AE"/>
<path d="M23.8289 41.8687C24.1402 41.8687 24.3926 41.6163 24.3926 41.3049C24.3926 40.9936 24.1402 40.7412 23.8289 40.7412C23.5175 40.7412 23.2651 40.9936 23.2651 41.3049C23.2651 41.6163 23.5175 41.8687 23.8289 41.8687Z" fill="#0FB8AE"/>
<path d="M41.3051 23.265C40.9937 23.265 40.7413 23.5174 40.7413 23.8288V28.3388C40.7413 28.6501 40.9937 28.9025 41.3051 28.9025C41.6164 28.9025 41.8688 28.6501 41.8688 28.3388V23.8288C41.8688 23.5174 41.6164 23.265 41.3051 23.265Z" fill="#0FB8AE"/>
</g>
<defs>
<clipPath id="clip0">
<rect width="33.825" height="33.825" fill="white" transform="translate(16.5 16.5)"/>
</clipPath>
</defs>
</svg>
