<svg width="66" height="66" viewBox="0 0 66 66" fill="none" xmlns="http://www.w3.org/2000/svg">
<circle cx="33" cy="33" r="32" stroke="#0FB8AE" stroke-width="2" stroke-dasharray="3 3"/>
<g clip-path="url(#clip0)">
<path d="M37.9887 23.168H28.0113C27.771 23.168 27.5763 23.3628 27.5763 23.6031C27.5763 23.8433 27.771 24.0381 28.0113 24.0381H37.9887C38.229 24.0381 38.4237 23.8433 38.4237 23.6031C38.4237 23.3628 38.229 23.168 37.9887 23.168Z" fill="#0FB8AE"/>
<path d="M37.9887 26.0975H28.0113C27.771 26.0975 27.5763 26.2923 27.5763 26.5326C27.5763 26.7728 27.771 26.9676 28.0113 26.9676H37.9887C38.229 26.9676 38.4237 26.7728 38.4237 26.5326C38.4237 26.2923 38.229 26.0975 37.9887 26.0975Z" fill="#0FB8AE"/>
<path d="M37.9887 29.0269H28.0113C27.771 29.0269 27.5763 29.2217 27.5763 29.462C27.5763 29.7022 27.771 29.897 28.0113 29.897H37.9887C38.229 29.897 38.4237 29.7022 38.4237 29.462C38.4237 29.2217 38.229 29.0269 37.9887 29.0269Z" fill="#0FB8AE"/>
<path d="M37.9887 31.811H28.0113C27.771 31.811 27.5763 32.0058 27.5763 32.2461C27.5763 32.4864 27.771 32.6812 28.0113 32.6812H37.9887C38.229 32.6812 38.4237 32.4864 38.4237 32.2461C38.4237 32.0058 38.229 31.811 37.9887 31.811Z" fill="#0FB8AE"/>
<path d="M47.4149 40.8407C47.6553 40.8407 47.85 40.6459 47.85 40.4056V28.4173C47.85 28.4158 47.8497 28.4142 47.8497 28.4127C47.8496 28.4056 47.8487 28.3986 47.8483 28.3916C47.8474 28.377 47.8462 28.3625 47.8439 28.3482C47.8427 28.3406 47.8409 28.3333 47.8393 28.3258C47.8364 28.3121 47.8329 28.2986 47.8287 28.2854C47.8264 28.2781 47.8239 28.271 47.8212 28.2639C47.8162 28.2505 47.8104 28.2376 47.8041 28.2249C47.801 28.2185 47.798 28.2121 47.7945 28.2059C47.7866 28.1917 47.7777 28.1782 47.7683 28.165C47.7654 28.1609 47.7628 28.1565 47.7597 28.1525C47.7464 28.1351 47.7318 28.1186 47.7159 28.1033C47.7155 28.1029 47.715 28.1026 47.7147 28.1022C47.6993 28.0876 47.6825 28.0743 47.6649 28.0619C47.6636 28.0609 47.6625 28.0597 47.6611 28.0587L42.6005 24.5896V20.8767C42.6005 20.6364 42.4057 20.4416 42.1654 20.4416H40.4252C40.1848 20.4416 39.9901 20.6364 39.9901 20.8767C39.9901 21.1169 40.1848 21.3117 40.4252 21.3117H41.7303V31.5558L33 37.1699L24.2698 31.5558C24.2698 31.5553 24.2698 31.5558 24.2698 31.5553V21.3117C24.2708 21.3117 24.2698 21.3117 24.2708 21.3117H38.576C38.8163 21.3117 39.0111 21.1169 39.0111 20.8766C39.0111 20.6363 38.8163 20.4415 38.576 20.4415H36.5492L33.3742 18.265C33.147 18.1113 32.8532 18.1112 32.6235 18.2665L29.4508 20.4416H23.8348C23.5944 20.4416 23.3997 20.6364 23.3997 20.8767V24.5896L18.3391 28.0587C18.3377 28.0597 18.3366 28.0609 18.3352 28.0619C18.3176 28.0743 18.3009 28.0875 18.2856 28.1022C18.2852 28.1026 18.2846 28.1029 18.2842 28.1033C18.2683 28.1186 18.2538 28.1351 18.2404 28.1525C18.2373 28.1565 18.2348 28.1609 18.2318 28.165C18.2224 28.1782 18.2136 28.1917 18.2057 28.2059C18.2022 28.2121 18.1992 28.2185 18.1961 28.2249C18.1897 28.2376 18.184 28.2506 18.1789 28.2639C18.1763 28.2711 18.1737 28.2782 18.1714 28.2854C18.1672 28.2987 18.1637 28.3122 18.1608 28.3258C18.1592 28.3333 18.1574 28.3407 18.1562 28.3482C18.1539 28.3625 18.1527 28.3771 18.1519 28.3917C18.1514 28.3987 18.1505 28.4057 18.1504 28.4127C18.1504 28.4143 18.1501 28.4158 18.1501 28.4174V31.1245C18.1501 31.3648 18.3448 31.5596 18.5852 31.5596C18.8255 31.5596 19.0202 31.3648 19.0202 31.1245V29.2144L32.1958 37.6871L19.4403 45.8897C19.1751 45.4966 19.0201 45.0233 19.0201 44.5145V32.9807C19.0201 32.7405 18.8254 32.5457 18.5851 32.5457C18.3447 32.5457 18.15 32.7405 18.15 32.9807V44.5145C18.15 45.3637 18.4695 46.1394 18.994 46.7288C19.003 46.7409 19.0124 46.7528 19.0227 46.764C19.1637 46.9182 19.3186 47.0569 19.4837 47.1805C19.4878 47.1837 19.4919 47.1868 19.4962 47.19C19.5306 47.2156 19.5656 47.2403 19.6009 47.2645C19.6146 47.2739 19.6283 47.2833 19.6421 47.2924C19.67 47.3109 19.698 47.3289 19.7264 47.3465C19.7496 47.361 19.7732 47.3751 19.7968 47.3891C19.8175 47.4012 19.8382 47.4133 19.8591 47.4249C19.8924 47.4436 19.9262 47.4616 19.9602 47.4792C19.9729 47.4857 19.9857 47.4924 19.9985 47.4988C20.0422 47.5206 20.0864 47.5414 20.1311 47.5613C20.1355 47.5633 20.14 47.5654 20.1444 47.5673C20.5551 47.7485 21.0085 47.8499 21.4854 47.8499H44.5145C44.9916 47.8499 45.4452 47.7485 45.856 47.5673C45.86 47.5655 45.8639 47.5637 45.8679 47.5619C45.9131 47.5417 45.9578 47.5207 46.002 47.4986C46.0143 47.4924 46.0265 47.486 46.0388 47.4797C46.0734 47.4619 46.1077 47.4436 46.1415 47.4246C46.1619 47.4132 46.182 47.4014 46.2022 47.3896C46.2264 47.3754 46.2505 47.3609 46.2743 47.346C46.3022 47.3287 46.3297 47.311 46.357 47.2929C46.3714 47.2834 46.3858 47.2737 46.4 47.2639C46.4348 47.2401 46.4691 47.2157 46.503 47.1906C46.5078 47.187 46.5126 47.1833 46.5174 47.1797C46.6821 47.0562 46.8366 46.9179 46.9773 46.764C46.9875 46.7528 46.9969 46.741 47.0059 46.7289C47.5304 46.1395 47.85 45.3638 47.85 44.5145V42.3102C47.85 42.07 47.6553 41.8752 47.4149 41.8752C47.1746 41.8752 46.9799 42.07 46.9799 42.3102V44.5145C46.9799 45.0233 46.8249 45.4966 46.5597 45.8897L33.8043 37.6871L46.977 29.2163C46.9799 29.2144 46.977 29.2163 46.9799 29.2143V40.4056C46.9799 40.6459 47.1746 40.8407 47.4149 40.8407ZM33 19.0634L35.0103 20.4416H30.9896L33 19.0634ZM23.3997 30.9962L20.0662 28.8526H23.3997V30.9962ZM23.3997 27.9825H19.9891L23.3997 25.6445V27.9825ZM45.9388 46.5249C45.9246 46.5349 45.9107 46.5453 45.8963 46.5551C45.8936 46.5569 45.8909 46.5588 45.8882 46.5606C45.8604 46.5793 45.8321 46.5973 45.8036 46.6148C45.7983 46.6181 45.793 46.6215 45.7878 46.6248C45.7581 46.6427 45.728 46.66 45.6975 46.6767C45.6791 46.6868 45.6604 46.6963 45.6418 46.7059C45.6304 46.7118 45.6192 46.7177 45.6078 46.7233C45.5851 46.7345 45.5623 46.7454 45.5393 46.7559C45.5329 46.7588 45.5265 46.7617 45.5201 46.7646C45.3803 46.8271 45.2347 46.8767 45.0853 46.9124C45.0822 46.9132 45.0791 46.9139 45.076 46.9146C44.9975 46.933 44.9178 46.9473 44.8374 46.958C44.8212 46.9602 44.8051 46.9624 44.7888 46.9642C44.7713 46.9662 44.7537 46.9678 44.7361 46.9694C44.7137 46.9714 44.6912 46.9732 44.6686 46.9745C44.6548 46.9754 44.6409 46.9763 44.627 46.977C44.5897 46.9786 44.5522 46.9798 44.5145 46.9798H21.4854C21.4477 46.9798 21.4103 46.9786 21.373 46.9769C21.3591 46.9763 21.3453 46.9754 21.3315 46.9745C21.3088 46.9731 21.2862 46.9714 21.2638 46.9693C21.2463 46.9678 21.2288 46.9661 21.2114 46.9642C21.1949 46.9623 21.1785 46.96 21.1622 46.9579C21.0822 46.9473 21.003 46.933 20.9248 46.9147C20.9213 46.9139 20.9178 46.9131 20.9142 46.9122C20.8848 46.9052 20.8554 46.8977 20.8263 46.8896C20.8261 46.8895 20.8259 46.8894 20.8257 46.8894C20.7078 46.8566 20.5926 46.8148 20.4811 46.765C20.4738 46.7618 20.4665 46.7585 20.4593 46.7552C20.4371 46.7449 20.415 46.7345 20.3931 46.7237C20.3802 46.7173 20.3675 46.7105 20.3546 46.7039C20.3375 46.6951 20.3202 46.6864 20.3032 46.6771C20.2722 46.6601 20.2416 46.6425 20.2114 46.6242C20.2071 46.6216 20.2029 46.6189 20.1988 46.6163C20.169 46.598 20.1396 46.5793 20.1108 46.5598C20.1089 46.5585 20.1069 46.5572 20.105 46.5558C20.0902 46.5458 20.0759 46.5351 20.0612 46.5247L33 38.2043L45.9388 46.5249ZM42.6003 30.9962V28.8526H45.9338L42.6003 30.9962ZM42.6003 27.9825V25.6445L46.0109 27.9825H42.6003Z" fill="#0FB8AE"/>
</g>
<defs>
<clipPath id="clip0">
<rect width="29.7" height="29.7" fill="white" transform="translate(18.15 18.15)"/>
</clipPath>
</defs>
</svg>
