<svg width="66" height="66" viewBox="0 0 66 66" fill="none" xmlns="http://www.w3.org/2000/svg">
<circle cx="33" cy="33" r="32" stroke="#0FB8AE" stroke-width="2" stroke-dasharray="3 3"/>
<g clip-path="url(#clip0)">
<path d="M33.8802 24.599L34.7604 23.7188H36.6094C36.7461 23.7189 36.8771 23.7733 36.9738 23.8699C37.0705 23.9666 37.1248 24.0977 37.125 24.2344V25.7813C37.1248 25.918 37.0705 26.049 36.9738 26.1457C36.8771 26.2423 36.7461 26.2967 36.6094 26.2969H27.5859C27.4524 26.2969 27.324 26.3487 27.2279 26.4414C27.1318 26.5342 27.0754 26.6606 27.0706 26.7941L26.4811 43.2941L27.5118 43.3309L28.0837 27.3281H36.6094C37.0195 27.3277 37.4127 27.1645 37.7027 26.8745C37.9927 26.5846 38.1558 26.1914 38.1562 25.7813V24.2344C38.1558 23.8243 37.9927 23.4311 37.7027 23.1411C37.4127 22.8511 37.0195 22.688 36.6094 22.6875H34.5469C34.4792 22.6875 34.4121 22.7008 34.3496 22.7267C34.287 22.7527 34.2301 22.7906 34.1823 22.8385L33.3021 23.7188H26.8523C27.1619 23.2939 27.3286 22.7817 27.3281 22.256V20.0256C27.3275 19.3643 27.0645 18.7303 26.597 18.2627C26.1294 17.795 25.4954 17.532 24.8342 17.5312H23.6346C22.9733 17.532 22.3393 17.795 21.8718 18.2627C21.4042 18.7303 21.1413 19.3643 21.1406 20.0256V22.2563C21.1403 22.7819 21.3069 23.294 21.6165 23.7188H20.625C19.9415 23.7195 19.2862 23.9914 18.8028 24.4747C18.3195 24.958 18.0476 25.6133 18.0469 26.2969V35.0625C18.0474 35.4726 18.2105 35.8658 18.5005 36.1558C18.7905 36.4458 19.1836 36.6089 19.5938 36.6094H20.7167L21.1409 48.4872L22.1719 48.4503L21.7442 36.4869C22.0237 36.3681 22.2622 36.1698 22.4299 35.9165C22.5976 35.6632 22.6872 35.3663 22.6875 35.0625V34.0313C22.6875 33.9635 22.6742 33.8965 22.6483 33.8339C22.6223 33.7714 22.5844 33.7145 22.5365 33.6666L21.6562 32.7864V27.8438H20.625V33C20.625 33.0677 20.6383 33.1348 20.6642 33.1973C20.6902 33.2599 20.7281 33.3167 20.776 33.3646L21.6562 34.2449V35.0625C21.6561 35.1992 21.6017 35.3303 21.5051 35.4269C21.4084 35.5236 21.2773 35.578 21.1406 35.5781H19.5938C19.457 35.578 19.326 35.5236 19.2293 35.4269C19.1327 35.3303 19.0783 35.1992 19.0781 35.0625V26.2969C19.0786 25.8868 19.2417 25.4936 19.5317 25.2036C19.8217 24.9136 20.2149 24.7505 20.625 24.75H33.5156C33.5833 24.75 33.6504 24.7367 33.7129 24.7108C33.7755 24.6848 33.8324 24.6469 33.8802 24.599ZM23.6346 23.7188C23.2468 23.7183 22.875 23.564 22.6008 23.2898C22.3266 23.0156 22.1723 22.6438 22.1719 22.256V20.0256C22.1722 19.6377 22.3264 19.2659 22.6007 18.9916C22.8749 18.7173 23.2467 18.563 23.6346 18.5625H24.8342C25.222 18.563 25.5939 18.7173 25.8681 18.9916C26.1423 19.2659 26.2965 19.6377 26.2969 20.0256V22.2563C26.2963 22.6441 26.1421 23.0158 25.8679 23.2899C25.5937 23.5641 25.2219 23.7183 24.8342 23.7188H23.6346Z" fill="#0FB8AE"/>
<path d="M24.75 36.0938H23.7188V48.4688H24.75V36.0938Z" fill="#0FB8AE"/>
<path d="M35.5781 43.8281H34.5866C34.8963 43.4033 35.0629 42.8911 35.0625 42.3654V40.135C35.0619 39.4737 34.7989 38.8397 34.3313 38.3721C33.8638 37.9044 33.2298 37.6414 32.5686 37.6406H31.3689C30.7077 37.6414 30.0737 37.9044 29.6062 38.3721C29.1386 38.8397 28.8756 39.4737 28.875 40.135V42.3657C28.8746 42.8913 29.0413 43.4034 29.3509 43.8281H28.3594C27.6758 43.8289 27.0205 44.1008 26.5372 44.5841C26.0539 45.0674 25.782 45.7227 25.7812 46.4062V48.4688H26.8125V46.4062C26.813 45.9961 26.9761 45.6029 27.2661 45.313C27.5561 45.023 27.9493 44.8598 28.3594 44.8594H35.5781C35.9882 44.8598 36.3814 45.023 36.6714 45.313C36.9614 45.6029 37.1245 45.9961 37.125 46.4062V48.4688H38.1562V46.4062C38.1555 45.7227 37.8836 45.0674 37.4003 44.5841C36.917 44.1008 36.2617 43.8289 35.5781 43.8281ZM31.3689 43.8281C30.9811 43.8277 30.6094 43.6734 30.3352 43.3992C30.0609 43.125 29.9067 42.7532 29.9062 42.3654V40.135C29.9066 39.7471 30.0608 39.3752 30.335 39.1009C30.6093 38.8266 30.9811 38.6723 31.3689 38.6719H32.5686C32.9564 38.6723 33.3282 38.8266 33.6025 39.1009C33.8767 39.3752 34.0309 39.7471 34.0312 40.135V42.3657C34.0307 42.7534 33.8764 43.1251 33.6022 43.3993C33.328 43.6734 32.9563 43.8277 32.5686 43.8281H31.3689Z" fill="#0FB8AE"/>
<path d="M45.8906 43.8281H44.8991C45.2088 43.4033 45.3754 42.8911 45.375 42.3654V40.135C45.3744 39.4737 45.1114 38.8397 44.6438 38.3721C44.1763 37.9044 43.5423 37.6414 42.8811 37.6406H41.6814C41.0202 37.6414 40.3862 37.9044 39.9187 38.3721C39.4511 38.8397 39.1881 39.4737 39.1875 40.135V42.3657C39.1871 42.8913 39.3538 43.4034 39.6634 43.8281H38.6719V44.8594H45.8906C46.3007 44.8598 46.6939 45.023 46.9839 45.313C47.2739 45.6029 47.437 45.9961 47.4375 46.4062V48.4688H48.4688V46.4062C48.468 45.7227 48.1961 45.0674 47.7128 44.5841C47.2295 44.1008 46.5742 43.8289 45.8906 43.8281ZM41.6814 43.8281C41.2936 43.8277 40.9219 43.6734 40.6477 43.3992C40.3734 43.125 40.2192 42.7532 40.2188 42.3654V40.135C40.2191 39.7471 40.3733 39.3752 40.6475 39.1009C40.9218 38.8266 41.2936 38.6723 41.6814 38.6719H42.8811C43.2689 38.6723 43.6407 38.8266 43.915 39.1009C44.1892 39.3752 44.3434 39.7471 44.3438 40.135V42.3657C44.3432 42.7534 44.1889 43.1251 43.9147 43.3993C43.6405 43.6734 43.2688 43.8277 42.8811 43.8281H41.6814Z" fill="#0FB8AE"/>
<path d="M48.9844 17.0156H29.3906C29.2539 17.0156 29.1227 17.0699 29.026 17.1666C28.9293 17.2633 28.875 17.3945 28.875 17.5312V19.5938C28.875 19.7305 28.9293 19.8617 29.026 19.9584C29.1227 20.0551 29.2539 20.1094 29.3906 20.1094H29.9062V22.6875H30.9375V20.1094H47.4375V34.0312H30.9375V28.3594H29.9062V34.5469C29.9062 34.6836 29.9606 34.8148 30.0573 34.9115C30.154 35.0082 30.2851 35.0625 30.4219 35.0625H47.9531C48.0899 35.0625 48.221 35.0082 48.3177 34.9115C48.4144 34.8148 48.4688 34.6836 48.4688 34.5469V20.1094H48.9844C49.1211 20.1094 49.2523 20.0551 49.349 19.9584C49.4457 19.8617 49.5 19.7305 49.5 19.5938V17.5312C49.5 17.3945 49.4457 17.2633 49.349 17.1666C49.2523 17.0699 49.1211 17.0156 48.9844 17.0156ZM48.4688 19.0781H29.9062V18.0469H48.4688V19.0781Z" fill="#0FB8AE"/>
<path d="M46.4062 24.75C46.4052 23.7931 46.0246 22.8756 45.3479 22.199C44.6712 21.5223 43.7538 21.1417 42.7969 21.1406C42.6601 21.1406 42.529 21.1949 42.4323 21.2916C42.3356 21.3883 42.2812 21.5195 42.2812 21.6562V24.2344H39.7031C39.5664 24.2344 39.4352 24.2887 39.3385 24.3854C39.2418 24.4821 39.1875 24.6132 39.1875 24.75C39.1875 25.7073 39.5678 26.6253 40.2447 27.3022C40.9215 27.9791 41.8396 28.3594 42.7969 28.3594C43.7541 28.3594 44.6722 27.9791 45.3491 27.3022C46.026 26.6253 46.4062 25.7073 46.4062 24.75ZM40.2703 25.2656H42.7969C42.9336 25.2656 43.0648 25.2113 43.1615 25.1146C43.2582 25.0179 43.3125 24.8868 43.3125 24.75V22.2234C43.7688 22.3167 44.1913 22.5318 44.5351 22.8459C44.8789 23.16 45.1313 23.5614 45.2653 24.0075C45.3993 24.4535 45.41 24.9275 45.2962 25.3791C45.1825 25.8307 44.9485 26.243 44.6192 26.5723C44.2899 26.9017 43.8776 27.1356 43.4259 27.2494C42.9743 27.3631 42.5003 27.3524 42.0543 27.2184C41.6083 27.0844 41.2069 26.8321 40.8928 26.4882C40.5787 26.1444 40.3636 25.7219 40.2703 25.2656Z" fill="#0FB8AE"/>
<path d="M34.5469 29.3906H33.5156V30.4219H34.5469V29.3906Z" fill="#0FB8AE"/>
<path d="M45.8906 29.3906H35.5781V30.4219H45.8906V29.3906Z" fill="#0FB8AE"/>
<path d="M43.8281 31.4531H32.4844V32.4844H43.8281V31.4531Z" fill="#0FB8AE"/>
</g>
<defs>
<clipPath id="clip0">
<rect width="33" height="33" fill="white" transform="translate(16.5 16.5)"/>
</clipPath>
</defs>
</svg>
