<svg width="66" height="66" viewBox="0 0 66 66" fill="none" xmlns="http://www.w3.org/2000/svg">
<circle cx="33" cy="33" r="32" stroke="#0FB8AE" stroke-width="2" stroke-dasharray="3 3"/>
<g clip-path="url(#clip0)">
<path d="M44.0841 22.3191H42.4734C42.2329 22.3191 42.0807 22.4638 42.0807 22.6237H42.0806V27.5722C42.0806 27.7778 42.3371 27.8844 42.6015 27.8844C42.858 27.8844 43.1224 27.7779 43.1224 27.5722V25.806H44.02C45.0778 25.806 45.9033 25.3263 45.9033 24.0778V24.0322C45.9033 22.7836 45.1019 22.3191 44.0841 22.3191ZM44.8614 24.1539C44.8614 24.7478 44.5409 25.0295 44.02 25.0295H43.1224V23.1871H44.02C44.5409 23.1871 44.8614 23.4688 44.8614 24.0626V24.1539Z" fill="#0FB8AE"/>
<path d="M35.3891 24.2537C33.8678 22.8084 31.8451 22.0125 29.6936 22.0125C27.5421 22.0125 25.5194 22.8084 23.9981 24.2537C23.8145 24.428 23.8145 24.7108 23.9981 24.8853C24.1817 25.0596 24.4793 25.0596 24.6629 24.8853C26.0066 23.6087 27.7932 22.9057 29.6935 22.9057C31.5939 22.9057 33.3805 23.6087 34.7242 24.8853C34.8161 24.9724 34.9364 25.016 35.0567 25.016C35.1769 25.016 35.2973 24.9724 35.3891 24.8853C35.5727 24.7109 35.5727 24.428 35.3891 24.2537Z" fill="#0FB8AE"/>
<path d="M33.4495 26.0961C31.3784 24.1286 28.0085 24.1286 25.9374 26.0961C25.7538 26.2705 25.7538 26.5533 25.9374 26.7277C26.121 26.9021 26.4187 26.9021 26.6022 26.7277C28.3068 25.1085 31.0802 25.1085 32.7847 26.7277C32.8765 26.8149 32.9967 26.8585 33.1171 26.8585C33.2373 26.8585 33.3577 26.8149 33.4495 26.7277C33.6331 26.5533 33.6331 26.2705 33.4495 26.0961Z" fill="#0FB8AE"/>
<path d="M31.541 27.9094C30.5224 26.9418 28.865 26.9418 27.8464 27.9094C27.6627 28.0838 27.6627 28.3666 27.8464 28.541C28.0299 28.7155 28.3276 28.7154 28.5112 28.541C29.1633 27.9216 30.2242 27.9216 30.8762 28.541C30.968 28.6283 31.0883 28.6718 31.2086 28.6718C31.3289 28.6718 31.4492 28.6282 31.541 28.541C31.7246 28.3666 31.7246 28.0839 31.541 27.9094Z" fill="#0FB8AE"/>
<path d="M39.6337 36.6076C39.4303 36.5013 39.2296 36.3848 39.0373 36.2614L35.9278 34.2658C34.984 33.6601 33.8832 33.34 32.7443 33.34H27.0369C25.522 33.34 24.0965 33.8994 23.0231 34.9152C22.4714 35.4375 21.8429 35.8743 21.155 36.2136C20.7481 36.4143 20.4954 36.8093 20.4954 37.2445C20.4954 37.8853 21.0442 38.4066 21.7187 38.4066H23.6646C23.9242 38.4066 24.1347 38.2067 24.1347 37.96C24.1347 37.7134 23.9242 37.5134 23.6646 37.5134H21.7187C21.5626 37.5134 21.4356 37.3927 21.4356 37.2444C21.4356 37.144 21.4941 37.0527 21.5882 37.0063C22.3611 36.6251 23.0672 36.1344 23.6867 35.548C24.5826 34.7001 25.7724 34.2331 27.0369 34.2331H28.3147V37.5134H26.7528C26.4932 37.5134 26.2827 37.7134 26.2827 37.96C26.2827 38.2067 26.4932 38.4066 26.7528 38.4066H39.6433C40.0297 38.4066 40.3441 38.108 40.3441 37.7408C40.3441 37.2707 40.0719 36.8365 39.6337 36.6076ZM29.255 37.5135V34.2332H32.7444C33.695 34.2332 34.6138 34.5004 35.4015 35.0059L38.511 37.0015C38.7269 37.1401 38.9522 37.2709 39.1808 37.3903C39.2399 37.4212 39.2895 37.4637 39.3267 37.5135H29.255Z" fill="#0FB8AE"/>
<path d="M30.4195 39.0854H28.9674C28.7078 39.0854 28.4973 39.2854 28.4973 39.5321C28.4973 39.7787 28.7078 39.9787 28.9674 39.9787H30.4195C30.6791 39.9787 30.8896 39.7787 30.8896 39.5321C30.8896 39.2854 30.6791 39.0854 30.4195 39.0854Z" fill="#0FB8AE"/>
<path d="M49.0944 38.7107L48.9459 38.4766C48.3863 37.5943 47.4554 36.973 46.392 36.7721L45.1782 36.5428V30.6985H48.3192C48.9659 30.6985 49.4919 30.1987 49.4919 29.5844V20.8866C49.4919 20.2722 48.9658 19.7724 48.3192 19.7724H39.1636C38.5168 19.7724 37.9908 20.2723 37.9908 20.8866V24.186C37.9908 24.4326 38.2012 24.6326 38.4609 24.6326C38.7206 24.6326 38.931 24.4326 38.931 24.186V20.8866C38.931 20.7647 39.0354 20.6656 39.1636 20.6656H48.3193C48.4475 20.6656 48.5519 20.7647 48.5519 20.8866V29.5845C48.5519 29.7063 48.4475 29.8054 48.3193 29.8054H39.1636C39.0353 29.8054 38.931 29.7063 38.931 29.5845V27.0894C38.931 26.8427 38.7205 26.6428 38.4608 26.6428C38.2012 26.6428 37.9907 26.8427 37.9907 27.0894V29.5845C37.9907 30.1988 38.5168 30.6986 39.1635 30.6986H42.7252V36.0794L42.1013 35.9616C41.2402 35.7989 40.4007 35.3052 39.8441 34.9479L36.7347 32.9524C35.5516 32.1932 34.1718 31.7919 32.7441 31.7919H27.0368C25.1377 31.7919 23.3509 32.4931 22.0056 33.7664C21.1543 34.5721 20.0827 35.1217 18.9066 35.3557L18.2317 35.49C17.2283 35.6896 16.5 36.5414 16.5 37.5154V41.8407C16.5 42.3566 16.8207 42.8254 17.317 43.035L19.1895 43.8256C19.3027 44.3881 19.588 44.9253 20.0455 45.3599C20.6535 45.9375 21.4521 46.2263 22.2508 46.2263C23.0495 46.2263 23.8481 45.9375 24.4561 45.3599C24.8472 44.9884 25.1117 44.5418 25.2512 44.0687H40.864C41.0036 44.5418 41.2681 44.9884 41.6592 45.3599C42.2483 45.9195 43.0314 46.2277 43.8645 46.2277C44.6976 46.2277 45.4808 45.9195 46.0699 45.3599C46.4609 44.9884 46.7254 44.5418 46.865 44.0687H47.7568C48.718 44.0687 49.5 43.3258 49.5 42.4127V40.0962C49.4999 39.608 49.3596 39.1289 49.0944 38.7107ZM43.6655 30.6985H44.2381V36.3652L43.6655 36.257V30.6985ZM23.7912 44.7283C23.3798 45.1192 22.8327 45.3345 22.2507 45.3345C21.6688 45.3345 21.1217 45.1192 20.7103 44.7283C20.0502 44.1013 19.9034 43.1688 20.2691 42.4055C20.272 42.3994 20.2749 42.3932 20.2778 42.3871C20.289 42.3644 20.3008 42.342 20.3128 42.3197C20.3185 42.3092 20.3242 42.2987 20.3301 42.2883C20.341 42.269 20.3523 42.2497 20.3639 42.2306C20.3719 42.2175 20.3801 42.2044 20.3884 42.1915C20.3992 42.1746 20.4101 42.1578 20.4214 42.1412C20.4317 42.1262 20.4423 42.1114 20.453 42.0967C20.4635 42.082 20.474 42.0673 20.485 42.0529C20.4976 42.0365 20.5106 42.0203 20.5238 42.0041C20.534 41.9915 20.544 41.9788 20.5546 41.9664C20.5701 41.9482 20.5862 41.9304 20.6024 41.9127C20.6116 41.9026 20.6204 41.8922 20.6298 41.8822C20.6538 41.8569 20.6785 41.8322 20.7039 41.8078C20.7061 41.8058 20.7081 41.8036 20.7103 41.8015C20.7151 41.7969 20.7202 41.7926 20.7251 41.7881C20.7466 41.768 20.7683 41.7481 20.7904 41.7291C20.7961 41.7241 20.8022 41.7195 20.808 41.7147C20.83 41.6961 20.8522 41.6777 20.8749 41.6601C20.877 41.6584 20.8793 41.6569 20.8814 41.6553C21.6782 41.0426 22.8275 41.0434 23.6233 41.6577C23.6242 41.6584 23.6252 41.6591 23.6262 41.6598C23.6505 41.6786 23.6742 41.6983 23.6979 41.7183C23.7022 41.7218 23.7065 41.7252 23.7107 41.7288C23.7381 41.7522 23.7649 41.7764 23.7912 41.8014C23.8195 41.8284 23.8469 41.8561 23.8734 41.8842C23.8851 41.8966 23.8961 41.9092 23.9074 41.9218C23.9212 41.9371 23.935 41.9525 23.9483 41.9681C23.9632 41.9857 23.9776 42.0035 23.9917 42.0214C23.9997 42.0314 24.0077 42.0414 24.0154 42.0515C24.0326 42.0741 24.0494 42.0969 24.0655 42.1199C24.0683 42.1239 24.071 42.1278 24.0737 42.1318C24.6267 42.9342 24.5326 44.024 23.7912 44.7283ZM45.4049 44.7283C44.9934 45.1192 44.4463 45.3345 43.8644 45.3345C43.2824 45.3345 42.7354 45.1192 42.3239 44.7283C41.5824 44.024 41.4883 42.934 42.0414 42.1316C42.044 42.1278 42.0467 42.1239 42.0494 42.1201C42.0656 42.097 42.0824 42.0741 42.0996 42.0515C42.1073 42.0414 42.1152 42.0315 42.1231 42.0217C42.1374 42.0037 42.1518 41.9857 42.1668 41.968C42.18 41.9525 42.1937 41.9373 42.2074 41.9222C42.2188 41.9095 42.23 41.8966 42.2418 41.8842C42.2683 41.8561 42.2957 41.8284 42.324 41.8015C42.7355 41.4106 43.2825 41.1953 43.8644 41.1953C44.4464 41.1953 44.9935 41.4106 45.4049 41.8015C45.4333 41.8284 45.4606 41.8562 45.4872 41.8843C45.4989 41.8966 45.5099 41.9094 45.5213 41.922C45.5351 41.9372 45.5488 41.9525 45.5621 41.9681C45.577 41.9857 45.5914 42.0036 45.6056 42.0215C45.6136 42.0315 45.6215 42.0415 45.6292 42.0516C45.6464 42.0742 45.6632 42.0969 45.6794 42.12C45.6821 42.1239 45.6848 42.1278 45.6875 42.1318C46.2404 42.9341 46.1463 44.024 45.4049 44.7283ZM48.5598 42.4127H48.5597C48.5597 42.8333 48.1995 43.1755 47.7567 43.1755H46.9827C46.9643 42.5278 46.7236 41.9098 46.2905 41.4031C46.2876 41.3997 46.2848 41.3961 46.2819 41.3927C46.2551 41.3617 46.2273 41.3312 46.199 41.301C46.1918 41.2933 46.185 41.2853 46.1777 41.2776C46.1478 41.2463 46.1169 41.2156 46.0854 41.1854C46.0801 41.1802 46.0752 41.1748 46.0698 41.1698C45.6647 40.7851 45.168 40.5191 44.6264 40.3905C44.3802 40.3321 44.1248 40.302 43.8644 40.302C43.6561 40.302 43.451 40.3213 43.2512 40.3589C42.6518 40.4718 42.1009 40.7501 41.659 41.1698C41.6538 41.1748 41.6489 41.18 41.6437 41.1851C41.6121 41.2156 41.5811 41.2463 41.5511 41.2777C41.544 41.2851 41.5374 41.2928 41.5305 41.3003C41.502 41.3308 41.4739 41.3615 41.4469 41.3929C41.4442 41.396 41.4417 41.3993 41.4389 41.4024C41.0055 41.9092 40.7646 42.5275 40.7461 43.1756H25.369C25.3505 42.5267 25.1091 41.9076 24.6746 41.4005C24.6726 41.3981 24.6706 41.3957 24.6686 41.3933C24.6403 41.3604 24.6108 41.3281 24.5808 41.2961C24.5753 41.2903 24.5701 41.2842 24.5645 41.2783C24.5294 41.2415 24.4933 41.2053 24.456 41.1698C24.304 41.0254 24.1401 40.8991 23.9673 40.7907C23.4487 40.4659 22.8497 40.3034 22.2507 40.3034C21.4521 40.3034 20.6534 40.5922 20.0454 41.1698C20.0107 41.2028 19.9771 41.2367 19.9442 41.271C19.9345 41.2811 19.9252 41.2915 19.9156 41.3017C19.8923 41.3266 19.8695 41.3518 19.8473 41.3773C19.8374 41.3886 19.8276 41.4 19.8179 41.4115C19.7949 41.4387 19.7725 41.4663 19.7506 41.4942C19.7437 41.5029 19.7367 41.5114 19.7301 41.5201C19.6711 41.5967 19.6165 41.6757 19.566 41.7567C19.5645 41.759 19.5632 41.7613 19.5618 41.7636C19.5371 41.8034 19.5134 41.8438 19.4908 41.8847C19.4902 41.8859 19.4895 41.8871 19.4888 41.8882C19.3249 42.1845 19.2147 42.505 19.1642 42.8374L17.699 42.2188C17.5418 42.1524 17.4403 42.004 17.4403 41.8407V37.5154C17.4403 36.9618 17.8543 36.4776 18.4246 36.3641L19.0996 36.2298C20.4544 35.9602 21.6888 35.3272 22.6694 34.3991C23.8373 33.2937 25.3884 32.685 27.037 32.685H32.7443C33.9837 32.685 35.1815 33.0334 36.2085 33.6924L39.318 35.6879C39.942 36.0884 40.8904 36.6433 41.9181 36.8375L46.2087 37.6481C47.0132 37.8001 47.7174 38.2701 48.1408 38.9375L48.2893 39.1716C48.4663 39.4507 48.5598 39.7704 48.5598 40.0962V42.4127Z" fill="#0FB8AE"/>
<path d="M23.2601 42.3061C22.9904 42.0499 22.6321 41.9089 22.2508 41.9089C21.8696 41.9089 21.5112 42.05 21.2416 42.3061C20.9721 42.5621 20.8236 42.9026 20.8236 43.2648C20.8236 43.627 20.9721 43.9675 21.2416 44.2236C21.5112 44.4796 21.8696 44.6207 22.2509 44.6207C22.6321 44.6207 22.9905 44.4797 23.2601 44.2236C23.8166 43.6949 23.8166 42.8347 23.2601 42.3061ZM22.5952 43.592C22.5032 43.6793 22.3809 43.7275 22.2508 43.7275C22.1207 43.7275 21.9984 43.6793 21.9065 43.5919C21.8145 43.5045 21.7638 43.3884 21.7638 43.2648C21.7638 43.1411 21.8144 43.025 21.9065 42.9376C21.9984 42.8502 22.1207 42.802 22.2508 42.802C22.3809 42.802 22.5032 42.8502 22.5952 42.9376C22.7851 43.118 22.7851 43.4116 22.5952 43.592Z" fill="#0FB8AE"/>
<path d="M44.8737 42.3061C44.6042 42.05 44.2458 41.9089 43.8644 41.9089C43.4832 41.9089 43.1249 42.0499 42.8552 42.3061C42.2988 42.8347 42.2988 43.6949 42.8552 44.2236C43.1248 44.4797 43.4832 44.6207 43.8644 44.6207C44.2458 44.6207 44.6041 44.4797 44.8737 44.2236C45.1433 43.9676 45.2917 43.6271 45.2917 43.2649C45.2917 42.9027 45.1433 42.5622 44.8737 42.3061ZM44.2088 43.592C44.1168 43.6794 43.9946 43.7275 43.8644 43.7275C43.7344 43.7275 43.6121 43.6794 43.5201 43.592C43.3302 43.4117 43.3302 43.1181 43.5201 42.9377C43.6121 42.8504 43.7344 42.8022 43.8644 42.8022C43.9946 42.8022 44.1168 42.8503 44.2089 42.9377C44.3009 43.0251 44.3515 43.1413 44.3515 43.2649C44.3515 43.3884 44.3009 43.5046 44.2088 43.592Z" fill="#0FB8AE"/>
</g>
<defs>
<clipPath id="clip0">
<rect width="33" height="31.35" fill="white" transform="translate(16.5 17.325)"/>
</clipPath>
</defs>
</svg>
