<svg width="66" height="66" viewBox="0 0 66 66" fill="none" xmlns="http://www.w3.org/2000/svg">
<circle cx="33.0004" cy="33" r="32" stroke="#0FB8AE" stroke-width="2" stroke-dasharray="3 3"/>
<g clip-path="url(#clip0)">
<path d="M48.1941 30.6625H47.6262L46.7407 26.2349C46.6949 26.011 46.4978 25.85 46.2691 25.85H40.4941C40.4781 25.85 40.4643 25.8587 40.4483 25.8601C40.4036 25.8636 40.3599 25.8735 40.3179 25.8895C40.2984 25.8977 40.2791 25.9069 40.2608 25.9174C40.2213 25.9402 40.1851 25.9687 40.1534 26.0016C40.1442 26.0112 40.1308 26.0157 40.1221 26.0262C40.1134 26.0368 40.1163 26.0401 40.112 26.0464C40.0838 26.0857 40.0617 26.1292 40.0469 26.1752C40.0394 26.191 40.0326 26.2069 40.0267 26.2234C40.0251 26.2271 40.0237 26.2311 40.0225 26.2349L39.1371 30.6625H32.3129V30.1812C32.3129 29.3839 31.6664 28.7375 30.8691 28.7375V27.775H34.7191C35.5164 27.775 36.1629 27.1285 36.1629 26.3312V19.5937C36.1629 18.7964 35.5164 18.15 34.7191 18.15H23.1691C22.3718 18.15 21.7254 18.7964 21.7254 19.5937V26.3312C21.7254 27.1285 22.3718 27.775 23.1691 27.775H27.0191V28.7375C26.2218 28.7375 25.5754 29.3839 25.5754 30.1812V30.6625H20.2816C20.0158 30.6625 19.8004 30.878 19.8004 31.1437V46.5437C19.8004 46.8095 20.0158 47.025 20.2816 47.025H22.2066C22.4724 47.025 22.6879 46.8095 22.6879 46.5437V43.175H45.7879V46.5437C45.7879 46.8095 46.0033 47.025 46.2691 47.025H48.1941C48.4599 47.025 48.6754 46.8095 48.6754 46.5437V31.1437C48.6754 30.878 48.4599 30.6625 48.1941 30.6625ZM45.8746 26.8125L46.6444 30.6625H41.8512L41.0813 26.8125H45.8746ZM40.4394 29.059L40.8403 30.6625H40.1184L40.4394 29.059ZM22.6879 19.5937C22.6879 19.328 22.9033 19.1125 23.1691 19.1125H34.7191C34.9849 19.1125 35.2004 19.328 35.2004 19.5937V24.8875H22.6879V19.5937ZM22.6879 26.3312V25.85H35.2004V26.3312C35.2004 26.597 34.9849 26.8125 34.7191 26.8125H23.1691C22.9033 26.8125 22.6879 26.597 22.6879 26.3312ZM27.9816 27.775H29.9066V28.7375H27.9816V27.775ZM26.5379 30.1812C26.5379 29.9155 26.7533 29.7 27.0191 29.7H30.8691C31.1349 29.7 31.3504 29.9155 31.3504 30.1812V30.6625H26.5379V30.1812ZM22.6879 42.2125V33.55H45.7879V42.2125H22.6879ZM47.7129 46.0625H46.7504V33.0687C46.7504 32.803 46.5349 32.5875 46.2691 32.5875H22.2066C21.9408 32.5875 21.7254 32.803 21.7254 33.0687V46.0625H20.7629V31.625H47.7129V46.0625Z" fill="#0FB8AE"/>
<path d="M31.404 37.1887H31.2647V36.5365C31.2647 35.3302 30.3074 34.3225 29.111 34.301C29.0783 34.3004 29.0129 34.3004 28.9803 34.301C27.7838 34.3225 26.8265 35.3302 26.8265 36.5365V37.1887H26.6872C26.4724 37.1887 26.2972 37.4103 26.2972 37.6839V40.9551C26.2972 41.2284 26.4724 41.4521 26.6872 41.4521H31.404C31.6188 41.4521 31.794 41.2284 31.794 40.9551V37.6839C31.794 37.4103 31.6188 37.1887 31.404 37.1887ZM29.4875 39.3162V40.3046C29.4875 40.4178 29.3928 40.5136 29.2795 40.5136H28.8117C28.6985 40.5136 28.6037 40.4178 28.6037 40.3046V39.3162C28.4939 39.208 28.4299 39.0585 28.4299 38.8931C28.4299 38.5796 28.6722 38.3103 28.9803 38.2978C29.0129 38.2965 29.0783 38.2965 29.111 38.2978C29.4191 38.3103 29.6614 38.5796 29.6614 38.8931C29.6613 39.0585 29.5974 39.208 29.4875 39.3162ZM30.3462 37.1887H29.111H28.9803H27.745V36.5365C27.745 35.8179 28.329 35.2238 29.0456 35.2238C29.7622 35.2238 30.3462 35.8179 30.3462 36.5365V37.1887H30.3462Z" fill="#0FB8AE"/>
<path d="M42.954 37.1887H42.8147V36.5365C42.8147 35.3302 41.8574 34.3225 40.661 34.301C40.6283 34.3004 40.5629 34.3004 40.5303 34.301C39.3338 34.3225 38.3765 35.3302 38.3765 36.5365V37.1887H38.2372C38.0224 37.1887 37.8472 37.4103 37.8472 37.6839V40.9551C37.8472 41.2284 38.0224 41.4521 38.2372 41.4521H42.954C43.1688 41.4521 43.344 41.2284 43.344 40.9551V37.6839C43.344 37.4103 43.1688 37.1887 42.954 37.1887ZM41.0375 39.3162V40.3046C41.0375 40.4178 40.9428 40.5136 40.8295 40.5136H40.3617C40.2485 40.5136 40.1537 40.4178 40.1537 40.3046V39.3162C40.0439 39.208 39.9799 39.0585 39.9799 38.8931C39.9799 38.5796 40.2222 38.3103 40.5303 38.2978C40.5629 38.2965 40.6283 38.2965 40.661 38.2978C40.9691 38.3103 41.2114 38.5796 41.2114 38.8931C41.2113 39.0585 41.1474 39.208 41.0375 39.3162ZM41.8962 37.1887H40.661H40.5303H39.295V36.5365C39.295 35.8179 39.879 35.2238 40.5956 35.2238C41.3122 35.2238 41.8962 35.8179 41.8962 36.5365V37.1887H41.8962Z" fill="#0FB8AE"/>
</g>
<defs>
<clipPath id="clip0">
<rect width="28.875" height="28.875" fill="white" transform="translate(19.8004 18.15)"/>
</clipPath>
</defs>
</svg>
