<svg width="66" height="66" viewBox="0 0 66 66" fill="none" xmlns="http://www.w3.org/2000/svg">
<circle cx="33" cy="33" r="32" stroke="#0FB8AE" stroke-width="2" stroke-dasharray="3 3"/>
<g clip-path="url(#clip0)">
<path d="M31.46 35.7545C31.3431 35.8714 31.2759 36.0335 31.2759 36.1988C31.2759 36.3647 31.3431 36.5262 31.46 36.6431C31.5769 36.7606 31.739 36.8272 31.9043 36.8272C32.0696 36.8272 32.2317 36.7606 32.3485 36.6431C32.4654 36.5262 32.5327 36.364 32.5327 36.1988C32.5327 36.0335 32.4655 35.8714 32.3485 35.7545C32.2317 35.6376 32.0696 35.5703 31.9043 35.5703C31.739 35.5703 31.5769 35.6376 31.46 35.7545Z" fill="#0FB8AE"/>
<path d="M46.1065 38.5253C45.9413 38.5253 45.7791 38.5924 45.6623 38.7094C45.5454 38.8263 45.4781 38.9884 45.4781 39.1537C45.4781 39.319 45.5453 39.4811 45.6623 39.5979C45.7791 39.7148 45.9413 39.7821 46.1065 39.7821C46.2718 39.7821 46.4339 39.7149 46.5508 39.5979C46.6677 39.4811 46.735 39.319 46.735 39.1537C46.735 38.9884 46.6677 38.8263 46.5508 38.7094C46.4339 38.5924 46.2718 38.5253 46.1065 38.5253Z" fill="#0FB8AE"/>
<path d="M48.8716 29.9159H46.1065V24.6438C46.1065 23.1822 45.0702 21.8948 43.6423 21.5827L41.5883 21.1336C42.2939 20.5285 42.7421 19.6316 42.7421 18.6314V16.4968C42.7421 14.6789 41.2632 13.2 39.4453 13.2C37.6274 13.2 36.1485 14.6789 36.1485 16.4968V18.6315C36.1485 19.6304 36.5956 20.5262 37.2996 21.1313L35.246 21.5817C33.8195 21.8947 32.7841 23.1819 32.7841 24.6424V27.4023H29.3906C29.0436 27.4023 28.7622 27.6837 28.7622 28.0307V29.9159H24.3633V28.1564H27.0026C27.3496 28.1564 27.6311 27.875 27.6311 27.5279V20.741C27.6311 20.394 27.3496 20.1126 27.0026 20.1126H17.9534C17.6064 20.1126 17.325 20.394 17.325 20.741V27.5279C17.325 27.875 17.6064 28.1564 17.9534 28.1564H20.5928V29.9159H17.9534C17.6064 29.9159 17.325 30.1973 17.325 30.5443V33.5608C17.325 33.9078 17.6064 34.1892 17.9534 34.1892H20.09V44.7466C20.09 45.0936 20.3714 45.375 20.7185 45.375H46.1065C46.4536 45.375 46.735 45.0936 46.735 44.7466V41.6673C46.735 41.3203 46.4536 41.0389 46.1065 41.0389C45.7595 41.0389 45.4781 41.3203 45.4781 41.6673V44.1182H21.3469V36.8275H29.3906C29.7376 36.8275 30.019 36.5461 30.019 36.199C30.019 35.852 29.7376 35.5706 29.3906 35.5706H21.3469V34.1892H45.4781V36.64C45.4781 36.987 45.7595 37.2684 46.1065 37.2684C46.4536 37.2684 46.735 36.987 46.735 36.64V34.1892H48.8716C49.2186 34.1892 49.5 33.9078 49.5 33.5608V30.5443C49.5 30.1973 49.2186 29.9159 48.8716 29.9159ZM37.4053 18.1863H38.27C39.431 18.1863 40.54 17.8484 41.4853 17.2197V18.6315C41.4853 19.7563 40.5701 20.6715 39.4453 20.6715C38.3205 20.6715 37.4053 19.7563 37.4053 18.6315V18.1863ZM39.4453 21.9283C39.641 21.9283 39.8325 21.9102 40.0189 21.8773L39.4376 23.1862L38.855 21.8744C39.0467 21.9091 39.2438 21.9283 39.4453 21.9283ZM39.4453 14.4568C40.3039 14.4568 41.0397 14.9902 41.3402 15.7428C40.4982 16.5095 39.4165 16.9294 38.27 16.9294H37.4053V16.4968C37.4053 15.372 38.3205 14.4568 39.4453 14.4568ZM34.0409 24.6424C34.0409 23.7677 34.661 22.9968 35.5154 22.8093L37.6839 22.3337L38.8633 24.9894C38.9641 25.2165 39.1893 25.3628 39.4377 25.3628C39.6861 25.3628 39.9112 25.2165 40.0121 24.9894L41.1917 22.3334L43.3741 22.8105C44.229 22.9975 44.8497 23.7685 44.8497 24.6438V29.9159H38.0628V28.0307C38.0628 27.6837 37.7814 27.4023 37.4344 27.4023H34.0409V24.6424ZM30.019 28.6591H36.806V29.9159H33.4125H30.019V28.6591ZM18.5818 21.3694H26.3742V26.8995H24.3534C24.2563 25.9505 23.4523 25.2076 22.478 25.2076C21.5037 25.2076 20.6998 25.9505 20.6026 26.8995H18.5818V21.3694ZM21.8496 27.0929C21.8496 26.7464 22.1315 26.4645 22.478 26.4645C22.8245 26.4645 23.1064 26.7464 23.1064 27.0929V29.9159H21.8496V27.0929ZM48.2432 32.9323H18.5818V31.1728H48.2432V32.9323Z" fill="#0FB8AE"/>
</g>
<defs>
<clipPath id="clip0">
<rect width="32.175" height="32.175" fill="white" transform="translate(17.325 13.2)"/>
</clipPath>
</defs>
</svg>
