<svg width="66" height="66" viewBox="0 0 66 66" fill="none" xmlns="http://www.w3.org/2000/svg">
<circle cx="33" cy="33" r="32" stroke="#0FB8AE" stroke-width="2" stroke-dasharray="3 3"/>
<g clip-path="url(#clip0)">
<path d="M47.0715 41.062L41.0601 37.0531C40.2972 36.5484 39.2746 36.7145 38.7106 37.4347L36.9596 39.6861C36.7346 39.9828 36.3255 40.0689 35.9999 39.888L35.6669 39.7044C34.5627 39.1026 33.1888 38.3533 30.4206 35.5841C27.6525 32.815 26.9017 31.4401 26.2999 30.3379L26.1172 30.0049C25.9339 29.6794 26.0183 29.2686 26.3152 29.0417L28.5651 27.2912C29.285 26.7271 29.4512 25.7049 28.9472 24.9418L24.9383 18.9304C24.4217 18.1533 23.3852 17.92 22.5855 18.4008L20.0717 19.9108C19.2819 20.3751 18.7024 21.1271 18.4548 22.0093C17.5496 25.3074 18.2306 30.9996 26.6157 39.3856C33.2858 46.0553 38.2514 47.8489 41.6644 47.8489C42.4499 47.8523 43.2323 47.7501 43.9906 47.545C44.8729 47.2977 45.625 46.7182 46.0891 45.9281L47.6006 43.4159C48.082 42.616 47.8489 41.5789 47.0715 41.062ZM46.7478 42.9081L45.2397 45.4218C44.9065 45.992 44.3656 46.4113 43.7302 46.5918C40.6854 47.4278 35.3659 46.7354 27.3159 38.6854C19.266 30.6354 18.5736 25.3164 19.4096 22.2711C19.5903 21.635 20.0101 21.0933 20.581 20.7596L23.0948 19.2516C23.4418 19.0428 23.8916 19.144 24.1158 19.4812L26.2935 22.7507L28.1213 25.4921C28.3402 25.8231 28.2682 26.2667 27.956 26.5116L25.7055 28.2622C25.0207 28.7858 24.8251 29.7334 25.2468 30.4854L25.4255 30.8101C26.058 31.9702 26.8444 33.4134 29.7155 36.284C32.5866 39.1545 34.0293 39.941 35.1889 40.5735L35.514 40.7526C36.266 41.1742 37.2136 40.9787 37.7372 40.2939L39.4878 38.0434C39.7328 37.7313 40.1762 37.6595 40.5073 37.8781L46.5182 41.887C46.8557 42.111 46.9569 42.5611 46.7478 42.9081Z" fill="#0FB8AE"/>
<path d="M34.9799 23.1022C39.6246 23.1074 43.3885 26.8714 43.3937 31.516C43.3937 31.7894 43.6152 32.0109 43.8886 32.0109C44.162 32.0109 44.3835 31.7894 44.3835 31.516C44.3778 26.3249 40.171 22.1181 34.9799 22.1124C34.7066 22.1124 34.485 22.334 34.485 22.6073C34.485 22.8807 34.7066 23.1022 34.9799 23.1022Z" fill="#0FB8AE"/>
<path d="M34.9799 26.0718C37.9852 26.0753 40.4206 28.5107 40.4241 31.516C40.4241 31.7894 40.6457 32.0109 40.919 32.0109C41.1924 32.0109 41.4139 31.7894 41.4139 31.516C41.4098 27.9642 38.5316 25.086 34.9799 25.082C34.7066 25.082 34.485 25.3035 34.485 25.5769C34.485 25.8502 34.7066 26.0718 34.9799 26.0718Z" fill="#0FB8AE"/>
<path d="M34.9799 29.0413C36.3459 29.043 37.4529 30.1499 37.4546 31.516C37.4546 31.7893 37.6762 32.0109 37.9495 32.0109C38.2228 32.0109 38.4444 31.7893 38.4444 31.516C38.4422 29.6035 36.8924 28.0537 34.9799 28.0515C34.7066 28.0515 34.485 28.2731 34.485 28.5464C34.485 28.8198 34.7066 29.0413 34.9799 29.0413Z" fill="#0FB8AE"/>
</g>
<defs>
<clipPath id="clip0">
<rect width="29.7" height="29.7" fill="white" transform="translate(18.1508 18.1498)"/>
</clipPath>
</defs>
</svg>
