<svg width="26" height="27" viewBox="0 0 26 27" fill="none" xmlns="http://www.w3.org/2000/svg">
<path d="M9.22412 14.4053C9.22412 14.0782 8.95881 13.8132 8.63146 13.8132H6.56329C6.23631 13.8132 5.97095 14.0782 5.97095 14.4053V16.4732C5.97095 16.8007 6.23631 17.0658 6.56329 17.0658H8.63146C8.95881 17.0658 9.22412 16.8007 9.22412 16.4732V14.4053Z" fill="#0FB8AE"/>
<path d="M14.3925 14.4053C14.3925 14.0782 14.1271 13.8132 13.8004 13.8132H11.732C11.405 13.8132 11.1396 14.0782 11.1396 14.4053V16.4732C11.1396 16.8007 11.405 17.0658 11.732 17.0658H13.8004C14.1271 17.0658 14.3925 16.8007 14.3925 16.4732V14.4053Z" fill="#0FB8AE"/>
<path d="M19.5618 14.4053C19.5618 14.0782 19.2964 13.8132 18.9694 13.8132H16.9013C16.5739 13.8132 16.3086 14.0782 16.3086 14.4053V16.4732C16.3086 16.8007 16.5739 17.0658 16.9013 17.0658H18.9694C19.2964 17.0658 19.5618 16.8007 19.5618 16.4732V14.4053Z" fill="#0FB8AE"/>
<path d="M9.22412 19.5743C9.22412 19.2467 8.95881 18.9819 8.63146 18.9819H6.56329C6.23631 18.9819 5.97095 19.2467 5.97095 19.5743V21.6419C5.97095 21.9692 6.23631 22.2342 6.56329 22.2342H8.63146C8.95881 22.2342 9.22412 21.9691 9.22412 21.6419V19.5743Z" fill="#0FB8AE"/>
<path d="M14.3925 19.5743C14.3925 19.2467 14.1271 18.9819 13.8004 18.9819H11.732C11.405 18.9819 11.1396 19.2467 11.1396 19.5743V21.6419C11.1396 21.9692 11.405 22.2342 11.732 22.2342H13.8004C14.1271 22.2342 14.3925 21.9691 14.3925 21.6419V19.5743Z" fill="#0FB8AE"/>
<path d="M19.5618 19.5743C19.5618 19.2467 19.2964 18.9819 18.9697 18.9819H16.9013C16.5739 18.9819 16.3086 19.2467 16.3086 19.5743V21.6419C16.3086 21.9692 16.5739 22.2342 16.9013 22.2342H18.9697C19.2964 22.2342 19.5618 21.9691 19.5618 21.6419V19.5743Z" fill="#0FB8AE"/>
<path d="M23.2595 2.90734V6.06589C23.2595 7.49352 22.1014 8.64397 20.6739 8.64397H19.0429C17.6154 8.64397 16.4418 7.49352 16.4418 6.06589V2.896H9.09026V6.06589C9.09026 7.49352 7.91681 8.64397 6.4895 8.64397H4.85812C3.43076 8.64397 2.27266 7.49352 2.27266 6.06589V2.90734C1.02513 2.94494 -1.20387e-08 3.97723 -1.20387e-08 5.24605V23.7567C-1.20387e-08 25.0493 1.04775 26.111 2.34043 26.111H23.1917C24.4824 26.111 25.5321 25.0471 25.5321 23.7567V5.24605C25.5321 3.97723 24.507 2.94494 23.2595 2.90734ZM22.5019 22.604C22.5019 23.1626 22.049 23.6158 21.4901 23.6158H3.99743C3.43857 23.6158 2.98562 23.1626 2.98562 22.604V13.0426C2.98562 12.4837 3.43851 12.0305 3.99743 12.0305H21.4901C22.0489 12.0305 22.5019 12.4837 22.5019 13.0426L22.5019 22.604Z" fill="#0FB8AE"/>
<path d="M4.85281 6.95069H6.46616C6.95586 6.95069 7.35291 6.55422 7.35291 6.06453V0.88648C7.35291 0.396731 6.95586 0 6.46616 0H4.85281C4.36306 0 3.96606 0.396731 3.96606 0.88648V6.06453C3.96606 6.55422 4.36306 6.95069 4.85281 6.95069Z" fill="#0FB8AE"/>
<path d="M19.0222 6.95069H20.6355C21.1249 6.95069 21.522 6.55422 21.522 6.06453V0.88648C21.522 0.396731 21.125 0 20.6355 0H19.0222C18.5326 0 18.1355 0.396731 18.1355 0.88648V6.06453C18.1355 6.55422 18.5326 6.95069 19.0222 6.95069Z" fill="#0FB8AE"/>
</svg>
