<svg width="33" height="25" viewBox="0 0 33 25" fill="none" xmlns="http://www.w3.org/2000/svg">
<path d="M23.6737 8.92857C23.6737 3.99554 18.3756 0 11.8369 0C5.29814 0 0 3.99554 0 8.92857C0 10.8426 0.802403 12.606 2.16251 14.0625C1.39994 15.7478 0.14227 17.0871 0.125198 17.1038C0 17.2321 -0.0341448 17.4219 0.0398356 17.5893C0.113816 17.7567 0.273159 17.8571 0.455264 17.8571C2.5381 17.8571 4.26241 17.1708 5.50301 16.4621C7.33544 17.3382 9.50364 17.8571 11.8369 17.8571C18.3756 17.8571 23.6737 13.8616 23.6737 8.92857ZM30.6165 21.2054C31.9766 19.7545 32.779 17.9855 32.779 16.0714C32.779 12.3382 29.7344 9.14062 25.4208 7.80692C25.472 8.17522 25.4948 8.54911 25.4948 8.92857C25.4948 14.8382 19.3658 19.6429 11.8369 19.6429C11.2223 19.6429 10.6247 19.5982 10.0329 19.5368C11.8255 22.7455 16.0367 25 20.9422 25C23.2754 25 25.4436 24.4866 27.276 23.6049C28.5166 24.3136 30.2409 25 32.3238 25C32.5059 25 32.6709 24.894 32.7392 24.7321C32.8132 24.5703 32.779 24.3806 32.6538 24.2467C32.6368 24.2299 31.3791 22.8962 30.6165 21.2054Z" fill="white"/>
</svg>
