<svg width="26" height="26" viewBox="0 0 26 26" fill="none" xmlns="http://www.w3.org/2000/svg">
<path d="M12.9998 0C5.82028 0 0 5.82046 0 12.9998C0 20.1791 5.82028 26 12.9998 26C20.1793 26 26 20.1791 26 12.9998C26 5.82046 20.1793 0 12.9998 0ZM18.6199 15.4723H13.1086C13.0899 15.4723 13.0726 15.4678 13.0541 15.4671C13.0357 15.468 13.0184 15.4723 12.9997 15.4723C12.5032 15.4723 12.1006 15.0698 12.1006 14.5732V5.395C12.1006 4.89848 12.5032 4.49591 12.9997 4.49591C13.4962 4.49591 13.8988 4.89848 13.8988 5.395V13.6741H18.6196C19.1161 13.6741 19.5187 14.0767 19.5187 14.5732C19.5187 15.0698 19.1165 15.4723 18.6199 15.4723Z" fill="#0FB8AE"/>
</svg>
