<svg width="26" height="26" viewBox="0 0 26 26" fill="none" xmlns="http://www.w3.org/2000/svg">
<path d="M4.13187 5.128C5.54792 5.128 6.69587 3.98005 6.69587 2.564C6.69587 1.14794 5.54792 0 4.13187 0C2.71581 0 1.56787 1.14794 1.56787 2.564C1.56787 3.98005 2.71581 5.128 4.13187 5.128Z" fill="#0FB8AE"/>
<path d="M1.2714 14.1124H1.52568V19.198C1.52568 19.8975 2.09782 20.4694 2.79709 20.4694H5.46704C6.16631 20.4694 6.73844 19.8975 6.73844 19.198V18.9015C6.50535 18.4563 6.35702 17.948 6.35702 17.4182V10.7645C6.35702 9.47195 7.14105 8.34888 8.26413 7.86151V7.35295C8.26413 6.65367 7.69199 6.08154 6.99272 6.08154H1.2714C0.572132 6.08154 0 6.65367 0 7.35295V12.8412C0 13.5404 0.550942 14.1124 1.2714 14.1124Z" fill="#0FB8AE"/>
<path d="M21.889 5.128C23.305 5.128 24.453 3.98005 24.453 2.564C24.453 1.14794 23.305 0 21.889 0C20.4729 0 19.325 1.14794 19.325 2.564C19.325 3.98005 20.4729 5.128 21.889 5.128Z" fill="#0FB8AE"/>
<path d="M17.7361 7.33171V7.84027C18.8594 8.32764 19.6432 9.45071 19.6432 10.7433V17.3758C19.6432 17.9056 19.5161 18.4141 19.262 18.8591V19.1558C19.262 19.855 19.8339 20.4272 20.5334 20.4272H23.2033C23.9026 20.4272 24.4747 19.855 24.4747 19.1558V14.0701H24.7288C25.4283 14.0701 26.0002 13.498 26.0002 12.7987V7.33171C26.0002 6.63243 25.4283 6.0603 24.7288 6.0603H19.0075C18.3084 6.0603 17.7361 6.63222 17.7361 7.33171Z" fill="#0FB8AE"/>
<path d="M8.28564 10.7644V12.841V17.418C8.28564 18.1173 8.85778 18.6894 9.55705 18.6894H10.0444V24.6862C10.0444 25.3855 10.6166 25.9576 11.3158 25.9576H14.7274C15.4267 25.9576 15.9988 25.3855 15.9988 24.6862V18.6683H16.4862C17.1855 18.6683 17.7576 18.0963 17.7576 17.3968V12.8412V10.7646C17.7576 10.0653 17.1855 9.49316 16.4862 9.49316H9.55705C8.83659 9.49295 8.28564 10.0653 8.28564 10.7644Z" fill="#0FB8AE"/>
<path d="M13.0104 8.4338C14.6371 8.4338 15.9558 7.1151 15.9558 5.48839C15.9558 3.86168 14.6371 2.54297 13.0104 2.54297C11.3837 2.54297 10.0649 3.86168 10.0649 5.48839C10.0649 7.1151 11.3837 8.4338 13.0104 8.4338Z" fill="#0FB8AE"/>
</svg>
