<svg width="16" height="16" viewBox="0 0 16 16" fill="none" xmlns="http://www.w3.org/2000/svg">
<path d="M11.0861 8.5H4.91561C4.82792 8.5 4.75708 8.57225 4.75933 8.65991C4.77799 9.38322 4.82699 10.0742 4.90152 10.7275C4.91224 10.8215 5.00302 10.885 5.0947 10.8617C6.03808 10.6213 7.01027 10.5 8.00086 10.5C8.99145 10.5 9.96364 10.6213 10.907 10.8617C10.9987 10.885 11.0895 10.8215 11.1002 10.7275C11.1747 10.0742 11.2237 9.38319 11.2424 8.65991C11.2446 8.57225 11.1738 8.5 11.0861 8.5Z" fill="#0FB8AE"/>
<path d="M11.1002 5.27255C11.0895 5.17855 10.9987 5.11505 10.907 5.1384C9.96365 5.37877 8.99146 5.50012 8.00086 5.50012C7.01027 5.50012 6.03808 5.37877 5.09471 5.13843C5.00305 5.11508 4.91224 5.17858 4.90152 5.27258C4.82699 5.92596 4.77799 6.61693 4.75933 7.34021C4.75708 7.4279 4.82789 7.50012 4.91561 7.50012H11.0861C11.1738 7.50012 11.2446 7.42787 11.2424 7.34021C11.2237 6.6169 11.1747 5.92593 11.1002 5.27255Z" fill="#0FB8AE"/>
<path d="M10.9057 3.95375C10.6257 2.40453 10.1965 1.134 9.70122 0.236125C9.67916 0.196125 9.64047 0.167906 9.59569 0.158875C9.07585 0.054125 8.54188 0 7.9995 0C7.45713 0 6.92316 0.054125 6.40332 0.158906C6.35854 0.167938 6.31985 0.196156 6.29779 0.236156C5.80247 1.134 5.37332 2.40453 5.09332 3.95378C5.07897 4.03309 5.12775 4.11078 5.20557 4.13175C6.09682 4.37181 7.03347 4.5 7.9995 4.5C8.96554 4.5 9.90219 4.37181 10.7934 4.13172C10.8713 4.11078 10.92 4.03306 10.9057 3.95375Z" fill="#0FB8AE"/>
<path d="M11.3275 0.719839C11.2002 0.66162 11.0675 0.788745 11.1179 0.91937C11.1187 0.921683 11.1197 0.923995 11.1205 0.926308C11.4247 1.71706 11.6717 2.61478 11.8566 3.58562C11.8751 3.68265 11.9784 3.73793 12.0697 3.70043C12.6848 3.44803 13.2714 3.14006 13.8234 2.78306C13.9052 2.73021 13.9199 2.61625 13.8536 2.545C13.7901 2.47678 13.7253 2.40946 13.659 2.34321C12.9731 1.65718 12.1842 1.11153 11.3275 0.719839Z" fill="#0FB8AE"/>
<path d="M12.3993 7.50016H15.8175C15.9091 7.50016 15.9809 7.42169 15.9734 7.33037C15.8629 5.98916 15.4216 4.71575 14.6886 3.60547C14.6407 3.53281 14.5433 3.51316 14.4707 3.56112C13.8736 3.95559 13.2407 4.29513 12.5752 4.57656C12.4387 4.63431 12.3014 4.68928 12.1634 4.74162C12.0956 4.76731 12.0542 4.83547 12.0632 4.90737C12.1616 5.69172 12.2226 6.50991 12.2434 7.34744C12.2455 7.43231 12.3145 7.50016 12.3993 7.50016Z" fill="#0FB8AE"/>
<path d="M5.09332 12.0463C5.37332 13.5955 5.80247 14.866 6.29779 15.7639C6.31985 15.8039 6.35854 15.8321 6.40332 15.8411C6.92316 15.9459 7.45713 16 7.9995 16C8.54188 16 9.07585 15.9459 9.59569 15.8411C9.64047 15.8321 9.67916 15.8038 9.70122 15.7638C10.1965 14.866 10.6257 13.5955 10.9057 12.0462C10.92 11.9669 10.8713 11.8892 10.7934 11.8682C9.90219 11.6282 8.96554 11.5 7.9995 11.5C7.03347 11.5 6.09682 11.6282 5.20557 11.8683C5.12775 11.8892 5.07897 11.9669 5.09332 12.0463Z" fill="#0FB8AE"/>
<path d="M3.42702 11.4236C3.56352 11.3658 3.70083 11.3108 3.83889 11.2585C3.90664 11.2328 3.94805 11.1647 3.93902 11.0927C3.84064 10.3084 3.77971 9.49022 3.75889 8.65269C3.75677 8.56784 3.6878 8.5 3.60293 8.5H0.184738C0.0931132 8.5 0.021332 8.57847 0.0288632 8.66978C0.139332 10.011 0.580738 11.2844 1.31361 12.3947C1.36155 12.4673 1.45893 12.487 1.53155 12.439C2.12864 12.0445 2.76158 11.705 3.42702 11.4236Z" fill="#0FB8AE"/>
<path d="M13.821 13.217C13.269 12.86 12.6824 12.552 12.0673 12.2997C11.9759 12.2622 11.8726 12.3175 11.8542 12.4145C11.6693 13.3853 11.4222 14.283 11.1181 15.0738C11.1172 15.0761 11.1163 15.0784 11.1154 15.0807C11.0651 15.2114 11.1977 15.3385 11.3251 15.2803C12.1818 14.8886 12.9706 14.3429 13.6566 13.6569C13.7229 13.5906 13.7877 13.5233 13.8512 13.4551C13.9174 13.3839 13.9027 13.2699 13.821 13.217Z" fill="#0FB8AE"/>
<path d="M12.2434 8.65272C12.2226 9.49025 12.1616 10.3085 12.0632 11.0928C12.0542 11.1647 12.0956 11.2328 12.1634 11.2585C12.3014 11.3109 12.4387 11.3658 12.5752 11.4236C13.2407 11.7051 13.8736 12.0446 14.4707 12.439C14.5433 12.487 14.6407 12.4673 14.6886 12.3947C15.4215 11.2844 15.8629 10.011 15.9734 8.66978C15.9809 8.57847 15.9091 8.5 15.8175 8.5H12.3993C12.3145 8.50003 12.2455 8.56787 12.2434 8.65272Z" fill="#0FB8AE"/>
<path d="M2.17976 2.78306C2.73179 3.14006 3.31838 3.44806 3.93344 3.70043C4.02482 3.73793 4.12813 3.68265 4.1466 3.58562C4.33148 2.61478 4.57851 1.71706 4.88266 0.926308C4.88354 0.923995 4.88444 0.921683 4.88532 0.91937C4.93566 0.788745 4.80301 0.66162 4.67569 0.719839C3.81901 1.11156 3.03016 1.65721 2.34413 2.34321C2.27788 2.40946 2.2131 2.47678 2.1496 2.54499C2.08332 2.61624 2.09804 2.73021 2.17976 2.78306Z" fill="#0FB8AE"/>
<path d="M3.75555 7.4999C3.77246 6.60912 3.83471 5.73906 3.93902 4.90712C3.94805 4.83522 3.90664 4.76706 3.83889 4.74137C3.70083 4.68903 3.56352 4.63406 3.42702 4.57631C2.76158 4.29484 2.12864 3.95531 1.53155 3.56087C1.45893 3.5129 1.36158 3.53259 1.31361 3.60522C0.580738 4.7155 0.139332 5.9889 0.0288632 7.33012C0.021332 7.42144 0.0931132 7.4999 0.184738 7.4999H3.75555Z" fill="#0FB8AE"/>
<path d="M4.6757 15.2803C4.80301 15.3385 4.93567 15.2114 4.88533 15.0807C4.88445 15.0784 4.88355 15.0761 4.88267 15.0738C4.57855 14.283 4.33148 13.3853 4.14661 12.4145C4.12814 12.3175 4.02483 12.2622 3.93345 12.2997C3.31839 12.5521 2.73179 12.86 2.17976 13.217C2.09801 13.2699 2.08332 13.3839 2.14964 13.4551C2.21314 13.5233 2.27792 13.5906 2.34417 13.6569C3.03014 14.3429 3.81898 14.8886 4.6757 15.2803Z" fill="#0FB8AE"/>
</svg>
