<svg width="739" height="316" viewBox="0 0 739 316" fill="none" xmlns="http://www.w3.org/2000/svg">
<path d="M35 269.5H29" stroke="#2C3B58"/>
<path d="M15.2539 269.81C15.2539 271.241 14.985 272.321 14.4473 273.05C13.9141 273.774 13.1006 274.137 12.0068 274.137C10.9313 274.137 10.1201 273.784 9.57324 273.077C9.03092 272.366 8.75293 271.316 8.73926 269.926V268.203C8.73926 266.772 9.00586 265.699 9.53906 264.983C10.0768 264.268 10.8949 263.91 11.9932 263.91C13.0824 263.91 13.8936 264.259 14.4268 264.956C14.9645 265.653 15.2402 266.697 15.2539 268.087V269.81ZM13.5928 267.95C13.5928 267.016 13.4652 266.332 13.21 265.899C12.9548 265.462 12.5492 265.243 11.9932 265.243C11.4508 265.243 11.0521 265.451 10.7969 265.865C10.5417 266.275 10.4072 266.918 10.3936 267.793V270.049C10.3936 270.979 10.5234 271.671 10.7832 272.127C11.043 272.583 11.4508 272.811 12.0068 272.811C12.54 272.811 12.9342 272.601 13.1895 272.182C13.4447 271.758 13.5791 271.097 13.5928 270.199V267.95Z" fill="#2C3B58"/>
<path d="M61.6016 306H52.9971V304.532L57.2598 299.883C57.875 299.197 58.3115 298.626 58.5693 298.169C58.833 297.706 58.9648 297.243 58.9648 296.78C58.9648 296.171 58.792 295.679 58.4463 295.304C58.1064 294.929 57.6465 294.741 57.0664 294.741C56.375 294.741 55.8389 294.952 55.458 295.374C55.0771 295.796 54.8867 296.373 54.8867 297.105H52.751C52.751 296.326 52.9268 295.626 53.2783 295.005C53.6357 294.378 54.1426 293.892 54.7988 293.546C55.4609 293.2 56.2227 293.027 57.084 293.027C58.3262 293.027 59.3047 293.341 60.0195 293.968C60.7402 294.589 61.1006 295.45 61.1006 296.552C61.1006 297.19 60.9189 297.861 60.5557 298.564C60.1982 299.262 59.6094 300.056 58.7891 300.946L55.6602 304.295H61.6016V306ZM71.5684 300.612C71.5684 302.452 71.2227 303.841 70.5312 304.778C69.8457 305.71 68.7998 306.176 67.3936 306.176C66.0107 306.176 64.9678 305.722 64.2646 304.813C63.5674 303.899 63.21 302.549 63.1924 300.762V298.547C63.1924 296.707 63.5352 295.327 64.2207 294.407C64.9121 293.487 65.9639 293.027 67.376 293.027C68.7764 293.027 69.8193 293.476 70.5049 294.372C71.1963 295.269 71.5508 296.61 71.5684 298.397V300.612ZM69.4326 298.222C69.4326 297.021 69.2686 296.142 68.9404 295.585C68.6123 295.022 68.0908 294.741 67.376 294.741C66.6787 294.741 66.166 295.008 65.8379 295.541C65.5098 296.068 65.3369 296.895 65.3193 298.02V300.92C65.3193 302.115 65.4863 303.006 65.8203 303.592C66.1543 304.178 66.6787 304.471 67.3936 304.471C68.0791 304.471 68.5859 304.201 68.9141 303.662C69.2422 303.117 69.415 302.268 69.4326 301.113V298.222ZM79.2412 306H77.1143V295.726L73.9766 296.798V294.996L78.9688 293.159H79.2412V306ZM90.9131 301.438H92.5039V303.152H90.9131V306H88.7773V303.152H83.249L83.1875 301.852L88.707 293.203H90.9131V301.438ZM85.4287 301.438H88.7773V296.095L88.6191 296.376L85.4287 301.438Z" fill="#2C3B58"/>
<path d="M103 267H42V272H103V267Z" fill="#0FB8AE"/>
<path d="M167.602 306H158.997V304.532L163.26 299.883C163.875 299.197 164.312 298.626 164.569 298.169C164.833 297.706 164.965 297.243 164.965 296.78C164.965 296.171 164.792 295.679 164.446 295.304C164.106 294.929 163.646 294.741 163.066 294.741C162.375 294.741 161.839 294.952 161.458 295.374C161.077 295.796 160.887 296.373 160.887 297.105H158.751C158.751 296.326 158.927 295.626 159.278 295.005C159.636 294.378 160.143 293.892 160.799 293.546C161.461 293.2 162.223 293.027 163.084 293.027C164.326 293.027 165.305 293.341 166.02 293.968C166.74 294.589 167.101 295.45 167.101 296.552C167.101 297.19 166.919 297.861 166.556 298.564C166.198 299.262 165.609 300.056 164.789 300.946L161.66 304.295H167.602V306ZM177.568 300.612C177.568 302.452 177.223 303.841 176.531 304.778C175.846 305.71 174.8 306.176 173.394 306.176C172.011 306.176 170.968 305.722 170.265 304.813C169.567 303.899 169.21 302.549 169.192 300.762V298.547C169.192 296.707 169.535 295.327 170.221 294.407C170.912 293.487 171.964 293.027 173.376 293.027C174.776 293.027 175.819 293.476 176.505 294.372C177.196 295.269 177.551 296.61 177.568 298.397V300.612ZM175.433 298.222C175.433 297.021 175.269 296.142 174.94 295.585C174.612 295.022 174.091 294.741 173.376 294.741C172.679 294.741 172.166 295.008 171.838 295.541C171.51 296.068 171.337 296.895 171.319 298.02V300.92C171.319 302.115 171.486 303.006 171.82 303.592C172.154 304.178 172.679 304.471 173.394 304.471C174.079 304.471 174.586 304.201 174.914 303.662C175.242 303.117 175.415 302.268 175.433 301.113V298.222ZM185.241 306H183.114V295.726L179.977 296.798V294.996L184.969 293.159H185.241V306ZM190.26 299.654L190.954 293.203H197.827V295.049H192.729L192.378 298.107C192.97 297.768 193.638 297.598 194.382 297.598C195.601 297.598 196.547 297.987 197.221 298.767C197.9 299.546 198.24 300.595 198.24 301.913C198.24 303.214 197.865 304.251 197.115 305.024C196.365 305.792 195.337 306.176 194.03 306.176C192.858 306.176 191.886 305.845 191.112 305.183C190.345 304.515 189.929 303.636 189.864 302.546H191.93C192.012 303.167 192.234 303.645 192.598 303.979C192.961 304.307 193.436 304.471 194.021 304.471C194.678 304.471 195.188 304.236 195.551 303.768C195.92 303.299 196.104 302.66 196.104 301.852C196.104 301.072 195.902 300.457 195.498 300.006C195.094 299.549 194.537 299.32 193.828 299.32C193.441 299.32 193.113 299.373 192.844 299.479C192.574 299.578 192.281 299.777 191.965 300.076L190.26 299.654Z" fill="#2C3B58"/>
<path d="M209 244H148V272H209V244Z" fill="#0FB8AE"/>
<path d="M273.602 306H264.997V304.532L269.26 299.883C269.875 299.197 270.312 298.626 270.569 298.169C270.833 297.706 270.965 297.243 270.965 296.78C270.965 296.171 270.792 295.679 270.446 295.304C270.106 294.929 269.646 294.741 269.066 294.741C268.375 294.741 267.839 294.952 267.458 295.374C267.077 295.796 266.887 296.373 266.887 297.105H264.751C264.751 296.326 264.927 295.626 265.278 295.005C265.636 294.378 266.143 293.892 266.799 293.546C267.461 293.2 268.223 293.027 269.084 293.027C270.326 293.027 271.305 293.341 272.02 293.968C272.74 294.589 273.101 295.45 273.101 296.552C273.101 297.19 272.919 297.861 272.556 298.564C272.198 299.262 271.609 300.056 270.789 300.946L267.66 304.295H273.602V306ZM283.568 300.612C283.568 302.452 283.223 303.841 282.531 304.778C281.846 305.71 280.8 306.176 279.394 306.176C278.011 306.176 276.968 305.722 276.265 304.813C275.567 303.899 275.21 302.549 275.192 300.762V298.547C275.192 296.707 275.535 295.327 276.221 294.407C276.912 293.487 277.964 293.027 279.376 293.027C280.776 293.027 281.819 293.476 282.505 294.372C283.196 295.269 283.551 296.61 283.568 298.397V300.612ZM281.433 298.222C281.433 297.021 281.269 296.142 280.94 295.585C280.612 295.022 280.091 294.741 279.376 294.741C278.679 294.741 278.166 295.008 277.838 295.541C277.51 296.068 277.337 296.895 277.319 298.02V300.92C277.319 302.115 277.486 303.006 277.82 303.592C278.154 304.178 278.679 304.471 279.394 304.471C280.079 304.471 280.586 304.201 280.914 303.662C281.242 303.117 281.415 302.268 281.433 301.113V298.222ZM291.241 306H289.114V295.726L285.977 296.798V294.996L290.969 293.159H291.241V306ZM302.333 293.142V294.908H302.069C300.874 294.926 299.919 295.254 299.204 295.893C298.489 296.531 298.064 297.437 297.93 298.608C298.615 297.888 299.491 297.527 300.558 297.527C301.688 297.527 302.579 297.926 303.229 298.723C303.886 299.52 304.214 300.548 304.214 301.808C304.214 303.108 303.83 304.163 303.062 304.972C302.301 305.774 301.299 306.176 300.057 306.176C298.779 306.176 297.742 305.704 296.945 304.761C296.154 303.817 295.759 302.581 295.759 301.052V300.322C295.759 298.078 296.304 296.32 297.394 295.049C298.489 293.777 300.062 293.142 302.113 293.142H302.333ZM300.039 299.25C299.57 299.25 299.14 299.382 298.747 299.646C298.36 299.909 298.076 300.261 297.895 300.7V301.351C297.895 302.3 298.094 303.056 298.492 303.618C298.891 304.175 299.406 304.453 300.039 304.453C300.672 304.453 301.173 304.216 301.542 303.741C301.911 303.267 302.096 302.643 302.096 301.869C302.096 301.096 301.908 300.466 301.533 299.979C301.158 299.493 300.66 299.25 300.039 299.25Z" fill="#2C3B58"/>
<path d="M315 229H254V272H315V229Z" fill="#0FB8AE"/>
<path d="M379.602 306H370.997V304.532L375.26 299.883C375.875 299.197 376.312 298.626 376.569 298.169C376.833 297.706 376.965 297.243 376.965 296.78C376.965 296.171 376.792 295.679 376.446 295.304C376.106 294.929 375.646 294.741 375.066 294.741C374.375 294.741 373.839 294.952 373.458 295.374C373.077 295.796 372.887 296.373 372.887 297.105H370.751C370.751 296.326 370.927 295.626 371.278 295.005C371.636 294.378 372.143 293.892 372.799 293.546C373.461 293.2 374.223 293.027 375.084 293.027C376.326 293.027 377.305 293.341 378.02 293.968C378.74 294.589 379.101 295.45 379.101 296.552C379.101 297.19 378.919 297.861 378.556 298.564C378.198 299.262 377.609 300.056 376.789 300.946L373.66 304.295H379.602V306ZM389.568 300.612C389.568 302.452 389.223 303.841 388.531 304.778C387.846 305.71 386.8 306.176 385.394 306.176C384.011 306.176 382.968 305.722 382.265 304.813C381.567 303.899 381.21 302.549 381.192 300.762V298.547C381.192 296.707 381.535 295.327 382.221 294.407C382.912 293.487 383.964 293.027 385.376 293.027C386.776 293.027 387.819 293.476 388.505 294.372C389.196 295.269 389.551 296.61 389.568 298.397V300.612ZM387.433 298.222C387.433 297.021 387.269 296.142 386.94 295.585C386.612 295.022 386.091 294.741 385.376 294.741C384.679 294.741 384.166 295.008 383.838 295.541C383.51 296.068 383.337 296.895 383.319 298.02V300.92C383.319 302.115 383.486 303.006 383.82 303.592C384.154 304.178 384.679 304.471 385.394 304.471C386.079 304.471 386.586 304.201 386.914 303.662C387.242 303.117 387.415 302.268 387.433 301.113V298.222ZM397.241 306H395.114V295.726L391.977 296.798V294.996L396.969 293.159H397.241V306ZM410.205 294.39L405.09 306H402.849L407.955 294.917H401.337V293.203H410.205V294.39Z" fill="#2C3B58"/>
<path d="M421 198H360V272H421V198Z" fill="#0FB8AE"/>
<path d="M485.602 306H476.997V304.532L481.26 299.883C481.875 299.197 482.312 298.626 482.569 298.169C482.833 297.706 482.965 297.243 482.965 296.78C482.965 296.171 482.792 295.679 482.446 295.304C482.106 294.929 481.646 294.741 481.066 294.741C480.375 294.741 479.839 294.952 479.458 295.374C479.077 295.796 478.887 296.373 478.887 297.105H476.751C476.751 296.326 476.927 295.626 477.278 295.005C477.636 294.378 478.143 293.892 478.799 293.546C479.461 293.2 480.223 293.027 481.084 293.027C482.326 293.027 483.305 293.341 484.02 293.968C484.74 294.589 485.101 295.45 485.101 296.552C485.101 297.19 484.919 297.861 484.556 298.564C484.198 299.262 483.609 300.056 482.789 300.946L479.66 304.295H485.602V306ZM495.568 300.612C495.568 302.452 495.223 303.841 494.531 304.778C493.846 305.71 492.8 306.176 491.394 306.176C490.011 306.176 488.968 305.722 488.265 304.813C487.567 303.899 487.21 302.549 487.192 300.762V298.547C487.192 296.707 487.535 295.327 488.221 294.407C488.912 293.487 489.964 293.027 491.376 293.027C492.776 293.027 493.819 293.476 494.505 294.372C495.196 295.269 495.551 296.61 495.568 298.397V300.612ZM493.433 298.222C493.433 297.021 493.269 296.142 492.94 295.585C492.612 295.022 492.091 294.741 491.376 294.741C490.679 294.741 490.166 295.008 489.838 295.541C489.51 296.068 489.337 296.895 489.319 298.02V300.92C489.319 302.115 489.486 303.006 489.82 303.592C490.154 304.178 490.679 304.471 491.394 304.471C492.079 304.471 492.586 304.201 492.914 303.662C493.242 303.117 493.415 302.268 493.433 301.113V298.222ZM503.241 306H501.114V295.726L497.977 296.798V294.996L502.969 293.159H503.241V306ZM515.748 296.578C515.748 297.205 515.587 297.765 515.265 298.257C514.942 298.743 514.503 299.127 513.946 299.408C514.614 299.719 515.127 300.144 515.484 300.683C515.848 301.222 516.029 301.831 516.029 302.511C516.029 303.636 515.648 304.529 514.887 305.191C514.125 305.848 513.111 306.176 511.846 306.176C510.574 306.176 509.555 305.845 508.787 305.183C508.025 304.521 507.645 303.63 507.645 302.511C507.645 301.825 507.826 301.21 508.189 300.665C508.553 300.12 509.062 299.701 509.719 299.408C509.168 299.127 508.731 298.743 508.409 298.257C508.093 297.765 507.935 297.205 507.935 296.578C507.935 295.488 508.286 294.624 508.989 293.985C509.692 293.347 510.642 293.027 511.837 293.027C513.038 293.027 513.99 293.347 514.693 293.985C515.396 294.624 515.748 295.488 515.748 296.578ZM513.894 302.405C513.894 301.772 513.703 301.263 513.322 300.876C512.947 300.483 512.449 300.287 511.828 300.287C511.207 300.287 510.709 300.48 510.334 300.867C509.965 301.254 509.78 301.767 509.78 302.405C509.78 303.032 509.962 303.533 510.325 303.908C510.694 304.283 511.201 304.471 511.846 304.471C512.49 304.471 512.991 304.289 513.349 303.926C513.712 303.562 513.894 303.056 513.894 302.405ZM513.621 296.657C513.621 296.101 513.46 295.644 513.138 295.286C512.815 294.923 512.382 294.741 511.837 294.741C511.292 294.741 510.861 294.914 510.545 295.26C510.229 295.6 510.07 296.065 510.07 296.657C510.07 297.243 510.229 297.709 510.545 298.055C510.867 298.4 511.301 298.573 511.846 298.573C512.391 298.573 512.821 298.4 513.138 298.055C513.46 297.709 513.621 297.243 513.621 296.657Z" fill="#2C3B58"/>
<path d="M527 149H466V272H527V149Z" fill="#0FB8AE"/>
<path d="M591.602 305.36H582.997V303.893L587.26 299.243C587.875 298.558 588.312 297.986 588.569 297.529C588.833 297.066 588.965 296.604 588.965 296.141C588.965 295.531 588.792 295.039 588.446 294.664C588.106 294.289 587.646 294.102 587.066 294.102C586.375 294.102 585.839 294.312 585.458 294.734C585.077 295.156 584.887 295.733 584.887 296.466H582.751C582.751 295.687 582.927 294.986 583.278 294.365C583.636 293.738 584.143 293.252 584.799 292.906C585.461 292.561 586.223 292.388 587.084 292.388C588.326 292.388 589.305 292.701 590.02 293.328C590.74 293.949 591.101 294.811 591.101 295.912C591.101 296.551 590.919 297.222 590.556 297.925C590.198 298.622 589.609 299.416 588.789 300.307L585.66 303.655H591.602V305.36ZM601.568 299.973C601.568 301.812 601.223 303.201 600.531 304.139C599.846 305.07 598.8 305.536 597.394 305.536C596.011 305.536 594.968 305.082 594.265 304.174C593.567 303.26 593.21 301.909 593.192 300.122V297.907C593.192 296.067 593.535 294.688 594.221 293.768C594.912 292.848 595.964 292.388 597.376 292.388C598.776 292.388 599.819 292.836 600.505 293.732C601.196 294.629 601.551 295.971 601.568 297.758V299.973ZM599.433 297.582C599.433 296.381 599.269 295.502 598.94 294.945C598.612 294.383 598.091 294.102 597.376 294.102C596.679 294.102 596.166 294.368 595.838 294.901C595.51 295.429 595.337 296.255 595.319 297.38V300.28C595.319 301.476 595.486 302.366 595.82 302.952C596.154 303.538 596.679 303.831 597.394 303.831C598.079 303.831 598.586 303.562 598.914 303.022C599.242 302.478 599.415 301.628 599.433 300.474V297.582ZM609.241 305.36H607.114V295.086L603.977 296.158V294.356L608.969 292.52H609.241V305.36ZM619.744 300.008C619.029 300.764 618.194 301.142 617.239 301.142C616.114 301.142 615.218 300.749 614.55 299.964C613.882 299.173 613.548 298.136 613.548 296.853C613.548 296.009 613.718 295.244 614.058 294.559C614.397 293.873 614.881 293.34 615.508 292.959C616.135 292.578 616.861 292.388 617.688 292.388C618.977 292.388 619.999 292.868 620.755 293.829C621.511 294.79 621.889 296.076 621.889 297.688V298.285C621.889 300.594 621.367 302.354 620.324 303.567C619.281 304.78 617.726 305.396 615.657 305.413H615.402V303.646H615.71C616.97 303.629 617.937 303.327 618.61 302.741C619.284 302.149 619.662 301.238 619.744 300.008ZM617.688 299.472C618.115 299.472 618.517 299.349 618.892 299.103C619.267 298.856 619.557 298.517 619.762 298.083V297.248C619.762 296.305 619.568 295.546 619.182 294.972C618.795 294.397 618.294 294.11 617.679 294.11C617.063 294.11 616.571 294.365 616.202 294.875C615.839 295.379 615.657 296.018 615.657 296.791C615.657 297.594 615.842 298.241 616.211 298.733C616.58 299.226 617.072 299.472 617.688 299.472Z" fill="#2C3B58"/>
<path d="M633 97H572V271H633V97Z" fill="#0FB8AE"/>
<path d="M697.602 307.975H688.997V306.507L693.26 301.857C693.875 301.172 694.312 300.601 694.569 300.144C694.833 299.681 694.965 299.218 694.965 298.755C694.965 298.146 694.792 297.653 694.446 297.278C694.106 296.903 693.646 296.716 693.066 296.716C692.375 296.716 691.839 296.927 691.458 297.349C691.077 297.771 690.887 298.348 690.887 299.08H688.751C688.751 298.301 688.927 297.601 689.278 296.979C689.636 296.353 690.143 295.866 690.799 295.521C691.461 295.175 692.223 295.002 693.084 295.002C694.326 295.002 695.305 295.315 696.02 295.942C696.74 296.563 697.101 297.425 697.101 298.526C697.101 299.165 696.919 299.836 696.556 300.539C696.198 301.236 695.609 302.03 694.789 302.921L691.66 306.27H697.602V307.975ZM707.568 302.587C707.568 304.427 707.223 305.815 706.531 306.753C705.846 307.685 704.8 308.15 703.394 308.15C702.011 308.15 700.968 307.696 700.265 306.788C699.567 305.874 699.21 304.523 699.192 302.736V300.521C699.192 298.682 699.535 297.302 700.221 296.382C700.912 295.462 701.964 295.002 703.376 295.002C704.776 295.002 705.819 295.45 706.505 296.347C707.196 297.243 707.551 298.585 707.568 300.372V302.587ZM705.433 300.196C705.433 298.995 705.269 298.116 704.94 297.56C704.612 296.997 704.091 296.716 703.376 296.716C702.679 296.716 702.166 296.982 701.838 297.516C701.51 298.043 701.337 298.869 701.319 299.994V302.895C701.319 304.09 701.486 304.98 701.82 305.566C702.154 306.152 702.679 306.445 703.394 306.445C704.079 306.445 704.586 306.176 704.914 305.637C705.242 305.092 705.415 304.242 705.433 303.088V300.196ZM718.062 307.975H709.458V306.507L713.721 301.857C714.336 301.172 714.772 300.601 715.03 300.144C715.294 299.681 715.426 299.218 715.426 298.755C715.426 298.146 715.253 297.653 714.907 297.278C714.567 296.903 714.107 296.716 713.527 296.716C712.836 296.716 712.3 296.927 711.919 297.349C711.538 297.771 711.348 298.348 711.348 299.08H709.212C709.212 298.301 709.388 297.601 709.739 296.979C710.097 296.353 710.604 295.866 711.26 295.521C711.922 295.175 712.684 295.002 713.545 295.002C714.787 295.002 715.766 295.315 716.48 295.942C717.201 296.563 717.562 297.425 717.562 298.526C717.562 299.165 717.38 299.836 717.017 300.539C716.659 301.236 716.07 302.03 715.25 302.921L712.121 306.27H718.062V307.975ZM728.029 302.587C728.029 304.427 727.684 305.815 726.992 306.753C726.307 307.685 725.261 308.15 723.854 308.15C722.472 308.15 721.429 307.696 720.726 306.788C720.028 305.874 719.671 304.523 719.653 302.736V300.521C719.653 298.682 719.996 297.302 720.682 296.382C721.373 295.462 722.425 295.002 723.837 295.002C725.237 295.002 726.28 295.45 726.966 296.347C727.657 297.243 728.012 298.585 728.029 300.372V302.587ZM725.894 300.196C725.894 298.995 725.729 298.116 725.401 297.56C725.073 296.997 724.552 296.716 723.837 296.716C723.14 296.716 722.627 296.982 722.299 297.516C721.971 298.043 721.798 298.869 721.78 299.994V302.895C721.78 304.09 721.947 304.98 722.281 305.566C722.615 306.152 723.14 306.445 723.854 306.445C724.54 306.445 725.047 306.176 725.375 305.637C725.703 305.092 725.876 304.242 725.894 303.088V300.196Z" fill="#2C3B58"/>
<path d="M739 41H678V277.465H739V41Z" fill="#0FB8AE"/>
<path d="M35 12.5H29" stroke="#2C3B58"/>
<path d="M7.82324 17H1.13086V15.8584L4.44629 12.2422C4.9248 11.709 5.26432 11.2646 5.46484 10.9092C5.66992 10.5492 5.77246 10.1891 5.77246 9.8291C5.77246 9.35514 5.63802 8.97233 5.36914 8.68066C5.10482 8.389 4.74707 8.24316 4.2959 8.24316C3.75814 8.24316 3.34115 8.40723 3.04492 8.73535C2.7487 9.06348 2.60059 9.51237 2.60059 10.082H0.939453C0.939453 9.47591 1.07617 8.93132 1.34961 8.44824C1.6276 7.96061 2.02181 7.58236 2.53223 7.31348C3.0472 7.0446 3.63965 6.91016 4.30957 6.91016C5.27572 6.91016 6.03678 7.15397 6.59277 7.6416C7.15332 8.12467 7.43359 8.7946 7.43359 9.65137C7.43359 10.1481 7.29232 10.6699 7.00977 11.2168C6.73177 11.7591 6.27376 12.3766 5.63574 13.0693L3.20215 15.6738H7.82324V17ZM15.5752 12.8096C15.5752 14.2406 15.3063 15.3206 14.7686 16.0498C14.2354 16.7744 13.4219 17.1367 12.3281 17.1367C11.2526 17.1367 10.4414 16.7835 9.89453 16.0771C9.35221 15.3662 9.07422 14.3158 9.06055 12.9258V11.2031C9.06055 9.77214 9.32715 8.69889 9.86035 7.9834C10.3981 7.2679 11.2161 6.91016 12.3145 6.91016C13.4036 6.91016 14.2148 7.25879 14.748 7.95605C15.2858 8.65332 15.5615 9.69694 15.5752 11.0869V12.8096ZM13.9141 10.9502C13.9141 10.016 13.7865 9.33236 13.5312 8.89941C13.276 8.46191 12.8704 8.24316 12.3145 8.24316C11.7721 8.24316 11.3734 8.45052 11.1182 8.86523C10.863 9.27539 10.7285 9.91797 10.7148 10.793V13.0488C10.7148 13.9785 10.8447 14.6712 11.1045 15.127C11.3643 15.5827 11.7721 15.8105 12.3281 15.8105C12.8613 15.8105 13.2555 15.6009 13.5107 15.1816C13.766 14.7578 13.9004 14.097 13.9141 13.1992V10.9502ZM19.5537 13.8281L18.8154 14.5869V17H17.1543V6.5H18.8154V12.5566L19.335 11.9072L21.3789 9.60352H23.375L20.627 12.6865L23.6689 17H21.748L19.5537 13.8281Z" fill="#2C3B58"/>
<path d="M5.62891 83H3.97461V75.0088L1.53418 75.8428V74.4414L5.41699 73.0127H5.62891V83ZM9.53223 78.0645L10.0723 73.0469H15.418V74.4824H11.4531L11.1797 76.8613C11.64 76.597 12.1595 76.4648 12.7383 76.4648C13.6862 76.4648 14.4222 76.7679 14.9463 77.374C15.4749 77.9801 15.7393 78.7959 15.7393 79.8213C15.7393 80.833 15.4476 81.6396 14.8643 82.2412C14.2809 82.8382 13.4811 83.1367 12.4648 83.1367C11.5534 83.1367 10.7969 82.8792 10.1953 82.3643C9.59831 81.8447 9.27474 81.1611 9.22461 80.3135H10.8311C10.8949 80.7965 11.068 81.168 11.3506 81.4277C11.6331 81.6829 12.0023 81.8105 12.458 81.8105C12.9684 81.8105 13.3649 81.6283 13.6475 81.2637C13.9346 80.8991 14.0781 80.4023 14.0781 79.7734C14.0781 79.1673 13.9209 78.6888 13.6064 78.3379C13.292 77.9824 12.859 77.8047 12.3076 77.8047C12.0068 77.8047 11.7516 77.8457 11.542 77.9277C11.3324 78.0052 11.1045 78.1602 10.8584 78.3926L9.53223 78.0645ZM19.5537 79.8281L18.8154 80.5869V83H17.1543V72.5H18.8154V78.5566L19.335 77.9072L21.3789 75.6035H23.375L20.627 78.6865L23.6689 83H21.748L19.5537 79.8281Z" fill="#2C3B58"/>
<path d="M5.62891 149H3.97461V141.009L1.53418 141.843V140.441L5.41699 139.013H5.62891V149ZM15.5752 144.81C15.5752 146.241 15.3063 147.321 14.7686 148.05C14.2354 148.774 13.4219 149.137 12.3281 149.137C11.2526 149.137 10.4414 148.784 9.89453 148.077C9.35221 147.366 9.07422 146.316 9.06055 144.926V143.203C9.06055 141.772 9.32715 140.699 9.86035 139.983C10.3981 139.268 11.2161 138.91 12.3145 138.91C13.4036 138.91 14.2148 139.259 14.748 139.956C15.2858 140.653 15.5615 141.697 15.5752 143.087V144.81ZM13.9141 142.95C13.9141 142.016 13.7865 141.332 13.5312 140.899C13.276 140.462 12.8704 140.243 12.3145 140.243C11.7721 140.243 11.3734 140.451 11.1182 140.865C10.863 141.275 10.7285 141.918 10.7148 142.793V145.049C10.7148 145.979 10.8447 146.671 11.1045 147.127C11.3643 147.583 11.7721 147.811 12.3281 147.811C12.8613 147.811 13.2555 147.601 13.5107 147.182C13.766 146.758 13.9004 146.097 13.9141 145.199V142.95ZM19.5537 145.828L18.8154 146.587V149H17.1543V138.5H18.8154V144.557L19.335 143.907L21.3789 141.604H23.375L20.627 144.687L23.6689 149H21.748L19.5537 145.828Z" fill="#2C3B58"/>
<path d="M5.55371 210.064L6.09375 205.047H11.4395V206.482H7.47461L7.20117 208.861C7.66146 208.597 8.18099 208.465 8.75977 208.465C9.70768 208.465 10.4437 208.768 10.9678 209.374C11.4964 209.98 11.7607 210.796 11.7607 211.821C11.7607 212.833 11.4691 213.64 10.8857 214.241C10.3024 214.838 9.5026 215.137 8.48633 215.137C7.57487 215.137 6.81836 214.879 6.2168 214.364C5.61979 213.845 5.29622 213.161 5.24609 212.313H6.85254C6.91634 212.797 7.08952 213.168 7.37207 213.428C7.65462 213.683 8.02376 213.811 8.47949 213.811C8.98991 213.811 9.38639 213.628 9.66895 213.264C9.95605 212.899 10.0996 212.402 10.0996 211.773C10.0996 211.167 9.94238 210.689 9.62793 210.338C9.31348 209.982 8.88053 209.805 8.3291 209.805C8.02832 209.805 7.77311 209.846 7.56348 209.928C7.35384 210.005 7.12598 210.16 6.87988 210.393L5.55371 210.064ZM15.5752 211.828L14.8369 212.587V215H13.1758V204.5H14.8369V210.557L15.3564 209.907L17.4004 207.604H19.3965L16.6484 210.687L19.6904 215H17.7695L15.5752 211.828Z" fill="#2C3B58"/>
<path d="M34.5 12V270" stroke="#2C3B58"/>
</svg>
