<svg width="529" height="611" viewBox="0 0 529 611" fill="none" xmlns="http://www.w3.org/2000/svg">
<path d="M384.474 58.5139C347.963 38.9097 306.674 28.9035 264.806 29.5136C222.658 28.9513 181.091 38.9495 144.237 58.5139C108.865 77.1339 79.541 104.714 59.4855 138.225C39.3942 173.024 28.8564 212.125 28.8564 251.874C28.8564 291.624 39.3942 330.725 59.4855 365.524C79.5121 399.076 108.841 426.688 144.237 445.313C181.113 464.816 222.67 474.785 264.806 474.235C306.662 474.839 347.944 464.862 384.474 445.313C419.477 426.458 448.482 398.884 468.405 365.524C488.497 330.725 499.034 291.624 499.034 251.874C499.034 212.125 488.497 173.024 468.405 138.225C448.454 104.905 419.454 77.3631 384.474 58.5139V58.5139Z" fill="#E6EEF8"/>
<path d="M77.1724 75.6529C27.7584 122.923 0 187.021 0 253.855C0 320.688 27.7584 384.785 77.1724 432.056L263.524 610.231L449.876 432.056C474.765 408.742 494.573 380.942 508.154 350.262C521.735 319.583 528.819 286.633 528.998 253.32C529.176 220.006 522.445 186.989 509.194 156.178C495.943 125.367 476.434 97.374 451.796 73.8174C427.158 50.2607 397.881 31.608 365.656 18.9381C333.431 6.26823 298.899 -0.167392 264.056 0.00330887C229.214 0.17401 194.752 6.94766 162.665 19.9326C130.578 32.9176 101.501 51.8561 77.1172 75.6529H77.1724ZM480.255 251.983C480.88 287.742 471.353 322.993 452.688 353.986C434.283 384.048 407.578 408.687 375.501 425.203C341.268 442.177 303.271 451.037 264.71 451.037C226.148 451.037 188.151 442.177 153.918 425.203C121.69 408.616 94.839 383.891 76.2904 353.722C57.8251 322.721 48.1151 287.659 48.1151 251.983C48.1151 216.307 57.8251 181.245 76.2904 150.244C94.8581 120.103 121.705 95.3999 153.918 78.8158C188.151 61.8422 226.148 52.9823 264.71 52.9823C303.271 52.9823 341.268 61.8422 375.501 78.8158C407.558 95.3349 434.257 119.951 452.688 149.98C471.348 180.975 480.875 216.225 480.255 251.983V251.983Z" fill="#E6EEF8"/>
</svg>
