<svg width="277" height="42" viewBox="0 0 277 42" fill="none" xmlns="http://www.w3.org/2000/svg">
<path d="M51.1508 31C50.9508 31 50.7708 30.93 50.6108 30.79C50.4708 30.63 50.4008 30.45 50.4008 30.25V10.75C50.4008 10.53 50.4708 10.35 50.6108 10.21C50.7708 10.07 50.9508 10 51.1508 10H54.3908C54.8708 10 55.2208 10.22 55.4408 10.66L60.7208 20.11L66.0008 10.66C66.2208 10.22 66.5708 10 67.0508 10H70.2608C70.4808 10 70.6608 10.07 70.8008 10.21C70.9608 10.35 71.0408 10.53 71.0408 10.75V30.25C71.0408 30.47 70.9608 30.65 70.8008 30.79C70.6608 30.93 70.4808 31 70.2608 31H66.6908C66.4708 31 66.2808 30.93 66.1208 30.79C65.9808 30.65 65.9108 30.47 65.9108 30.25V19L62.5508 25.27C62.2908 25.73 61.9408 25.96 61.5008 25.96H59.9408C59.6808 25.96 59.4708 25.9 59.3108 25.78C59.1508 25.66 59.0108 25.49 58.8908 25.27L55.5008 19V30.25C55.5008 30.45 55.4308 30.63 55.2908 30.79C55.1508 30.93 54.9708 31 54.7508 31H51.1508ZM80.6445 31C80.4445 31 80.2645 30.93 80.1045 30.79C79.9645 30.63 79.8945 30.45 79.8945 30.25V23.8L72.9345 10.96C72.8745 10.78 72.8445 10.67 72.8445 10.63C72.8445 10.47 72.9045 10.33 73.0245 10.21C73.1645 10.07 73.3245 10 73.5045 10H77.2545C77.6545 10 78.0045 10.21 78.3045 10.63L82.5945 18.37L86.9145 10.63C87.1545 10.21 87.5045 10 87.9645 10H91.7145C91.8945 10 92.0445 10.07 92.1645 10.21C92.2845 10.33 92.3445 10.47 92.3445 10.63C92.3445 10.73 92.3245 10.84 92.2845 10.96L85.3245 23.8V30.25C85.3245 30.47 85.2445 30.65 85.0845 30.79C84.9445 30.93 84.7645 31 84.5445 31H80.6445ZM101.808 31.3C98.9477 31.3 96.7077 30.61 95.0877 29.23C93.4877 27.83 92.6377 25.81 92.5377 23.17C92.5177 22.63 92.5077 21.75 92.5077 20.53C92.5077 19.29 92.5177 18.39 92.5377 17.83C92.6377 15.23 93.5077 13.23 95.1477 11.83C96.7877 10.41 99.0077 9.7 101.808 9.7C103.568 9.7 105.148 10 106.548 10.6C107.948 11.18 109.048 12.02 109.848 13.12C110.668 14.2 111.088 15.47 111.108 16.93V16.99C111.108 17.15 111.038 17.29 110.898 17.41C110.778 17.51 110.638 17.56 110.478 17.56H106.428C106.168 17.56 105.968 17.51 105.828 17.41C105.688 17.29 105.568 17.08 105.468 16.78C105.188 15.76 104.748 15.05 104.148 14.65C103.548 14.23 102.758 14.02 101.778 14.02C99.4177 14.02 98.1977 15.34 98.1177 17.98C98.0977 18.52 98.0877 19.35 98.0877 20.47C98.0877 21.59 98.0977 22.44 98.1177 23.02C98.1977 25.66 99.4177 26.98 101.778 26.98C102.758 26.98 103.558 26.77 104.178 26.35C104.798 25.91 105.228 25.2 105.468 24.22C105.548 23.92 105.658 23.72 105.798 23.62C105.938 23.5 106.148 23.44 106.428 23.44H110.478C110.658 23.44 110.808 23.5 110.928 23.62C111.068 23.74 111.128 23.89 111.108 24.07C111.088 25.53 110.668 26.81 109.848 27.91C109.048 28.99 107.948 29.83 106.548 30.43C105.148 31.01 103.568 31.3 101.808 31.3ZM122.092 31.3C119.272 31.3 117.052 30.61 115.432 29.23C113.812 27.85 112.952 25.82 112.852 23.14C112.832 22.56 112.822 21.7 112.822 20.56C112.822 19.4 112.832 18.53 112.852 17.95C112.952 15.31 113.822 13.28 115.462 11.86C117.122 10.42 119.332 9.7 122.092 9.7C124.852 9.7 127.062 10.42 128.722 11.86C130.382 13.28 131.252 15.31 131.332 17.95C131.372 19.11 131.392 19.98 131.392 20.56C131.392 21.12 131.372 21.98 131.332 23.14C131.232 25.82 130.372 27.85 128.752 29.23C127.132 30.61 124.912 31.3 122.092 31.3ZM122.092 26.98C123.192 26.98 124.062 26.65 124.702 25.99C125.362 25.33 125.712 24.32 125.752 22.96C125.792 21.8 125.812 20.98 125.812 20.5C125.812 19.98 125.792 19.16 125.752 18.04C125.712 16.68 125.362 15.67 124.702 15.01C124.042 14.35 123.172 14.02 122.092 14.02C121.012 14.02 120.142 14.35 119.482 15.01C118.842 15.67 118.492 16.68 118.432 18.04C118.412 18.6 118.402 19.42 118.402 20.5C118.402 21.56 118.412 22.38 118.432 22.96C118.492 24.32 118.842 25.33 119.482 25.99C120.122 26.65 120.992 26.98 122.092 26.98ZM138.17 31C137.65 31 137.34 30.73 137.24 30.19L133.37 10.93C133.35 10.83 133.34 10.72 133.34 10.6C133.34 10.44 133.4 10.3 133.52 10.18C133.64 10.06 133.78 10 133.94 10H135.5C135.92 10 136.16 10.17 136.22 10.51L139.28 25.99L142.52 15.37C142.7 14.89 143.02 14.65 143.48 14.65H144.59C144.85 14.65 145.05 14.72 145.19 14.86C145.35 15 145.46 15.17 145.52 15.37L148.79 25.99L151.82 10.51C151.88 10.17 152.13 10 152.57 10H154.13C154.29 10 154.43 10.06 154.55 10.18C154.67 10.3 154.73 10.44 154.73 10.6L154.7 10.93L150.83 30.19C150.71 30.73 150.4 31 149.9 31H148.73C148.21 31 147.88 30.75 147.74 30.25L144.02 18.82L140.33 30.25C140.17 30.75 139.84 31 139.34 31H138.17ZM163.258 31.3C161.058 31.3 159.348 30.68 158.128 29.44C156.928 28.2 156.288 26.55 156.208 24.49L156.178 23.2L156.208 21.91C156.288 19.87 156.938 18.23 158.158 16.99C159.378 15.73 161.078 15.1 163.258 15.1C165.438 15.1 167.138 15.73 168.358 16.99C169.578 18.23 170.228 19.87 170.308 21.91C170.328 22.13 170.338 22.56 170.338 23.2C170.338 23.84 170.328 24.27 170.308 24.49C170.228 26.55 169.578 28.2 168.358 29.44C167.158 30.68 165.458 31.3 163.258 31.3ZM163.258 28.99C164.518 28.99 165.508 28.59 166.228 27.79C166.968 26.99 167.368 25.84 167.428 24.34C167.448 24.14 167.458 23.76 167.458 23.2C167.458 22.64 167.448 22.26 167.428 22.06C167.368 20.56 166.968 19.41 166.228 18.61C165.508 17.81 164.518 17.41 163.258 17.41C161.998 17.41 160.998 17.81 160.258 18.61C159.518 19.41 159.128 20.56 159.088 22.06L159.058 23.2L159.088 24.34C159.128 25.84 159.518 26.99 160.258 27.79C160.998 28.59 161.998 28.99 163.258 28.99ZM174.035 31C173.835 31 173.665 30.94 173.525 30.82C173.405 30.68 173.345 30.51 173.345 30.31V16.12C173.345 15.92 173.405 15.75 173.525 15.61C173.665 15.47 173.835 15.4 174.035 15.4H175.415C175.615 15.4 175.785 15.47 175.925 15.61C176.065 15.75 176.135 15.92 176.135 16.12V17.44C176.955 16.08 178.355 15.4 180.335 15.4H181.505C181.705 15.4 181.865 15.47 181.985 15.61C182.125 15.73 182.195 15.89 182.195 16.09V17.32C182.195 17.52 182.125 17.68 181.985 17.8C181.865 17.92 181.705 17.98 181.505 17.98H179.705C178.625 17.98 177.775 18.3 177.155 18.94C176.535 19.56 176.225 20.41 176.225 21.49V30.31C176.225 30.51 176.155 30.68 176.015 30.82C175.875 30.94 175.705 31 175.505 31H174.035ZM184.711 31C184.511 31 184.341 30.94 184.201 30.82C184.081 30.68 184.021 30.51 184.021 30.31V10.39C184.021 10.19 184.081 10.03 184.201 9.91C184.341 9.77 184.511 9.7 184.711 9.7H186.121C186.321 9.7 186.481 9.77 186.601 9.91C186.741 10.03 186.811 10.19 186.811 10.39V20.83L192.721 15.91C192.781 15.87 192.881 15.79 193.021 15.67C193.161 15.57 193.291 15.5 193.411 15.46C193.551 15.42 193.721 15.4 193.921 15.4H195.511C195.691 15.4 195.841 15.46 195.961 15.58C196.081 15.7 196.141 15.85 196.141 16.03C196.141 16.25 196.021 16.44 195.781 16.6L188.851 22.36L196.531 29.83C196.771 30.03 196.891 30.21 196.891 30.37C196.891 30.55 196.831 30.7 196.711 30.82C196.591 30.94 196.441 31 196.261 31H194.701C194.401 31 194.181 30.97 194.041 30.91C193.921 30.85 193.741 30.71 193.501 30.49L186.811 24.1V30.31C186.811 30.51 186.741 30.68 186.601 30.82C186.481 30.94 186.321 31 186.121 31H184.711ZM203.817 31.3C202.417 31.3 201.237 31.08 200.277 30.64C199.337 30.18 198.627 29.66 198.147 29.08C197.687 28.5 197.457 28.02 197.457 27.64C197.457 27.44 197.527 27.29 197.667 27.19C197.827 27.07 197.987 27.01 198.147 27.01H199.497C199.697 27.01 199.877 27.11 200.037 27.31C200.517 27.87 201.037 28.31 201.597 28.63C202.157 28.95 202.907 29.11 203.847 29.11C204.887 29.11 205.727 28.91 206.367 28.51C207.027 28.09 207.357 27.52 207.357 26.8C207.357 26.32 207.217 25.93 206.937 25.63C206.677 25.31 206.217 25.04 205.557 24.82C204.917 24.58 203.957 24.32 202.677 24.04C200.937 23.66 199.697 23.11 198.957 22.39C198.237 21.67 197.877 20.74 197.877 19.6C197.877 18.84 198.097 18.12 198.537 17.44C198.997 16.74 199.657 16.18 200.517 15.76C201.397 15.32 202.447 15.1 203.667 15.1C204.947 15.1 206.037 15.31 206.937 15.73C207.837 16.15 208.507 16.65 208.947 17.23C209.407 17.79 209.637 18.26 209.637 18.64C209.637 18.82 209.567 18.97 209.427 19.09C209.307 19.21 209.157 19.27 208.977 19.27H207.717C207.477 19.27 207.277 19.17 207.117 18.97C206.797 18.59 206.517 18.3 206.277 18.1C206.057 17.88 205.727 17.69 205.287 17.53C204.867 17.37 204.327 17.29 203.667 17.29C202.707 17.29 201.967 17.5 201.447 17.92C200.927 18.32 200.667 18.85 200.667 19.51C200.667 19.93 200.777 20.29 200.997 20.59C201.217 20.87 201.637 21.13 202.257 21.37C202.897 21.61 203.817 21.86 205.017 22.12C206.917 22.52 208.257 23.1 209.037 23.86C209.837 24.6 210.237 25.55 210.237 26.71C210.237 27.57 209.987 28.35 209.487 29.05C208.987 29.75 208.247 30.3 207.267 30.7C206.307 31.1 205.157 31.3 203.817 31.3ZM213.68 36.7C213.48 36.7 213.31 36.63 213.17 36.49C213.05 36.37 212.99 36.21 212.99 36.01V16.09C212.99 15.89 213.05 15.73 213.17 15.61C213.31 15.47 213.48 15.4 213.68 15.4H215.06C215.26 15.4 215.42 15.47 215.54 15.61C215.68 15.73 215.75 15.89 215.75 16.09V17.41C216.87 15.87 218.51 15.1 220.67 15.1C222.77 15.1 224.34 15.76 225.38 17.08C226.44 18.4 227.01 20.1 227.09 22.18C227.11 22.4 227.12 22.74 227.12 23.2C227.12 23.66 227.11 24 227.09 24.22C227.01 26.28 226.44 27.98 225.38 29.32C224.32 30.64 222.75 31.3 220.67 31.3C218.59 31.3 216.97 30.55 215.81 29.05V36.01C215.81 36.21 215.75 36.37 215.63 36.49C215.51 36.63 215.35 36.7 215.15 36.7H213.68ZM220.04 28.87C221.46 28.87 222.49 28.43 223.13 27.55C223.79 26.67 224.15 25.51 224.21 24.07C224.23 23.87 224.24 23.58 224.24 23.2C224.24 19.42 222.84 17.53 220.04 17.53C218.66 17.53 217.62 17.99 216.92 18.91C216.24 19.81 215.87 20.89 215.81 22.15L215.78 23.29L215.81 24.46C215.85 25.64 216.23 26.67 216.95 27.55C217.67 28.43 218.7 28.87 220.04 28.87ZM234.431 31.3C233.451 31.3 232.541 31.1 231.701 30.7C230.861 30.3 230.191 29.76 229.691 29.08C229.211 28.38 228.971 27.61 228.971 26.77C228.971 25.45 229.511 24.37 230.591 23.53C231.691 22.67 233.171 22.11 235.031 21.85L239.501 21.22V20.35C239.501 18.31 238.331 17.29 235.991 17.29C235.111 17.29 234.391 17.48 233.831 17.86C233.271 18.22 232.851 18.65 232.571 19.15C232.511 19.33 232.431 19.46 232.331 19.54C232.251 19.62 232.131 19.66 231.971 19.66H230.681C230.501 19.66 230.341 19.6 230.201 19.48C230.081 19.34 230.021 19.18 230.021 19C230.041 18.52 230.261 17.98 230.681 17.38C231.121 16.76 231.791 16.23 232.691 15.79C233.591 15.33 234.701 15.1 236.021 15.1C238.261 15.1 239.871 15.63 240.851 16.69C241.831 17.73 242.321 19.03 242.321 20.59V30.31C242.321 30.51 242.251 30.68 242.111 30.82C241.991 30.94 241.831 31 241.631 31H240.251C240.051 31 239.881 30.94 239.741 30.82C239.621 30.68 239.561 30.51 239.561 30.31V29.02C239.121 29.66 238.481 30.2 237.641 30.64C236.801 31.08 235.731 31.3 234.431 31.3ZM235.061 29.05C236.361 29.05 237.421 28.63 238.241 27.79C239.081 26.93 239.501 25.7 239.501 24.1V23.26L236.021 23.77C234.601 23.97 233.531 24.31 232.811 24.79C232.091 25.25 231.731 25.84 231.731 26.56C231.731 27.36 232.061 27.98 232.721 28.42C233.381 28.84 234.161 29.05 235.061 29.05ZM252.184 31.3C250.044 31.3 248.364 30.7 247.144 29.5C245.944 28.28 245.304 26.58 245.224 24.4L245.194 23.2L245.224 22C245.304 19.82 245.944 18.13 247.144 16.93C248.364 15.71 250.044 15.1 252.184 15.1C253.624 15.1 254.844 15.36 255.844 15.88C256.844 16.4 257.584 17.04 258.064 17.8C258.564 18.56 258.834 19.32 258.874 20.08C258.894 20.28 258.834 20.44 258.694 20.56C258.554 20.68 258.384 20.74 258.184 20.74H256.744C256.544 20.74 256.394 20.7 256.294 20.62C256.194 20.54 256.094 20.38 255.994 20.14C255.654 19.18 255.174 18.5 254.554 18.1C253.934 17.68 253.154 17.47 252.214 17.47C250.974 17.47 249.984 17.86 249.244 18.64C248.524 19.4 248.134 20.57 248.074 22.15L248.044 23.23L248.074 24.25C248.134 25.85 248.524 27.03 249.244 27.79C249.964 28.55 250.954 28.93 252.214 28.93C253.154 28.93 253.934 28.73 254.554 28.33C255.174 27.91 255.654 27.22 255.994 26.26C256.094 26.02 256.194 25.86 256.294 25.78C256.394 25.68 256.544 25.63 256.744 25.63H258.184C258.384 25.63 258.554 25.7 258.694 25.84C258.834 25.96 258.894 26.12 258.874 26.32C258.834 27.06 258.564 27.82 258.064 28.6C257.584 29.36 256.844 30 255.844 30.52C254.864 31.04 253.644 31.3 252.184 31.3ZM267.927 31.3C265.867 31.3 264.217 30.67 262.977 29.41C261.757 28.13 261.087 26.39 260.967 24.19L260.937 23.17L260.967 22.18C261.107 20.02 261.787 18.3 263.007 17.02C264.247 15.74 265.877 15.1 267.897 15.1C270.117 15.1 271.837 15.81 273.057 17.23C274.277 18.63 274.887 20.53 274.887 22.93V23.44C274.887 23.64 274.817 23.81 274.677 23.95C274.557 24.07 274.397 24.13 274.197 24.13H263.817V24.4C263.877 25.7 264.267 26.81 264.987 27.73C265.727 28.63 266.697 29.08 267.897 29.08C268.817 29.08 269.567 28.9 270.147 28.54C270.747 28.16 271.187 27.77 271.467 27.37C271.647 27.13 271.777 26.99 271.857 26.95C271.957 26.89 272.127 26.86 272.367 26.86H273.837C274.017 26.86 274.167 26.91 274.287 27.01C274.407 27.11 274.467 27.25 274.467 27.43C274.467 27.87 274.187 28.4 273.627 29.02C273.087 29.64 272.317 30.18 271.317 30.64C270.337 31.08 269.207 31.3 267.927 31.3ZM272.037 22.06V21.97C272.037 20.59 271.657 19.47 270.897 18.61C270.157 17.73 269.157 17.29 267.897 17.29C266.637 17.29 265.637 17.73 264.897 18.61C264.177 19.47 263.817 20.59 263.817 21.97V22.06H272.037Z" fill="#232E44"/>
<path d="M21 22.3125V32.8125H7.875V22.3125H21ZM21 19.6875H7.875C7.17881 19.6875 6.51113 19.9641 6.01884 20.4563C5.52656 20.9486 5.25 21.6163 5.25 22.3125V32.8125C5.25 33.5087 5.52656 34.1764 6.01884 34.6687C6.51113 35.1609 7.17881 35.4375 7.875 35.4375H21C21.6962 35.4375 22.3639 35.1609 22.8562 34.6687C23.3484 34.1764 23.625 33.5087 23.625 32.8125V22.3125C23.625 21.6163 23.3484 20.9486 22.8562 20.4563C22.3639 19.9641 21.6962 19.6875 21 19.6875Z" fill="#0FB8AE"/>
<path d="M35.4375 7.875V14.4375H22.3125V7.875H35.4375ZM35.4375 5.25H22.3125C21.6163 5.25 20.9486 5.52656 20.4563 6.01884C19.9641 6.51113 19.6875 7.17881 19.6875 7.875V14.4375C19.6875 15.1337 19.9641 15.8014 20.4563 16.2937C20.9486 16.7859 21.6163 17.0625 22.3125 17.0625H35.4375C36.1337 17.0625 36.8014 16.7859 37.2937 16.2937C37.7859 15.8014 38.0625 15.1337 38.0625 14.4375V7.875C38.0625 7.17881 37.7859 6.51113 37.2937 6.01884C36.8014 5.52656 36.1337 5.25 35.4375 5.25Z" fill="#0FB8AE"/>
<path d="M35.4375 22.3125V28.875H28.875V22.3125H35.4375ZM35.4375 19.6875H28.875C28.1788 19.6875 27.5111 19.9641 27.0188 20.4563C26.5266 20.9486 26.25 21.6163 26.25 22.3125V28.875C26.25 29.5712 26.5266 30.2389 27.0188 30.7312C27.5111 31.2234 28.1788 31.5 28.875 31.5H35.4375C36.1337 31.5 36.8014 31.2234 37.2937 30.7312C37.7859 30.2389 38.0625 29.5712 38.0625 28.875V22.3125C38.0625 21.6163 37.7859 20.9486 37.2937 20.4563C36.8014 19.9641 36.1337 19.6875 35.4375 19.6875Z" fill="#0FB8AE"/>
<path d="M14.4375 7.875V14.4375H7.875V7.875H14.4375ZM14.4375 5.25H7.875C7.17881 5.25 6.51113 5.52656 6.01884 6.01884C5.52656 6.51113 5.25 7.17881 5.25 7.875V14.4375C5.25 15.1337 5.52656 15.8014 6.01884 16.2937C6.51113 16.7859 7.17881 17.0625 7.875 17.0625H14.4375C15.1337 17.0625 15.8014 16.7859 16.2937 16.2937C16.7859 15.8014 17.0625 15.1337 17.0625 14.4375V7.875C17.0625 7.17881 16.7859 6.51113 16.2937 6.01884C15.8014 5.52656 15.1337 5.25 14.4375 5.25Z" fill="#0FB8AE"/>
</svg>
