<svg width="276" height="42" viewBox="0 0 276 42" fill="none" xmlns="http://www.w3.org/2000/svg">
<path d="M50.1519 31C49.9519 31 49.7719 30.93 49.6119 30.79C49.4719 30.63 49.4019 30.45 49.4019 30.25V10.75C49.4019 10.53 49.4719 10.35 49.6119 10.21C49.7719 10.07 49.9519 10 50.1519 10H53.3919C53.8719 10 54.2219 10.22 54.4419 10.66L59.7219 20.11L65.0019 10.66C65.2219 10.22 65.5719 10 66.0519 10H69.2619C69.4819 10 69.6619 10.07 69.8019 10.21C69.9619 10.35 70.0419 10.53 70.0419 10.75V30.25C70.0419 30.47 69.9619 30.65 69.8019 30.79C69.6619 30.93 69.4819 31 69.2619 31H65.6919C65.4719 31 65.2819 30.93 65.1219 30.79C64.9819 30.65 64.9119 30.47 64.9119 30.25V19L61.5519 25.27C61.2919 25.73 60.9419 25.96 60.5019 25.96H58.9419C58.6819 25.96 58.4719 25.9 58.3119 25.78C58.1519 25.66 58.0119 25.49 57.8919 25.27L54.5019 19V30.25C54.5019 30.45 54.4319 30.63 54.2919 30.79C54.1519 30.93 53.9719 31 53.7519 31H50.1519ZM79.6457 31C79.4457 31 79.2657 30.93 79.1057 30.79C78.9657 30.63 78.8957 30.45 78.8957 30.25V23.8L71.9357 10.96C71.8757 10.78 71.8457 10.67 71.8457 10.63C71.8457 10.47 71.9057 10.33 72.0257 10.21C72.1657 10.07 72.3257 10 72.5057 10H76.2557C76.6557 10 77.0057 10.21 77.3057 10.63L81.5957 18.37L85.9157 10.63C86.1557 10.21 86.5057 10 86.9657 10H90.7157C90.8957 10 91.0457 10.07 91.1657 10.21C91.2857 10.33 91.3457 10.47 91.3457 10.63C91.3457 10.73 91.3257 10.84 91.2857 10.96L84.3257 23.8V30.25C84.3257 30.47 84.2457 30.65 84.0857 30.79C83.9457 30.93 83.7657 31 83.5457 31H79.6457ZM100.809 31.3C97.9488 31.3 95.7088 30.61 94.0888 29.23C92.4888 27.83 91.6388 25.81 91.5388 23.17C91.5188 22.63 91.5088 21.75 91.5088 20.53C91.5088 19.29 91.5188 18.39 91.5388 17.83C91.6388 15.23 92.5088 13.23 94.1488 11.83C95.7888 10.41 98.0088 9.7 100.809 9.7C102.569 9.7 104.149 10 105.549 10.6C106.949 11.18 108.049 12.02 108.849 13.12C109.669 14.2 110.089 15.47 110.109 16.93V16.99C110.109 17.15 110.039 17.29 109.899 17.41C109.779 17.51 109.639 17.56 109.479 17.56H105.429C105.169 17.56 104.969 17.51 104.829 17.41C104.689 17.29 104.569 17.08 104.469 16.78C104.189 15.76 103.749 15.05 103.149 14.65C102.549 14.23 101.759 14.02 100.779 14.02C98.4188 14.02 97.1988 15.34 97.1188 17.98C97.0988 18.52 97.0888 19.35 97.0888 20.47C97.0888 21.59 97.0988 22.44 97.1188 23.02C97.1988 25.66 98.4188 26.98 100.779 26.98C101.759 26.98 102.559 26.77 103.179 26.35C103.799 25.91 104.229 25.2 104.469 24.22C104.549 23.92 104.659 23.72 104.799 23.62C104.939 23.5 105.149 23.44 105.429 23.44H109.479C109.659 23.44 109.809 23.5 109.929 23.62C110.069 23.74 110.129 23.89 110.109 24.07C110.089 25.53 109.669 26.81 108.849 27.91C108.049 28.99 106.949 29.83 105.549 30.43C104.149 31.01 102.569 31.3 100.809 31.3ZM121.093 31.3C118.273 31.3 116.053 30.61 114.433 29.23C112.813 27.85 111.953 25.82 111.853 23.14C111.833 22.56 111.823 21.7 111.823 20.56C111.823 19.4 111.833 18.53 111.853 17.95C111.953 15.31 112.823 13.28 114.463 11.86C116.123 10.42 118.333 9.7 121.093 9.7C123.853 9.7 126.063 10.42 127.723 11.86C129.383 13.28 130.253 15.31 130.333 17.95C130.373 19.11 130.393 19.98 130.393 20.56C130.393 21.12 130.373 21.98 130.333 23.14C130.233 25.82 129.373 27.85 127.753 29.23C126.133 30.61 123.913 31.3 121.093 31.3ZM121.093 26.98C122.193 26.98 123.063 26.65 123.703 25.99C124.363 25.33 124.713 24.32 124.753 22.96C124.793 21.8 124.813 20.98 124.813 20.5C124.813 19.98 124.793 19.16 124.753 18.04C124.713 16.68 124.363 15.67 123.703 15.01C123.043 14.35 122.173 14.02 121.093 14.02C120.013 14.02 119.143 14.35 118.483 15.01C117.843 15.67 117.493 16.68 117.433 18.04C117.413 18.6 117.403 19.42 117.403 20.5C117.403 21.56 117.413 22.38 117.433 22.96C117.493 24.32 117.843 25.33 118.483 25.99C119.123 26.65 119.993 26.98 121.093 26.98ZM137.171 31C136.651 31 136.341 30.73 136.241 30.19L132.371 10.93C132.351 10.83 132.341 10.72 132.341 10.6C132.341 10.44 132.401 10.3 132.521 10.18C132.641 10.06 132.781 10 132.941 10H134.501C134.921 10 135.161 10.17 135.221 10.51L138.281 25.99L141.521 15.37C141.701 14.89 142.021 14.65 142.481 14.65H143.591C143.851 14.65 144.051 14.72 144.191 14.86C144.351 15 144.461 15.17 144.521 15.37L147.791 25.99L150.821 10.51C150.881 10.17 151.131 10 151.571 10H153.131C153.291 10 153.431 10.06 153.551 10.18C153.671 10.3 153.731 10.44 153.731 10.6L153.701 10.93L149.831 30.19C149.711 30.73 149.401 31 148.901 31H147.731C147.211 31 146.881 30.75 146.741 30.25L143.021 18.82L139.331 30.25C139.171 30.75 138.841 31 138.341 31H137.171ZM162.26 31.3C160.06 31.3 158.35 30.68 157.13 29.44C155.93 28.2 155.29 26.55 155.21 24.49L155.18 23.2L155.21 21.91C155.29 19.87 155.94 18.23 157.16 16.99C158.38 15.73 160.08 15.1 162.26 15.1C164.44 15.1 166.14 15.73 167.36 16.99C168.58 18.23 169.23 19.87 169.31 21.91C169.33 22.13 169.34 22.56 169.34 23.2C169.34 23.84 169.33 24.27 169.31 24.49C169.23 26.55 168.58 28.2 167.36 29.44C166.16 30.68 164.46 31.3 162.26 31.3ZM162.26 28.99C163.52 28.99 164.51 28.59 165.23 27.79C165.97 26.99 166.37 25.84 166.43 24.34C166.45 24.14 166.46 23.76 166.46 23.2C166.46 22.64 166.45 22.26 166.43 22.06C166.37 20.56 165.97 19.41 165.23 18.61C164.51 17.81 163.52 17.41 162.26 17.41C161 17.41 160 17.81 159.26 18.61C158.52 19.41 158.13 20.56 158.09 22.06L158.06 23.2L158.09 24.34C158.13 25.84 158.52 26.99 159.26 27.79C160 28.59 161 28.99 162.26 28.99ZM173.036 31C172.836 31 172.666 30.94 172.526 30.82C172.406 30.68 172.346 30.51 172.346 30.31V16.12C172.346 15.92 172.406 15.75 172.526 15.61C172.666 15.47 172.836 15.4 173.036 15.4H174.416C174.616 15.4 174.786 15.47 174.926 15.61C175.066 15.75 175.136 15.92 175.136 16.12V17.44C175.956 16.08 177.356 15.4 179.336 15.4H180.506C180.706 15.4 180.866 15.47 180.986 15.61C181.126 15.73 181.196 15.89 181.196 16.09V17.32C181.196 17.52 181.126 17.68 180.986 17.8C180.866 17.92 180.706 17.98 180.506 17.98H178.706C177.626 17.98 176.776 18.3 176.156 18.94C175.536 19.56 175.226 20.41 175.226 21.49V30.31C175.226 30.51 175.156 30.68 175.016 30.82C174.876 30.94 174.706 31 174.506 31H173.036ZM183.713 31C183.513 31 183.343 30.94 183.203 30.82C183.083 30.68 183.023 30.51 183.023 30.31V10.39C183.023 10.19 183.083 10.03 183.203 9.91C183.343 9.77 183.513 9.7 183.713 9.7H185.123C185.323 9.7 185.483 9.77 185.603 9.91C185.743 10.03 185.813 10.19 185.813 10.39V20.83L191.723 15.91C191.783 15.87 191.883 15.79 192.023 15.67C192.163 15.57 192.293 15.5 192.413 15.46C192.553 15.42 192.723 15.4 192.923 15.4H194.513C194.693 15.4 194.843 15.46 194.963 15.58C195.083 15.7 195.143 15.85 195.143 16.03C195.143 16.25 195.023 16.44 194.783 16.6L187.853 22.36L195.533 29.83C195.773 30.03 195.893 30.21 195.893 30.37C195.893 30.55 195.833 30.7 195.713 30.82C195.593 30.94 195.443 31 195.263 31H193.703C193.403 31 193.183 30.97 193.043 30.91C192.923 30.85 192.743 30.71 192.503 30.49L185.813 24.1V30.31C185.813 30.51 185.743 30.68 185.603 30.82C185.483 30.94 185.323 31 185.123 31H183.713ZM202.818 31.3C201.418 31.3 200.238 31.08 199.278 30.64C198.338 30.18 197.628 29.66 197.148 29.08C196.688 28.5 196.458 28.02 196.458 27.64C196.458 27.44 196.528 27.29 196.668 27.19C196.828 27.07 196.988 27.01 197.148 27.01H198.498C198.698 27.01 198.878 27.11 199.038 27.31C199.518 27.87 200.038 28.31 200.598 28.63C201.158 28.95 201.908 29.11 202.848 29.11C203.888 29.11 204.728 28.91 205.368 28.51C206.028 28.09 206.358 27.52 206.358 26.8C206.358 26.32 206.218 25.93 205.938 25.63C205.678 25.31 205.218 25.04 204.558 24.82C203.918 24.58 202.958 24.32 201.678 24.04C199.938 23.66 198.698 23.11 197.958 22.39C197.238 21.67 196.878 20.74 196.878 19.6C196.878 18.84 197.098 18.12 197.538 17.44C197.998 16.74 198.658 16.18 199.518 15.76C200.398 15.32 201.448 15.1 202.668 15.1C203.948 15.1 205.038 15.31 205.938 15.73C206.838 16.15 207.508 16.65 207.948 17.23C208.408 17.79 208.638 18.26 208.638 18.64C208.638 18.82 208.568 18.97 208.428 19.09C208.308 19.21 208.158 19.27 207.978 19.27H206.718C206.478 19.27 206.278 19.17 206.118 18.97C205.798 18.59 205.518 18.3 205.278 18.1C205.058 17.88 204.728 17.69 204.288 17.53C203.868 17.37 203.328 17.29 202.668 17.29C201.708 17.29 200.968 17.5 200.448 17.92C199.928 18.32 199.668 18.85 199.668 19.51C199.668 19.93 199.778 20.29 199.998 20.59C200.218 20.87 200.638 21.13 201.258 21.37C201.898 21.61 202.818 21.86 204.018 22.12C205.918 22.52 207.258 23.1 208.038 23.86C208.838 24.6 209.238 25.55 209.238 26.71C209.238 27.57 208.988 28.35 208.488 29.05C207.988 29.75 207.248 30.3 206.268 30.7C205.308 31.1 204.158 31.3 202.818 31.3ZM212.681 36.7C212.481 36.7 212.311 36.63 212.171 36.49C212.051 36.37 211.991 36.21 211.991 36.01V16.09C211.991 15.89 212.051 15.73 212.171 15.61C212.311 15.47 212.481 15.4 212.681 15.4H214.061C214.261 15.4 214.421 15.47 214.541 15.61C214.681 15.73 214.751 15.89 214.751 16.09V17.41C215.871 15.87 217.511 15.1 219.671 15.1C221.771 15.1 223.341 15.76 224.381 17.08C225.441 18.4 226.011 20.1 226.091 22.18C226.111 22.4 226.121 22.74 226.121 23.2C226.121 23.66 226.111 24 226.091 24.22C226.011 26.28 225.441 27.98 224.381 29.32C223.321 30.64 221.751 31.3 219.671 31.3C217.591 31.3 215.971 30.55 214.811 29.05V36.01C214.811 36.21 214.751 36.37 214.631 36.49C214.511 36.63 214.351 36.7 214.151 36.7H212.681ZM219.041 28.87C220.461 28.87 221.491 28.43 222.131 27.55C222.791 26.67 223.151 25.51 223.211 24.07C223.231 23.87 223.241 23.58 223.241 23.2C223.241 19.42 221.841 17.53 219.041 17.53C217.661 17.53 216.621 17.99 215.921 18.91C215.241 19.81 214.871 20.89 214.811 22.15L214.781 23.29L214.811 24.46C214.851 25.64 215.231 26.67 215.951 27.55C216.671 28.43 217.701 28.87 219.041 28.87ZM233.432 31.3C232.452 31.3 231.542 31.1 230.702 30.7C229.862 30.3 229.192 29.76 228.692 29.08C228.212 28.38 227.972 27.61 227.972 26.77C227.972 25.45 228.512 24.37 229.592 23.53C230.692 22.67 232.172 22.11 234.032 21.85L238.502 21.22V20.35C238.502 18.31 237.332 17.29 234.992 17.29C234.112 17.29 233.392 17.48 232.832 17.86C232.272 18.22 231.852 18.65 231.572 19.15C231.512 19.33 231.432 19.46 231.332 19.54C231.252 19.62 231.132 19.66 230.972 19.66H229.682C229.502 19.66 229.342 19.6 229.202 19.48C229.082 19.34 229.022 19.18 229.022 19C229.042 18.52 229.262 17.98 229.682 17.38C230.122 16.76 230.792 16.23 231.692 15.79C232.592 15.33 233.702 15.1 235.022 15.1C237.262 15.1 238.872 15.63 239.852 16.69C240.832 17.73 241.322 19.03 241.322 20.59V30.31C241.322 30.51 241.252 30.68 241.112 30.82C240.992 30.94 240.832 31 240.632 31H239.252C239.052 31 238.882 30.94 238.742 30.82C238.622 30.68 238.562 30.51 238.562 30.31V29.02C238.122 29.66 237.482 30.2 236.642 30.64C235.802 31.08 234.732 31.3 233.432 31.3ZM234.062 29.05C235.362 29.05 236.422 28.63 237.242 27.79C238.082 26.93 238.502 25.7 238.502 24.1V23.26L235.022 23.77C233.602 23.97 232.532 24.31 231.812 24.79C231.092 25.25 230.732 25.84 230.732 26.56C230.732 27.36 231.062 27.98 231.722 28.42C232.382 28.84 233.162 29.05 234.062 29.05ZM251.185 31.3C249.045 31.3 247.365 30.7 246.145 29.5C244.945 28.28 244.305 26.58 244.225 24.4L244.195 23.2L244.225 22C244.305 19.82 244.945 18.13 246.145 16.93C247.365 15.71 249.045 15.1 251.185 15.1C252.625 15.1 253.845 15.36 254.845 15.88C255.845 16.4 256.585 17.04 257.065 17.8C257.565 18.56 257.835 19.32 257.875 20.08C257.895 20.28 257.835 20.44 257.695 20.56C257.555 20.68 257.385 20.74 257.185 20.74H255.745C255.545 20.74 255.395 20.7 255.295 20.62C255.195 20.54 255.095 20.38 254.995 20.14C254.655 19.18 254.175 18.5 253.555 18.1C252.935 17.68 252.155 17.47 251.215 17.47C249.975 17.47 248.985 17.86 248.245 18.64C247.525 19.4 247.135 20.57 247.075 22.15L247.045 23.23L247.075 24.25C247.135 25.85 247.525 27.03 248.245 27.79C248.965 28.55 249.955 28.93 251.215 28.93C252.155 28.93 252.935 28.73 253.555 28.33C254.175 27.91 254.655 27.22 254.995 26.26C255.095 26.02 255.195 25.86 255.295 25.78C255.395 25.68 255.545 25.63 255.745 25.63H257.185C257.385 25.63 257.555 25.7 257.695 25.84C257.835 25.96 257.895 26.12 257.875 26.32C257.835 27.06 257.565 27.82 257.065 28.6C256.585 29.36 255.845 30 254.845 30.52C253.865 31.04 252.645 31.3 251.185 31.3ZM266.928 31.3C264.868 31.3 263.218 30.67 261.978 29.41C260.758 28.13 260.088 26.39 259.968 24.19L259.938 23.17L259.968 22.18C260.108 20.02 260.788 18.3 262.008 17.02C263.248 15.74 264.878 15.1 266.898 15.1C269.118 15.1 270.838 15.81 272.058 17.23C273.278 18.63 273.888 20.53 273.888 22.93V23.44C273.888 23.64 273.818 23.81 273.678 23.95C273.558 24.07 273.398 24.13 273.198 24.13H262.818V24.4C262.878 25.7 263.268 26.81 263.988 27.73C264.728 28.63 265.698 29.08 266.898 29.08C267.818 29.08 268.568 28.9 269.148 28.54C269.748 28.16 270.188 27.77 270.468 27.37C270.648 27.13 270.778 26.99 270.858 26.95C270.958 26.89 271.128 26.86 271.368 26.86H272.838C273.018 26.86 273.168 26.91 273.288 27.01C273.408 27.11 273.468 27.25 273.468 27.43C273.468 27.87 273.188 28.4 272.628 29.02C272.088 29.64 271.318 30.18 270.318 30.64C269.338 31.08 268.208 31.3 266.928 31.3ZM271.038 22.06V21.97C271.038 20.59 270.658 19.47 269.898 18.61C269.158 17.73 268.158 17.29 266.898 17.29C265.638 17.29 264.638 17.73 263.898 18.61C263.178 19.47 262.818 20.59 262.818 21.97V22.06H271.038Z" fill="white"/>
<path d="M21 22.3125V32.8125H7.875V22.3125H21ZM21 19.6875H7.875C7.17881 19.6875 6.51113 19.9641 6.01884 20.4563C5.52656 20.9486 5.25 21.6163 5.25 22.3125V32.8125C5.25 33.5087 5.52656 34.1764 6.01884 34.6687C6.51113 35.1609 7.17881 35.4375 7.875 35.4375H21C21.6962 35.4375 22.3639 35.1609 22.8562 34.6687C23.3484 34.1764 23.625 33.5087 23.625 32.8125V22.3125C23.625 21.6163 23.3484 20.9486 22.8562 20.4563C22.3639 19.9641 21.6962 19.6875 21 19.6875Z" fill="#0FB8AE"/>
<path d="M35.4375 7.875V14.4375H22.3125V7.875H35.4375ZM35.4375 5.25H22.3125C21.6163 5.25 20.9486 5.52656 20.4563 6.01884C19.9641 6.51113 19.6875 7.17881 19.6875 7.875V14.4375C19.6875 15.1337 19.9641 15.8014 20.4563 16.2937C20.9486 16.7859 21.6163 17.0625 22.3125 17.0625H35.4375C36.1337 17.0625 36.8014 16.7859 37.2937 16.2937C37.7859 15.8014 38.0625 15.1337 38.0625 14.4375V7.875C38.0625 7.17881 37.7859 6.51113 37.2937 6.01884C36.8014 5.52656 36.1337 5.25 35.4375 5.25Z" fill="#0FB8AE"/>
<path d="M35.4375 22.3125V28.875H28.875V22.3125H35.4375ZM35.4375 19.6875H28.875C28.1788 19.6875 27.5111 19.9641 27.0188 20.4563C26.5266 20.9486 26.25 21.6163 26.25 22.3125V28.875C26.25 29.5712 26.5266 30.2389 27.0188 30.7312C27.5111 31.2234 28.1788 31.5 28.875 31.5H35.4375C36.1337 31.5 36.8014 31.2234 37.2937 30.7312C37.7859 30.2389 38.0625 29.5712 38.0625 28.875V22.3125C38.0625 21.6163 37.7859 20.9486 37.2937 20.4563C36.8014 19.9641 36.1337 19.6875 35.4375 19.6875Z" fill="#0FB8AE"/>
<path d="M14.4375 7.875V14.4375H7.875V7.875H14.4375ZM14.4375 5.25H7.875C7.17881 5.25 6.51113 5.52656 6.01884 6.01884C5.52656 6.51113 5.25 7.17881 5.25 7.875V14.4375C5.25 15.1337 5.52656 15.8014 6.01884 16.2937C6.51113 16.7859 7.17881 17.0625 7.875 17.0625H14.4375C15.1337 17.0625 15.8014 16.7859 16.2937 16.2937C16.7859 15.8014 17.0625 15.1337 17.0625 14.4375V7.875C17.0625 7.17881 16.7859 6.51113 16.2937 6.01884C15.8014 5.52656 15.1337 5.25 14.4375 5.25Z" fill="#0FB8AE"/>
</svg>
