<svg width="31" height="36" viewBox="0 0 31 36" fill="none" xmlns="http://www.w3.org/2000/svg">
<path d="M19.6452 7.17806C18.2469 6.40022 16.6655 6.0032 15.062 6.02741C13.4478 6.0051 11.8558 6.4018 10.4443 7.17806C9.08962 7.91685 7.96656 9.01113 7.19845 10.3408C6.42898 11.7215 6.02539 13.2729 6.02539 14.85C6.02539 16.4272 6.42898 17.9786 7.19845 19.3593C7.96545 20.6906 9.08872 21.7862 10.4443 22.5251C11.8566 23.299 13.4482 23.6945 15.062 23.6727C16.6651 23.6966 18.2461 23.3008 19.6452 22.5251C20.9858 21.777 22.0966 20.683 22.8597 19.3593C23.6292 17.9786 24.0327 16.4272 24.0327 14.85C24.0327 13.2729 23.6292 11.7215 22.8597 10.3408C22.0956 9.01874 20.9849 7.92594 19.6452 7.17806Z" fill="#0FB8AE"/>
<path d="M4.39395 4.46307C1.58047 7.25175 0 11.0331 0 14.9759C0 18.9187 1.58047 22.7 4.39395 25.4887L15.0042 36L25.6146 25.4887C27.0317 24.1133 28.1594 22.4733 28.9327 20.6634C29.7059 18.8535 30.1093 16.9097 30.1195 14.9443C30.1296 12.979 29.7464 11.0312 28.9919 9.21357C28.2374 7.39592 27.1267 5.74449 25.7239 4.35478C24.3211 2.96508 22.6541 1.86468 20.8193 1.11724C18.9845 0.369788 17.0184 -0.00987515 15.0345 0.000195204C13.0507 0.0102656 11.0886 0.409871 9.26163 1.17591C7.43468 1.94194 5.77916 3.0592 4.39081 4.46307H4.39395ZM27.3442 14.8655C27.3798 16.975 26.8374 19.0547 25.7746 20.883C24.7267 22.6565 23.2062 24.1101 21.3798 25.0844C19.4308 26.0858 17.2673 26.6085 15.0717 26.6085C12.8762 26.6085 10.7127 26.0858 8.76363 25.0844C6.92863 24.1059 5.39984 22.6473 4.34374 20.8675C3.29238 19.0386 2.73953 16.9702 2.73953 14.8655C2.73953 12.7608 3.29238 10.6924 4.34374 8.86351C5.40092 7.08536 6.92951 5.62802 8.76363 4.64966C10.7127 3.64832 12.8762 3.12564 15.0717 3.12564C17.2673 3.12564 19.4308 3.64832 21.3798 4.64966C23.2051 5.62419 24.7252 7.07638 25.7746 8.84795C26.8371 10.6764 27.3795 12.756 27.3442 14.8655Z" fill="#0FB8AE"/>
</svg>
