<svg width="12" height="14" viewBox="0 0 12 14" fill="none" xmlns="http://www.w3.org/2000/svg">
<g clip-path="url(#clip0)">
<path d="M7.61472 2.78231C7.07276 2.48084 6.45985 2.32696 5.83837 2.33634C5.21272 2.32769 4.5957 2.48145 4.04864 2.78231C3.52358 3.06865 3.0883 3.49278 2.79059 4.00812C2.49236 4.54326 2.33594 5.14456 2.33594 5.75583C2.33594 6.36711 2.49236 6.96841 2.79059 7.50354C3.08787 8.01952 3.52323 8.44414 4.04864 8.73056C4.59602 9.03048 5.2129 9.18378 5.83837 9.17532C6.45969 9.18461 7.07247 9.03118 7.61472 8.73056C8.13431 8.4406 8.56486 8.01657 8.8606 7.50354C9.15883 6.96841 9.31525 6.36711 9.31525 5.75583C9.31525 5.14456 9.15883 4.54326 8.8606 4.00812C8.56444 3.49572 8.13397 3.07218 7.61472 2.78231Z" fill="#0FB8AE"/>
<path d="M1.70302 1.7298C0.612563 2.81064 0 4.27624 0 5.80438C0 7.33252 0.612563 8.79811 1.70302 9.87896L5.81537 13.9529L9.92773 9.87896C10.477 9.34588 10.9141 8.71023 11.2138 8.00874C11.5135 7.30726 11.6698 6.55387 11.6738 5.79215C11.6777 5.03044 11.5292 4.2755 11.2367 3.57101C10.9443 2.86652 10.5138 2.22646 9.9701 1.68783C9.4264 1.14921 8.78031 0.722717 8.06918 0.43302C7.35805 0.143323 6.596 -0.00382743 5.82711 7.56576e-05C5.05822 0.00397874 4.29773 0.158858 3.58964 0.455759C2.88155 0.75266 2.2399 1.18569 1.7018 1.7298H1.70302ZM10.5981 5.76159C10.6119 6.57921 10.4017 7.38523 9.98978 8.09388C9.58362 8.78126 8.99431 9.34463 8.28643 9.72227C7.531 10.1104 6.6925 10.3129 5.84153 10.3129C4.99056 10.3129 4.15205 10.1104 3.39662 9.72227C2.68541 9.34299 2.09288 8.77767 1.68355 8.08786C1.27607 7.37901 1.06179 6.57732 1.06179 5.76159C1.06179 4.94586 1.27607 4.14417 1.68355 3.43533C2.0933 2.74615 2.68575 2.18132 3.39662 1.80212C4.15205 1.41402 4.99056 1.21144 5.84153 1.21144C6.6925 1.21144 7.531 1.41402 8.28643 1.80212C8.99386 2.17983 9.58304 2.74268 9.98978 3.4293C10.4016 4.13799 10.6118 4.94399 10.5981 5.76159Z" fill="#0FB8AE"/>
</g>
<defs>
<clipPath id="clip0">
<rect width="12" height="14" fill="white"/>
</clipPath>
</defs>
</svg>
