<svg width="11" height="13" viewBox="0 0 11 13" fill="none" xmlns="http://www.w3.org/2000/svg">
<g clip-path="url(#clip0)">
<path d="M6.96308 2.54386C6.46757 2.26822 5.90719 2.12753 5.33897 2.13611C4.76695 2.12821 4.20281 2.26878 3.70263 2.54386C3.22257 2.80566 2.8246 3.19343 2.55241 3.66461C2.27973 4.15388 2.13672 4.70365 2.13672 5.26253C2.13672 5.82142 2.27973 6.37119 2.55241 6.86046C2.82421 7.33221 3.22225 7.72044 3.70263 7.98231C4.2031 8.25652 4.76711 8.39668 5.33897 8.38895C5.90704 8.39745 6.4673 8.25717 6.96308 7.98231C7.43814 7.7172 7.83179 7.32951 8.10218 6.86046C8.37485 6.37119 8.51787 5.82142 8.51787 5.26253C8.51787 4.70365 8.37485 4.15388 8.10218 3.66461C7.83141 3.19613 7.43782 2.80888 6.96308 2.54386Z" fill="#F9F9F9"/>
<path d="M1.55706 1.58155C0.560063 2.56976 0 3.90974 0 5.30692C0 6.70409 0.560063 8.04407 1.55706 9.03227L5.31696 12.7571L9.07687 9.03227C9.57904 8.54489 9.97868 7.96371 10.2527 7.32235C10.5267 6.68098 10.6696 5.99217 10.6732 5.29573C10.6768 4.5993 10.541 3.90907 10.2737 3.26495C10.0063 2.62084 9.6127 2.03564 9.1156 1.54318C8.6185 1.05072 8.02778 0.660776 7.3776 0.395908C6.72743 0.131039 6.03069 -0.00349939 5.32769 6.91732e-05C4.6247 0.00363774 3.92939 0.145243 3.28199 0.416698C2.63458 0.688153 2.04792 1.08407 1.55594 1.58155H1.55706ZM9.68979 5.26779C9.70241 6.01534 9.51019 6.75228 9.1336 7.40019C8.76225 8.02866 8.22345 8.54374 7.57624 8.88901C6.88555 9.24385 6.11892 9.42907 5.34088 9.42907C4.56284 9.42907 3.7962 9.24385 3.10551 8.88901C2.45525 8.54225 1.91351 8.02537 1.53926 7.39468C1.1667 6.74659 0.970788 6.01361 0.970788 5.26779C0.970788 4.52197 1.1667 3.78899 1.53926 3.1409C1.91389 2.51079 2.45557 1.99437 3.10551 1.64767C3.7962 1.29283 4.56284 1.10761 5.34088 1.10761C6.11892 1.10761 6.88555 1.29283 7.57624 1.64767C8.22303 1.99301 8.76172 2.50761 9.1336 3.13539C9.51009 3.78334 9.7023 4.52026 9.68979 5.26779Z" fill="#F9F9F9"/>
</g>
<defs>
<clipPath id="clip0">
<rect width="11" height="13" fill="white"/>
</clipPath>
</defs>
</svg>
